G04 #@! TF.GenerationSoftware,KiCad,Pcbnew,7.0.8*
G04 #@! TF.CreationDate,2024-02-28T21:30:22+09:00*
G04 #@! TF.ProjectId,KT0913_Digital_Radio,4b543039-3133-45f4-9469-676974616c5f,rev?*
G04 #@! TF.SameCoordinates,Original*
G04 #@! TF.FileFunction,Paste,Bot*
G04 #@! TF.FilePolarity,Positive*
%FSLAX46Y46*%
G04 Gerber Fmt 4.6, Leading zero omitted, Abs format (unit mm)*
G04 Created by KiCad (PCBNEW 7.0.8) date 2024-02-28 21:30:22*
%MOMM*%
%LPD*%
G01*
G04 APERTURE LIST*
G04 Aperture macros list*
%AMRoundRect*
0 Rectangle with rounded corners*
0 $1 Rounding radius*
0 $2 $3 $4 $5 $6 $7 $8 $9 X,Y pos of 4 corners*
0 Add a 4 corners polygon primitive as box body*
4,1,4,$2,$3,$4,$5,$6,$7,$8,$9,$2,$3,0*
0 Add four circle primitives for the rounded corners*
1,1,$1+$1,$2,$3*
1,1,$1+$1,$4,$5*
1,1,$1+$1,$6,$7*
1,1,$1+$1,$8,$9*
0 Add four rect primitives between the rounded corners*
20,1,$1+$1,$2,$3,$4,$5,0*
20,1,$1+$1,$4,$5,$6,$7,0*
20,1,$1+$1,$6,$7,$8,$9,0*
20,1,$1+$1,$8,$9,$2,$3,0*%
%AMOutline4P*
0 Free polygon, 4 corners , with rotation*
0 The origin of the aperture is its center*
0 number of corners: always 4*
0 $1 to $8 corner X, Y*
0 $9 Rotation angle, in degrees counterclockwise*
0 create outline with 4 corners*
4,1,4,$1,$2,$3,$4,$5,$6,$7,$8,$1,$2,$9*%
G04 Aperture macros list end*
%ADD10RoundRect,0.230000X0.230000X-0.570000X0.230000X0.570000X-0.230000X0.570000X-0.230000X-0.570000X0*%
%ADD11RoundRect,0.230000X0.570000X0.230000X-0.570000X0.230000X-0.570000X-0.230000X0.570000X-0.230000X0*%
%ADD12RoundRect,0.230000X-0.570000X-0.230000X0.570000X-0.230000X0.570000X0.230000X-0.570000X0.230000X0*%
%ADD13RoundRect,0.200000X-0.200000X0.650000X-0.200000X-0.650000X0.200000X-0.650000X0.200000X0.650000X0*%
%ADD14RoundRect,0.230000X-0.230000X0.570000X-0.230000X-0.570000X0.230000X-0.570000X0.230000X0.570000X0*%
%ADD15R,0.600000X1.800000*%
%ADD16RoundRect,0.150000X-0.150000X0.750000X-0.150000X-0.750000X0.150000X-0.750000X0.150000X0.750000X0*%
%ADD17RoundRect,0.100000X-0.100000X0.700000X-0.100000X-0.700000X0.100000X-0.700000X0.100000X0.700000X0*%
%ADD18RoundRect,0.400000X-0.400000X0.600000X-0.400000X-0.600000X0.400000X-0.600000X0.400000X0.600000X0*%
%ADD19RoundRect,0.162500X0.712500X0.162500X-0.712500X0.162500X-0.712500X-0.162500X0.712500X-0.162500X0*%
%ADD20RoundRect,0.162500X-0.162500X0.712500X-0.162500X-0.712500X0.162500X-0.712500X0.162500X0.712500X0*%
%ADD21RoundRect,0.270000X0.180000X0.980000X-0.180000X0.980000X-0.180000X-0.980000X0.180000X-0.980000X0*%
%ADD22RoundRect,0.225000X0.225000X1.475000X-0.225000X1.475000X-0.225000X-1.475000X0.225000X-1.475000X0*%
%ADD23RoundRect,0.270000X-0.730000X-0.030000X0.730000X-0.030000X0.730000X0.030000X-0.730000X0.030000X0*%
%ADD24R,2.000000X1.850000*%
%ADD25Outline4P,-0.500000X-0.500000X0.500000X-0.500000X1.000000X0.500000X-1.000000X0.500000X180.000000*%
%ADD26RoundRect,0.250000X0.250000X1.150000X-0.250000X1.150000X-0.250000X-1.150000X0.250000X-1.150000X0*%
G04 APERTURE END LIST*
D10*
X112500000Y-88700000D03*
X112500000Y-86300000D03*
D11*
X139200000Y-64000000D03*
X136800000Y-64000000D03*
D12*
X117800000Y-77500000D03*
X120200000Y-77500000D03*
D11*
X139200000Y-69000000D03*
X136800000Y-69000000D03*
D12*
X121800000Y-96500000D03*
X124200000Y-96500000D03*
D13*
X106000000Y-99600000D03*
X106000000Y-102400000D03*
D14*
X124000000Y-60800000D03*
X124000000Y-63200000D03*
D15*
X132095000Y-100700000D03*
D16*
X133365000Y-100700000D03*
X134635000Y-100700000D03*
X135905000Y-100700000D03*
X135905000Y-107300000D03*
X134635000Y-107300000D03*
X133365000Y-107300000D03*
X132095000Y-107300000D03*
D17*
X127777500Y-60200000D03*
X128412500Y-60200000D03*
X129047500Y-60200000D03*
X129682500Y-60200000D03*
X130317500Y-60200000D03*
X130952500Y-60200000D03*
X131587500Y-60200000D03*
X132222500Y-60200000D03*
X132222500Y-65800000D03*
X131587500Y-65800000D03*
X130952500Y-65800000D03*
X130317500Y-65800000D03*
X129682500Y-65800000D03*
X129047500Y-65800000D03*
X128412500Y-65800000D03*
X127777500Y-65800000D03*
D14*
X116500000Y-105800000D03*
X116500000Y-108200000D03*
D11*
X139200000Y-71000000D03*
X136800000Y-71000000D03*
D14*
X118500000Y-105800000D03*
X118500000Y-108200000D03*
D10*
X121000000Y-108200000D03*
X121000000Y-105800000D03*
D11*
X131700000Y-96000000D03*
X129300000Y-96000000D03*
D10*
X131500000Y-90200000D03*
X131500000Y-87800000D03*
D18*
X112500000Y-91400000D03*
X112500000Y-96600000D03*
D10*
X129500000Y-90200000D03*
X129500000Y-87800000D03*
D14*
X127500000Y-105800000D03*
X127500000Y-108200000D03*
D11*
X139200000Y-67000000D03*
X136800000Y-67000000D03*
X131700000Y-98000000D03*
X129300000Y-98000000D03*
D10*
X123000000Y-108200000D03*
X123000000Y-105800000D03*
D19*
X110450000Y-72550000D03*
X110450000Y-74450000D03*
X107550000Y-73500000D03*
D14*
X141000000Y-104800000D03*
X141000000Y-107200000D03*
D20*
X103550000Y-108550000D03*
X105450000Y-108550000D03*
X104500000Y-111450000D03*
D12*
X121800000Y-101000000D03*
X124200000Y-101000000D03*
D11*
X120200000Y-75500000D03*
X117800000Y-75500000D03*
D21*
X114000000Y-105350000D03*
D22*
X112500000Y-104900000D03*
D23*
X112500000Y-103400000D03*
D24*
X112500000Y-102575000D03*
D25*
X112500000Y-101150000D03*
D26*
X112500000Y-100800000D03*
D21*
X111000000Y-105350000D03*
D14*
X125000000Y-105800000D03*
X125000000Y-108200000D03*
D12*
X121800000Y-94500000D03*
X124200000Y-94500000D03*
M02*
