M48
; DRILL file {KiCad 7.0.8} date Wed Feb 28 21:30:26 2024
; FORMAT={-:-/ absolute / metric / decimal}
; #@! TF.CreationDate,2024-02-28T21:30:26+09:00
; #@! TF.GenerationSoftware,Kicad,Pcbnew,7.0.8
; #@! TF.FileFunction,MixedPlating,1,2
FMAT,2
METRIC
; #@! TA.AperFunction,Plated,PTH,ViaDrill
T1C0.300
; #@! TA.AperFunction,Plated,PTH,ViaDrill
T2C0.400
; #@! TA.AperFunction,Plated,PTH,ComponentDrill
T3C0.600
; #@! TA.AperFunction,Plated,PTH,ComponentDrill
T4C0.700
; #@! TA.AperFunction,Plated,PTH,ComponentDrill
T5C0.800
; #@! TA.AperFunction,Plated,PTH,ComponentDrill
T6C0.950
; #@! TA.AperFunction,Plated,PTH,ComponentDrill
T7C1.000
; #@! TA.AperFunction,Plated,PTH,ComponentDrill
T8C1.200
; #@! TA.AperFunction,Plated,PTH,ComponentDrill
T9C2.400
; #@! TA.AperFunction,Plated,PTH,ComponentDrill
T10C3.300
; #@! TA.AperFunction,NonPlated,NPTH,ComponentDrill
T11C0.800
; #@! TA.AperFunction,NonPlated,NPTH,ComponentDrill
T12C1.800
%
G90
G05
T1
X105.0Y-65.0
X108.0Y-110.0
X112.11Y-72.55
X112.5Y-103.1
X114.15Y-96.58
X116.0Y-110.0
X116.84Y-72.56
X118.0Y-94.1
X121.8Y-60.79
X122.42Y-62.86
X125.0Y-72.7
X129.02Y-58.03
X129.69Y-64.41
X129.7Y-58.679
X129.7Y-61.5
X130.02Y-69.0
X130.31Y-67.3
X130.62Y-68.22
X131.9Y-78.0
X133.2Y-77.05
X133.35Y-99.25
X134.65Y-99.25
X135.0Y-89.0
X140.0Y-60.0
X141.0Y-96.4
X143.0Y-89.0
T2
X110.45Y-88.25
X119.68Y-105.48
X128.44Y-108.2
X134.3Y-109.3
T3
X130.0Y-54.0
X130.0Y-56.0
T4
X106.0Y-85.0
X106.0Y-93.0
X112.5Y-53.5
X115.0Y-55.5
X120.0Y-55.5
X120.5Y-53.5
X123.0Y-53.5
X123.0Y-55.5
X128.0Y-53.5
X128.0Y-55.5
X130.0Y-52.0
X138.0Y-52.0
X141.0Y-102.0
X141.0Y-110.0
X143.5Y-102.0
X143.5Y-110.0
T5
X108.69Y-85.38
X108.69Y-87.92
X108.69Y-90.46
X108.69Y-93.0
X108.69Y-95.54
X108.69Y-98.08
X108.69Y-100.62
X116.31Y-85.38
X116.31Y-87.92
X116.31Y-90.46
X116.31Y-93.0
X116.31Y-95.54
X116.31Y-98.08
X116.31Y-100.62
T6
X129.0Y-84.5
X129.0Y-93.5
X132.06Y-84.5
X132.06Y-93.5
T7
X101.5Y-87.0
X101.5Y-89.5
X101.5Y-92.65
X101.5Y-95.19
X101.5Y-97.73
X101.5Y-100.27
X101.5Y-102.81
X101.5Y-105.35
X103.5Y-84.5
X109.0Y-52.0
X112.84Y-81.5
X115.38Y-81.5
X117.92Y-81.5
X119.5Y-118.7
X120.46Y-81.5
X123.0Y-81.5
X125.54Y-81.5
X126.5Y-118.7
X128.08Y-81.5
X130.62Y-81.5
X133.16Y-81.5
X139.5Y-99.0
X142.0Y-99.0
X144.5Y-99.0
T8
X106.0Y-95.5
X106.0Y-105.5
X109.46Y-115.936
X114.54Y-115.936
X119.75Y-86.75
X119.75Y-91.25
X119.75Y-98.75
X119.75Y-103.25
X119.75Y-110.75
X119.75Y-115.25
X126.25Y-86.75
X126.25Y-91.25
X126.25Y-98.75
X126.25Y-103.25
X126.25Y-110.75
X126.25Y-115.25
X131.46Y-115.936
X136.54Y-115.936
T10
X103.0Y-53.0
X103.0Y-117.0
X143.0Y-53.0
X143.0Y-117.0
T11
X111.6Y-94.0
X113.4Y-94.0
T12
X101.9Y-79.7
X144.1Y-79.7
T7
G00X104.4Y-78.9
M15
G01X106.0Y-78.9
M16
G05
G00X135.45Y-85.85
M15
G01X135.45Y-86.85
M16
G05
G00X135.45Y-95.15
M15
G01X135.45Y-94.15
M16
G05
G00X140.0Y-78.9
M15
G01X141.6Y-78.9
M16
G05
G00X142.7Y-85.95
M15
G01X143.7Y-85.95
M16
G05
G00X143.7Y-95.05
M15
G01X142.7Y-95.05
M16
G05
T8
G00X138.85Y-85.28
M15
G01X138.05Y-85.28
M16
G05
G00X138.05Y-95.72
M15
G01X138.85Y-95.72
M16
G05
G00X140.4Y-87.73
M15
G01X139.6Y-87.73
M16
G05
G00X139.6Y-93.27
M15
G01X140.4Y-93.27
M16
G05
G00X146.6Y-90.2
M15
G01X146.6Y-90.8
M16
G05
G00X146.6Y-90.8
M15
G01X146.6Y-90.2
M16
G05
T9
G00X134.7Y-104.0
M15
G01X133.3Y-104.0
M16
G05
T0
M30
