G04 #@! TF.GenerationSoftware,KiCad,Pcbnew,7.0.8*
G04 #@! TF.CreationDate,2024-02-28T21:30:22+09:00*
G04 #@! TF.ProjectId,KT0913_Digital_Radio,4b543039-3133-45f4-9469-676974616c5f,rev?*
G04 #@! TF.SameCoordinates,Original*
G04 #@! TF.FileFunction,Legend,Bot*
G04 #@! TF.FilePolarity,Positive*
%FSLAX46Y46*%
G04 Gerber Fmt 4.6, Leading zero omitted, Abs format (unit mm)*
G04 Created by KiCad (PCBNEW 7.0.8) date 2024-02-28 21:30:22*
%MOMM*%
%LPD*%
G01*
G04 APERTURE LIST*
%ADD10C,0.250000*%
%ADD11C,0.150000*%
%ADD12C,0.200000*%
%ADD13C,0.120000*%
%ADD14C,0.140000*%
%ADD15C,0.170000*%
%ADD16C,0.300000*%
%ADD17C,0.100000*%
%ADD18C,0.050000*%
%ADD19C,0.010000*%
%ADD20C,0.254000*%
G04 APERTURE END LIST*
D10*
X133200000Y-109500000D02*
X131200000Y-109500000D01*
D11*
X133500000Y-109500000D02*
G75*
G03*
X133500000Y-109500000I-1300000J0D01*
G01*
X137500000Y-109500000D02*
G75*
G03*
X137500000Y-109500000I-1300000J0D01*
G01*
D10*
X137200000Y-109500000D02*
X135200000Y-109500000D01*
X136200000Y-108500000D02*
X136200000Y-110500000D01*
D11*
X145333458Y-99994819D02*
X145181077Y-99994819D01*
X145181077Y-99994819D02*
X145104887Y-100042438D01*
X145104887Y-100042438D02*
X145028696Y-100137676D01*
X145028696Y-100137676D02*
X144990601Y-100328152D01*
X144990601Y-100328152D02*
X144990601Y-100661485D01*
X144990601Y-100661485D02*
X145028696Y-100851961D01*
X145028696Y-100851961D02*
X145104887Y-100947200D01*
X145104887Y-100947200D02*
X145181077Y-100994819D01*
X145181077Y-100994819D02*
X145333458Y-100994819D01*
X145333458Y-100994819D02*
X145409649Y-100947200D01*
X145409649Y-100947200D02*
X145485839Y-100851961D01*
X145485839Y-100851961D02*
X145523935Y-100661485D01*
X145523935Y-100661485D02*
X145523935Y-100328152D01*
X145523935Y-100328152D02*
X145485839Y-100137676D01*
X145485839Y-100137676D02*
X145409649Y-100042438D01*
X145409649Y-100042438D02*
X145333458Y-99994819D01*
X144381078Y-100471009D02*
X144647744Y-100471009D01*
X144647744Y-100994819D02*
X144647744Y-99994819D01*
X144647744Y-99994819D02*
X144266792Y-99994819D01*
X143695364Y-100471009D02*
X143962030Y-100471009D01*
X143962030Y-100994819D02*
X143962030Y-99994819D01*
X143962030Y-99994819D02*
X143581078Y-99994819D01*
X142704888Y-99947200D02*
X143390602Y-101232914D01*
X142438221Y-100471009D02*
X142171555Y-100471009D01*
X142057269Y-100994819D02*
X142438221Y-100994819D01*
X142438221Y-100994819D02*
X142438221Y-99994819D01*
X142438221Y-99994819D02*
X142057269Y-99994819D01*
X141371554Y-100994819D02*
X141371554Y-100471009D01*
X141371554Y-100471009D02*
X141409649Y-100375771D01*
X141409649Y-100375771D02*
X141485840Y-100328152D01*
X141485840Y-100328152D02*
X141638221Y-100328152D01*
X141638221Y-100328152D02*
X141714411Y-100375771D01*
X141371554Y-100947200D02*
X141447745Y-100994819D01*
X141447745Y-100994819D02*
X141638221Y-100994819D01*
X141638221Y-100994819D02*
X141714411Y-100947200D01*
X141714411Y-100947200D02*
X141752507Y-100851961D01*
X141752507Y-100851961D02*
X141752507Y-100756723D01*
X141752507Y-100756723D02*
X141714411Y-100661485D01*
X141714411Y-100661485D02*
X141638221Y-100613866D01*
X141638221Y-100613866D02*
X141447745Y-100613866D01*
X141447745Y-100613866D02*
X141371554Y-100566247D01*
X140990601Y-100994819D02*
X140990601Y-100328152D01*
X140990601Y-100518628D02*
X140952506Y-100423390D01*
X140952506Y-100423390D02*
X140914411Y-100375771D01*
X140914411Y-100375771D02*
X140838220Y-100328152D01*
X140838220Y-100328152D02*
X140762030Y-100328152D01*
X140495363Y-100994819D02*
X140495363Y-99994819D01*
X140495363Y-99994819D02*
X140190601Y-99994819D01*
X140190601Y-99994819D02*
X140114411Y-100042438D01*
X140114411Y-100042438D02*
X140076316Y-100090057D01*
X140076316Y-100090057D02*
X140038220Y-100185295D01*
X140038220Y-100185295D02*
X140038220Y-100328152D01*
X140038220Y-100328152D02*
X140076316Y-100423390D01*
X140076316Y-100423390D02*
X140114411Y-100471009D01*
X140114411Y-100471009D02*
X140190601Y-100518628D01*
X140190601Y-100518628D02*
X140495363Y-100518628D01*
X139695363Y-100994819D02*
X139695363Y-99994819D01*
X139352506Y-100994819D02*
X139352506Y-100471009D01*
X139352506Y-100471009D02*
X139390601Y-100375771D01*
X139390601Y-100375771D02*
X139466792Y-100328152D01*
X139466792Y-100328152D02*
X139581078Y-100328152D01*
X139581078Y-100328152D02*
X139657268Y-100375771D01*
X139657268Y-100375771D02*
X139695363Y-100423390D01*
X138857268Y-100994819D02*
X138933458Y-100947200D01*
X138933458Y-100947200D02*
X138971553Y-100899580D01*
X138971553Y-100899580D02*
X139009649Y-100804342D01*
X139009649Y-100804342D02*
X139009649Y-100518628D01*
X139009649Y-100518628D02*
X138971553Y-100423390D01*
X138971553Y-100423390D02*
X138933458Y-100375771D01*
X138933458Y-100375771D02*
X138857268Y-100328152D01*
X138857268Y-100328152D02*
X138742982Y-100328152D01*
X138742982Y-100328152D02*
X138666791Y-100375771D01*
X138666791Y-100375771D02*
X138628696Y-100423390D01*
X138628696Y-100423390D02*
X138590601Y-100518628D01*
X138590601Y-100518628D02*
X138590601Y-100804342D01*
X138590601Y-100804342D02*
X138628696Y-100899580D01*
X138628696Y-100899580D02*
X138666791Y-100947200D01*
X138666791Y-100947200D02*
X138742982Y-100994819D01*
X138742982Y-100994819D02*
X138857268Y-100994819D01*
X138247743Y-100328152D02*
X138247743Y-100994819D01*
X138247743Y-100423390D02*
X138209648Y-100375771D01*
X138209648Y-100375771D02*
X138133458Y-100328152D01*
X138133458Y-100328152D02*
X138019172Y-100328152D01*
X138019172Y-100328152D02*
X137942981Y-100375771D01*
X137942981Y-100375771D02*
X137904886Y-100471009D01*
X137904886Y-100471009D02*
X137904886Y-100994819D01*
X137219171Y-100947200D02*
X137295362Y-100994819D01*
X137295362Y-100994819D02*
X137447743Y-100994819D01*
X137447743Y-100994819D02*
X137523933Y-100947200D01*
X137523933Y-100947200D02*
X137562029Y-100851961D01*
X137562029Y-100851961D02*
X137562029Y-100471009D01*
X137562029Y-100471009D02*
X137523933Y-100375771D01*
X137523933Y-100375771D02*
X137447743Y-100328152D01*
X137447743Y-100328152D02*
X137295362Y-100328152D01*
X137295362Y-100328152D02*
X137219171Y-100375771D01*
X137219171Y-100375771D02*
X137181076Y-100471009D01*
X137181076Y-100471009D02*
X137181076Y-100566247D01*
X137181076Y-100566247D02*
X137562029Y-100661485D01*
X124413220Y-67763342D02*
X124413220Y-66563342D01*
X123841792Y-67763342D02*
X124270363Y-67077628D01*
X123841792Y-66563342D02*
X124413220Y-67249057D01*
X123556077Y-66563342D02*
X122984649Y-66563342D01*
X123270363Y-67763342D02*
X123270363Y-66563342D01*
X122460839Y-66563342D02*
X122365601Y-66563342D01*
X122365601Y-66563342D02*
X122270363Y-66620485D01*
X122270363Y-66620485D02*
X122222744Y-66677628D01*
X122222744Y-66677628D02*
X122175125Y-66791914D01*
X122175125Y-66791914D02*
X122127506Y-67020485D01*
X122127506Y-67020485D02*
X122127506Y-67306200D01*
X122127506Y-67306200D02*
X122175125Y-67534771D01*
X122175125Y-67534771D02*
X122222744Y-67649057D01*
X122222744Y-67649057D02*
X122270363Y-67706200D01*
X122270363Y-67706200D02*
X122365601Y-67763342D01*
X122365601Y-67763342D02*
X122460839Y-67763342D01*
X122460839Y-67763342D02*
X122556077Y-67706200D01*
X122556077Y-67706200D02*
X122603696Y-67649057D01*
X122603696Y-67649057D02*
X122651315Y-67534771D01*
X122651315Y-67534771D02*
X122698934Y-67306200D01*
X122698934Y-67306200D02*
X122698934Y-67020485D01*
X122698934Y-67020485D02*
X122651315Y-66791914D01*
X122651315Y-66791914D02*
X122603696Y-66677628D01*
X122603696Y-66677628D02*
X122556077Y-66620485D01*
X122556077Y-66620485D02*
X122460839Y-66563342D01*
X121651315Y-67763342D02*
X121460839Y-67763342D01*
X121460839Y-67763342D02*
X121365601Y-67706200D01*
X121365601Y-67706200D02*
X121317982Y-67649057D01*
X121317982Y-67649057D02*
X121222744Y-67477628D01*
X121222744Y-67477628D02*
X121175125Y-67249057D01*
X121175125Y-67249057D02*
X121175125Y-66791914D01*
X121175125Y-66791914D02*
X121222744Y-66677628D01*
X121222744Y-66677628D02*
X121270363Y-66620485D01*
X121270363Y-66620485D02*
X121365601Y-66563342D01*
X121365601Y-66563342D02*
X121556077Y-66563342D01*
X121556077Y-66563342D02*
X121651315Y-66620485D01*
X121651315Y-66620485D02*
X121698934Y-66677628D01*
X121698934Y-66677628D02*
X121746553Y-66791914D01*
X121746553Y-66791914D02*
X121746553Y-67077628D01*
X121746553Y-67077628D02*
X121698934Y-67191914D01*
X121698934Y-67191914D02*
X121651315Y-67249057D01*
X121651315Y-67249057D02*
X121556077Y-67306200D01*
X121556077Y-67306200D02*
X121365601Y-67306200D01*
X121365601Y-67306200D02*
X121270363Y-67249057D01*
X121270363Y-67249057D02*
X121222744Y-67191914D01*
X121222744Y-67191914D02*
X121175125Y-67077628D01*
X120222744Y-67763342D02*
X120794172Y-67763342D01*
X120508458Y-67763342D02*
X120508458Y-66563342D01*
X120508458Y-66563342D02*
X120603696Y-66734771D01*
X120603696Y-66734771D02*
X120698934Y-66849057D01*
X120698934Y-66849057D02*
X120794172Y-66906200D01*
X119889410Y-66563342D02*
X119270363Y-66563342D01*
X119270363Y-66563342D02*
X119603696Y-67020485D01*
X119603696Y-67020485D02*
X119460839Y-67020485D01*
X119460839Y-67020485D02*
X119365601Y-67077628D01*
X119365601Y-67077628D02*
X119317982Y-67134771D01*
X119317982Y-67134771D02*
X119270363Y-67249057D01*
X119270363Y-67249057D02*
X119270363Y-67534771D01*
X119270363Y-67534771D02*
X119317982Y-67649057D01*
X119317982Y-67649057D02*
X119365601Y-67706200D01*
X119365601Y-67706200D02*
X119460839Y-67763342D01*
X119460839Y-67763342D02*
X119746553Y-67763342D01*
X119746553Y-67763342D02*
X119841791Y-67706200D01*
X119841791Y-67706200D02*
X119889410Y-67649057D01*
X119079887Y-67877628D02*
X118317982Y-67877628D01*
X118079886Y-67763342D02*
X118079886Y-66563342D01*
X118079886Y-66563342D02*
X117841791Y-66563342D01*
X117841791Y-66563342D02*
X117698934Y-66620485D01*
X117698934Y-66620485D02*
X117603696Y-66734771D01*
X117603696Y-66734771D02*
X117556077Y-66849057D01*
X117556077Y-66849057D02*
X117508458Y-67077628D01*
X117508458Y-67077628D02*
X117508458Y-67249057D01*
X117508458Y-67249057D02*
X117556077Y-67477628D01*
X117556077Y-67477628D02*
X117603696Y-67591914D01*
X117603696Y-67591914D02*
X117698934Y-67706200D01*
X117698934Y-67706200D02*
X117841791Y-67763342D01*
X117841791Y-67763342D02*
X118079886Y-67763342D01*
X117079886Y-67763342D02*
X117079886Y-66963342D01*
X117079886Y-66563342D02*
X117127505Y-66620485D01*
X117127505Y-66620485D02*
X117079886Y-66677628D01*
X117079886Y-66677628D02*
X117032267Y-66620485D01*
X117032267Y-66620485D02*
X117079886Y-66563342D01*
X117079886Y-66563342D02*
X117079886Y-66677628D01*
X116175125Y-66963342D02*
X116175125Y-67934771D01*
X116175125Y-67934771D02*
X116222744Y-68049057D01*
X116222744Y-68049057D02*
X116270363Y-68106200D01*
X116270363Y-68106200D02*
X116365601Y-68163342D01*
X116365601Y-68163342D02*
X116508458Y-68163342D01*
X116508458Y-68163342D02*
X116603696Y-68106200D01*
X116175125Y-67706200D02*
X116270363Y-67763342D01*
X116270363Y-67763342D02*
X116460839Y-67763342D01*
X116460839Y-67763342D02*
X116556077Y-67706200D01*
X116556077Y-67706200D02*
X116603696Y-67649057D01*
X116603696Y-67649057D02*
X116651315Y-67534771D01*
X116651315Y-67534771D02*
X116651315Y-67191914D01*
X116651315Y-67191914D02*
X116603696Y-67077628D01*
X116603696Y-67077628D02*
X116556077Y-67020485D01*
X116556077Y-67020485D02*
X116460839Y-66963342D01*
X116460839Y-66963342D02*
X116270363Y-66963342D01*
X116270363Y-66963342D02*
X116175125Y-67020485D01*
X115698934Y-67763342D02*
X115698934Y-66963342D01*
X115698934Y-66563342D02*
X115746553Y-66620485D01*
X115746553Y-66620485D02*
X115698934Y-66677628D01*
X115698934Y-66677628D02*
X115651315Y-66620485D01*
X115651315Y-66620485D02*
X115698934Y-66563342D01*
X115698934Y-66563342D02*
X115698934Y-66677628D01*
X115365601Y-66963342D02*
X114984649Y-66963342D01*
X115222744Y-66563342D02*
X115222744Y-67591914D01*
X115222744Y-67591914D02*
X115175125Y-67706200D01*
X115175125Y-67706200D02*
X115079887Y-67763342D01*
X115079887Y-67763342D02*
X114984649Y-67763342D01*
X114222744Y-67763342D02*
X114222744Y-67134771D01*
X114222744Y-67134771D02*
X114270363Y-67020485D01*
X114270363Y-67020485D02*
X114365601Y-66963342D01*
X114365601Y-66963342D02*
X114556077Y-66963342D01*
X114556077Y-66963342D02*
X114651315Y-67020485D01*
X114222744Y-67706200D02*
X114317982Y-67763342D01*
X114317982Y-67763342D02*
X114556077Y-67763342D01*
X114556077Y-67763342D02*
X114651315Y-67706200D01*
X114651315Y-67706200D02*
X114698934Y-67591914D01*
X114698934Y-67591914D02*
X114698934Y-67477628D01*
X114698934Y-67477628D02*
X114651315Y-67363342D01*
X114651315Y-67363342D02*
X114556077Y-67306200D01*
X114556077Y-67306200D02*
X114317982Y-67306200D01*
X114317982Y-67306200D02*
X114222744Y-67249057D01*
X113603696Y-67763342D02*
X113698934Y-67706200D01*
X113698934Y-67706200D02*
X113746553Y-67591914D01*
X113746553Y-67591914D02*
X113746553Y-66563342D01*
X113460839Y-67877628D02*
X112698934Y-67877628D01*
X111889410Y-67763342D02*
X112222743Y-67191914D01*
X112460838Y-67763342D02*
X112460838Y-66563342D01*
X112460838Y-66563342D02*
X112079886Y-66563342D01*
X112079886Y-66563342D02*
X111984648Y-66620485D01*
X111984648Y-66620485D02*
X111937029Y-66677628D01*
X111937029Y-66677628D02*
X111889410Y-66791914D01*
X111889410Y-66791914D02*
X111889410Y-66963342D01*
X111889410Y-66963342D02*
X111937029Y-67077628D01*
X111937029Y-67077628D02*
X111984648Y-67134771D01*
X111984648Y-67134771D02*
X112079886Y-67191914D01*
X112079886Y-67191914D02*
X112460838Y-67191914D01*
X111032267Y-67763342D02*
X111032267Y-67134771D01*
X111032267Y-67134771D02*
X111079886Y-67020485D01*
X111079886Y-67020485D02*
X111175124Y-66963342D01*
X111175124Y-66963342D02*
X111365600Y-66963342D01*
X111365600Y-66963342D02*
X111460838Y-67020485D01*
X111032267Y-67706200D02*
X111127505Y-67763342D01*
X111127505Y-67763342D02*
X111365600Y-67763342D01*
X111365600Y-67763342D02*
X111460838Y-67706200D01*
X111460838Y-67706200D02*
X111508457Y-67591914D01*
X111508457Y-67591914D02*
X111508457Y-67477628D01*
X111508457Y-67477628D02*
X111460838Y-67363342D01*
X111460838Y-67363342D02*
X111365600Y-67306200D01*
X111365600Y-67306200D02*
X111127505Y-67306200D01*
X111127505Y-67306200D02*
X111032267Y-67249057D01*
X110127505Y-67763342D02*
X110127505Y-66563342D01*
X110127505Y-67706200D02*
X110222743Y-67763342D01*
X110222743Y-67763342D02*
X110413219Y-67763342D01*
X110413219Y-67763342D02*
X110508457Y-67706200D01*
X110508457Y-67706200D02*
X110556076Y-67649057D01*
X110556076Y-67649057D02*
X110603695Y-67534771D01*
X110603695Y-67534771D02*
X110603695Y-67191914D01*
X110603695Y-67191914D02*
X110556076Y-67077628D01*
X110556076Y-67077628D02*
X110508457Y-67020485D01*
X110508457Y-67020485D02*
X110413219Y-66963342D01*
X110413219Y-66963342D02*
X110222743Y-66963342D01*
X110222743Y-66963342D02*
X110127505Y-67020485D01*
X109651314Y-67763342D02*
X109651314Y-66963342D01*
X109651314Y-66563342D02*
X109698933Y-66620485D01*
X109698933Y-66620485D02*
X109651314Y-66677628D01*
X109651314Y-66677628D02*
X109603695Y-66620485D01*
X109603695Y-66620485D02*
X109651314Y-66563342D01*
X109651314Y-66563342D02*
X109651314Y-66677628D01*
X109032267Y-67763342D02*
X109127505Y-67706200D01*
X109127505Y-67706200D02*
X109175124Y-67649057D01*
X109175124Y-67649057D02*
X109222743Y-67534771D01*
X109222743Y-67534771D02*
X109222743Y-67191914D01*
X109222743Y-67191914D02*
X109175124Y-67077628D01*
X109175124Y-67077628D02*
X109127505Y-67020485D01*
X109127505Y-67020485D02*
X109032267Y-66963342D01*
X109032267Y-66963342D02*
X108889410Y-66963342D01*
X108889410Y-66963342D02*
X108794172Y-67020485D01*
X108794172Y-67020485D02*
X108746553Y-67077628D01*
X108746553Y-67077628D02*
X108698934Y-67191914D01*
X108698934Y-67191914D02*
X108698934Y-67534771D01*
X108698934Y-67534771D02*
X108746553Y-67649057D01*
X108746553Y-67649057D02*
X108794172Y-67706200D01*
X108794172Y-67706200D02*
X108889410Y-67763342D01*
X108889410Y-67763342D02*
X109032267Y-67763342D01*
X124460839Y-68609628D02*
X124413220Y-68552485D01*
X124413220Y-68552485D02*
X124317982Y-68495342D01*
X124317982Y-68495342D02*
X124079887Y-68495342D01*
X124079887Y-68495342D02*
X123984649Y-68552485D01*
X123984649Y-68552485D02*
X123937030Y-68609628D01*
X123937030Y-68609628D02*
X123889411Y-68723914D01*
X123889411Y-68723914D02*
X123889411Y-68838200D01*
X123889411Y-68838200D02*
X123937030Y-69009628D01*
X123937030Y-69009628D02*
X124508458Y-69695342D01*
X124508458Y-69695342D02*
X123889411Y-69695342D01*
X123270363Y-68495342D02*
X123175125Y-68495342D01*
X123175125Y-68495342D02*
X123079887Y-68552485D01*
X123079887Y-68552485D02*
X123032268Y-68609628D01*
X123032268Y-68609628D02*
X122984649Y-68723914D01*
X122984649Y-68723914D02*
X122937030Y-68952485D01*
X122937030Y-68952485D02*
X122937030Y-69238200D01*
X122937030Y-69238200D02*
X122984649Y-69466771D01*
X122984649Y-69466771D02*
X123032268Y-69581057D01*
X123032268Y-69581057D02*
X123079887Y-69638200D01*
X123079887Y-69638200D02*
X123175125Y-69695342D01*
X123175125Y-69695342D02*
X123270363Y-69695342D01*
X123270363Y-69695342D02*
X123365601Y-69638200D01*
X123365601Y-69638200D02*
X123413220Y-69581057D01*
X123413220Y-69581057D02*
X123460839Y-69466771D01*
X123460839Y-69466771D02*
X123508458Y-69238200D01*
X123508458Y-69238200D02*
X123508458Y-68952485D01*
X123508458Y-68952485D02*
X123460839Y-68723914D01*
X123460839Y-68723914D02*
X123413220Y-68609628D01*
X123413220Y-68609628D02*
X123365601Y-68552485D01*
X123365601Y-68552485D02*
X123270363Y-68495342D01*
X122556077Y-68609628D02*
X122508458Y-68552485D01*
X122508458Y-68552485D02*
X122413220Y-68495342D01*
X122413220Y-68495342D02*
X122175125Y-68495342D01*
X122175125Y-68495342D02*
X122079887Y-68552485D01*
X122079887Y-68552485D02*
X122032268Y-68609628D01*
X122032268Y-68609628D02*
X121984649Y-68723914D01*
X121984649Y-68723914D02*
X121984649Y-68838200D01*
X121984649Y-68838200D02*
X122032268Y-69009628D01*
X122032268Y-69009628D02*
X122603696Y-69695342D01*
X122603696Y-69695342D02*
X121984649Y-69695342D01*
X121127506Y-68895342D02*
X121127506Y-69695342D01*
X121365601Y-68438200D02*
X121603696Y-69295342D01*
X121603696Y-69295342D02*
X120984649Y-69295342D01*
X120413220Y-68495342D02*
X120317982Y-68495342D01*
X120317982Y-68495342D02*
X120222744Y-68552485D01*
X120222744Y-68552485D02*
X120175125Y-68609628D01*
X120175125Y-68609628D02*
X120127506Y-68723914D01*
X120127506Y-68723914D02*
X120079887Y-68952485D01*
X120079887Y-68952485D02*
X120079887Y-69238200D01*
X120079887Y-69238200D02*
X120127506Y-69466771D01*
X120127506Y-69466771D02*
X120175125Y-69581057D01*
X120175125Y-69581057D02*
X120222744Y-69638200D01*
X120222744Y-69638200D02*
X120317982Y-69695342D01*
X120317982Y-69695342D02*
X120413220Y-69695342D01*
X120413220Y-69695342D02*
X120508458Y-69638200D01*
X120508458Y-69638200D02*
X120556077Y-69581057D01*
X120556077Y-69581057D02*
X120603696Y-69466771D01*
X120603696Y-69466771D02*
X120651315Y-69238200D01*
X120651315Y-69238200D02*
X120651315Y-68952485D01*
X120651315Y-68952485D02*
X120603696Y-68723914D01*
X120603696Y-68723914D02*
X120556077Y-68609628D01*
X120556077Y-68609628D02*
X120508458Y-68552485D01*
X120508458Y-68552485D02*
X120413220Y-68495342D01*
X119698934Y-68609628D02*
X119651315Y-68552485D01*
X119651315Y-68552485D02*
X119556077Y-68495342D01*
X119556077Y-68495342D02*
X119317982Y-68495342D01*
X119317982Y-68495342D02*
X119222744Y-68552485D01*
X119222744Y-68552485D02*
X119175125Y-68609628D01*
X119175125Y-68609628D02*
X119127506Y-68723914D01*
X119127506Y-68723914D02*
X119127506Y-68838200D01*
X119127506Y-68838200D02*
X119175125Y-69009628D01*
X119175125Y-69009628D02*
X119746553Y-69695342D01*
X119746553Y-69695342D02*
X119127506Y-69695342D01*
X118746553Y-68609628D02*
X118698934Y-68552485D01*
X118698934Y-68552485D02*
X118603696Y-68495342D01*
X118603696Y-68495342D02*
X118365601Y-68495342D01*
X118365601Y-68495342D02*
X118270363Y-68552485D01*
X118270363Y-68552485D02*
X118222744Y-68609628D01*
X118222744Y-68609628D02*
X118175125Y-68723914D01*
X118175125Y-68723914D02*
X118175125Y-68838200D01*
X118175125Y-68838200D02*
X118222744Y-69009628D01*
X118222744Y-69009628D02*
X118794172Y-69695342D01*
X118794172Y-69695342D02*
X118175125Y-69695342D01*
X117603696Y-69009628D02*
X117698934Y-68952485D01*
X117698934Y-68952485D02*
X117746553Y-68895342D01*
X117746553Y-68895342D02*
X117794172Y-68781057D01*
X117794172Y-68781057D02*
X117794172Y-68723914D01*
X117794172Y-68723914D02*
X117746553Y-68609628D01*
X117746553Y-68609628D02*
X117698934Y-68552485D01*
X117698934Y-68552485D02*
X117603696Y-68495342D01*
X117603696Y-68495342D02*
X117413220Y-68495342D01*
X117413220Y-68495342D02*
X117317982Y-68552485D01*
X117317982Y-68552485D02*
X117270363Y-68609628D01*
X117270363Y-68609628D02*
X117222744Y-68723914D01*
X117222744Y-68723914D02*
X117222744Y-68781057D01*
X117222744Y-68781057D02*
X117270363Y-68895342D01*
X117270363Y-68895342D02*
X117317982Y-68952485D01*
X117317982Y-68952485D02*
X117413220Y-69009628D01*
X117413220Y-69009628D02*
X117603696Y-69009628D01*
X117603696Y-69009628D02*
X117698934Y-69066771D01*
X117698934Y-69066771D02*
X117746553Y-69123914D01*
X117746553Y-69123914D02*
X117794172Y-69238200D01*
X117794172Y-69238200D02*
X117794172Y-69466771D01*
X117794172Y-69466771D02*
X117746553Y-69581057D01*
X117746553Y-69581057D02*
X117698934Y-69638200D01*
X117698934Y-69638200D02*
X117603696Y-69695342D01*
X117603696Y-69695342D02*
X117413220Y-69695342D01*
X117413220Y-69695342D02*
X117317982Y-69638200D01*
X117317982Y-69638200D02*
X117270363Y-69581057D01*
X117270363Y-69581057D02*
X117222744Y-69466771D01*
X117222744Y-69466771D02*
X117222744Y-69238200D01*
X117222744Y-69238200D02*
X117270363Y-69123914D01*
X117270363Y-69123914D02*
X117317982Y-69066771D01*
X117317982Y-69066771D02*
X117413220Y-69009628D01*
D12*
X110257142Y-54608028D02*
X109733332Y-54608028D01*
X110361904Y-55122314D02*
X109995237Y-53322314D01*
X109995237Y-53322314D02*
X109628570Y-55122314D01*
X109261904Y-55122314D02*
X109261904Y-53322314D01*
X109261904Y-53322314D02*
X108633332Y-55122314D01*
X108633332Y-55122314D02*
X108633332Y-53322314D01*
X108266666Y-53322314D02*
X107638094Y-53322314D01*
X107952380Y-55122314D02*
X107952380Y-53322314D01*
D11*
X102660133Y-87466666D02*
X103326800Y-87699999D01*
X102660133Y-87866666D02*
X104060133Y-87866666D01*
X104060133Y-87866666D02*
X104060133Y-87599999D01*
X104060133Y-87599999D02*
X103993466Y-87533333D01*
X103993466Y-87533333D02*
X103926800Y-87499999D01*
X103926800Y-87499999D02*
X103793466Y-87466666D01*
X103793466Y-87466666D02*
X103593466Y-87466666D01*
X103593466Y-87466666D02*
X103460133Y-87499999D01*
X103460133Y-87499999D02*
X103393466Y-87533333D01*
X103393466Y-87533333D02*
X103326800Y-87599999D01*
X103326800Y-87599999D02*
X103326800Y-87866666D01*
X102793466Y-86766666D02*
X102726800Y-86799999D01*
X102726800Y-86799999D02*
X102660133Y-86899999D01*
X102660133Y-86899999D02*
X102660133Y-86966666D01*
X102660133Y-86966666D02*
X102726800Y-87066666D01*
X102726800Y-87066666D02*
X102860133Y-87133333D01*
X102860133Y-87133333D02*
X102993466Y-87166666D01*
X102993466Y-87166666D02*
X103260133Y-87199999D01*
X103260133Y-87199999D02*
X103460133Y-87199999D01*
X103460133Y-87199999D02*
X103726800Y-87166666D01*
X103726800Y-87166666D02*
X103860133Y-87133333D01*
X103860133Y-87133333D02*
X103993466Y-87066666D01*
X103993466Y-87066666D02*
X104060133Y-86966666D01*
X104060133Y-86966666D02*
X104060133Y-86899999D01*
X104060133Y-86899999D02*
X103993466Y-86799999D01*
X103993466Y-86799999D02*
X103926800Y-86766666D01*
X104060133Y-86533333D02*
X104060133Y-86099999D01*
X104060133Y-86099999D02*
X103526800Y-86333333D01*
X103526800Y-86333333D02*
X103526800Y-86233333D01*
X103526800Y-86233333D02*
X103460133Y-86166666D01*
X103460133Y-86166666D02*
X103393466Y-86133333D01*
X103393466Y-86133333D02*
X103260133Y-86099999D01*
X103260133Y-86099999D02*
X102926800Y-86099999D01*
X102926800Y-86099999D02*
X102793466Y-86133333D01*
X102793466Y-86133333D02*
X102726800Y-86166666D01*
X102726800Y-86166666D02*
X102660133Y-86233333D01*
X102660133Y-86233333D02*
X102660133Y-86433333D01*
X102660133Y-86433333D02*
X102726800Y-86499999D01*
X102726800Y-86499999D02*
X102793466Y-86533333D01*
X122100000Y-116839866D02*
X122433333Y-116839866D01*
X122433333Y-116839866D02*
X122466666Y-117506533D01*
X122466666Y-117506533D02*
X122433333Y-117439866D01*
X122433333Y-117439866D02*
X122366666Y-117373200D01*
X122366666Y-117373200D02*
X122200000Y-117373200D01*
X122200000Y-117373200D02*
X122133333Y-117439866D01*
X122133333Y-117439866D02*
X122100000Y-117506533D01*
X122100000Y-117506533D02*
X122066666Y-117639866D01*
X122066666Y-117639866D02*
X122066666Y-117973200D01*
X122066666Y-117973200D02*
X122100000Y-118106533D01*
X122100000Y-118106533D02*
X122133333Y-118173200D01*
X122133333Y-118173200D02*
X122200000Y-118239866D01*
X122200000Y-118239866D02*
X122366666Y-118239866D01*
X122366666Y-118239866D02*
X122433333Y-118173200D01*
X122433333Y-118173200D02*
X122466666Y-118106533D01*
X121766666Y-118106533D02*
X121733333Y-118173200D01*
X121733333Y-118173200D02*
X121766666Y-118239866D01*
X121766666Y-118239866D02*
X121799999Y-118173200D01*
X121799999Y-118173200D02*
X121766666Y-118106533D01*
X121766666Y-118106533D02*
X121766666Y-118239866D01*
X121300000Y-116839866D02*
X121233333Y-116839866D01*
X121233333Y-116839866D02*
X121166666Y-116906533D01*
X121166666Y-116906533D02*
X121133333Y-116973200D01*
X121133333Y-116973200D02*
X121100000Y-117106533D01*
X121100000Y-117106533D02*
X121066666Y-117373200D01*
X121066666Y-117373200D02*
X121066666Y-117706533D01*
X121066666Y-117706533D02*
X121100000Y-117973200D01*
X121100000Y-117973200D02*
X121133333Y-118106533D01*
X121133333Y-118106533D02*
X121166666Y-118173200D01*
X121166666Y-118173200D02*
X121233333Y-118239866D01*
X121233333Y-118239866D02*
X121300000Y-118239866D01*
X121300000Y-118239866D02*
X121366666Y-118173200D01*
X121366666Y-118173200D02*
X121400000Y-118106533D01*
X121400000Y-118106533D02*
X121433333Y-117973200D01*
X121433333Y-117973200D02*
X121466666Y-117706533D01*
X121466666Y-117706533D02*
X121466666Y-117373200D01*
X121466666Y-117373200D02*
X121433333Y-117106533D01*
X121433333Y-117106533D02*
X121400000Y-116973200D01*
X121400000Y-116973200D02*
X121366666Y-116906533D01*
X121366666Y-116906533D02*
X121300000Y-116839866D01*
X120833333Y-117306533D02*
X120666666Y-118239866D01*
X120666666Y-118239866D02*
X120499999Y-117306533D01*
X102289866Y-84033333D02*
X101623200Y-83800000D01*
X102289866Y-83633333D02*
X100889866Y-83633333D01*
X100889866Y-83633333D02*
X100889866Y-83900000D01*
X100889866Y-83900000D02*
X100956533Y-83966667D01*
X100956533Y-83966667D02*
X101023200Y-84000000D01*
X101023200Y-84000000D02*
X101156533Y-84033333D01*
X101156533Y-84033333D02*
X101356533Y-84033333D01*
X101356533Y-84033333D02*
X101489866Y-84000000D01*
X101489866Y-84000000D02*
X101556533Y-83966667D01*
X101556533Y-83966667D02*
X101623200Y-83900000D01*
X101623200Y-83900000D02*
X101623200Y-83633333D01*
X102156533Y-84733333D02*
X102223200Y-84700000D01*
X102223200Y-84700000D02*
X102289866Y-84600000D01*
X102289866Y-84600000D02*
X102289866Y-84533333D01*
X102289866Y-84533333D02*
X102223200Y-84433333D01*
X102223200Y-84433333D02*
X102089866Y-84366667D01*
X102089866Y-84366667D02*
X101956533Y-84333333D01*
X101956533Y-84333333D02*
X101689866Y-84300000D01*
X101689866Y-84300000D02*
X101489866Y-84300000D01*
X101489866Y-84300000D02*
X101223200Y-84333333D01*
X101223200Y-84333333D02*
X101089866Y-84366667D01*
X101089866Y-84366667D02*
X100956533Y-84433333D01*
X100956533Y-84433333D02*
X100889866Y-84533333D01*
X100889866Y-84533333D02*
X100889866Y-84600000D01*
X100889866Y-84600000D02*
X100956533Y-84700000D01*
X100956533Y-84700000D02*
X101023200Y-84733333D01*
X102289866Y-85400000D02*
X102289866Y-85000000D01*
X102289866Y-85200000D02*
X100889866Y-85200000D01*
X100889866Y-85200000D02*
X101089866Y-85133333D01*
X101089866Y-85133333D02*
X101223200Y-85066667D01*
X101223200Y-85066667D02*
X101289866Y-85000000D01*
D12*
X121654136Y-113618266D02*
X121654136Y-112218266D01*
X121654136Y-112218266D02*
X121311279Y-112218266D01*
X121311279Y-112218266D02*
X121225564Y-112284933D01*
X121225564Y-112284933D02*
X121182707Y-112351600D01*
X121182707Y-112351600D02*
X121139850Y-112484933D01*
X121139850Y-112484933D02*
X121139850Y-112684933D01*
X121139850Y-112684933D02*
X121182707Y-112818266D01*
X121182707Y-112818266D02*
X121225564Y-112884933D01*
X121225564Y-112884933D02*
X121311279Y-112951600D01*
X121311279Y-112951600D02*
X121654136Y-112951600D01*
X120582707Y-112218266D02*
X120411279Y-112218266D01*
X120411279Y-112218266D02*
X120325564Y-112284933D01*
X120325564Y-112284933D02*
X120239850Y-112418266D01*
X120239850Y-112418266D02*
X120196993Y-112684933D01*
X120196993Y-112684933D02*
X120196993Y-113151600D01*
X120196993Y-113151600D02*
X120239850Y-113418266D01*
X120239850Y-113418266D02*
X120325564Y-113551600D01*
X120325564Y-113551600D02*
X120411279Y-113618266D01*
X120411279Y-113618266D02*
X120582707Y-113618266D01*
X120582707Y-113618266D02*
X120668422Y-113551600D01*
X120668422Y-113551600D02*
X120754136Y-113418266D01*
X120754136Y-113418266D02*
X120796993Y-113151600D01*
X120796993Y-113151600D02*
X120796993Y-112684933D01*
X120796993Y-112684933D02*
X120754136Y-112418266D01*
X120754136Y-112418266D02*
X120668422Y-112284933D01*
X120668422Y-112284933D02*
X120582707Y-112218266D01*
X119896993Y-112218266D02*
X119682707Y-113618266D01*
X119682707Y-113618266D02*
X119511279Y-112618266D01*
X119511279Y-112618266D02*
X119339850Y-113618266D01*
X119339850Y-113618266D02*
X119125565Y-112218266D01*
X118782708Y-112884933D02*
X118482708Y-112884933D01*
X118354136Y-113618266D02*
X118782708Y-113618266D01*
X118782708Y-113618266D02*
X118782708Y-112218266D01*
X118782708Y-112218266D02*
X118354136Y-112218266D01*
X117454136Y-113618266D02*
X117754136Y-112951600D01*
X117968422Y-113618266D02*
X117968422Y-112218266D01*
X117968422Y-112218266D02*
X117625565Y-112218266D01*
X117625565Y-112218266D02*
X117539850Y-112284933D01*
X117539850Y-112284933D02*
X117496993Y-112351600D01*
X117496993Y-112351600D02*
X117454136Y-112484933D01*
X117454136Y-112484933D02*
X117454136Y-112684933D01*
X117454136Y-112684933D02*
X117496993Y-112818266D01*
X117496993Y-112818266D02*
X117539850Y-112884933D01*
X117539850Y-112884933D02*
X117625565Y-112951600D01*
X117625565Y-112951600D02*
X117968422Y-112951600D01*
D11*
X103993466Y-90023332D02*
X104060133Y-90089999D01*
X104060133Y-90089999D02*
X104060133Y-90189999D01*
X104060133Y-90189999D02*
X103993466Y-90289999D01*
X103993466Y-90289999D02*
X103860133Y-90356666D01*
X103860133Y-90356666D02*
X103726800Y-90389999D01*
X103726800Y-90389999D02*
X103460133Y-90423332D01*
X103460133Y-90423332D02*
X103260133Y-90423332D01*
X103260133Y-90423332D02*
X102993466Y-90389999D01*
X102993466Y-90389999D02*
X102860133Y-90356666D01*
X102860133Y-90356666D02*
X102726800Y-90289999D01*
X102726800Y-90289999D02*
X102660133Y-90189999D01*
X102660133Y-90189999D02*
X102660133Y-90123332D01*
X102660133Y-90123332D02*
X102726800Y-90023332D01*
X102726800Y-90023332D02*
X102793466Y-89989999D01*
X102793466Y-89989999D02*
X103260133Y-89989999D01*
X103260133Y-89989999D02*
X103260133Y-90123332D01*
X102660133Y-89689999D02*
X104060133Y-89689999D01*
X104060133Y-89689999D02*
X102660133Y-89289999D01*
X102660133Y-89289999D02*
X104060133Y-89289999D01*
X102660133Y-88956666D02*
X104060133Y-88956666D01*
X104060133Y-88956666D02*
X104060133Y-88789999D01*
X104060133Y-88789999D02*
X103993466Y-88689999D01*
X103993466Y-88689999D02*
X103860133Y-88623333D01*
X103860133Y-88623333D02*
X103726800Y-88589999D01*
X103726800Y-88589999D02*
X103460133Y-88556666D01*
X103460133Y-88556666D02*
X103260133Y-88556666D01*
X103260133Y-88556666D02*
X102993466Y-88589999D01*
X102993466Y-88589999D02*
X102860133Y-88623333D01*
X102860133Y-88623333D02*
X102726800Y-88689999D01*
X102726800Y-88689999D02*
X102660133Y-88789999D01*
X102660133Y-88789999D02*
X102660133Y-88956666D01*
D13*
X134104285Y-78508093D02*
X133590000Y-80308093D01*
X133161428Y-80041426D02*
X133361428Y-79374760D01*
X133504285Y-80041426D02*
X133504285Y-78641426D01*
X133504285Y-78641426D02*
X133275714Y-78641426D01*
X133275714Y-78641426D02*
X133218571Y-78708093D01*
X133218571Y-78708093D02*
X133190000Y-78774760D01*
X133190000Y-78774760D02*
X133161428Y-78908093D01*
X133161428Y-78908093D02*
X133161428Y-79108093D01*
X133161428Y-79108093D02*
X133190000Y-79241426D01*
X133190000Y-79241426D02*
X133218571Y-79308093D01*
X133218571Y-79308093D02*
X133275714Y-79374760D01*
X133275714Y-79374760D02*
X133504285Y-79374760D01*
X132904285Y-79308093D02*
X132704285Y-79308093D01*
X132618571Y-80041426D02*
X132904285Y-80041426D01*
X132904285Y-80041426D02*
X132904285Y-78641426D01*
X132904285Y-78641426D02*
X132618571Y-78641426D01*
X132390000Y-79974760D02*
X132304286Y-80041426D01*
X132304286Y-80041426D02*
X132161428Y-80041426D01*
X132161428Y-80041426D02*
X132104286Y-79974760D01*
X132104286Y-79974760D02*
X132075714Y-79908093D01*
X132075714Y-79908093D02*
X132047143Y-79774760D01*
X132047143Y-79774760D02*
X132047143Y-79641426D01*
X132047143Y-79641426D02*
X132075714Y-79508093D01*
X132075714Y-79508093D02*
X132104286Y-79441426D01*
X132104286Y-79441426D02*
X132161428Y-79374760D01*
X132161428Y-79374760D02*
X132275714Y-79308093D01*
X132275714Y-79308093D02*
X132332857Y-79241426D01*
X132332857Y-79241426D02*
X132361428Y-79174760D01*
X132361428Y-79174760D02*
X132390000Y-79041426D01*
X132390000Y-79041426D02*
X132390000Y-78908093D01*
X132390000Y-78908093D02*
X132361428Y-78774760D01*
X132361428Y-78774760D02*
X132332857Y-78708093D01*
X132332857Y-78708093D02*
X132275714Y-78641426D01*
X132275714Y-78641426D02*
X132132857Y-78641426D01*
X132132857Y-78641426D02*
X132047143Y-78708093D01*
X113556666Y-78641426D02*
X113323333Y-80041426D01*
X113323333Y-80041426D02*
X113089999Y-78641426D01*
X112723333Y-78641426D02*
X112656666Y-78641426D01*
X112656666Y-78641426D02*
X112589999Y-78708093D01*
X112589999Y-78708093D02*
X112556666Y-78774760D01*
X112556666Y-78774760D02*
X112523333Y-78908093D01*
X112523333Y-78908093D02*
X112489999Y-79174760D01*
X112489999Y-79174760D02*
X112489999Y-79508093D01*
X112489999Y-79508093D02*
X112523333Y-79774760D01*
X112523333Y-79774760D02*
X112556666Y-79908093D01*
X112556666Y-79908093D02*
X112589999Y-79974760D01*
X112589999Y-79974760D02*
X112656666Y-80041426D01*
X112656666Y-80041426D02*
X112723333Y-80041426D01*
X112723333Y-80041426D02*
X112789999Y-79974760D01*
X112789999Y-79974760D02*
X112823333Y-79908093D01*
X112823333Y-79908093D02*
X112856666Y-79774760D01*
X112856666Y-79774760D02*
X112889999Y-79508093D01*
X112889999Y-79508093D02*
X112889999Y-79174760D01*
X112889999Y-79174760D02*
X112856666Y-78908093D01*
X112856666Y-78908093D02*
X112823333Y-78774760D01*
X112823333Y-78774760D02*
X112789999Y-78708093D01*
X112789999Y-78708093D02*
X112723333Y-78641426D01*
X131304285Y-79974760D02*
X131218571Y-80041426D01*
X131218571Y-80041426D02*
X131075713Y-80041426D01*
X131075713Y-80041426D02*
X131018571Y-79974760D01*
X131018571Y-79974760D02*
X130989999Y-79908093D01*
X130989999Y-79908093D02*
X130961428Y-79774760D01*
X130961428Y-79774760D02*
X130961428Y-79641426D01*
X130961428Y-79641426D02*
X130989999Y-79508093D01*
X130989999Y-79508093D02*
X131018571Y-79441426D01*
X131018571Y-79441426D02*
X131075713Y-79374760D01*
X131075713Y-79374760D02*
X131189999Y-79308093D01*
X131189999Y-79308093D02*
X131247142Y-79241426D01*
X131247142Y-79241426D02*
X131275713Y-79174760D01*
X131275713Y-79174760D02*
X131304285Y-79041426D01*
X131304285Y-79041426D02*
X131304285Y-78908093D01*
X131304285Y-78908093D02*
X131275713Y-78774760D01*
X131275713Y-78774760D02*
X131247142Y-78708093D01*
X131247142Y-78708093D02*
X131189999Y-78641426D01*
X131189999Y-78641426D02*
X131047142Y-78641426D01*
X131047142Y-78641426D02*
X130961428Y-78708093D01*
X130361427Y-79908093D02*
X130389999Y-79974760D01*
X130389999Y-79974760D02*
X130475713Y-80041426D01*
X130475713Y-80041426D02*
X130532856Y-80041426D01*
X130532856Y-80041426D02*
X130618570Y-79974760D01*
X130618570Y-79974760D02*
X130675713Y-79841426D01*
X130675713Y-79841426D02*
X130704284Y-79708093D01*
X130704284Y-79708093D02*
X130732856Y-79441426D01*
X130732856Y-79441426D02*
X130732856Y-79241426D01*
X130732856Y-79241426D02*
X130704284Y-78974760D01*
X130704284Y-78974760D02*
X130675713Y-78841426D01*
X130675713Y-78841426D02*
X130618570Y-78708093D01*
X130618570Y-78708093D02*
X130532856Y-78641426D01*
X130532856Y-78641426D02*
X130475713Y-78641426D01*
X130475713Y-78641426D02*
X130389999Y-78708093D01*
X130389999Y-78708093D02*
X130361427Y-78774760D01*
X129818570Y-80041426D02*
X130104284Y-80041426D01*
X130104284Y-80041426D02*
X130104284Y-78641426D01*
X116447142Y-78641426D02*
X116247142Y-80041426D01*
X116247142Y-80041426D02*
X116047142Y-78641426D01*
X115732856Y-78641426D02*
X115618570Y-78641426D01*
X115618570Y-78641426D02*
X115561427Y-78708093D01*
X115561427Y-78708093D02*
X115504284Y-78841426D01*
X115504284Y-78841426D02*
X115475713Y-79108093D01*
X115475713Y-79108093D02*
X115475713Y-79574760D01*
X115475713Y-79574760D02*
X115504284Y-79841426D01*
X115504284Y-79841426D02*
X115561427Y-79974760D01*
X115561427Y-79974760D02*
X115618570Y-80041426D01*
X115618570Y-80041426D02*
X115732856Y-80041426D01*
X115732856Y-80041426D02*
X115789999Y-79974760D01*
X115789999Y-79974760D02*
X115847141Y-79841426D01*
X115847141Y-79841426D02*
X115875713Y-79574760D01*
X115875713Y-79574760D02*
X115875713Y-79108093D01*
X115875713Y-79108093D02*
X115847141Y-78841426D01*
X115847141Y-78841426D02*
X115789999Y-78708093D01*
X115789999Y-78708093D02*
X115732856Y-78641426D01*
X115218570Y-78641426D02*
X115218570Y-79774760D01*
X115218570Y-79774760D02*
X115189999Y-79908093D01*
X115189999Y-79908093D02*
X115161428Y-79974760D01*
X115161428Y-79974760D02*
X115104285Y-80041426D01*
X115104285Y-80041426D02*
X114989999Y-80041426D01*
X114989999Y-80041426D02*
X114932856Y-79974760D01*
X114932856Y-79974760D02*
X114904285Y-79908093D01*
X114904285Y-79908093D02*
X114875713Y-79774760D01*
X114875713Y-79774760D02*
X114875713Y-78641426D01*
X114675714Y-78641426D02*
X114332857Y-78641426D01*
X114504285Y-80041426D02*
X114504285Y-78641426D01*
X120889999Y-79908093D02*
X120918571Y-79974760D01*
X120918571Y-79974760D02*
X121004285Y-80041426D01*
X121004285Y-80041426D02*
X121061428Y-80041426D01*
X121061428Y-80041426D02*
X121147142Y-79974760D01*
X121147142Y-79974760D02*
X121204285Y-79841426D01*
X121204285Y-79841426D02*
X121232856Y-79708093D01*
X121232856Y-79708093D02*
X121261428Y-79441426D01*
X121261428Y-79441426D02*
X121261428Y-79241426D01*
X121261428Y-79241426D02*
X121232856Y-78974760D01*
X121232856Y-78974760D02*
X121204285Y-78841426D01*
X121204285Y-78841426D02*
X121147142Y-78708093D01*
X121147142Y-78708093D02*
X121061428Y-78641426D01*
X121061428Y-78641426D02*
X121004285Y-78641426D01*
X121004285Y-78641426D02*
X120918571Y-78708093D01*
X120918571Y-78708093D02*
X120889999Y-78774760D01*
X120318571Y-80041426D02*
X120661428Y-80041426D01*
X120489999Y-80041426D02*
X120489999Y-78641426D01*
X120489999Y-78641426D02*
X120547142Y-78841426D01*
X120547142Y-78841426D02*
X120604285Y-78974760D01*
X120604285Y-78974760D02*
X120661428Y-79041426D01*
X120061427Y-80041426D02*
X120061427Y-78641426D01*
X120061427Y-78641426D02*
X119832856Y-78641426D01*
X119832856Y-78641426D02*
X119775713Y-78708093D01*
X119775713Y-78708093D02*
X119747142Y-78774760D01*
X119747142Y-78774760D02*
X119718570Y-78908093D01*
X119718570Y-78908093D02*
X119718570Y-79108093D01*
X119718570Y-79108093D02*
X119747142Y-79241426D01*
X119747142Y-79241426D02*
X119775713Y-79308093D01*
X119775713Y-79308093D02*
X119832856Y-79374760D01*
X119832856Y-79374760D02*
X120061427Y-79374760D01*
X126361429Y-78641426D02*
X126161429Y-80041426D01*
X126161429Y-80041426D02*
X125961429Y-78641426D01*
X125790000Y-79974760D02*
X125704286Y-80041426D01*
X125704286Y-80041426D02*
X125561428Y-80041426D01*
X125561428Y-80041426D02*
X125504286Y-79974760D01*
X125504286Y-79974760D02*
X125475714Y-79908093D01*
X125475714Y-79908093D02*
X125447143Y-79774760D01*
X125447143Y-79774760D02*
X125447143Y-79641426D01*
X125447143Y-79641426D02*
X125475714Y-79508093D01*
X125475714Y-79508093D02*
X125504286Y-79441426D01*
X125504286Y-79441426D02*
X125561428Y-79374760D01*
X125561428Y-79374760D02*
X125675714Y-79308093D01*
X125675714Y-79308093D02*
X125732857Y-79241426D01*
X125732857Y-79241426D02*
X125761428Y-79174760D01*
X125761428Y-79174760D02*
X125790000Y-79041426D01*
X125790000Y-79041426D02*
X125790000Y-78908093D01*
X125790000Y-78908093D02*
X125761428Y-78774760D01*
X125761428Y-78774760D02*
X125732857Y-78708093D01*
X125732857Y-78708093D02*
X125675714Y-78641426D01*
X125675714Y-78641426D02*
X125532857Y-78641426D01*
X125532857Y-78641426D02*
X125447143Y-78708093D01*
X125218571Y-79974760D02*
X125132857Y-80041426D01*
X125132857Y-80041426D02*
X124989999Y-80041426D01*
X124989999Y-80041426D02*
X124932857Y-79974760D01*
X124932857Y-79974760D02*
X124904285Y-79908093D01*
X124904285Y-79908093D02*
X124875714Y-79774760D01*
X124875714Y-79774760D02*
X124875714Y-79641426D01*
X124875714Y-79641426D02*
X124904285Y-79508093D01*
X124904285Y-79508093D02*
X124932857Y-79441426D01*
X124932857Y-79441426D02*
X124989999Y-79374760D01*
X124989999Y-79374760D02*
X125104285Y-79308093D01*
X125104285Y-79308093D02*
X125161428Y-79241426D01*
X125161428Y-79241426D02*
X125189999Y-79174760D01*
X125189999Y-79174760D02*
X125218571Y-79041426D01*
X125218571Y-79041426D02*
X125218571Y-78908093D01*
X125218571Y-78908093D02*
X125189999Y-78774760D01*
X125189999Y-78774760D02*
X125161428Y-78708093D01*
X125161428Y-78708093D02*
X125104285Y-78641426D01*
X125104285Y-78641426D02*
X124961428Y-78641426D01*
X124961428Y-78641426D02*
X124875714Y-78708093D01*
X123690000Y-78641426D02*
X123490000Y-80041426D01*
X123490000Y-80041426D02*
X123290000Y-78641426D01*
X123089999Y-80041426D02*
X123089999Y-78641426D01*
X123089999Y-78641426D02*
X122947142Y-78641426D01*
X122947142Y-78641426D02*
X122861428Y-78708093D01*
X122861428Y-78708093D02*
X122804285Y-78841426D01*
X122804285Y-78841426D02*
X122775714Y-78974760D01*
X122775714Y-78974760D02*
X122747142Y-79241426D01*
X122747142Y-79241426D02*
X122747142Y-79441426D01*
X122747142Y-79441426D02*
X122775714Y-79708093D01*
X122775714Y-79708093D02*
X122804285Y-79841426D01*
X122804285Y-79841426D02*
X122861428Y-79974760D01*
X122861428Y-79974760D02*
X122947142Y-80041426D01*
X122947142Y-80041426D02*
X123089999Y-80041426D01*
X122489999Y-80041426D02*
X122489999Y-78641426D01*
X122489999Y-78641426D02*
X122347142Y-78641426D01*
X122347142Y-78641426D02*
X122261428Y-78708093D01*
X122261428Y-78708093D02*
X122204285Y-78841426D01*
X122204285Y-78841426D02*
X122175714Y-78974760D01*
X122175714Y-78974760D02*
X122147142Y-79241426D01*
X122147142Y-79241426D02*
X122147142Y-79441426D01*
X122147142Y-79441426D02*
X122175714Y-79708093D01*
X122175714Y-79708093D02*
X122204285Y-79841426D01*
X122204285Y-79841426D02*
X122261428Y-79974760D01*
X122261428Y-79974760D02*
X122347142Y-80041426D01*
X122347142Y-80041426D02*
X122489999Y-80041426D01*
X118404285Y-79908093D02*
X118432857Y-79974760D01*
X118432857Y-79974760D02*
X118518571Y-80041426D01*
X118518571Y-80041426D02*
X118575714Y-80041426D01*
X118575714Y-80041426D02*
X118661428Y-79974760D01*
X118661428Y-79974760D02*
X118718571Y-79841426D01*
X118718571Y-79841426D02*
X118747142Y-79708093D01*
X118747142Y-79708093D02*
X118775714Y-79441426D01*
X118775714Y-79441426D02*
X118775714Y-79241426D01*
X118775714Y-79241426D02*
X118747142Y-78974760D01*
X118747142Y-78974760D02*
X118718571Y-78841426D01*
X118718571Y-78841426D02*
X118661428Y-78708093D01*
X118661428Y-78708093D02*
X118575714Y-78641426D01*
X118575714Y-78641426D02*
X118518571Y-78641426D01*
X118518571Y-78641426D02*
X118432857Y-78708093D01*
X118432857Y-78708093D02*
X118404285Y-78774760D01*
X117832857Y-80041426D02*
X118175714Y-80041426D01*
X118004285Y-80041426D02*
X118004285Y-78641426D01*
X118004285Y-78641426D02*
X118061428Y-78841426D01*
X118061428Y-78841426D02*
X118118571Y-78974760D01*
X118118571Y-78974760D02*
X118175714Y-79041426D01*
X117575713Y-80041426D02*
X117575713Y-78641426D01*
X117575713Y-78641426D02*
X117232856Y-80041426D01*
X117232856Y-80041426D02*
X117232856Y-78641426D01*
X128718571Y-79974760D02*
X128632857Y-80041426D01*
X128632857Y-80041426D02*
X128489999Y-80041426D01*
X128489999Y-80041426D02*
X128432857Y-79974760D01*
X128432857Y-79974760D02*
X128404285Y-79908093D01*
X128404285Y-79908093D02*
X128375714Y-79774760D01*
X128375714Y-79774760D02*
X128375714Y-79641426D01*
X128375714Y-79641426D02*
X128404285Y-79508093D01*
X128404285Y-79508093D02*
X128432857Y-79441426D01*
X128432857Y-79441426D02*
X128489999Y-79374760D01*
X128489999Y-79374760D02*
X128604285Y-79308093D01*
X128604285Y-79308093D02*
X128661428Y-79241426D01*
X128661428Y-79241426D02*
X128689999Y-79174760D01*
X128689999Y-79174760D02*
X128718571Y-79041426D01*
X128718571Y-79041426D02*
X128718571Y-78908093D01*
X128718571Y-78908093D02*
X128689999Y-78774760D01*
X128689999Y-78774760D02*
X128661428Y-78708093D01*
X128661428Y-78708093D02*
X128604285Y-78641426D01*
X128604285Y-78641426D02*
X128461428Y-78641426D01*
X128461428Y-78641426D02*
X128375714Y-78708093D01*
X128118570Y-80041426D02*
X128118570Y-78641426D01*
X128118570Y-78641426D02*
X127975713Y-78641426D01*
X127975713Y-78641426D02*
X127889999Y-78708093D01*
X127889999Y-78708093D02*
X127832856Y-78841426D01*
X127832856Y-78841426D02*
X127804285Y-78974760D01*
X127804285Y-78974760D02*
X127775713Y-79241426D01*
X127775713Y-79241426D02*
X127775713Y-79441426D01*
X127775713Y-79441426D02*
X127804285Y-79708093D01*
X127804285Y-79708093D02*
X127832856Y-79841426D01*
X127832856Y-79841426D02*
X127889999Y-79974760D01*
X127889999Y-79974760D02*
X127975713Y-80041426D01*
X127975713Y-80041426D02*
X128118570Y-80041426D01*
X127547142Y-79641426D02*
X127261428Y-79641426D01*
X127604285Y-80041426D02*
X127404285Y-78641426D01*
X127404285Y-78641426D02*
X127204285Y-80041426D01*
D11*
X125450000Y-116839866D02*
X125016666Y-116839866D01*
X125016666Y-116839866D02*
X125250000Y-117373200D01*
X125250000Y-117373200D02*
X125150000Y-117373200D01*
X125150000Y-117373200D02*
X125083333Y-117439866D01*
X125083333Y-117439866D02*
X125050000Y-117506533D01*
X125050000Y-117506533D02*
X125016666Y-117639866D01*
X125016666Y-117639866D02*
X125016666Y-117973200D01*
X125016666Y-117973200D02*
X125050000Y-118106533D01*
X125050000Y-118106533D02*
X125083333Y-118173200D01*
X125083333Y-118173200D02*
X125150000Y-118239866D01*
X125150000Y-118239866D02*
X125350000Y-118239866D01*
X125350000Y-118239866D02*
X125416666Y-118173200D01*
X125416666Y-118173200D02*
X125450000Y-118106533D01*
X124716666Y-118106533D02*
X124683333Y-118173200D01*
X124683333Y-118173200D02*
X124716666Y-118239866D01*
X124716666Y-118239866D02*
X124749999Y-118173200D01*
X124749999Y-118173200D02*
X124716666Y-118106533D01*
X124716666Y-118106533D02*
X124716666Y-118239866D01*
X124450000Y-116839866D02*
X124016666Y-116839866D01*
X124016666Y-116839866D02*
X124250000Y-117373200D01*
X124250000Y-117373200D02*
X124150000Y-117373200D01*
X124150000Y-117373200D02*
X124083333Y-117439866D01*
X124083333Y-117439866D02*
X124050000Y-117506533D01*
X124050000Y-117506533D02*
X124016666Y-117639866D01*
X124016666Y-117639866D02*
X124016666Y-117973200D01*
X124016666Y-117973200D02*
X124050000Y-118106533D01*
X124050000Y-118106533D02*
X124083333Y-118173200D01*
X124083333Y-118173200D02*
X124150000Y-118239866D01*
X124150000Y-118239866D02*
X124350000Y-118239866D01*
X124350000Y-118239866D02*
X124416666Y-118173200D01*
X124416666Y-118173200D02*
X124450000Y-118106533D01*
X123783333Y-117306533D02*
X123616666Y-118239866D01*
X123616666Y-118239866D02*
X123449999Y-117306533D01*
X134535715Y-71774914D02*
X134535715Y-69974914D01*
X134150001Y-71774914D02*
X134150001Y-70832057D01*
X134150001Y-70832057D02*
X134192858Y-70660628D01*
X134192858Y-70660628D02*
X134278572Y-70574914D01*
X134278572Y-70574914D02*
X134407143Y-70574914D01*
X134407143Y-70574914D02*
X134492858Y-70660628D01*
X134492858Y-70660628D02*
X134535715Y-70746342D01*
X133850000Y-70574914D02*
X133507143Y-70574914D01*
X133721429Y-69974914D02*
X133721429Y-71517771D01*
X133721429Y-71517771D02*
X133678572Y-71689200D01*
X133678572Y-71689200D02*
X133592857Y-71774914D01*
X133592857Y-71774914D02*
X133507143Y-71774914D01*
X133335714Y-70574914D02*
X132992857Y-70574914D01*
X133207143Y-69974914D02*
X133207143Y-71517771D01*
X133207143Y-71517771D02*
X133164286Y-71689200D01*
X133164286Y-71689200D02*
X133078571Y-71774914D01*
X133078571Y-71774914D02*
X132992857Y-71774914D01*
X132692857Y-70574914D02*
X132692857Y-72374914D01*
X132692857Y-70660628D02*
X132607143Y-70574914D01*
X132607143Y-70574914D02*
X132435714Y-70574914D01*
X132435714Y-70574914D02*
X132350000Y-70660628D01*
X132350000Y-70660628D02*
X132307143Y-70746342D01*
X132307143Y-70746342D02*
X132264285Y-70917771D01*
X132264285Y-70917771D02*
X132264285Y-71432057D01*
X132264285Y-71432057D02*
X132307143Y-71603485D01*
X132307143Y-71603485D02*
X132350000Y-71689200D01*
X132350000Y-71689200D02*
X132435714Y-71774914D01*
X132435714Y-71774914D02*
X132607143Y-71774914D01*
X132607143Y-71774914D02*
X132692857Y-71689200D01*
X131921428Y-71689200D02*
X131835714Y-71774914D01*
X131835714Y-71774914D02*
X131664285Y-71774914D01*
X131664285Y-71774914D02*
X131578571Y-71689200D01*
X131578571Y-71689200D02*
X131535714Y-71517771D01*
X131535714Y-71517771D02*
X131535714Y-71432057D01*
X131535714Y-71432057D02*
X131578571Y-71260628D01*
X131578571Y-71260628D02*
X131664285Y-71174914D01*
X131664285Y-71174914D02*
X131792857Y-71174914D01*
X131792857Y-71174914D02*
X131878571Y-71089200D01*
X131878571Y-71089200D02*
X131921428Y-70917771D01*
X131921428Y-70917771D02*
X131921428Y-70832057D01*
X131921428Y-70832057D02*
X131878571Y-70660628D01*
X131878571Y-70660628D02*
X131792857Y-70574914D01*
X131792857Y-70574914D02*
X131664285Y-70574914D01*
X131664285Y-70574914D02*
X131578571Y-70660628D01*
X131150000Y-71603485D02*
X131107143Y-71689200D01*
X131107143Y-71689200D02*
X131150000Y-71774914D01*
X131150000Y-71774914D02*
X131192857Y-71689200D01*
X131192857Y-71689200D02*
X131150000Y-71603485D01*
X131150000Y-71603485D02*
X131150000Y-71774914D01*
X131150000Y-70660628D02*
X131107143Y-70746342D01*
X131107143Y-70746342D02*
X131150000Y-70832057D01*
X131150000Y-70832057D02*
X131192857Y-70746342D01*
X131192857Y-70746342D02*
X131150000Y-70660628D01*
X131150000Y-70660628D02*
X131150000Y-70832057D01*
X130078572Y-69889200D02*
X130850000Y-72203485D01*
X129135715Y-69889200D02*
X129907143Y-72203485D01*
X128921429Y-70574914D02*
X128750001Y-71774914D01*
X128750001Y-71774914D02*
X128578572Y-70917771D01*
X128578572Y-70917771D02*
X128407143Y-71774914D01*
X128407143Y-71774914D02*
X128235715Y-70574914D01*
X127978572Y-70574914D02*
X127807144Y-71774914D01*
X127807144Y-71774914D02*
X127635715Y-70917771D01*
X127635715Y-70917771D02*
X127464286Y-71774914D01*
X127464286Y-71774914D02*
X127292858Y-70574914D01*
X127035715Y-70574914D02*
X126864287Y-71774914D01*
X126864287Y-71774914D02*
X126692858Y-70917771D01*
X126692858Y-70917771D02*
X126521429Y-71774914D01*
X126521429Y-71774914D02*
X126350001Y-70574914D01*
X126007144Y-71603485D02*
X125964287Y-71689200D01*
X125964287Y-71689200D02*
X126007144Y-71774914D01*
X126007144Y-71774914D02*
X126050001Y-71689200D01*
X126050001Y-71689200D02*
X126007144Y-71603485D01*
X126007144Y-71603485D02*
X126007144Y-71774914D01*
X125578573Y-70574914D02*
X125578573Y-72374914D01*
X125578573Y-70660628D02*
X125492859Y-70574914D01*
X125492859Y-70574914D02*
X125321430Y-70574914D01*
X125321430Y-70574914D02*
X125235716Y-70660628D01*
X125235716Y-70660628D02*
X125192859Y-70746342D01*
X125192859Y-70746342D02*
X125150001Y-70917771D01*
X125150001Y-70917771D02*
X125150001Y-71432057D01*
X125150001Y-71432057D02*
X125192859Y-71603485D01*
X125192859Y-71603485D02*
X125235716Y-71689200D01*
X125235716Y-71689200D02*
X125321430Y-71774914D01*
X125321430Y-71774914D02*
X125492859Y-71774914D01*
X125492859Y-71774914D02*
X125578573Y-71689200D01*
X124635715Y-71774914D02*
X124721430Y-71689200D01*
X124721430Y-71689200D02*
X124764287Y-71517771D01*
X124764287Y-71517771D02*
X124764287Y-69974914D01*
X123907144Y-71774914D02*
X123907144Y-70832057D01*
X123907144Y-70832057D02*
X123950001Y-70660628D01*
X123950001Y-70660628D02*
X124035715Y-70574914D01*
X124035715Y-70574914D02*
X124207144Y-70574914D01*
X124207144Y-70574914D02*
X124292858Y-70660628D01*
X123907144Y-71689200D02*
X123992858Y-71774914D01*
X123992858Y-71774914D02*
X124207144Y-71774914D01*
X124207144Y-71774914D02*
X124292858Y-71689200D01*
X124292858Y-71689200D02*
X124335715Y-71517771D01*
X124335715Y-71517771D02*
X124335715Y-71346342D01*
X124335715Y-71346342D02*
X124292858Y-71174914D01*
X124292858Y-71174914D02*
X124207144Y-71089200D01*
X124207144Y-71089200D02*
X123992858Y-71089200D01*
X123992858Y-71089200D02*
X123907144Y-71003485D01*
X123478572Y-70574914D02*
X123478572Y-71774914D01*
X123478572Y-70746342D02*
X123435715Y-70660628D01*
X123435715Y-70660628D02*
X123350000Y-70574914D01*
X123350000Y-70574914D02*
X123221429Y-70574914D01*
X123221429Y-70574914D02*
X123135715Y-70660628D01*
X123135715Y-70660628D02*
X123092858Y-70832057D01*
X123092858Y-70832057D02*
X123092858Y-71774914D01*
X122321429Y-71689200D02*
X122407143Y-71774914D01*
X122407143Y-71774914D02*
X122578572Y-71774914D01*
X122578572Y-71774914D02*
X122664286Y-71689200D01*
X122664286Y-71689200D02*
X122707143Y-71517771D01*
X122707143Y-71517771D02*
X122707143Y-70832057D01*
X122707143Y-70832057D02*
X122664286Y-70660628D01*
X122664286Y-70660628D02*
X122578572Y-70574914D01*
X122578572Y-70574914D02*
X122407143Y-70574914D01*
X122407143Y-70574914D02*
X122321429Y-70660628D01*
X122321429Y-70660628D02*
X122278572Y-70832057D01*
X122278572Y-70832057D02*
X122278572Y-71003485D01*
X122278572Y-71003485D02*
X122707143Y-71174914D01*
X122021428Y-70574914D02*
X121678571Y-70574914D01*
X121892857Y-69974914D02*
X121892857Y-71517771D01*
X121892857Y-71517771D02*
X121850000Y-71689200D01*
X121850000Y-71689200D02*
X121764285Y-71774914D01*
X121764285Y-71774914D02*
X121678571Y-71774914D01*
X121464285Y-71774914D02*
X120992857Y-70574914D01*
X121464285Y-70574914D02*
X120992857Y-71774914D01*
X120264286Y-70574914D02*
X120264286Y-72032057D01*
X120264286Y-72032057D02*
X120307143Y-72203485D01*
X120307143Y-72203485D02*
X120350000Y-72289200D01*
X120350000Y-72289200D02*
X120435714Y-72374914D01*
X120435714Y-72374914D02*
X120564286Y-72374914D01*
X120564286Y-72374914D02*
X120650000Y-72289200D01*
X120264286Y-71689200D02*
X120350000Y-71774914D01*
X120350000Y-71774914D02*
X120521428Y-71774914D01*
X120521428Y-71774914D02*
X120607143Y-71689200D01*
X120607143Y-71689200D02*
X120650000Y-71603485D01*
X120650000Y-71603485D02*
X120692857Y-71432057D01*
X120692857Y-71432057D02*
X120692857Y-70917771D01*
X120692857Y-70917771D02*
X120650000Y-70746342D01*
X120650000Y-70746342D02*
X120607143Y-70660628D01*
X120607143Y-70660628D02*
X120521428Y-70574914D01*
X120521428Y-70574914D02*
X120350000Y-70574914D01*
X120350000Y-70574914D02*
X120264286Y-70660628D01*
X119492857Y-71689200D02*
X119578571Y-71774914D01*
X119578571Y-71774914D02*
X119750000Y-71774914D01*
X119750000Y-71774914D02*
X119835714Y-71689200D01*
X119835714Y-71689200D02*
X119878571Y-71517771D01*
X119878571Y-71517771D02*
X119878571Y-70832057D01*
X119878571Y-70832057D02*
X119835714Y-70660628D01*
X119835714Y-70660628D02*
X119750000Y-70574914D01*
X119750000Y-70574914D02*
X119578571Y-70574914D01*
X119578571Y-70574914D02*
X119492857Y-70660628D01*
X119492857Y-70660628D02*
X119450000Y-70832057D01*
X119450000Y-70832057D02*
X119450000Y-71003485D01*
X119450000Y-71003485D02*
X119878571Y-71174914D01*
X118678571Y-71774914D02*
X118678571Y-70832057D01*
X118678571Y-70832057D02*
X118721428Y-70660628D01*
X118721428Y-70660628D02*
X118807142Y-70574914D01*
X118807142Y-70574914D02*
X118978571Y-70574914D01*
X118978571Y-70574914D02*
X119064285Y-70660628D01*
X118678571Y-71689200D02*
X118764285Y-71774914D01*
X118764285Y-71774914D02*
X118978571Y-71774914D01*
X118978571Y-71774914D02*
X119064285Y-71689200D01*
X119064285Y-71689200D02*
X119107142Y-71517771D01*
X119107142Y-71517771D02*
X119107142Y-71346342D01*
X119107142Y-71346342D02*
X119064285Y-71174914D01*
X119064285Y-71174914D02*
X118978571Y-71089200D01*
X118978571Y-71089200D02*
X118764285Y-71089200D01*
X118764285Y-71089200D02*
X118678571Y-71003485D01*
X118249999Y-71774914D02*
X118249999Y-70574914D01*
X118249999Y-70917771D02*
X118207142Y-70746342D01*
X118207142Y-70746342D02*
X118164285Y-70660628D01*
X118164285Y-70660628D02*
X118078570Y-70574914D01*
X118078570Y-70574914D02*
X117992856Y-70574914D01*
X117692856Y-71603485D02*
X117649999Y-71689200D01*
X117649999Y-71689200D02*
X117692856Y-71774914D01*
X117692856Y-71774914D02*
X117735713Y-71689200D01*
X117735713Y-71689200D02*
X117692856Y-71603485D01*
X117692856Y-71603485D02*
X117692856Y-71774914D01*
X116878571Y-71689200D02*
X116964285Y-71774914D01*
X116964285Y-71774914D02*
X117135713Y-71774914D01*
X117135713Y-71774914D02*
X117221428Y-71689200D01*
X117221428Y-71689200D02*
X117264285Y-71603485D01*
X117264285Y-71603485D02*
X117307142Y-71432057D01*
X117307142Y-71432057D02*
X117307142Y-70917771D01*
X117307142Y-70917771D02*
X117264285Y-70746342D01*
X117264285Y-70746342D02*
X117221428Y-70660628D01*
X117221428Y-70660628D02*
X117135713Y-70574914D01*
X117135713Y-70574914D02*
X116964285Y-70574914D01*
X116964285Y-70574914D02*
X116878571Y-70660628D01*
X116364284Y-71774914D02*
X116449999Y-71689200D01*
X116449999Y-71689200D02*
X116492856Y-71603485D01*
X116492856Y-71603485D02*
X116535713Y-71432057D01*
X116535713Y-71432057D02*
X116535713Y-70917771D01*
X116535713Y-70917771D02*
X116492856Y-70746342D01*
X116492856Y-70746342D02*
X116449999Y-70660628D01*
X116449999Y-70660628D02*
X116364284Y-70574914D01*
X116364284Y-70574914D02*
X116235713Y-70574914D01*
X116235713Y-70574914D02*
X116149999Y-70660628D01*
X116149999Y-70660628D02*
X116107142Y-70746342D01*
X116107142Y-70746342D02*
X116064284Y-70917771D01*
X116064284Y-70917771D02*
X116064284Y-71432057D01*
X116064284Y-71432057D02*
X116107142Y-71603485D01*
X116107142Y-71603485D02*
X116149999Y-71689200D01*
X116149999Y-71689200D02*
X116235713Y-71774914D01*
X116235713Y-71774914D02*
X116364284Y-71774914D01*
X115678570Y-71774914D02*
X115678570Y-70574914D01*
X115678570Y-70746342D02*
X115635713Y-70660628D01*
X115635713Y-70660628D02*
X115549998Y-70574914D01*
X115549998Y-70574914D02*
X115421427Y-70574914D01*
X115421427Y-70574914D02*
X115335713Y-70660628D01*
X115335713Y-70660628D02*
X115292856Y-70832057D01*
X115292856Y-70832057D02*
X115292856Y-71774914D01*
X115292856Y-70832057D02*
X115249998Y-70660628D01*
X115249998Y-70660628D02*
X115164284Y-70574914D01*
X115164284Y-70574914D02*
X115035713Y-70574914D01*
X115035713Y-70574914D02*
X114949998Y-70660628D01*
X114949998Y-70660628D02*
X114907141Y-70832057D01*
X114907141Y-70832057D02*
X114907141Y-71774914D01*
X113835713Y-69889200D02*
X114607141Y-72203485D01*
X113034819Y-83725714D02*
X112558628Y-83459047D01*
X113034819Y-83268571D02*
X112034819Y-83268571D01*
X112034819Y-83268571D02*
X112034819Y-83573333D01*
X112034819Y-83573333D02*
X112082438Y-83649523D01*
X112082438Y-83649523D02*
X112130057Y-83687618D01*
X112130057Y-83687618D02*
X112225295Y-83725714D01*
X112225295Y-83725714D02*
X112368152Y-83725714D01*
X112368152Y-83725714D02*
X112463390Y-83687618D01*
X112463390Y-83687618D02*
X112511009Y-83649523D01*
X112511009Y-83649523D02*
X112558628Y-83573333D01*
X112558628Y-83573333D02*
X112558628Y-83268571D01*
X113034819Y-84487618D02*
X113034819Y-84030475D01*
X113034819Y-84259047D02*
X112034819Y-84259047D01*
X112034819Y-84259047D02*
X112177676Y-84182856D01*
X112177676Y-84182856D02*
X112272914Y-84106666D01*
X112272914Y-84106666D02*
X112320533Y-84030475D01*
X112368152Y-85173333D02*
X113034819Y-85173333D01*
X111987200Y-84982857D02*
X112701485Y-84792380D01*
X112701485Y-84792380D02*
X112701485Y-85287619D01*
X142242857Y-64454819D02*
X142576190Y-63978628D01*
X142814285Y-64454819D02*
X142814285Y-63454819D01*
X142814285Y-63454819D02*
X142433333Y-63454819D01*
X142433333Y-63454819D02*
X142338095Y-63502438D01*
X142338095Y-63502438D02*
X142290476Y-63550057D01*
X142290476Y-63550057D02*
X142242857Y-63645295D01*
X142242857Y-63645295D02*
X142242857Y-63788152D01*
X142242857Y-63788152D02*
X142290476Y-63883390D01*
X142290476Y-63883390D02*
X142338095Y-63931009D01*
X142338095Y-63931009D02*
X142433333Y-63978628D01*
X142433333Y-63978628D02*
X142814285Y-63978628D01*
X141290476Y-64454819D02*
X141861904Y-64454819D01*
X141576190Y-64454819D02*
X141576190Y-63454819D01*
X141576190Y-63454819D02*
X141671428Y-63597676D01*
X141671428Y-63597676D02*
X141766666Y-63692914D01*
X141766666Y-63692914D02*
X141861904Y-63740533D01*
X140671428Y-63454819D02*
X140576190Y-63454819D01*
X140576190Y-63454819D02*
X140480952Y-63502438D01*
X140480952Y-63502438D02*
X140433333Y-63550057D01*
X140433333Y-63550057D02*
X140385714Y-63645295D01*
X140385714Y-63645295D02*
X140338095Y-63835771D01*
X140338095Y-63835771D02*
X140338095Y-64073866D01*
X140338095Y-64073866D02*
X140385714Y-64264342D01*
X140385714Y-64264342D02*
X140433333Y-64359580D01*
X140433333Y-64359580D02*
X140480952Y-64407200D01*
X140480952Y-64407200D02*
X140576190Y-64454819D01*
X140576190Y-64454819D02*
X140671428Y-64454819D01*
X140671428Y-64454819D02*
X140766666Y-64407200D01*
X140766666Y-64407200D02*
X140814285Y-64359580D01*
X140814285Y-64359580D02*
X140861904Y-64264342D01*
X140861904Y-64264342D02*
X140909523Y-64073866D01*
X140909523Y-64073866D02*
X140909523Y-63835771D01*
X140909523Y-63835771D02*
X140861904Y-63645295D01*
X140861904Y-63645295D02*
X140814285Y-63550057D01*
X140814285Y-63550057D02*
X140766666Y-63502438D01*
X140766666Y-63502438D02*
X140671428Y-63454819D01*
X123014285Y-77859580D02*
X123052381Y-77907200D01*
X123052381Y-77907200D02*
X123166666Y-77954819D01*
X123166666Y-77954819D02*
X123242857Y-77954819D01*
X123242857Y-77954819D02*
X123357143Y-77907200D01*
X123357143Y-77907200D02*
X123433333Y-77811961D01*
X123433333Y-77811961D02*
X123471428Y-77716723D01*
X123471428Y-77716723D02*
X123509524Y-77526247D01*
X123509524Y-77526247D02*
X123509524Y-77383390D01*
X123509524Y-77383390D02*
X123471428Y-77192914D01*
X123471428Y-77192914D02*
X123433333Y-77097676D01*
X123433333Y-77097676D02*
X123357143Y-77002438D01*
X123357143Y-77002438D02*
X123242857Y-76954819D01*
X123242857Y-76954819D02*
X123166666Y-76954819D01*
X123166666Y-76954819D02*
X123052381Y-77002438D01*
X123052381Y-77002438D02*
X123014285Y-77050057D01*
X122252381Y-77954819D02*
X122709524Y-77954819D01*
X122480952Y-77954819D02*
X122480952Y-76954819D01*
X122480952Y-76954819D02*
X122557143Y-77097676D01*
X122557143Y-77097676D02*
X122633333Y-77192914D01*
X122633333Y-77192914D02*
X122709524Y-77240533D01*
X121490476Y-77954819D02*
X121947619Y-77954819D01*
X121719047Y-77954819D02*
X121719047Y-76954819D01*
X121719047Y-76954819D02*
X121795238Y-77097676D01*
X121795238Y-77097676D02*
X121871428Y-77192914D01*
X121871428Y-77192914D02*
X121947619Y-77240533D01*
X142242857Y-69454819D02*
X142576190Y-68978628D01*
X142814285Y-69454819D02*
X142814285Y-68454819D01*
X142814285Y-68454819D02*
X142433333Y-68454819D01*
X142433333Y-68454819D02*
X142338095Y-68502438D01*
X142338095Y-68502438D02*
X142290476Y-68550057D01*
X142290476Y-68550057D02*
X142242857Y-68645295D01*
X142242857Y-68645295D02*
X142242857Y-68788152D01*
X142242857Y-68788152D02*
X142290476Y-68883390D01*
X142290476Y-68883390D02*
X142338095Y-68931009D01*
X142338095Y-68931009D02*
X142433333Y-68978628D01*
X142433333Y-68978628D02*
X142814285Y-68978628D01*
X141290476Y-69454819D02*
X141861904Y-69454819D01*
X141576190Y-69454819D02*
X141576190Y-68454819D01*
X141576190Y-68454819D02*
X141671428Y-68597676D01*
X141671428Y-68597676D02*
X141766666Y-68692914D01*
X141766666Y-68692914D02*
X141861904Y-68740533D01*
X140338095Y-69454819D02*
X140909523Y-69454819D01*
X140623809Y-69454819D02*
X140623809Y-68454819D01*
X140623809Y-68454819D02*
X140719047Y-68597676D01*
X140719047Y-68597676D02*
X140814285Y-68692914D01*
X140814285Y-68692914D02*
X140909523Y-68740533D01*
X120133332Y-96859580D02*
X120171428Y-96907200D01*
X120171428Y-96907200D02*
X120285713Y-96954819D01*
X120285713Y-96954819D02*
X120361904Y-96954819D01*
X120361904Y-96954819D02*
X120476190Y-96907200D01*
X120476190Y-96907200D02*
X120552380Y-96811961D01*
X120552380Y-96811961D02*
X120590475Y-96716723D01*
X120590475Y-96716723D02*
X120628571Y-96526247D01*
X120628571Y-96526247D02*
X120628571Y-96383390D01*
X120628571Y-96383390D02*
X120590475Y-96192914D01*
X120590475Y-96192914D02*
X120552380Y-96097676D01*
X120552380Y-96097676D02*
X120476190Y-96002438D01*
X120476190Y-96002438D02*
X120361904Y-95954819D01*
X120361904Y-95954819D02*
X120285713Y-95954819D01*
X120285713Y-95954819D02*
X120171428Y-96002438D01*
X120171428Y-96002438D02*
X120133332Y-96050057D01*
X119676190Y-96383390D02*
X119752380Y-96335771D01*
X119752380Y-96335771D02*
X119790475Y-96288152D01*
X119790475Y-96288152D02*
X119828571Y-96192914D01*
X119828571Y-96192914D02*
X119828571Y-96145295D01*
X119828571Y-96145295D02*
X119790475Y-96050057D01*
X119790475Y-96050057D02*
X119752380Y-96002438D01*
X119752380Y-96002438D02*
X119676190Y-95954819D01*
X119676190Y-95954819D02*
X119523809Y-95954819D01*
X119523809Y-95954819D02*
X119447618Y-96002438D01*
X119447618Y-96002438D02*
X119409523Y-96050057D01*
X119409523Y-96050057D02*
X119371428Y-96145295D01*
X119371428Y-96145295D02*
X119371428Y-96192914D01*
X119371428Y-96192914D02*
X119409523Y-96288152D01*
X119409523Y-96288152D02*
X119447618Y-96335771D01*
X119447618Y-96335771D02*
X119523809Y-96383390D01*
X119523809Y-96383390D02*
X119676190Y-96383390D01*
X119676190Y-96383390D02*
X119752380Y-96431009D01*
X119752380Y-96431009D02*
X119790475Y-96478628D01*
X119790475Y-96478628D02*
X119828571Y-96573866D01*
X119828571Y-96573866D02*
X119828571Y-96764342D01*
X119828571Y-96764342D02*
X119790475Y-96859580D01*
X119790475Y-96859580D02*
X119752380Y-96907200D01*
X119752380Y-96907200D02*
X119676190Y-96954819D01*
X119676190Y-96954819D02*
X119523809Y-96954819D01*
X119523809Y-96954819D02*
X119447618Y-96907200D01*
X119447618Y-96907200D02*
X119409523Y-96859580D01*
X119409523Y-96859580D02*
X119371428Y-96764342D01*
X119371428Y-96764342D02*
X119371428Y-96573866D01*
X119371428Y-96573866D02*
X119409523Y-96478628D01*
X119409523Y-96478628D02*
X119447618Y-96431009D01*
X119447618Y-96431009D02*
X119523809Y-96383390D01*
X106615475Y-97954819D02*
X106615475Y-96954819D01*
X106615475Y-96954819D02*
X106424999Y-96954819D01*
X106424999Y-96954819D02*
X106310713Y-97002438D01*
X106310713Y-97002438D02*
X106234523Y-97097676D01*
X106234523Y-97097676D02*
X106196428Y-97192914D01*
X106196428Y-97192914D02*
X106158332Y-97383390D01*
X106158332Y-97383390D02*
X106158332Y-97526247D01*
X106158332Y-97526247D02*
X106196428Y-97716723D01*
X106196428Y-97716723D02*
X106234523Y-97811961D01*
X106234523Y-97811961D02*
X106310713Y-97907200D01*
X106310713Y-97907200D02*
X106424999Y-97954819D01*
X106424999Y-97954819D02*
X106615475Y-97954819D01*
X105396428Y-97954819D02*
X105853571Y-97954819D01*
X105624999Y-97954819D02*
X105624999Y-96954819D01*
X105624999Y-96954819D02*
X105701190Y-97097676D01*
X105701190Y-97097676D02*
X105777380Y-97192914D01*
X105777380Y-97192914D02*
X105853571Y-97240533D01*
X124439580Y-58866667D02*
X124487200Y-58828571D01*
X124487200Y-58828571D02*
X124534819Y-58714286D01*
X124534819Y-58714286D02*
X124534819Y-58638095D01*
X124534819Y-58638095D02*
X124487200Y-58523809D01*
X124487200Y-58523809D02*
X124391961Y-58447619D01*
X124391961Y-58447619D02*
X124296723Y-58409524D01*
X124296723Y-58409524D02*
X124106247Y-58371428D01*
X124106247Y-58371428D02*
X123963390Y-58371428D01*
X123963390Y-58371428D02*
X123772914Y-58409524D01*
X123772914Y-58409524D02*
X123677676Y-58447619D01*
X123677676Y-58447619D02*
X123582438Y-58523809D01*
X123582438Y-58523809D02*
X123534819Y-58638095D01*
X123534819Y-58638095D02*
X123534819Y-58714286D01*
X123534819Y-58714286D02*
X123582438Y-58828571D01*
X123582438Y-58828571D02*
X123630057Y-58866667D01*
X124534819Y-59247619D02*
X124534819Y-59400000D01*
X124534819Y-59400000D02*
X124487200Y-59476190D01*
X124487200Y-59476190D02*
X124439580Y-59514286D01*
X124439580Y-59514286D02*
X124296723Y-59590476D01*
X124296723Y-59590476D02*
X124106247Y-59628571D01*
X124106247Y-59628571D02*
X123725295Y-59628571D01*
X123725295Y-59628571D02*
X123630057Y-59590476D01*
X123630057Y-59590476D02*
X123582438Y-59552381D01*
X123582438Y-59552381D02*
X123534819Y-59476190D01*
X123534819Y-59476190D02*
X123534819Y-59323809D01*
X123534819Y-59323809D02*
X123582438Y-59247619D01*
X123582438Y-59247619D02*
X123630057Y-59209524D01*
X123630057Y-59209524D02*
X123725295Y-59171428D01*
X123725295Y-59171428D02*
X123963390Y-59171428D01*
X123963390Y-59171428D02*
X124058628Y-59209524D01*
X124058628Y-59209524D02*
X124106247Y-59247619D01*
X124106247Y-59247619D02*
X124153866Y-59323809D01*
X124153866Y-59323809D02*
X124153866Y-59476190D01*
X124153866Y-59476190D02*
X124106247Y-59552381D01*
X124106247Y-59552381D02*
X124058628Y-59590476D01*
X124058628Y-59590476D02*
X123963390Y-59628571D01*
X129954819Y-103238095D02*
X130764342Y-103238095D01*
X130764342Y-103238095D02*
X130859580Y-103285714D01*
X130859580Y-103285714D02*
X130907200Y-103333333D01*
X130907200Y-103333333D02*
X130954819Y-103428571D01*
X130954819Y-103428571D02*
X130954819Y-103619047D01*
X130954819Y-103619047D02*
X130907200Y-103714285D01*
X130907200Y-103714285D02*
X130859580Y-103761904D01*
X130859580Y-103761904D02*
X130764342Y-103809523D01*
X130764342Y-103809523D02*
X129954819Y-103809523D01*
X130954819Y-104809523D02*
X130954819Y-104238095D01*
X130954819Y-104523809D02*
X129954819Y-104523809D01*
X129954819Y-104523809D02*
X130097676Y-104428571D01*
X130097676Y-104428571D02*
X130192914Y-104333333D01*
X130192914Y-104333333D02*
X130240533Y-104238095D01*
D14*
X138055339Y-101571428D02*
X137055339Y-101571428D01*
X137055339Y-101571428D02*
X138055339Y-101960000D01*
X138055339Y-101960000D02*
X137055339Y-101960000D01*
X137055339Y-102478095D02*
X137769624Y-102478095D01*
X137769624Y-102478095D02*
X137912481Y-102445714D01*
X137912481Y-102445714D02*
X138007720Y-102380952D01*
X138007720Y-102380952D02*
X138055339Y-102283809D01*
X138055339Y-102283809D02*
X138055339Y-102219047D01*
X137055339Y-102801904D02*
X137864862Y-102801904D01*
X137864862Y-102801904D02*
X137960100Y-102834285D01*
X137960100Y-102834285D02*
X138007720Y-102866666D01*
X138007720Y-102866666D02*
X138055339Y-102931428D01*
X138055339Y-102931428D02*
X138055339Y-103060952D01*
X138055339Y-103060952D02*
X138007720Y-103125714D01*
X138007720Y-103125714D02*
X137960100Y-103158095D01*
X137960100Y-103158095D02*
X137864862Y-103190476D01*
X137864862Y-103190476D02*
X137055339Y-103190476D01*
X137055339Y-103449523D02*
X137055339Y-103902857D01*
X137055339Y-103902857D02*
X138055339Y-103611428D01*
X137150577Y-104129523D02*
X137102958Y-104161904D01*
X137102958Y-104161904D02*
X137055339Y-104226666D01*
X137055339Y-104226666D02*
X137055339Y-104388571D01*
X137055339Y-104388571D02*
X137102958Y-104453333D01*
X137102958Y-104453333D02*
X137150577Y-104485714D01*
X137150577Y-104485714D02*
X137245815Y-104518095D01*
X137245815Y-104518095D02*
X137341053Y-104518095D01*
X137341053Y-104518095D02*
X137483910Y-104485714D01*
X137483910Y-104485714D02*
X138055339Y-104097142D01*
X138055339Y-104097142D02*
X138055339Y-104518095D01*
X137055339Y-104939047D02*
X137055339Y-105003809D01*
X137055339Y-105003809D02*
X137102958Y-105068571D01*
X137102958Y-105068571D02*
X137150577Y-105100952D01*
X137150577Y-105100952D02*
X137245815Y-105133333D01*
X137245815Y-105133333D02*
X137436291Y-105165714D01*
X137436291Y-105165714D02*
X137674386Y-105165714D01*
X137674386Y-105165714D02*
X137864862Y-105133333D01*
X137864862Y-105133333D02*
X137960100Y-105100952D01*
X137960100Y-105100952D02*
X138007720Y-105068571D01*
X138007720Y-105068571D02*
X138055339Y-105003809D01*
X138055339Y-105003809D02*
X138055339Y-104939047D01*
X138055339Y-104939047D02*
X138007720Y-104874285D01*
X138007720Y-104874285D02*
X137960100Y-104841904D01*
X137960100Y-104841904D02*
X137864862Y-104809523D01*
X137864862Y-104809523D02*
X137674386Y-104777142D01*
X137674386Y-104777142D02*
X137436291Y-104777142D01*
X137436291Y-104777142D02*
X137245815Y-104809523D01*
X137245815Y-104809523D02*
X137150577Y-104841904D01*
X137150577Y-104841904D02*
X137102958Y-104874285D01*
X137102958Y-104874285D02*
X137055339Y-104939047D01*
X137055339Y-105748571D02*
X137055339Y-105619047D01*
X137055339Y-105619047D02*
X137102958Y-105554285D01*
X137102958Y-105554285D02*
X137150577Y-105521904D01*
X137150577Y-105521904D02*
X137293434Y-105457142D01*
X137293434Y-105457142D02*
X137483910Y-105424761D01*
X137483910Y-105424761D02*
X137864862Y-105424761D01*
X137864862Y-105424761D02*
X137960100Y-105457142D01*
X137960100Y-105457142D02*
X138007720Y-105489523D01*
X138007720Y-105489523D02*
X138055339Y-105554285D01*
X138055339Y-105554285D02*
X138055339Y-105683809D01*
X138055339Y-105683809D02*
X138007720Y-105748571D01*
X138007720Y-105748571D02*
X137960100Y-105780952D01*
X137960100Y-105780952D02*
X137864862Y-105813333D01*
X137864862Y-105813333D02*
X137626767Y-105813333D01*
X137626767Y-105813333D02*
X137531529Y-105780952D01*
X137531529Y-105780952D02*
X137483910Y-105748571D01*
X137483910Y-105748571D02*
X137436291Y-105683809D01*
X137436291Y-105683809D02*
X137436291Y-105554285D01*
X137436291Y-105554285D02*
X137483910Y-105489523D01*
X137483910Y-105489523D02*
X137531529Y-105457142D01*
X137531529Y-105457142D02*
X137626767Y-105424761D01*
X137055339Y-106234285D02*
X137055339Y-106299047D01*
X137055339Y-106299047D02*
X137102958Y-106363809D01*
X137102958Y-106363809D02*
X137150577Y-106396190D01*
X137150577Y-106396190D02*
X137245815Y-106428571D01*
X137245815Y-106428571D02*
X137436291Y-106460952D01*
X137436291Y-106460952D02*
X137674386Y-106460952D01*
X137674386Y-106460952D02*
X137864862Y-106428571D01*
X137864862Y-106428571D02*
X137960100Y-106396190D01*
X137960100Y-106396190D02*
X138007720Y-106363809D01*
X138007720Y-106363809D02*
X138055339Y-106299047D01*
X138055339Y-106299047D02*
X138055339Y-106234285D01*
X138055339Y-106234285D02*
X138007720Y-106169523D01*
X138007720Y-106169523D02*
X137960100Y-106137142D01*
X137960100Y-106137142D02*
X137864862Y-106104761D01*
X137864862Y-106104761D02*
X137674386Y-106072380D01*
X137674386Y-106072380D02*
X137436291Y-106072380D01*
X137436291Y-106072380D02*
X137245815Y-106104761D01*
X137245815Y-106104761D02*
X137150577Y-106137142D01*
X137150577Y-106137142D02*
X137102958Y-106169523D01*
X137102958Y-106169523D02*
X137055339Y-106234285D01*
D11*
X125934819Y-62328095D02*
X126744342Y-62328095D01*
X126744342Y-62328095D02*
X126839580Y-62375714D01*
X126839580Y-62375714D02*
X126887200Y-62423333D01*
X126887200Y-62423333D02*
X126934819Y-62518571D01*
X126934819Y-62518571D02*
X126934819Y-62709047D01*
X126934819Y-62709047D02*
X126887200Y-62804285D01*
X126887200Y-62804285D02*
X126839580Y-62851904D01*
X126839580Y-62851904D02*
X126744342Y-62899523D01*
X126744342Y-62899523D02*
X125934819Y-62899523D01*
X125934819Y-63280476D02*
X125934819Y-63899523D01*
X125934819Y-63899523D02*
X126315771Y-63566190D01*
X126315771Y-63566190D02*
X126315771Y-63709047D01*
X126315771Y-63709047D02*
X126363390Y-63804285D01*
X126363390Y-63804285D02*
X126411009Y-63851904D01*
X126411009Y-63851904D02*
X126506247Y-63899523D01*
X126506247Y-63899523D02*
X126744342Y-63899523D01*
X126744342Y-63899523D02*
X126839580Y-63851904D01*
X126839580Y-63851904D02*
X126887200Y-63804285D01*
X126887200Y-63804285D02*
X126934819Y-63709047D01*
X126934819Y-63709047D02*
X126934819Y-63423333D01*
X126934819Y-63423333D02*
X126887200Y-63328095D01*
X126887200Y-63328095D02*
X126839580Y-63280476D01*
X134024819Y-60961904D02*
X133024819Y-60961904D01*
X134024819Y-61419047D02*
X133453390Y-61076189D01*
X133024819Y-61419047D02*
X133596247Y-60961904D01*
X133024819Y-61647618D02*
X133024819Y-62104761D01*
X134024819Y-61876189D02*
X133024819Y-61876189D01*
X133024819Y-62523809D02*
X133024819Y-62599999D01*
X133024819Y-62599999D02*
X133072438Y-62676190D01*
X133072438Y-62676190D02*
X133120057Y-62714285D01*
X133120057Y-62714285D02*
X133215295Y-62752380D01*
X133215295Y-62752380D02*
X133405771Y-62790475D01*
X133405771Y-62790475D02*
X133643866Y-62790475D01*
X133643866Y-62790475D02*
X133834342Y-62752380D01*
X133834342Y-62752380D02*
X133929580Y-62714285D01*
X133929580Y-62714285D02*
X133977200Y-62676190D01*
X133977200Y-62676190D02*
X134024819Y-62599999D01*
X134024819Y-62599999D02*
X134024819Y-62523809D01*
X134024819Y-62523809D02*
X133977200Y-62447618D01*
X133977200Y-62447618D02*
X133929580Y-62409523D01*
X133929580Y-62409523D02*
X133834342Y-62371428D01*
X133834342Y-62371428D02*
X133643866Y-62333332D01*
X133643866Y-62333332D02*
X133405771Y-62333332D01*
X133405771Y-62333332D02*
X133215295Y-62371428D01*
X133215295Y-62371428D02*
X133120057Y-62409523D01*
X133120057Y-62409523D02*
X133072438Y-62447618D01*
X133072438Y-62447618D02*
X133024819Y-62523809D01*
X134024819Y-63171428D02*
X134024819Y-63323809D01*
X134024819Y-63323809D02*
X133977200Y-63399999D01*
X133977200Y-63399999D02*
X133929580Y-63438095D01*
X133929580Y-63438095D02*
X133786723Y-63514285D01*
X133786723Y-63514285D02*
X133596247Y-63552380D01*
X133596247Y-63552380D02*
X133215295Y-63552380D01*
X133215295Y-63552380D02*
X133120057Y-63514285D01*
X133120057Y-63514285D02*
X133072438Y-63476190D01*
X133072438Y-63476190D02*
X133024819Y-63399999D01*
X133024819Y-63399999D02*
X133024819Y-63247618D01*
X133024819Y-63247618D02*
X133072438Y-63171428D01*
X133072438Y-63171428D02*
X133120057Y-63133333D01*
X133120057Y-63133333D02*
X133215295Y-63095237D01*
X133215295Y-63095237D02*
X133453390Y-63095237D01*
X133453390Y-63095237D02*
X133548628Y-63133333D01*
X133548628Y-63133333D02*
X133596247Y-63171428D01*
X133596247Y-63171428D02*
X133643866Y-63247618D01*
X133643866Y-63247618D02*
X133643866Y-63399999D01*
X133643866Y-63399999D02*
X133596247Y-63476190D01*
X133596247Y-63476190D02*
X133548628Y-63514285D01*
X133548628Y-63514285D02*
X133453390Y-63552380D01*
X134024819Y-64314285D02*
X134024819Y-63857142D01*
X134024819Y-64085714D02*
X133024819Y-64085714D01*
X133024819Y-64085714D02*
X133167676Y-64009523D01*
X133167676Y-64009523D02*
X133262914Y-63933333D01*
X133262914Y-63933333D02*
X133310533Y-63857142D01*
X133024819Y-64580952D02*
X133024819Y-65076190D01*
X133024819Y-65076190D02*
X133405771Y-64809524D01*
X133405771Y-64809524D02*
X133405771Y-64923809D01*
X133405771Y-64923809D02*
X133453390Y-65000000D01*
X133453390Y-65000000D02*
X133501009Y-65038095D01*
X133501009Y-65038095D02*
X133596247Y-65076190D01*
X133596247Y-65076190D02*
X133834342Y-65076190D01*
X133834342Y-65076190D02*
X133929580Y-65038095D01*
X133929580Y-65038095D02*
X133977200Y-65000000D01*
X133977200Y-65000000D02*
X134024819Y-64923809D01*
X134024819Y-64923809D02*
X134024819Y-64695238D01*
X134024819Y-64695238D02*
X133977200Y-64619047D01*
X133977200Y-64619047D02*
X133929580Y-64580952D01*
X116859580Y-103966667D02*
X116907200Y-103928571D01*
X116907200Y-103928571D02*
X116954819Y-103814286D01*
X116954819Y-103814286D02*
X116954819Y-103738095D01*
X116954819Y-103738095D02*
X116907200Y-103623809D01*
X116907200Y-103623809D02*
X116811961Y-103547619D01*
X116811961Y-103547619D02*
X116716723Y-103509524D01*
X116716723Y-103509524D02*
X116526247Y-103471428D01*
X116526247Y-103471428D02*
X116383390Y-103471428D01*
X116383390Y-103471428D02*
X116192914Y-103509524D01*
X116192914Y-103509524D02*
X116097676Y-103547619D01*
X116097676Y-103547619D02*
X116002438Y-103623809D01*
X116002438Y-103623809D02*
X115954819Y-103738095D01*
X115954819Y-103738095D02*
X115954819Y-103814286D01*
X115954819Y-103814286D02*
X116002438Y-103928571D01*
X116002438Y-103928571D02*
X116050057Y-103966667D01*
X116050057Y-104271428D02*
X116002438Y-104309524D01*
X116002438Y-104309524D02*
X115954819Y-104385714D01*
X115954819Y-104385714D02*
X115954819Y-104576190D01*
X115954819Y-104576190D02*
X116002438Y-104652381D01*
X116002438Y-104652381D02*
X116050057Y-104690476D01*
X116050057Y-104690476D02*
X116145295Y-104728571D01*
X116145295Y-104728571D02*
X116240533Y-104728571D01*
X116240533Y-104728571D02*
X116383390Y-104690476D01*
X116383390Y-104690476D02*
X116954819Y-104233333D01*
X116954819Y-104233333D02*
X116954819Y-104728571D01*
X142342857Y-71504819D02*
X142676190Y-71028628D01*
X142914285Y-71504819D02*
X142914285Y-70504819D01*
X142914285Y-70504819D02*
X142533333Y-70504819D01*
X142533333Y-70504819D02*
X142438095Y-70552438D01*
X142438095Y-70552438D02*
X142390476Y-70600057D01*
X142390476Y-70600057D02*
X142342857Y-70695295D01*
X142342857Y-70695295D02*
X142342857Y-70838152D01*
X142342857Y-70838152D02*
X142390476Y-70933390D01*
X142390476Y-70933390D02*
X142438095Y-70981009D01*
X142438095Y-70981009D02*
X142533333Y-71028628D01*
X142533333Y-71028628D02*
X142914285Y-71028628D01*
X141390476Y-71504819D02*
X141961904Y-71504819D01*
X141676190Y-71504819D02*
X141676190Y-70504819D01*
X141676190Y-70504819D02*
X141771428Y-70647676D01*
X141771428Y-70647676D02*
X141866666Y-70742914D01*
X141866666Y-70742914D02*
X141961904Y-70790533D01*
X141057142Y-70504819D02*
X140438095Y-70504819D01*
X140438095Y-70504819D02*
X140771428Y-70885771D01*
X140771428Y-70885771D02*
X140628571Y-70885771D01*
X140628571Y-70885771D02*
X140533333Y-70933390D01*
X140533333Y-70933390D02*
X140485714Y-70981009D01*
X140485714Y-70981009D02*
X140438095Y-71076247D01*
X140438095Y-71076247D02*
X140438095Y-71314342D01*
X140438095Y-71314342D02*
X140485714Y-71409580D01*
X140485714Y-71409580D02*
X140533333Y-71457200D01*
X140533333Y-71457200D02*
X140628571Y-71504819D01*
X140628571Y-71504819D02*
X140914285Y-71504819D01*
X140914285Y-71504819D02*
X141009523Y-71457200D01*
X141009523Y-71457200D02*
X141057142Y-71409580D01*
D12*
X102962733Y-101066666D02*
X104362733Y-101066666D01*
X103096066Y-99599999D02*
X103029400Y-99666666D01*
X103029400Y-99666666D02*
X102962733Y-99866666D01*
X102962733Y-99866666D02*
X102962733Y-99999999D01*
X102962733Y-99999999D02*
X103029400Y-100199999D01*
X103029400Y-100199999D02*
X103162733Y-100333333D01*
X103162733Y-100333333D02*
X103296066Y-100399999D01*
X103296066Y-100399999D02*
X103562733Y-100466666D01*
X103562733Y-100466666D02*
X103762733Y-100466666D01*
X103762733Y-100466666D02*
X104029400Y-100399999D01*
X104029400Y-100399999D02*
X104162733Y-100333333D01*
X104162733Y-100333333D02*
X104296066Y-100199999D01*
X104296066Y-100199999D02*
X104362733Y-99999999D01*
X104362733Y-99999999D02*
X104362733Y-99866666D01*
X104362733Y-99866666D02*
X104296066Y-99666666D01*
X104296066Y-99666666D02*
X104229400Y-99599999D01*
X103029400Y-99066666D02*
X102962733Y-98866666D01*
X102962733Y-98866666D02*
X102962733Y-98533333D01*
X102962733Y-98533333D02*
X103029400Y-98399999D01*
X103029400Y-98399999D02*
X103096066Y-98333333D01*
X103096066Y-98333333D02*
X103229400Y-98266666D01*
X103229400Y-98266666D02*
X103362733Y-98266666D01*
X103362733Y-98266666D02*
X103496066Y-98333333D01*
X103496066Y-98333333D02*
X103562733Y-98399999D01*
X103562733Y-98399999D02*
X103629400Y-98533333D01*
X103629400Y-98533333D02*
X103696066Y-98799999D01*
X103696066Y-98799999D02*
X103762733Y-98933333D01*
X103762733Y-98933333D02*
X103829400Y-98999999D01*
X103829400Y-98999999D02*
X103962733Y-99066666D01*
X103962733Y-99066666D02*
X104096066Y-99066666D01*
X104096066Y-99066666D02*
X104229400Y-98999999D01*
X104229400Y-98999999D02*
X104296066Y-98933333D01*
X104296066Y-98933333D02*
X104362733Y-98799999D01*
X104362733Y-98799999D02*
X104362733Y-98466666D01*
X104362733Y-98466666D02*
X104296066Y-98266666D01*
X102962733Y-97666666D02*
X104362733Y-97666666D01*
X104362733Y-97666666D02*
X104362733Y-97133333D01*
X104362733Y-97133333D02*
X104296066Y-97000000D01*
X104296066Y-97000000D02*
X104229400Y-96933333D01*
X104229400Y-96933333D02*
X104096066Y-96866666D01*
X104096066Y-96866666D02*
X103896066Y-96866666D01*
X103896066Y-96866666D02*
X103762733Y-96933333D01*
X103762733Y-96933333D02*
X103696066Y-97000000D01*
X103696066Y-97000000D02*
X103629400Y-97133333D01*
X103629400Y-97133333D02*
X103629400Y-97666666D01*
D11*
X118322842Y-103966667D02*
X118365700Y-103928571D01*
X118365700Y-103928571D02*
X118408557Y-103814286D01*
X118408557Y-103814286D02*
X118408557Y-103738095D01*
X118408557Y-103738095D02*
X118365700Y-103623809D01*
X118365700Y-103623809D02*
X118279985Y-103547619D01*
X118279985Y-103547619D02*
X118194271Y-103509524D01*
X118194271Y-103509524D02*
X118022842Y-103471428D01*
X118022842Y-103471428D02*
X117894271Y-103471428D01*
X117894271Y-103471428D02*
X117722842Y-103509524D01*
X117722842Y-103509524D02*
X117637128Y-103547619D01*
X117637128Y-103547619D02*
X117551414Y-103623809D01*
X117551414Y-103623809D02*
X117508557Y-103738095D01*
X117508557Y-103738095D02*
X117508557Y-103814286D01*
X117508557Y-103814286D02*
X117551414Y-103928571D01*
X117551414Y-103928571D02*
X117594271Y-103966667D01*
X117508557Y-104233333D02*
X117508557Y-104728571D01*
X117508557Y-104728571D02*
X117851414Y-104461905D01*
X117851414Y-104461905D02*
X117851414Y-104576190D01*
X117851414Y-104576190D02*
X117894271Y-104652381D01*
X117894271Y-104652381D02*
X117937128Y-104690476D01*
X117937128Y-104690476D02*
X118022842Y-104728571D01*
X118022842Y-104728571D02*
X118237128Y-104728571D01*
X118237128Y-104728571D02*
X118322842Y-104690476D01*
X118322842Y-104690476D02*
X118365700Y-104652381D01*
X118365700Y-104652381D02*
X118408557Y-104576190D01*
X118408557Y-104576190D02*
X118408557Y-104347619D01*
X118408557Y-104347619D02*
X118365700Y-104271428D01*
X118365700Y-104271428D02*
X118322842Y-104233333D01*
X121959580Y-103966667D02*
X122007200Y-103928571D01*
X122007200Y-103928571D02*
X122054819Y-103814286D01*
X122054819Y-103814286D02*
X122054819Y-103738095D01*
X122054819Y-103738095D02*
X122007200Y-103623809D01*
X122007200Y-103623809D02*
X121911961Y-103547619D01*
X121911961Y-103547619D02*
X121816723Y-103509524D01*
X121816723Y-103509524D02*
X121626247Y-103471428D01*
X121626247Y-103471428D02*
X121483390Y-103471428D01*
X121483390Y-103471428D02*
X121292914Y-103509524D01*
X121292914Y-103509524D02*
X121197676Y-103547619D01*
X121197676Y-103547619D02*
X121102438Y-103623809D01*
X121102438Y-103623809D02*
X121054819Y-103738095D01*
X121054819Y-103738095D02*
X121054819Y-103814286D01*
X121054819Y-103814286D02*
X121102438Y-103928571D01*
X121102438Y-103928571D02*
X121150057Y-103966667D01*
X122054819Y-104728571D02*
X122054819Y-104271428D01*
X122054819Y-104500000D02*
X121054819Y-104500000D01*
X121054819Y-104500000D02*
X121197676Y-104423809D01*
X121197676Y-104423809D02*
X121292914Y-104347619D01*
X121292914Y-104347619D02*
X121340533Y-104271428D01*
X127733332Y-96454819D02*
X127999999Y-95978628D01*
X128190475Y-96454819D02*
X128190475Y-95454819D01*
X128190475Y-95454819D02*
X127885713Y-95454819D01*
X127885713Y-95454819D02*
X127809523Y-95502438D01*
X127809523Y-95502438D02*
X127771428Y-95550057D01*
X127771428Y-95550057D02*
X127733332Y-95645295D01*
X127733332Y-95645295D02*
X127733332Y-95788152D01*
X127733332Y-95788152D02*
X127771428Y-95883390D01*
X127771428Y-95883390D02*
X127809523Y-95931009D01*
X127809523Y-95931009D02*
X127885713Y-95978628D01*
X127885713Y-95978628D02*
X128190475Y-95978628D01*
X127047618Y-95454819D02*
X127199999Y-95454819D01*
X127199999Y-95454819D02*
X127276190Y-95502438D01*
X127276190Y-95502438D02*
X127314285Y-95550057D01*
X127314285Y-95550057D02*
X127390475Y-95692914D01*
X127390475Y-95692914D02*
X127428571Y-95883390D01*
X127428571Y-95883390D02*
X127428571Y-96264342D01*
X127428571Y-96264342D02*
X127390475Y-96359580D01*
X127390475Y-96359580D02*
X127352380Y-96407200D01*
X127352380Y-96407200D02*
X127276190Y-96454819D01*
X127276190Y-96454819D02*
X127123809Y-96454819D01*
X127123809Y-96454819D02*
X127047618Y-96407200D01*
X127047618Y-96407200D02*
X127009523Y-96359580D01*
X127009523Y-96359580D02*
X126971428Y-96264342D01*
X126971428Y-96264342D02*
X126971428Y-96026247D01*
X126971428Y-96026247D02*
X127009523Y-95931009D01*
X127009523Y-95931009D02*
X127047618Y-95883390D01*
X127047618Y-95883390D02*
X127123809Y-95835771D01*
X127123809Y-95835771D02*
X127276190Y-95835771D01*
X127276190Y-95835771D02*
X127352380Y-95883390D01*
X127352380Y-95883390D02*
X127390475Y-95931009D01*
X127390475Y-95931009D02*
X127428571Y-96026247D01*
X131954819Y-91683333D02*
X131478628Y-91450000D01*
X131954819Y-91283333D02*
X130954819Y-91283333D01*
X130954819Y-91283333D02*
X130954819Y-91550000D01*
X130954819Y-91550000D02*
X131002438Y-91616667D01*
X131002438Y-91616667D02*
X131050057Y-91650000D01*
X131050057Y-91650000D02*
X131145295Y-91683333D01*
X131145295Y-91683333D02*
X131288152Y-91683333D01*
X131288152Y-91683333D02*
X131383390Y-91650000D01*
X131383390Y-91650000D02*
X131431009Y-91616667D01*
X131431009Y-91616667D02*
X131478628Y-91550000D01*
X131478628Y-91550000D02*
X131478628Y-91283333D01*
X131954819Y-92350000D02*
X131954819Y-91950000D01*
X131954819Y-92150000D02*
X130954819Y-92150000D01*
X130954819Y-92150000D02*
X131097676Y-92083333D01*
X131097676Y-92083333D02*
X131192914Y-92016667D01*
X131192914Y-92016667D02*
X131240533Y-91950000D01*
D15*
X114052381Y-99000040D02*
X114385714Y-98476231D01*
X114623809Y-99000040D02*
X114623809Y-97900040D01*
X114623809Y-97900040D02*
X114242857Y-97900040D01*
X114242857Y-97900040D02*
X114147619Y-97952421D01*
X114147619Y-97952421D02*
X114100000Y-98004802D01*
X114100000Y-98004802D02*
X114052381Y-98109564D01*
X114052381Y-98109564D02*
X114052381Y-98266707D01*
X114052381Y-98266707D02*
X114100000Y-98371469D01*
X114100000Y-98371469D02*
X114147619Y-98423850D01*
X114147619Y-98423850D02*
X114242857Y-98476231D01*
X114242857Y-98476231D02*
X114623809Y-98476231D01*
X113623809Y-98423850D02*
X113290476Y-98423850D01*
X113147619Y-99000040D02*
X113623809Y-99000040D01*
X113623809Y-99000040D02*
X113623809Y-97900040D01*
X113623809Y-97900040D02*
X113147619Y-97900040D01*
X112766666Y-98947660D02*
X112623809Y-99000040D01*
X112623809Y-99000040D02*
X112385714Y-99000040D01*
X112385714Y-99000040D02*
X112290476Y-98947660D01*
X112290476Y-98947660D02*
X112242857Y-98895279D01*
X112242857Y-98895279D02*
X112195238Y-98790517D01*
X112195238Y-98790517D02*
X112195238Y-98685755D01*
X112195238Y-98685755D02*
X112242857Y-98580993D01*
X112242857Y-98580993D02*
X112290476Y-98528612D01*
X112290476Y-98528612D02*
X112385714Y-98476231D01*
X112385714Y-98476231D02*
X112576190Y-98423850D01*
X112576190Y-98423850D02*
X112671428Y-98371469D01*
X112671428Y-98371469D02*
X112719047Y-98319088D01*
X112719047Y-98319088D02*
X112766666Y-98214326D01*
X112766666Y-98214326D02*
X112766666Y-98109564D01*
X112766666Y-98109564D02*
X112719047Y-98004802D01*
X112719047Y-98004802D02*
X112671428Y-97952421D01*
X112671428Y-97952421D02*
X112576190Y-97900040D01*
X112576190Y-97900040D02*
X112338095Y-97900040D01*
X112338095Y-97900040D02*
X112195238Y-97952421D01*
X111766666Y-98423850D02*
X111433333Y-98423850D01*
X111290476Y-99000040D02*
X111766666Y-99000040D01*
X111766666Y-99000040D02*
X111766666Y-97900040D01*
X111766666Y-97900040D02*
X111290476Y-97900040D01*
X111004761Y-97900040D02*
X110433333Y-97900040D01*
X110719047Y-99000040D02*
X110719047Y-97900040D01*
D11*
X129954819Y-91683333D02*
X129478628Y-91450000D01*
X129954819Y-91283333D02*
X128954819Y-91283333D01*
X128954819Y-91283333D02*
X128954819Y-91550000D01*
X128954819Y-91550000D02*
X129002438Y-91616667D01*
X129002438Y-91616667D02*
X129050057Y-91650000D01*
X129050057Y-91650000D02*
X129145295Y-91683333D01*
X129145295Y-91683333D02*
X129288152Y-91683333D01*
X129288152Y-91683333D02*
X129383390Y-91650000D01*
X129383390Y-91650000D02*
X129431009Y-91616667D01*
X129431009Y-91616667D02*
X129478628Y-91550000D01*
X129478628Y-91550000D02*
X129478628Y-91283333D01*
X129050057Y-91950000D02*
X129002438Y-91983333D01*
X129002438Y-91983333D02*
X128954819Y-92050000D01*
X128954819Y-92050000D02*
X128954819Y-92216667D01*
X128954819Y-92216667D02*
X129002438Y-92283333D01*
X129002438Y-92283333D02*
X129050057Y-92316667D01*
X129050057Y-92316667D02*
X129145295Y-92350000D01*
X129145295Y-92350000D02*
X129240533Y-92350000D01*
X129240533Y-92350000D02*
X129383390Y-92316667D01*
X129383390Y-92316667D02*
X129954819Y-91916667D01*
X129954819Y-91916667D02*
X129954819Y-92350000D01*
X128359580Y-104056667D02*
X128407200Y-104018571D01*
X128407200Y-104018571D02*
X128454819Y-103904286D01*
X128454819Y-103904286D02*
X128454819Y-103828095D01*
X128454819Y-103828095D02*
X128407200Y-103713809D01*
X128407200Y-103713809D02*
X128311961Y-103637619D01*
X128311961Y-103637619D02*
X128216723Y-103599524D01*
X128216723Y-103599524D02*
X128026247Y-103561428D01*
X128026247Y-103561428D02*
X127883390Y-103561428D01*
X127883390Y-103561428D02*
X127692914Y-103599524D01*
X127692914Y-103599524D02*
X127597676Y-103637619D01*
X127597676Y-103637619D02*
X127502438Y-103713809D01*
X127502438Y-103713809D02*
X127454819Y-103828095D01*
X127454819Y-103828095D02*
X127454819Y-103904286D01*
X127454819Y-103904286D02*
X127502438Y-104018571D01*
X127502438Y-104018571D02*
X127550057Y-104056667D01*
X127788152Y-104742381D02*
X128454819Y-104742381D01*
X127407200Y-104551905D02*
X128121485Y-104361428D01*
X128121485Y-104361428D02*
X128121485Y-104856667D01*
D12*
X128520238Y-113570600D02*
X128405952Y-113637266D01*
X128405952Y-113637266D02*
X128215476Y-113637266D01*
X128215476Y-113637266D02*
X128139285Y-113570600D01*
X128139285Y-113570600D02*
X128101190Y-113503933D01*
X128101190Y-113503933D02*
X128063095Y-113370600D01*
X128063095Y-113370600D02*
X128063095Y-113237266D01*
X128063095Y-113237266D02*
X128101190Y-113103933D01*
X128101190Y-113103933D02*
X128139285Y-113037266D01*
X128139285Y-113037266D02*
X128215476Y-112970600D01*
X128215476Y-112970600D02*
X128367857Y-112903933D01*
X128367857Y-112903933D02*
X128444047Y-112837266D01*
X128444047Y-112837266D02*
X128482142Y-112770600D01*
X128482142Y-112770600D02*
X128520238Y-112637266D01*
X128520238Y-112637266D02*
X128520238Y-112503933D01*
X128520238Y-112503933D02*
X128482142Y-112370600D01*
X128482142Y-112370600D02*
X128444047Y-112303933D01*
X128444047Y-112303933D02*
X128367857Y-112237266D01*
X128367857Y-112237266D02*
X128177380Y-112237266D01*
X128177380Y-112237266D02*
X128063095Y-112303933D01*
X127720237Y-113637266D02*
X127720237Y-112237266D01*
X127720237Y-112237266D02*
X127415475Y-112237266D01*
X127415475Y-112237266D02*
X127339285Y-112303933D01*
X127339285Y-112303933D02*
X127301190Y-112370600D01*
X127301190Y-112370600D02*
X127263094Y-112503933D01*
X127263094Y-112503933D02*
X127263094Y-112703933D01*
X127263094Y-112703933D02*
X127301190Y-112837266D01*
X127301190Y-112837266D02*
X127339285Y-112903933D01*
X127339285Y-112903933D02*
X127415475Y-112970600D01*
X127415475Y-112970600D02*
X127720237Y-112970600D01*
X126920237Y-112903933D02*
X126653571Y-112903933D01*
X126539285Y-113637266D02*
X126920237Y-113637266D01*
X126920237Y-113637266D02*
X126920237Y-112237266D01*
X126920237Y-112237266D02*
X126539285Y-112237266D01*
X126234523Y-113237266D02*
X125853570Y-113237266D01*
X126310713Y-113637266D02*
X126044046Y-112237266D01*
X126044046Y-112237266D02*
X125777380Y-113637266D01*
X125510713Y-113637266D02*
X125510713Y-112237266D01*
X125053570Y-113637266D02*
X125396428Y-112837266D01*
X125053570Y-112237266D02*
X125510713Y-113037266D01*
X124710713Y-112903933D02*
X124444047Y-112903933D01*
X124329761Y-113637266D02*
X124710713Y-113637266D01*
X124710713Y-113637266D02*
X124710713Y-112237266D01*
X124710713Y-112237266D02*
X124329761Y-112237266D01*
X123529760Y-113637266D02*
X123796427Y-112970600D01*
X123986903Y-113637266D02*
X123986903Y-112237266D01*
X123986903Y-112237266D02*
X123682141Y-112237266D01*
X123682141Y-112237266D02*
X123605951Y-112303933D01*
X123605951Y-112303933D02*
X123567856Y-112370600D01*
X123567856Y-112370600D02*
X123529760Y-112503933D01*
X123529760Y-112503933D02*
X123529760Y-112703933D01*
X123529760Y-112703933D02*
X123567856Y-112837266D01*
X123567856Y-112837266D02*
X123605951Y-112903933D01*
X123605951Y-112903933D02*
X123682141Y-112970600D01*
X123682141Y-112970600D02*
X123986903Y-112970600D01*
D11*
X142342857Y-67444819D02*
X142676190Y-66968628D01*
X142914285Y-67444819D02*
X142914285Y-66444819D01*
X142914285Y-66444819D02*
X142533333Y-66444819D01*
X142533333Y-66444819D02*
X142438095Y-66492438D01*
X142438095Y-66492438D02*
X142390476Y-66540057D01*
X142390476Y-66540057D02*
X142342857Y-66635295D01*
X142342857Y-66635295D02*
X142342857Y-66778152D01*
X142342857Y-66778152D02*
X142390476Y-66873390D01*
X142390476Y-66873390D02*
X142438095Y-66921009D01*
X142438095Y-66921009D02*
X142533333Y-66968628D01*
X142533333Y-66968628D02*
X142914285Y-66968628D01*
X141390476Y-67444819D02*
X141961904Y-67444819D01*
X141676190Y-67444819D02*
X141676190Y-66444819D01*
X141676190Y-66444819D02*
X141771428Y-66587676D01*
X141771428Y-66587676D02*
X141866666Y-66682914D01*
X141866666Y-66682914D02*
X141961904Y-66730533D01*
X141009523Y-66540057D02*
X140961904Y-66492438D01*
X140961904Y-66492438D02*
X140866666Y-66444819D01*
X140866666Y-66444819D02*
X140628571Y-66444819D01*
X140628571Y-66444819D02*
X140533333Y-66492438D01*
X140533333Y-66492438D02*
X140485714Y-66540057D01*
X140485714Y-66540057D02*
X140438095Y-66635295D01*
X140438095Y-66635295D02*
X140438095Y-66730533D01*
X140438095Y-66730533D02*
X140485714Y-66873390D01*
X140485714Y-66873390D02*
X141057142Y-67444819D01*
X141057142Y-67444819D02*
X140438095Y-67444819D01*
X127733332Y-97844819D02*
X127999999Y-97368628D01*
X128190475Y-97844819D02*
X128190475Y-96844819D01*
X128190475Y-96844819D02*
X127885713Y-96844819D01*
X127885713Y-96844819D02*
X127809523Y-96892438D01*
X127809523Y-96892438D02*
X127771428Y-96940057D01*
X127771428Y-96940057D02*
X127733332Y-97035295D01*
X127733332Y-97035295D02*
X127733332Y-97178152D01*
X127733332Y-97178152D02*
X127771428Y-97273390D01*
X127771428Y-97273390D02*
X127809523Y-97321009D01*
X127809523Y-97321009D02*
X127885713Y-97368628D01*
X127885713Y-97368628D02*
X128190475Y-97368628D01*
X127009523Y-96844819D02*
X127390475Y-96844819D01*
X127390475Y-96844819D02*
X127428571Y-97321009D01*
X127428571Y-97321009D02*
X127390475Y-97273390D01*
X127390475Y-97273390D02*
X127314285Y-97225771D01*
X127314285Y-97225771D02*
X127123809Y-97225771D01*
X127123809Y-97225771D02*
X127047618Y-97273390D01*
X127047618Y-97273390D02*
X127009523Y-97321009D01*
X127009523Y-97321009D02*
X126971428Y-97416247D01*
X126971428Y-97416247D02*
X126971428Y-97654342D01*
X126971428Y-97654342D02*
X127009523Y-97749580D01*
X127009523Y-97749580D02*
X127047618Y-97797200D01*
X127047618Y-97797200D02*
X127123809Y-97844819D01*
X127123809Y-97844819D02*
X127314285Y-97844819D01*
X127314285Y-97844819D02*
X127390475Y-97797200D01*
X127390475Y-97797200D02*
X127428571Y-97749580D01*
X123359580Y-103349999D02*
X123407200Y-103316666D01*
X123407200Y-103316666D02*
X123454819Y-103216666D01*
X123454819Y-103216666D02*
X123454819Y-103149999D01*
X123454819Y-103149999D02*
X123407200Y-103049999D01*
X123407200Y-103049999D02*
X123311961Y-102983333D01*
X123311961Y-102983333D02*
X123216723Y-102949999D01*
X123216723Y-102949999D02*
X123026247Y-102916666D01*
X123026247Y-102916666D02*
X122883390Y-102916666D01*
X122883390Y-102916666D02*
X122692914Y-102949999D01*
X122692914Y-102949999D02*
X122597676Y-102983333D01*
X122597676Y-102983333D02*
X122502438Y-103049999D01*
X122502438Y-103049999D02*
X122454819Y-103149999D01*
X122454819Y-103149999D02*
X122454819Y-103216666D01*
X122454819Y-103216666D02*
X122502438Y-103316666D01*
X122502438Y-103316666D02*
X122550057Y-103349999D01*
X123454819Y-104016666D02*
X123454819Y-103616666D01*
X123454819Y-103816666D02*
X122454819Y-103816666D01*
X122454819Y-103816666D02*
X122597676Y-103749999D01*
X122597676Y-103749999D02*
X122692914Y-103683333D01*
X122692914Y-103683333D02*
X122740533Y-103616666D01*
X122454819Y-104616666D02*
X122454819Y-104483333D01*
X122454819Y-104483333D02*
X122502438Y-104416666D01*
X122502438Y-104416666D02*
X122550057Y-104383333D01*
X122550057Y-104383333D02*
X122692914Y-104316666D01*
X122692914Y-104316666D02*
X122883390Y-104283333D01*
X122883390Y-104283333D02*
X123264342Y-104283333D01*
X123264342Y-104283333D02*
X123359580Y-104316666D01*
X123359580Y-104316666D02*
X123407200Y-104350000D01*
X123407200Y-104350000D02*
X123454819Y-104416666D01*
X123454819Y-104416666D02*
X123454819Y-104550000D01*
X123454819Y-104550000D02*
X123407200Y-104616666D01*
X123407200Y-104616666D02*
X123359580Y-104650000D01*
X123359580Y-104650000D02*
X123264342Y-104683333D01*
X123264342Y-104683333D02*
X123026247Y-104683333D01*
X123026247Y-104683333D02*
X122931009Y-104650000D01*
X122931009Y-104650000D02*
X122883390Y-104616666D01*
X122883390Y-104616666D02*
X122835771Y-104550000D01*
X122835771Y-104550000D02*
X122835771Y-104416666D01*
X122835771Y-104416666D02*
X122883390Y-104350000D01*
X122883390Y-104350000D02*
X122931009Y-104316666D01*
X122931009Y-104316666D02*
X123026247Y-104283333D01*
X111746190Y-71720057D02*
X111822380Y-71672438D01*
X111822380Y-71672438D02*
X111898571Y-71577200D01*
X111898571Y-71577200D02*
X112012857Y-71434342D01*
X112012857Y-71434342D02*
X112089047Y-71386723D01*
X112089047Y-71386723D02*
X112165238Y-71386723D01*
X112127142Y-71624819D02*
X112203333Y-71577200D01*
X112203333Y-71577200D02*
X112279523Y-71481961D01*
X112279523Y-71481961D02*
X112317619Y-71291485D01*
X112317619Y-71291485D02*
X112317619Y-70958152D01*
X112317619Y-70958152D02*
X112279523Y-70767676D01*
X112279523Y-70767676D02*
X112203333Y-70672438D01*
X112203333Y-70672438D02*
X112127142Y-70624819D01*
X112127142Y-70624819D02*
X111974761Y-70624819D01*
X111974761Y-70624819D02*
X111898571Y-70672438D01*
X111898571Y-70672438D02*
X111822380Y-70767676D01*
X111822380Y-70767676D02*
X111784285Y-70958152D01*
X111784285Y-70958152D02*
X111784285Y-71291485D01*
X111784285Y-71291485D02*
X111822380Y-71481961D01*
X111822380Y-71481961D02*
X111898571Y-71577200D01*
X111898571Y-71577200D02*
X111974761Y-71624819D01*
X111974761Y-71624819D02*
X112127142Y-71624819D01*
X111022381Y-71624819D02*
X111479524Y-71624819D01*
X111250952Y-71624819D02*
X111250952Y-70624819D01*
X111250952Y-70624819D02*
X111327143Y-70767676D01*
X111327143Y-70767676D02*
X111403333Y-70862914D01*
X111403333Y-70862914D02*
X111479524Y-70910533D01*
X111423332Y-76564819D02*
X111423332Y-75564819D01*
X111423332Y-75564819D02*
X111156665Y-75564819D01*
X111156665Y-75564819D02*
X111089999Y-75612438D01*
X111089999Y-75612438D02*
X111056665Y-75660057D01*
X111056665Y-75660057D02*
X111023332Y-75755295D01*
X111023332Y-75755295D02*
X111023332Y-75898152D01*
X111023332Y-75898152D02*
X111056665Y-75993390D01*
X111056665Y-75993390D02*
X111089999Y-76041009D01*
X111089999Y-76041009D02*
X111156665Y-76088628D01*
X111156665Y-76088628D02*
X111423332Y-76088628D01*
X110423332Y-76517200D02*
X110489999Y-76564819D01*
X110489999Y-76564819D02*
X110623332Y-76564819D01*
X110623332Y-76564819D02*
X110689999Y-76517200D01*
X110689999Y-76517200D02*
X110723332Y-76469580D01*
X110723332Y-76469580D02*
X110756665Y-76374342D01*
X110756665Y-76374342D02*
X110756665Y-76088628D01*
X110756665Y-76088628D02*
X110723332Y-75993390D01*
X110723332Y-75993390D02*
X110689999Y-75945771D01*
X110689999Y-75945771D02*
X110623332Y-75898152D01*
X110623332Y-75898152D02*
X110489999Y-75898152D01*
X110489999Y-75898152D02*
X110423332Y-75945771D01*
X110123332Y-76564819D02*
X110123332Y-75564819D01*
X109823332Y-76564819D02*
X109823332Y-76041009D01*
X109823332Y-76041009D02*
X109856665Y-75945771D01*
X109856665Y-75945771D02*
X109923332Y-75898152D01*
X109923332Y-75898152D02*
X110023332Y-75898152D01*
X110023332Y-75898152D02*
X110089999Y-75945771D01*
X110089999Y-75945771D02*
X110123332Y-75993390D01*
X109256666Y-76041009D02*
X109489999Y-76041009D01*
X109489999Y-76564819D02*
X109489999Y-75564819D01*
X109489999Y-75564819D02*
X109156666Y-75564819D01*
X108889999Y-76041009D02*
X108656666Y-76041009D01*
X108556666Y-76564819D02*
X108889999Y-76564819D01*
X108889999Y-76564819D02*
X108889999Y-75564819D01*
X108889999Y-75564819D02*
X108556666Y-75564819D01*
X108356666Y-75564819D02*
X107956666Y-75564819D01*
X108156666Y-76564819D02*
X108156666Y-75564819D01*
X142759580Y-105856667D02*
X142807200Y-105818571D01*
X142807200Y-105818571D02*
X142854819Y-105704286D01*
X142854819Y-105704286D02*
X142854819Y-105628095D01*
X142854819Y-105628095D02*
X142807200Y-105513809D01*
X142807200Y-105513809D02*
X142711961Y-105437619D01*
X142711961Y-105437619D02*
X142616723Y-105399524D01*
X142616723Y-105399524D02*
X142426247Y-105361428D01*
X142426247Y-105361428D02*
X142283390Y-105361428D01*
X142283390Y-105361428D02*
X142092914Y-105399524D01*
X142092914Y-105399524D02*
X141997676Y-105437619D01*
X141997676Y-105437619D02*
X141902438Y-105513809D01*
X141902438Y-105513809D02*
X141854819Y-105628095D01*
X141854819Y-105628095D02*
X141854819Y-105704286D01*
X141854819Y-105704286D02*
X141902438Y-105818571D01*
X141902438Y-105818571D02*
X141950057Y-105856667D01*
X141854819Y-106542381D02*
X141854819Y-106390000D01*
X141854819Y-106390000D02*
X141902438Y-106313809D01*
X141902438Y-106313809D02*
X141950057Y-106275714D01*
X141950057Y-106275714D02*
X142092914Y-106199524D01*
X142092914Y-106199524D02*
X142283390Y-106161428D01*
X142283390Y-106161428D02*
X142664342Y-106161428D01*
X142664342Y-106161428D02*
X142759580Y-106199524D01*
X142759580Y-106199524D02*
X142807200Y-106237619D01*
X142807200Y-106237619D02*
X142854819Y-106313809D01*
X142854819Y-106313809D02*
X142854819Y-106466190D01*
X142854819Y-106466190D02*
X142807200Y-106542381D01*
X142807200Y-106542381D02*
X142759580Y-106580476D01*
X142759580Y-106580476D02*
X142664342Y-106618571D01*
X142664342Y-106618571D02*
X142426247Y-106618571D01*
X142426247Y-106618571D02*
X142331009Y-106580476D01*
X142331009Y-106580476D02*
X142283390Y-106542381D01*
X142283390Y-106542381D02*
X142235771Y-106466190D01*
X142235771Y-106466190D02*
X142235771Y-106313809D01*
X142235771Y-106313809D02*
X142283390Y-106237619D01*
X142283390Y-106237619D02*
X142331009Y-106199524D01*
X142331009Y-106199524D02*
X142426247Y-106161428D01*
X106250057Y-112023809D02*
X106202438Y-111947619D01*
X106202438Y-111947619D02*
X106107200Y-111871428D01*
X106107200Y-111871428D02*
X105964342Y-111757142D01*
X105964342Y-111757142D02*
X105916723Y-111680952D01*
X105916723Y-111680952D02*
X105916723Y-111604761D01*
X106154819Y-111642857D02*
X106107200Y-111566666D01*
X106107200Y-111566666D02*
X106011961Y-111490476D01*
X106011961Y-111490476D02*
X105821485Y-111452380D01*
X105821485Y-111452380D02*
X105488152Y-111452380D01*
X105488152Y-111452380D02*
X105297676Y-111490476D01*
X105297676Y-111490476D02*
X105202438Y-111566666D01*
X105202438Y-111566666D02*
X105154819Y-111642857D01*
X105154819Y-111642857D02*
X105154819Y-111795238D01*
X105154819Y-111795238D02*
X105202438Y-111871428D01*
X105202438Y-111871428D02*
X105297676Y-111947619D01*
X105297676Y-111947619D02*
X105488152Y-111985714D01*
X105488152Y-111985714D02*
X105821485Y-111985714D01*
X105821485Y-111985714D02*
X106011961Y-111947619D01*
X106011961Y-111947619D02*
X106107200Y-111871428D01*
X106107200Y-111871428D02*
X106154819Y-111795238D01*
X106154819Y-111795238D02*
X106154819Y-111642857D01*
X105250057Y-112290475D02*
X105202438Y-112328571D01*
X105202438Y-112328571D02*
X105154819Y-112404761D01*
X105154819Y-112404761D02*
X105154819Y-112595237D01*
X105154819Y-112595237D02*
X105202438Y-112671428D01*
X105202438Y-112671428D02*
X105250057Y-112709523D01*
X105250057Y-112709523D02*
X105345295Y-112747618D01*
X105345295Y-112747618D02*
X105440533Y-112747618D01*
X105440533Y-112747618D02*
X105583390Y-112709523D01*
X105583390Y-112709523D02*
X106154819Y-112252380D01*
X106154819Y-112252380D02*
X106154819Y-112747618D01*
X102454819Y-109916667D02*
X101454819Y-109916667D01*
X101454819Y-109916667D02*
X101454819Y-110183334D01*
X101454819Y-110183334D02*
X101502438Y-110250001D01*
X101502438Y-110250001D02*
X101550057Y-110283334D01*
X101550057Y-110283334D02*
X101645295Y-110316667D01*
X101645295Y-110316667D02*
X101788152Y-110316667D01*
X101788152Y-110316667D02*
X101883390Y-110283334D01*
X101883390Y-110283334D02*
X101931009Y-110250001D01*
X101931009Y-110250001D02*
X101978628Y-110183334D01*
X101978628Y-110183334D02*
X101978628Y-109916667D01*
X102407200Y-110916667D02*
X102454819Y-110850001D01*
X102454819Y-110850001D02*
X102454819Y-110716667D01*
X102454819Y-110716667D02*
X102407200Y-110650001D01*
X102407200Y-110650001D02*
X102359580Y-110616667D01*
X102359580Y-110616667D02*
X102264342Y-110583334D01*
X102264342Y-110583334D02*
X101978628Y-110583334D01*
X101978628Y-110583334D02*
X101883390Y-110616667D01*
X101883390Y-110616667D02*
X101835771Y-110650001D01*
X101835771Y-110650001D02*
X101788152Y-110716667D01*
X101788152Y-110716667D02*
X101788152Y-110850001D01*
X101788152Y-110850001D02*
X101835771Y-110916667D01*
X102454819Y-111216667D02*
X101454819Y-111216667D01*
X102454819Y-111516667D02*
X101931009Y-111516667D01*
X101931009Y-111516667D02*
X101835771Y-111483334D01*
X101835771Y-111483334D02*
X101788152Y-111416667D01*
X101788152Y-111416667D02*
X101788152Y-111316667D01*
X101788152Y-111316667D02*
X101835771Y-111250001D01*
X101835771Y-111250001D02*
X101883390Y-111216667D01*
X101931009Y-112083334D02*
X101931009Y-111850000D01*
X102454819Y-111850000D02*
X101454819Y-111850000D01*
X101454819Y-111850000D02*
X101454819Y-112183334D01*
X101931009Y-112450000D02*
X101931009Y-112683334D01*
X102454819Y-112783334D02*
X102454819Y-112450000D01*
X102454819Y-112450000D02*
X101454819Y-112450000D01*
X101454819Y-112450000D02*
X101454819Y-112783334D01*
X101454819Y-112983333D02*
X101454819Y-113383333D01*
X102454819Y-113183333D02*
X101454819Y-113183333D01*
X120214285Y-101419580D02*
X120252381Y-101467200D01*
X120252381Y-101467200D02*
X120366666Y-101514819D01*
X120366666Y-101514819D02*
X120442857Y-101514819D01*
X120442857Y-101514819D02*
X120557143Y-101467200D01*
X120557143Y-101467200D02*
X120633333Y-101371961D01*
X120633333Y-101371961D02*
X120671428Y-101276723D01*
X120671428Y-101276723D02*
X120709524Y-101086247D01*
X120709524Y-101086247D02*
X120709524Y-100943390D01*
X120709524Y-100943390D02*
X120671428Y-100752914D01*
X120671428Y-100752914D02*
X120633333Y-100657676D01*
X120633333Y-100657676D02*
X120557143Y-100562438D01*
X120557143Y-100562438D02*
X120442857Y-100514819D01*
X120442857Y-100514819D02*
X120366666Y-100514819D01*
X120366666Y-100514819D02*
X120252381Y-100562438D01*
X120252381Y-100562438D02*
X120214285Y-100610057D01*
X119452381Y-101514819D02*
X119909524Y-101514819D01*
X119680952Y-101514819D02*
X119680952Y-100514819D01*
X119680952Y-100514819D02*
X119757143Y-100657676D01*
X119757143Y-100657676D02*
X119833333Y-100752914D01*
X119833333Y-100752914D02*
X119909524Y-100800533D01*
X118957142Y-100514819D02*
X118880952Y-100514819D01*
X118880952Y-100514819D02*
X118804761Y-100562438D01*
X118804761Y-100562438D02*
X118766666Y-100610057D01*
X118766666Y-100610057D02*
X118728571Y-100705295D01*
X118728571Y-100705295D02*
X118690476Y-100895771D01*
X118690476Y-100895771D02*
X118690476Y-101133866D01*
X118690476Y-101133866D02*
X118728571Y-101324342D01*
X118728571Y-101324342D02*
X118766666Y-101419580D01*
X118766666Y-101419580D02*
X118804761Y-101467200D01*
X118804761Y-101467200D02*
X118880952Y-101514819D01*
X118880952Y-101514819D02*
X118957142Y-101514819D01*
X118957142Y-101514819D02*
X119033333Y-101467200D01*
X119033333Y-101467200D02*
X119071428Y-101419580D01*
X119071428Y-101419580D02*
X119109523Y-101324342D01*
X119109523Y-101324342D02*
X119147619Y-101133866D01*
X119147619Y-101133866D02*
X119147619Y-100895771D01*
X119147619Y-100895771D02*
X119109523Y-100705295D01*
X119109523Y-100705295D02*
X119071428Y-100610057D01*
X119071428Y-100610057D02*
X119033333Y-100562438D01*
X119033333Y-100562438D02*
X118957142Y-100514819D01*
X123014285Y-75859580D02*
X123052381Y-75907200D01*
X123052381Y-75907200D02*
X123166666Y-75954819D01*
X123166666Y-75954819D02*
X123242857Y-75954819D01*
X123242857Y-75954819D02*
X123357143Y-75907200D01*
X123357143Y-75907200D02*
X123433333Y-75811961D01*
X123433333Y-75811961D02*
X123471428Y-75716723D01*
X123471428Y-75716723D02*
X123509524Y-75526247D01*
X123509524Y-75526247D02*
X123509524Y-75383390D01*
X123509524Y-75383390D02*
X123471428Y-75192914D01*
X123471428Y-75192914D02*
X123433333Y-75097676D01*
X123433333Y-75097676D02*
X123357143Y-75002438D01*
X123357143Y-75002438D02*
X123242857Y-74954819D01*
X123242857Y-74954819D02*
X123166666Y-74954819D01*
X123166666Y-74954819D02*
X123052381Y-75002438D01*
X123052381Y-75002438D02*
X123014285Y-75050057D01*
X122252381Y-75954819D02*
X122709524Y-75954819D01*
X122480952Y-75954819D02*
X122480952Y-74954819D01*
X122480952Y-74954819D02*
X122557143Y-75097676D01*
X122557143Y-75097676D02*
X122633333Y-75192914D01*
X122633333Y-75192914D02*
X122709524Y-75240533D01*
X121947619Y-75050057D02*
X121909523Y-75002438D01*
X121909523Y-75002438D02*
X121833333Y-74954819D01*
X121833333Y-74954819D02*
X121642857Y-74954819D01*
X121642857Y-74954819D02*
X121566666Y-75002438D01*
X121566666Y-75002438D02*
X121528571Y-75050057D01*
X121528571Y-75050057D02*
X121490476Y-75145295D01*
X121490476Y-75145295D02*
X121490476Y-75240533D01*
X121490476Y-75240533D02*
X121528571Y-75383390D01*
X121528571Y-75383390D02*
X121985714Y-75954819D01*
X121985714Y-75954819D02*
X121490476Y-75954819D01*
X108864819Y-102850476D02*
X109674342Y-102850476D01*
X109674342Y-102850476D02*
X109769580Y-102888571D01*
X109769580Y-102888571D02*
X109817200Y-102926666D01*
X109817200Y-102926666D02*
X109864819Y-103002857D01*
X109864819Y-103002857D02*
X109864819Y-103155238D01*
X109864819Y-103155238D02*
X109817200Y-103231428D01*
X109817200Y-103231428D02*
X109769580Y-103269523D01*
X109769580Y-103269523D02*
X109674342Y-103307619D01*
X109674342Y-103307619D02*
X108864819Y-103307619D01*
X108960057Y-103650475D02*
X108912438Y-103688571D01*
X108912438Y-103688571D02*
X108864819Y-103764761D01*
X108864819Y-103764761D02*
X108864819Y-103955237D01*
X108864819Y-103955237D02*
X108912438Y-104031428D01*
X108912438Y-104031428D02*
X108960057Y-104069523D01*
X108960057Y-104069523D02*
X109055295Y-104107618D01*
X109055295Y-104107618D02*
X109150533Y-104107618D01*
X109150533Y-104107618D02*
X109293390Y-104069523D01*
X109293390Y-104069523D02*
X109864819Y-103612380D01*
X109864819Y-103612380D02*
X109864819Y-104107618D01*
D13*
X108556379Y-101671428D02*
X107556379Y-101671428D01*
X107556379Y-101671428D02*
X108556379Y-102014285D01*
X108556379Y-102014285D02*
X107556379Y-102014285D01*
X107556379Y-102471427D02*
X108270664Y-102471427D01*
X108270664Y-102471427D02*
X108413521Y-102442856D01*
X108413521Y-102442856D02*
X108508760Y-102385713D01*
X108508760Y-102385713D02*
X108556379Y-102299999D01*
X108556379Y-102299999D02*
X108556379Y-102242856D01*
X107556379Y-102699999D02*
X108556379Y-102842856D01*
X108556379Y-102842856D02*
X107842093Y-102957142D01*
X107842093Y-102957142D02*
X108556379Y-103071427D01*
X108556379Y-103071427D02*
X107556379Y-103214285D01*
X107889712Y-103699999D02*
X108556379Y-103699999D01*
X107508760Y-103557141D02*
X108223045Y-103414284D01*
X108223045Y-103414284D02*
X108223045Y-103785713D01*
X108556379Y-104328570D02*
X108556379Y-103985713D01*
X108556379Y-104157142D02*
X107556379Y-104157142D01*
X107556379Y-104157142D02*
X107699236Y-104099999D01*
X107699236Y-104099999D02*
X107794474Y-104042856D01*
X107794474Y-104042856D02*
X107842093Y-103985713D01*
X107984950Y-104671428D02*
X107937331Y-104614285D01*
X107937331Y-104614285D02*
X107889712Y-104585714D01*
X107889712Y-104585714D02*
X107794474Y-104557142D01*
X107794474Y-104557142D02*
X107746855Y-104557142D01*
X107746855Y-104557142D02*
X107651617Y-104585714D01*
X107651617Y-104585714D02*
X107603998Y-104614285D01*
X107603998Y-104614285D02*
X107556379Y-104671428D01*
X107556379Y-104671428D02*
X107556379Y-104785714D01*
X107556379Y-104785714D02*
X107603998Y-104842857D01*
X107603998Y-104842857D02*
X107651617Y-104871428D01*
X107651617Y-104871428D02*
X107746855Y-104899999D01*
X107746855Y-104899999D02*
X107794474Y-104899999D01*
X107794474Y-104899999D02*
X107889712Y-104871428D01*
X107889712Y-104871428D02*
X107937331Y-104842857D01*
X107937331Y-104842857D02*
X107984950Y-104785714D01*
X107984950Y-104785714D02*
X107984950Y-104671428D01*
X107984950Y-104671428D02*
X108032569Y-104614285D01*
X108032569Y-104614285D02*
X108080188Y-104585714D01*
X108080188Y-104585714D02*
X108175426Y-104557142D01*
X108175426Y-104557142D02*
X108365902Y-104557142D01*
X108365902Y-104557142D02*
X108461140Y-104585714D01*
X108461140Y-104585714D02*
X108508760Y-104614285D01*
X108508760Y-104614285D02*
X108556379Y-104671428D01*
X108556379Y-104671428D02*
X108556379Y-104785714D01*
X108556379Y-104785714D02*
X108508760Y-104842857D01*
X108508760Y-104842857D02*
X108461140Y-104871428D01*
X108461140Y-104871428D02*
X108365902Y-104899999D01*
X108365902Y-104899999D02*
X108175426Y-104899999D01*
X108175426Y-104899999D02*
X108080188Y-104871428D01*
X108080188Y-104871428D02*
X108032569Y-104842857D01*
X108032569Y-104842857D02*
X107984950Y-104785714D01*
X107556379Y-105100000D02*
X107556379Y-105471428D01*
X107556379Y-105471428D02*
X107937331Y-105271428D01*
X107937331Y-105271428D02*
X107937331Y-105357143D01*
X107937331Y-105357143D02*
X107984950Y-105414286D01*
X107984950Y-105414286D02*
X108032569Y-105442857D01*
X108032569Y-105442857D02*
X108127807Y-105471428D01*
X108127807Y-105471428D02*
X108365902Y-105471428D01*
X108365902Y-105471428D02*
X108461140Y-105442857D01*
X108461140Y-105442857D02*
X108508760Y-105414286D01*
X108508760Y-105414286D02*
X108556379Y-105357143D01*
X108556379Y-105357143D02*
X108556379Y-105185714D01*
X108556379Y-105185714D02*
X108508760Y-105128571D01*
X108508760Y-105128571D02*
X108461140Y-105100000D01*
X107556379Y-105728572D02*
X108365902Y-105728572D01*
X108365902Y-105728572D02*
X108461140Y-105757143D01*
X108461140Y-105757143D02*
X108508760Y-105785715D01*
X108508760Y-105785715D02*
X108556379Y-105842857D01*
X108556379Y-105842857D02*
X108556379Y-105957143D01*
X108556379Y-105957143D02*
X108508760Y-106014286D01*
X108508760Y-106014286D02*
X108461140Y-106042857D01*
X108461140Y-106042857D02*
X108365902Y-106071429D01*
X108365902Y-106071429D02*
X107556379Y-106071429D01*
X107556379Y-106300000D02*
X107556379Y-106671428D01*
X107556379Y-106671428D02*
X107937331Y-106471428D01*
X107937331Y-106471428D02*
X107937331Y-106557143D01*
X107937331Y-106557143D02*
X107984950Y-106614286D01*
X107984950Y-106614286D02*
X108032569Y-106642857D01*
X108032569Y-106642857D02*
X108127807Y-106671428D01*
X108127807Y-106671428D02*
X108365902Y-106671428D01*
X108365902Y-106671428D02*
X108461140Y-106642857D01*
X108461140Y-106642857D02*
X108508760Y-106614286D01*
X108508760Y-106614286D02*
X108556379Y-106557143D01*
X108556379Y-106557143D02*
X108556379Y-106385714D01*
X108556379Y-106385714D02*
X108508760Y-106328571D01*
X108508760Y-106328571D02*
X108461140Y-106300000D01*
X108175426Y-106928572D02*
X108175426Y-107385715D01*
X107556379Y-107614286D02*
X107556379Y-107985714D01*
X107556379Y-107985714D02*
X107937331Y-107785714D01*
X107937331Y-107785714D02*
X107937331Y-107871429D01*
X107937331Y-107871429D02*
X107984950Y-107928572D01*
X107984950Y-107928572D02*
X108032569Y-107957143D01*
X108032569Y-107957143D02*
X108127807Y-107985714D01*
X108127807Y-107985714D02*
X108365902Y-107985714D01*
X108365902Y-107985714D02*
X108461140Y-107957143D01*
X108461140Y-107957143D02*
X108508760Y-107928572D01*
X108508760Y-107928572D02*
X108556379Y-107871429D01*
X108556379Y-107871429D02*
X108556379Y-107700000D01*
X108556379Y-107700000D02*
X108508760Y-107642857D01*
X108508760Y-107642857D02*
X108461140Y-107614286D01*
X107556379Y-108185715D02*
X107556379Y-108557143D01*
X107556379Y-108557143D02*
X107937331Y-108357143D01*
X107937331Y-108357143D02*
X107937331Y-108442858D01*
X107937331Y-108442858D02*
X107984950Y-108500001D01*
X107984950Y-108500001D02*
X108032569Y-108528572D01*
X108032569Y-108528572D02*
X108127807Y-108557143D01*
X108127807Y-108557143D02*
X108365902Y-108557143D01*
X108365902Y-108557143D02*
X108461140Y-108528572D01*
X108461140Y-108528572D02*
X108508760Y-108500001D01*
X108508760Y-108500001D02*
X108556379Y-108442858D01*
X108556379Y-108442858D02*
X108556379Y-108271429D01*
X108556379Y-108271429D02*
X108508760Y-108214286D01*
X108508760Y-108214286D02*
X108461140Y-108185715D01*
X108032569Y-109014287D02*
X108080188Y-109100001D01*
X108080188Y-109100001D02*
X108127807Y-109128572D01*
X108127807Y-109128572D02*
X108223045Y-109157144D01*
X108223045Y-109157144D02*
X108365902Y-109157144D01*
X108365902Y-109157144D02*
X108461140Y-109128572D01*
X108461140Y-109128572D02*
X108508760Y-109100001D01*
X108508760Y-109100001D02*
X108556379Y-109042858D01*
X108556379Y-109042858D02*
X108556379Y-108814287D01*
X108556379Y-108814287D02*
X107556379Y-108814287D01*
X107556379Y-108814287D02*
X107556379Y-109014287D01*
X107556379Y-109014287D02*
X107603998Y-109071430D01*
X107603998Y-109071430D02*
X107651617Y-109100001D01*
X107651617Y-109100001D02*
X107746855Y-109128572D01*
X107746855Y-109128572D02*
X107842093Y-109128572D01*
X107842093Y-109128572D02*
X107937331Y-109100001D01*
X107937331Y-109100001D02*
X107984950Y-109071430D01*
X107984950Y-109071430D02*
X108032569Y-109014287D01*
X108032569Y-109014287D02*
X108032569Y-108814287D01*
D11*
X124859580Y-103946667D02*
X124907200Y-103908571D01*
X124907200Y-103908571D02*
X124954819Y-103794286D01*
X124954819Y-103794286D02*
X124954819Y-103718095D01*
X124954819Y-103718095D02*
X124907200Y-103603809D01*
X124907200Y-103603809D02*
X124811961Y-103527619D01*
X124811961Y-103527619D02*
X124716723Y-103489524D01*
X124716723Y-103489524D02*
X124526247Y-103451428D01*
X124526247Y-103451428D02*
X124383390Y-103451428D01*
X124383390Y-103451428D02*
X124192914Y-103489524D01*
X124192914Y-103489524D02*
X124097676Y-103527619D01*
X124097676Y-103527619D02*
X124002438Y-103603809D01*
X124002438Y-103603809D02*
X123954819Y-103718095D01*
X123954819Y-103718095D02*
X123954819Y-103794286D01*
X123954819Y-103794286D02*
X124002438Y-103908571D01*
X124002438Y-103908571D02*
X124050057Y-103946667D01*
X123954819Y-104670476D02*
X123954819Y-104289524D01*
X123954819Y-104289524D02*
X124431009Y-104251428D01*
X124431009Y-104251428D02*
X124383390Y-104289524D01*
X124383390Y-104289524D02*
X124335771Y-104365714D01*
X124335771Y-104365714D02*
X124335771Y-104556190D01*
X124335771Y-104556190D02*
X124383390Y-104632381D01*
X124383390Y-104632381D02*
X124431009Y-104670476D01*
X124431009Y-104670476D02*
X124526247Y-104708571D01*
X124526247Y-104708571D02*
X124764342Y-104708571D01*
X124764342Y-104708571D02*
X124859580Y-104670476D01*
X124859580Y-104670476D02*
X124907200Y-104632381D01*
X124907200Y-104632381D02*
X124954819Y-104556190D01*
X124954819Y-104556190D02*
X124954819Y-104365714D01*
X124954819Y-104365714D02*
X124907200Y-104289524D01*
X124907200Y-104289524D02*
X124859580Y-104251428D01*
X120133332Y-94959580D02*
X120171428Y-95007200D01*
X120171428Y-95007200D02*
X120285713Y-95054819D01*
X120285713Y-95054819D02*
X120361904Y-95054819D01*
X120361904Y-95054819D02*
X120476190Y-95007200D01*
X120476190Y-95007200D02*
X120552380Y-94911961D01*
X120552380Y-94911961D02*
X120590475Y-94816723D01*
X120590475Y-94816723D02*
X120628571Y-94626247D01*
X120628571Y-94626247D02*
X120628571Y-94483390D01*
X120628571Y-94483390D02*
X120590475Y-94292914D01*
X120590475Y-94292914D02*
X120552380Y-94197676D01*
X120552380Y-94197676D02*
X120476190Y-94102438D01*
X120476190Y-94102438D02*
X120361904Y-94054819D01*
X120361904Y-94054819D02*
X120285713Y-94054819D01*
X120285713Y-94054819D02*
X120171428Y-94102438D01*
X120171428Y-94102438D02*
X120133332Y-94150057D01*
X119866666Y-94054819D02*
X119333332Y-94054819D01*
X119333332Y-94054819D02*
X119676190Y-95054819D01*
D10*
X106920000Y-110856000D02*
X117080000Y-110856000D01*
D11*
X106920000Y-113500000D02*
X117080000Y-113500000D01*
D10*
X106920000Y-120000000D02*
X106920000Y-110856000D01*
X107936000Y-117460000D02*
X107936000Y-120000000D01*
D16*
X109000000Y-109500000D02*
X111000000Y-109500000D01*
X110000000Y-108500000D02*
X110000000Y-110500000D01*
D10*
X110984000Y-120000000D02*
X110984000Y-117460000D01*
D16*
X113000000Y-109500000D02*
X115000000Y-109500000D01*
D10*
X113016000Y-120000000D02*
X113016000Y-117460000D01*
X116064000Y-117460000D02*
X116064000Y-120000000D01*
X117080000Y-110856000D02*
X117080000Y-120000000D01*
X117080000Y-120000000D02*
X106920000Y-120000000D01*
X111492000Y-115936000D02*
G75*
G03*
X111492000Y-115936000I-2032000J0D01*
G01*
D12*
X111300000Y-109500000D02*
G75*
G03*
X111300000Y-109500000I-1300000J0D01*
G01*
X115300000Y-109500000D02*
G75*
G03*
X115300000Y-109500000I-1300000J0D01*
G01*
D10*
X116572000Y-115936000D02*
G75*
G03*
X116572000Y-115936000I-2032000J0D01*
G01*
D16*
X134200000Y-84000000D02*
X148500000Y-84000000D01*
X148500000Y-84000000D02*
X148500000Y-97000000D01*
X148500000Y-97000000D02*
X134200000Y-97000000D01*
X134200000Y-97000000D02*
X134200000Y-84000000D01*
D10*
X112078000Y-76960000D02*
X112840000Y-77976000D01*
X112840000Y-77976000D02*
X113602000Y-76960000D01*
X113602000Y-76960000D02*
X112078000Y-76960000D01*
D14*
X111940000Y-88300000D02*
X111940000Y-86700000D01*
X113060000Y-88300000D02*
X113060000Y-86700000D01*
D17*
X112928000Y-87840000D02*
X112072000Y-87840000D01*
X112072000Y-87840000D02*
X112072000Y-87160000D01*
X112072000Y-87160000D02*
X112928000Y-87160000D01*
X112928000Y-87160000D02*
X112928000Y-87840000D01*
G36*
X112928000Y-87840000D02*
G01*
X112072000Y-87840000D01*
X112072000Y-87160000D01*
X112928000Y-87160000D01*
X112928000Y-87840000D01*
G37*
D14*
X138800000Y-64560000D02*
X137200000Y-64560000D01*
X138800000Y-63440000D02*
X137200000Y-63440000D01*
D17*
X138340000Y-63572000D02*
X137660000Y-63572000D01*
X137660000Y-63572000D02*
X137660000Y-64428000D01*
X137660000Y-64428000D02*
X138340000Y-64428000D01*
X138340000Y-64428000D02*
X138340000Y-63572000D01*
G36*
X138340000Y-63572000D02*
G01*
X137660000Y-63572000D01*
X137660000Y-64428000D01*
X138340000Y-64428000D01*
X138340000Y-63572000D01*
G37*
D14*
X118200000Y-76940000D02*
X119800000Y-76940000D01*
X118200000Y-78060000D02*
X119800000Y-78060000D01*
D17*
X118660000Y-77928000D02*
X119340000Y-77928000D01*
X119340000Y-77928000D02*
X119340000Y-77072000D01*
X119340000Y-77072000D02*
X118660000Y-77072000D01*
X118660000Y-77072000D02*
X118660000Y-77928000D01*
G36*
X118660000Y-77928000D02*
G01*
X119340000Y-77928000D01*
X119340000Y-77072000D01*
X118660000Y-77072000D01*
X118660000Y-77928000D01*
G37*
D14*
X138800000Y-69560000D02*
X137200000Y-69560000D01*
X138800000Y-68440000D02*
X137200000Y-68440000D01*
D17*
X138340000Y-68572000D02*
X137660000Y-68572000D01*
X137660000Y-68572000D02*
X137660000Y-69428000D01*
X137660000Y-69428000D02*
X138340000Y-69428000D01*
X138340000Y-69428000D02*
X138340000Y-68572000D01*
G36*
X138340000Y-68572000D02*
G01*
X137660000Y-68572000D01*
X137660000Y-69428000D01*
X138340000Y-69428000D01*
X138340000Y-68572000D01*
G37*
D14*
X122200000Y-95940000D02*
X123800000Y-95940000D01*
X122200000Y-97060000D02*
X123800000Y-97060000D01*
D17*
X122660000Y-96928000D02*
X123340000Y-96928000D01*
X123340000Y-96928000D02*
X123340000Y-96072000D01*
X123340000Y-96072000D02*
X122660000Y-96072000D01*
X122660000Y-96072000D02*
X122660000Y-96928000D01*
G36*
X122660000Y-96928000D02*
G01*
X123340000Y-96928000D01*
X123340000Y-96072000D01*
X122660000Y-96072000D01*
X122660000Y-96928000D01*
G37*
D18*
X105300000Y-98700000D02*
X106700000Y-98700000D01*
X106700000Y-98700000D02*
X106700000Y-98200000D01*
X106700000Y-98200000D02*
X105300000Y-98200000D01*
X105300000Y-98200000D02*
X105300000Y-98700000D01*
G36*
X105300000Y-98700000D02*
G01*
X106700000Y-98700000D01*
X106700000Y-98200000D01*
X105300000Y-98200000D01*
X105300000Y-98700000D01*
G37*
D17*
X106500000Y-101850000D02*
X106650000Y-101850000D01*
X106650000Y-101850000D02*
X106650000Y-100150000D01*
X106650000Y-100150000D02*
X106500000Y-100150000D01*
X106500000Y-100150000D02*
X106500000Y-101850000D01*
G36*
X106500000Y-101850000D02*
G01*
X106650000Y-101850000D01*
X106650000Y-100150000D01*
X106500000Y-100150000D01*
X106500000Y-101850000D01*
G37*
X105350000Y-101850000D02*
X105500000Y-101850000D01*
X105500000Y-101850000D02*
X105500000Y-100150000D01*
X105500000Y-100150000D02*
X105350000Y-100150000D01*
X105350000Y-100150000D02*
X105350000Y-101850000D01*
G36*
X105350000Y-101850000D02*
G01*
X105500000Y-101850000D01*
X105500000Y-100150000D01*
X105350000Y-100150000D01*
X105350000Y-101850000D01*
G37*
D19*
X116406000Y-65506000D02*
X115390000Y-65506000D01*
X115390000Y-64490000D01*
X116406000Y-64490000D01*
X116406000Y-65506000D01*
G36*
X116406000Y-65506000D02*
G01*
X115390000Y-65506000D01*
X115390000Y-64490000D01*
X116406000Y-64490000D01*
X116406000Y-65506000D01*
G37*
X116406000Y-59410000D02*
X115390000Y-59410000D01*
X115390000Y-58394000D01*
X116406000Y-58394000D01*
X116406000Y-59410000D01*
G36*
X116406000Y-59410000D02*
G01*
X115390000Y-59410000D01*
X115390000Y-58394000D01*
X116406000Y-58394000D01*
X116406000Y-59410000D01*
G37*
X114374000Y-58055333D02*
X113696667Y-58055333D01*
X113696667Y-57716667D01*
X114374000Y-57716667D01*
X114374000Y-58055333D01*
G36*
X114374000Y-58055333D02*
G01*
X113696667Y-58055333D01*
X113696667Y-57716667D01*
X114374000Y-57716667D01*
X114374000Y-58055333D01*
G37*
X111664667Y-58394000D02*
X111326000Y-58394000D01*
X111326000Y-57716667D01*
X111664667Y-57716667D01*
X111664667Y-58394000D01*
G36*
X111664667Y-58394000D02*
G01*
X111326000Y-58394000D01*
X111326000Y-57716667D01*
X111664667Y-57716667D01*
X111664667Y-58394000D01*
G37*
X110310000Y-59410000D02*
X109294000Y-59410000D01*
X109294000Y-58394000D01*
X110310000Y-58394000D01*
X110310000Y-59410000D01*
G36*
X110310000Y-59410000D02*
G01*
X109294000Y-59410000D01*
X109294000Y-58394000D01*
X110310000Y-58394000D01*
X110310000Y-59410000D01*
G37*
X117083333Y-66183333D02*
X114712667Y-66183333D01*
X114712667Y-65844667D01*
X115051333Y-65844667D01*
X116744667Y-65844667D01*
X116744667Y-64151333D01*
X115051333Y-64151333D01*
X115051333Y-65844667D01*
X114712667Y-65844667D01*
X114712667Y-63812667D01*
X117083333Y-63812667D01*
X117083333Y-64151333D01*
X117083333Y-66183333D01*
G36*
X117083333Y-66183333D02*
G01*
X114712667Y-66183333D01*
X114712667Y-65844667D01*
X115051333Y-65844667D01*
X116744667Y-65844667D01*
X116744667Y-64151333D01*
X115051333Y-64151333D01*
X115051333Y-65844667D01*
X114712667Y-65844667D01*
X114712667Y-63812667D01*
X117083333Y-63812667D01*
X117083333Y-64151333D01*
X117083333Y-66183333D01*
G37*
X117083333Y-60087333D02*
X114712667Y-60087333D01*
X114712667Y-59748667D01*
X115051333Y-59748667D01*
X116744667Y-59748667D01*
X116744667Y-58055333D01*
X115051333Y-58055333D01*
X115051333Y-59748667D01*
X114712667Y-59748667D01*
X114712667Y-57716667D01*
X117083333Y-57716667D01*
X117083333Y-58055333D01*
X117083333Y-60087333D01*
G36*
X117083333Y-60087333D02*
G01*
X114712667Y-60087333D01*
X114712667Y-59748667D01*
X115051333Y-59748667D01*
X116744667Y-59748667D01*
X116744667Y-58055333D01*
X115051333Y-58055333D01*
X115051333Y-59748667D01*
X114712667Y-59748667D01*
X114712667Y-57716667D01*
X117083333Y-57716667D01*
X117083333Y-58055333D01*
X117083333Y-60087333D01*
G37*
X110987333Y-60087333D02*
X108616667Y-60087333D01*
X108616667Y-59748667D01*
X108955333Y-59748667D01*
X110648667Y-59748667D01*
X110648667Y-58055333D01*
X108955333Y-58055333D01*
X108955333Y-59748667D01*
X108616667Y-59748667D01*
X108616667Y-57716667D01*
X110987333Y-57716667D01*
X110987333Y-58055333D01*
X110987333Y-60087333D01*
G36*
X110987333Y-60087333D02*
G01*
X108616667Y-60087333D01*
X108616667Y-59748667D01*
X108955333Y-59748667D01*
X110648667Y-59748667D01*
X110648667Y-58055333D01*
X108955333Y-58055333D01*
X108955333Y-59748667D01*
X108616667Y-59748667D01*
X108616667Y-57716667D01*
X110987333Y-57716667D01*
X110987333Y-58055333D01*
X110987333Y-60087333D01*
G37*
X114971374Y-60431187D02*
X115037347Y-60475394D01*
X115051333Y-60595333D01*
X115046146Y-60684707D01*
X115001939Y-60750680D01*
X114882000Y-60764667D01*
X114792627Y-60759479D01*
X114726653Y-60715272D01*
X114712667Y-60595333D01*
X114717854Y-60505960D01*
X114762061Y-60439986D01*
X114882000Y-60426000D01*
X114971374Y-60431187D01*
G36*
X114971374Y-60431187D02*
G01*
X115037347Y-60475394D01*
X115051333Y-60595333D01*
X115046146Y-60684707D01*
X115001939Y-60750680D01*
X114882000Y-60764667D01*
X114792627Y-60759479D01*
X114726653Y-60715272D01*
X114712667Y-60595333D01*
X114717854Y-60505960D01*
X114762061Y-60439986D01*
X114882000Y-60426000D01*
X114971374Y-60431187D01*
G37*
X112262040Y-57721854D02*
X112328014Y-57766061D01*
X112342000Y-57886000D01*
X112336813Y-57975373D01*
X112292606Y-58041347D01*
X112172667Y-58055333D01*
X112083293Y-58050146D01*
X112017320Y-58005939D01*
X112003333Y-57886000D01*
X112008521Y-57796626D01*
X112052728Y-57730653D01*
X112172667Y-57716667D01*
X112262040Y-57721854D01*
G36*
X112262040Y-57721854D02*
G01*
X112328014Y-57766061D01*
X112342000Y-57886000D01*
X112336813Y-57975373D01*
X112292606Y-58041347D01*
X112172667Y-58055333D01*
X112083293Y-58050146D01*
X112017320Y-58005939D01*
X112003333Y-57886000D01*
X112008521Y-57796626D01*
X112052728Y-57730653D01*
X112172667Y-57716667D01*
X112262040Y-57721854D01*
G37*
X110907374Y-63817854D02*
X110973347Y-63862061D01*
X110987333Y-63982000D01*
X110982146Y-64071373D01*
X110937939Y-64137347D01*
X110818000Y-64151333D01*
X110728627Y-64146146D01*
X110662653Y-64101939D01*
X110648667Y-63982000D01*
X110653854Y-63892626D01*
X110698061Y-63826653D01*
X110818000Y-63812667D01*
X110907374Y-63817854D01*
G36*
X110907374Y-63817854D02*
G01*
X110973347Y-63862061D01*
X110987333Y-63982000D01*
X110982146Y-64071373D01*
X110937939Y-64137347D01*
X110818000Y-64151333D01*
X110728627Y-64146146D01*
X110662653Y-64101939D01*
X110648667Y-63982000D01*
X110653854Y-63892626D01*
X110698061Y-63826653D01*
X110818000Y-63812667D01*
X110907374Y-63817854D01*
G37*
X114374000Y-59410000D02*
X114204667Y-59410000D01*
X114115293Y-59415187D01*
X114049320Y-59459394D01*
X114035333Y-59579333D01*
X114040521Y-59668707D01*
X114084728Y-59734680D01*
X114204667Y-59748667D01*
X114294040Y-59753854D01*
X114360014Y-59798061D01*
X114374000Y-59918000D01*
X114368813Y-60007373D01*
X114324606Y-60073347D01*
X114204667Y-60087333D01*
X114115293Y-60092521D01*
X114049320Y-60136728D01*
X114035333Y-60256667D01*
X114040521Y-60346040D01*
X114084728Y-60412014D01*
X114204667Y-60426000D01*
X114294040Y-60431187D01*
X114360014Y-60475394D01*
X114374000Y-60595333D01*
X114368813Y-60684707D01*
X114324606Y-60750680D01*
X114204667Y-60764667D01*
X114115293Y-60769854D01*
X114049320Y-60814061D01*
X114035333Y-60934000D01*
X114030146Y-61023373D01*
X113985939Y-61089347D01*
X113866000Y-61103333D01*
X113776627Y-61098146D01*
X113710653Y-61053939D01*
X113696667Y-60934000D01*
X113701854Y-60844626D01*
X113746061Y-60778653D01*
X113866000Y-60764667D01*
X113955374Y-60759479D01*
X114021347Y-60715272D01*
X114035333Y-60595333D01*
X114030146Y-60505960D01*
X113985939Y-60439986D01*
X113866000Y-60426000D01*
X113776627Y-60420812D01*
X113710653Y-60376605D01*
X113696667Y-60256667D01*
X113691479Y-60167293D01*
X113647272Y-60101319D01*
X113527333Y-60087333D01*
X113437960Y-60082146D01*
X113371986Y-60037939D01*
X113358000Y-59918000D01*
X113696667Y-59918000D01*
X113701854Y-60007373D01*
X113746061Y-60073347D01*
X113866000Y-60087333D01*
X113955374Y-60082146D01*
X114021347Y-60037939D01*
X114035333Y-59918000D01*
X114030146Y-59828626D01*
X113985939Y-59762653D01*
X113866000Y-59748667D01*
X113776627Y-59753854D01*
X113710653Y-59798061D01*
X113696667Y-59918000D01*
X113358000Y-59918000D01*
X113363188Y-59828626D01*
X113407395Y-59762653D01*
X113527333Y-59748667D01*
X113616707Y-59743479D01*
X113682681Y-59699272D01*
X113696667Y-59579333D01*
X113696667Y-59410000D01*
X113019333Y-59410000D01*
X113019333Y-60426000D01*
X113358000Y-60426000D01*
X113358000Y-60595333D01*
X113358000Y-61442000D01*
X113188667Y-61442000D01*
X113099293Y-61447187D01*
X113033320Y-61491394D01*
X113019333Y-61611333D01*
X113024521Y-61700707D01*
X113068728Y-61766680D01*
X113188667Y-61780667D01*
X113278040Y-61785854D01*
X113344014Y-61830061D01*
X113358000Y-61950000D01*
X113363188Y-62039373D01*
X113407395Y-62105347D01*
X113527333Y-62119333D01*
X113616707Y-62114146D01*
X113682681Y-62069939D01*
X113696667Y-61950000D01*
X113696667Y-61780667D01*
X114374000Y-61780667D01*
X114374000Y-61103333D01*
X115051333Y-61103333D01*
X115051333Y-61272667D01*
X115046146Y-61362040D01*
X115001939Y-61428014D01*
X114882000Y-61442000D01*
X114792627Y-61447187D01*
X114726653Y-61491394D01*
X114712667Y-61611333D01*
X114712667Y-61780667D01*
X115390000Y-61780667D01*
X115390000Y-61611333D01*
X115728667Y-61611333D01*
X115733854Y-61700707D01*
X115778061Y-61766680D01*
X115898000Y-61780667D01*
X115987374Y-61775479D01*
X116053347Y-61731272D01*
X116067333Y-61611333D01*
X116062146Y-61521960D01*
X116017939Y-61455986D01*
X115898000Y-61442000D01*
X115808627Y-61447187D01*
X115742653Y-61491394D01*
X115728667Y-61611333D01*
X115390000Y-61611333D01*
X115395188Y-61521960D01*
X115439395Y-61455986D01*
X115559333Y-61442000D01*
X115728667Y-61442000D01*
X115728667Y-60934000D01*
X116067333Y-60934000D01*
X116072521Y-61023373D01*
X116116728Y-61089347D01*
X116236667Y-61103333D01*
X116326040Y-61098146D01*
X116392014Y-61053939D01*
X116406000Y-60934000D01*
X116400813Y-60844626D01*
X116356606Y-60778653D01*
X116236667Y-60764667D01*
X116147293Y-60769854D01*
X116081320Y-60814061D01*
X116067333Y-60934000D01*
X115728667Y-60934000D01*
X115728667Y-60426000D01*
X117083333Y-60426000D01*
X117083333Y-60934000D01*
X117083333Y-61103333D01*
X116914000Y-61103333D01*
X116824627Y-61108521D01*
X116758653Y-61152728D01*
X116744667Y-61272667D01*
X116749854Y-61362040D01*
X116794061Y-61428014D01*
X116914000Y-61442000D01*
X117003374Y-61447187D01*
X117069347Y-61491394D01*
X117083333Y-61611333D01*
X117083333Y-61780667D01*
X116067333Y-61780667D01*
X116067333Y-61950000D01*
X116072521Y-62039373D01*
X116116728Y-62105347D01*
X116236667Y-62119333D01*
X116326040Y-62124521D01*
X116392014Y-62168728D01*
X116406000Y-62288667D01*
X116411188Y-62378040D01*
X116455395Y-62444014D01*
X116575333Y-62458000D01*
X116664707Y-62463187D01*
X116730681Y-62507394D01*
X116744667Y-62627333D01*
X116749854Y-62716707D01*
X116794061Y-62782680D01*
X116914000Y-62796667D01*
X117003374Y-62801854D01*
X117069347Y-62846061D01*
X117083333Y-62966000D01*
X117078146Y-63055373D01*
X117033939Y-63121347D01*
X116914000Y-63135333D01*
X116824627Y-63130146D01*
X116758653Y-63085939D01*
X116744667Y-62966000D01*
X116744667Y-62796667D01*
X116067333Y-62796667D01*
X116067333Y-62966000D01*
X116072521Y-63055373D01*
X116116728Y-63121347D01*
X116236667Y-63135333D01*
X116326040Y-63140521D01*
X116392014Y-63184728D01*
X116406000Y-63304667D01*
X116406000Y-63474000D01*
X115728667Y-63474000D01*
X115728667Y-62796667D01*
X115390000Y-62796667D01*
X115390000Y-63474000D01*
X114712667Y-63474000D01*
X114712667Y-63304667D01*
X114717854Y-63215293D01*
X114762061Y-63149319D01*
X114882000Y-63135333D01*
X114971374Y-63130146D01*
X115037347Y-63085939D01*
X115051333Y-62966000D01*
X115051333Y-62796667D01*
X114374000Y-62796667D01*
X114374000Y-63643333D01*
X114374000Y-63812667D01*
X114035333Y-63812667D01*
X114035333Y-64828667D01*
X114374000Y-64828667D01*
X114374000Y-66183333D01*
X113696667Y-66183333D01*
X113696667Y-66014000D01*
X113701854Y-65924626D01*
X113746061Y-65858653D01*
X113866000Y-65844667D01*
X114035333Y-65844667D01*
X114035333Y-65167333D01*
X113696667Y-65167333D01*
X113696667Y-64151333D01*
X113527333Y-64151333D01*
X113437960Y-64146146D01*
X113371986Y-64101939D01*
X113358000Y-63982000D01*
X113358000Y-63812667D01*
X112342000Y-63812667D01*
X112342000Y-63135333D01*
X112172667Y-63135333D01*
X112083293Y-63140521D01*
X112017320Y-63184728D01*
X112003333Y-63304667D01*
X111998146Y-63394040D01*
X111953939Y-63460014D01*
X111834000Y-63474000D01*
X111664667Y-63474000D01*
X111664667Y-64151333D01*
X111834000Y-64151333D01*
X111923374Y-64156521D01*
X111989347Y-64200728D01*
X112003333Y-64320667D01*
X112008521Y-64410040D01*
X112052728Y-64476014D01*
X112172667Y-64490000D01*
X112342000Y-64490000D01*
X112342000Y-64659333D01*
X112342000Y-65167333D01*
X112511333Y-65167333D01*
X112600707Y-65172521D01*
X112666681Y-65216728D01*
X112680667Y-65336667D01*
X112685854Y-65426040D01*
X112730061Y-65492014D01*
X112850000Y-65506000D01*
X113019333Y-65506000D01*
X113019333Y-64828667D01*
X113358000Y-64828667D01*
X113358000Y-66183333D01*
X112342000Y-66183333D01*
X112342000Y-65506000D01*
X112172667Y-65506000D01*
X112083293Y-65511187D01*
X112017320Y-65555394D01*
X112003333Y-65675333D01*
X111998146Y-65764707D01*
X111953939Y-65830680D01*
X111834000Y-65844667D01*
X111744627Y-65839479D01*
X111678653Y-65795272D01*
X111664667Y-65675333D01*
X111669854Y-65585960D01*
X111714061Y-65519986D01*
X111834000Y-65506000D01*
X111923374Y-65500812D01*
X111989347Y-65456605D01*
X112003333Y-65336667D01*
X111998146Y-65247293D01*
X111953939Y-65181319D01*
X111834000Y-65167333D01*
X111744627Y-65162146D01*
X111678653Y-65117939D01*
X111664667Y-64998000D01*
X111664667Y-64828667D01*
X110987333Y-64828667D01*
X110987333Y-64998000D01*
X110992521Y-65087373D01*
X111036728Y-65153347D01*
X111156667Y-65167333D01*
X111326000Y-65167333D01*
X111326000Y-65844667D01*
X110648667Y-65844667D01*
X110648667Y-66183333D01*
X108616667Y-66183333D01*
X108616667Y-65844667D01*
X109294000Y-65844667D01*
X109632667Y-65844667D01*
X109971333Y-65844667D01*
X109971333Y-65167333D01*
X110310000Y-65167333D01*
X110310000Y-65844667D01*
X110648667Y-65844667D01*
X110648667Y-64828667D01*
X110310000Y-64828667D01*
X110310000Y-65167333D01*
X109971333Y-65167333D01*
X109632667Y-65167333D01*
X109632667Y-65844667D01*
X109294000Y-65844667D01*
X109294000Y-65675333D01*
X109288813Y-65585960D01*
X109244606Y-65519986D01*
X109124667Y-65506000D01*
X109035293Y-65500812D01*
X108969320Y-65456605D01*
X108955333Y-65336667D01*
X108950146Y-65247293D01*
X108905939Y-65181319D01*
X108786000Y-65167333D01*
X108616667Y-65167333D01*
X108616667Y-64828667D01*
X109294000Y-64828667D01*
X109463333Y-64828667D01*
X109552707Y-64823479D01*
X109618681Y-64779272D01*
X109632667Y-64659333D01*
X111664667Y-64659333D01*
X111669854Y-64748707D01*
X111714061Y-64814680D01*
X111834000Y-64828667D01*
X111923374Y-64823479D01*
X111989347Y-64779272D01*
X112003333Y-64659333D01*
X111998146Y-64569960D01*
X111953939Y-64503986D01*
X111834000Y-64490000D01*
X111744627Y-64495187D01*
X111678653Y-64539394D01*
X111664667Y-64659333D01*
X109632667Y-64659333D01*
X109637854Y-64569960D01*
X109682061Y-64503986D01*
X109802000Y-64490000D01*
X109971333Y-64490000D01*
X109971333Y-63474000D01*
X110310000Y-63474000D01*
X110310000Y-64490000D01*
X111326000Y-64490000D01*
X111326000Y-63474000D01*
X110310000Y-63474000D01*
X109971333Y-63474000D01*
X109632667Y-63474000D01*
X109632667Y-63643333D01*
X109632667Y-64151333D01*
X109294000Y-64151333D01*
X109294000Y-64828667D01*
X108616667Y-64828667D01*
X108616667Y-64490000D01*
X108786000Y-64490000D01*
X108875374Y-64484812D01*
X108941347Y-64440605D01*
X108955333Y-64320667D01*
X108950146Y-64231293D01*
X108905939Y-64165319D01*
X108786000Y-64151333D01*
X108616667Y-64151333D01*
X108616667Y-63643333D01*
X108955333Y-63643333D01*
X108960521Y-63732707D01*
X109004728Y-63798680D01*
X109124667Y-63812667D01*
X109214040Y-63807479D01*
X109280014Y-63763272D01*
X109294000Y-63643333D01*
X109288813Y-63553960D01*
X109244606Y-63487986D01*
X109124667Y-63474000D01*
X109035293Y-63479187D01*
X108969320Y-63523394D01*
X108955333Y-63643333D01*
X108616667Y-63643333D01*
X108616667Y-62796667D01*
X108786000Y-62796667D01*
X108875374Y-62791479D01*
X108941347Y-62747272D01*
X108955333Y-62627333D01*
X108950146Y-62537960D01*
X108905939Y-62471986D01*
X108786000Y-62458000D01*
X108616667Y-62458000D01*
X108616667Y-61780667D01*
X109294000Y-61780667D01*
X109294000Y-61442000D01*
X109971333Y-61442000D01*
X109971333Y-61780667D01*
X109802000Y-61780667D01*
X109712627Y-61785854D01*
X109646653Y-61830061D01*
X109632667Y-61950000D01*
X109632667Y-62119333D01*
X108955333Y-62119333D01*
X108955333Y-62458000D01*
X109632667Y-62458000D01*
X109632667Y-62796667D01*
X108955333Y-62796667D01*
X108955333Y-63135333D01*
X109971333Y-63135333D01*
X109971333Y-62458000D01*
X110310000Y-62458000D01*
X110310000Y-62627333D01*
X110315188Y-62716707D01*
X110359395Y-62782680D01*
X110479333Y-62796667D01*
X110568707Y-62801854D01*
X110634681Y-62846061D01*
X110648667Y-62966000D01*
X110653854Y-63055373D01*
X110698061Y-63121347D01*
X110818000Y-63135333D01*
X110987333Y-63135333D01*
X110987333Y-62966000D01*
X112342000Y-62966000D01*
X112347188Y-63055373D01*
X112391395Y-63121347D01*
X112511333Y-63135333D01*
X112600707Y-63140521D01*
X112666681Y-63184728D01*
X112680667Y-63304667D01*
X112680667Y-63474000D01*
X113358000Y-63474000D01*
X113358000Y-63643333D01*
X113363188Y-63732707D01*
X113407395Y-63798680D01*
X113527333Y-63812667D01*
X113616707Y-63807479D01*
X113682681Y-63763272D01*
X113696667Y-63643333D01*
X113691479Y-63553960D01*
X113647272Y-63487986D01*
X113527333Y-63474000D01*
X113437960Y-63468812D01*
X113371986Y-63424605D01*
X113358000Y-63304667D01*
X113352813Y-63215293D01*
X113308606Y-63149319D01*
X113188667Y-63135333D01*
X113099293Y-63130146D01*
X113033320Y-63085939D01*
X113019333Y-62966000D01*
X113019333Y-62796667D01*
X112342000Y-62796667D01*
X112342000Y-62966000D01*
X110987333Y-62966000D01*
X110987333Y-62627333D01*
X111664667Y-62627333D01*
X111669854Y-62716707D01*
X111714061Y-62782680D01*
X111834000Y-62796667D01*
X111923374Y-62791479D01*
X111989347Y-62747272D01*
X112003333Y-62627333D01*
X111998146Y-62537960D01*
X111953939Y-62471986D01*
X111834000Y-62458000D01*
X111744627Y-62463187D01*
X111678653Y-62507394D01*
X111664667Y-62627333D01*
X110987333Y-62627333D01*
X110987333Y-62458000D01*
X111156667Y-62458000D01*
X111246040Y-62452812D01*
X111312014Y-62408605D01*
X111326000Y-62288667D01*
X112342000Y-62288667D01*
X112347188Y-62378040D01*
X112391395Y-62444014D01*
X112511333Y-62458000D01*
X112600707Y-62452812D01*
X112666681Y-62408605D01*
X112680667Y-62288667D01*
X113019333Y-62288667D01*
X113019333Y-62627333D01*
X113019333Y-62796667D01*
X114035333Y-62796667D01*
X114035333Y-62119333D01*
X114374000Y-62119333D01*
X114374000Y-62458000D01*
X115728667Y-62458000D01*
X115728667Y-62119333D01*
X114712667Y-62119333D01*
X114712667Y-61950000D01*
X114707479Y-61860626D01*
X114663272Y-61794653D01*
X114543333Y-61780667D01*
X114374000Y-61780667D01*
X114374000Y-62119333D01*
X114035333Y-62119333D01*
X113866000Y-62119333D01*
X113776627Y-62124521D01*
X113710653Y-62168728D01*
X113696667Y-62288667D01*
X113691479Y-62378040D01*
X113647272Y-62444014D01*
X113527333Y-62458000D01*
X113437960Y-62452812D01*
X113371986Y-62408605D01*
X113358000Y-62288667D01*
X113352813Y-62199293D01*
X113308606Y-62133319D01*
X113188667Y-62119333D01*
X113019333Y-62119333D01*
X113019333Y-62288667D01*
X112680667Y-62288667D01*
X112675479Y-62199293D01*
X112631272Y-62133319D01*
X112511333Y-62119333D01*
X112421960Y-62124521D01*
X112355986Y-62168728D01*
X112342000Y-62288667D01*
X111326000Y-62288667D01*
X111331188Y-62199293D01*
X111375395Y-62133319D01*
X111495333Y-62119333D01*
X111584707Y-62114146D01*
X111650681Y-62069939D01*
X111664667Y-61950000D01*
X111669854Y-61860626D01*
X111714061Y-61794653D01*
X111834000Y-61780667D01*
X111923374Y-61775479D01*
X111989347Y-61731272D01*
X112003333Y-61611333D01*
X112008521Y-61521960D01*
X112052728Y-61455986D01*
X112172667Y-61442000D01*
X112262040Y-61436812D01*
X112328014Y-61392605D01*
X112342000Y-61272667D01*
X112347188Y-61183293D01*
X112391395Y-61117319D01*
X112511333Y-61103333D01*
X112600707Y-61098146D01*
X112666681Y-61053939D01*
X112680667Y-60934000D01*
X112685854Y-60844626D01*
X112730061Y-60778653D01*
X112850000Y-60764667D01*
X112939374Y-60759479D01*
X113005347Y-60715272D01*
X113019333Y-60595333D01*
X113014146Y-60505960D01*
X112969939Y-60439986D01*
X112850000Y-60426000D01*
X112680667Y-60426000D01*
X112680667Y-59748667D01*
X112342000Y-59748667D01*
X112342000Y-60764667D01*
X111664667Y-60764667D01*
X111664667Y-61780667D01*
X111495333Y-61780667D01*
X111405960Y-61785854D01*
X111339986Y-61830061D01*
X111326000Y-61950000D01*
X111320813Y-62039373D01*
X111276606Y-62105347D01*
X111156667Y-62119333D01*
X111067293Y-62124521D01*
X111001320Y-62168728D01*
X110987333Y-62288667D01*
X110987333Y-62458000D01*
X110310000Y-62458000D01*
X109971333Y-62458000D01*
X109971333Y-61780667D01*
X110648667Y-61780667D01*
X110648667Y-61611333D01*
X110643479Y-61521960D01*
X110599272Y-61455986D01*
X110479333Y-61442000D01*
X110310000Y-61442000D01*
X110310000Y-60764667D01*
X109294000Y-60764667D01*
X109294000Y-60934000D01*
X109288813Y-61023373D01*
X109244606Y-61089347D01*
X109124667Y-61103333D01*
X109035293Y-61098146D01*
X108969320Y-61053939D01*
X108955333Y-60934000D01*
X108950146Y-60844626D01*
X108905939Y-60778653D01*
X108786000Y-60764667D01*
X108696627Y-60759479D01*
X108630653Y-60715272D01*
X108616667Y-60595333D01*
X108621854Y-60505960D01*
X108666061Y-60439986D01*
X108786000Y-60426000D01*
X108875374Y-60431187D01*
X108941347Y-60475394D01*
X108955333Y-60595333D01*
X108960521Y-60684707D01*
X109004728Y-60750680D01*
X109124667Y-60764667D01*
X109214040Y-60759479D01*
X109280014Y-60715272D01*
X109294000Y-60595333D01*
X109294000Y-60426000D01*
X110310000Y-60426000D01*
X110310000Y-60595333D01*
X110315188Y-60684707D01*
X110359395Y-60750680D01*
X110479333Y-60764667D01*
X110648667Y-60764667D01*
X110648667Y-61442000D01*
X111326000Y-61442000D01*
X111326000Y-61272667D01*
X111320813Y-61183293D01*
X111276606Y-61117319D01*
X111156667Y-61103333D01*
X110987333Y-61103333D01*
X110987333Y-60426000D01*
X111326000Y-60426000D01*
X111326000Y-60087333D01*
X111664667Y-60087333D01*
X111834000Y-60087333D01*
X111923374Y-60082146D01*
X111989347Y-60037939D01*
X112003333Y-59918000D01*
X112008521Y-59828626D01*
X112052728Y-59762653D01*
X112172667Y-59748667D01*
X112342000Y-59748667D01*
X112342000Y-59240667D01*
X112680667Y-59240667D01*
X112685854Y-59330040D01*
X112730061Y-59396014D01*
X112850000Y-59410000D01*
X112939374Y-59404812D01*
X113005347Y-59360605D01*
X113019333Y-59240667D01*
X113014146Y-59151293D01*
X112969939Y-59085319D01*
X112850000Y-59071333D01*
X112760627Y-59076521D01*
X112694653Y-59120728D01*
X112680667Y-59240667D01*
X112342000Y-59240667D01*
X112342000Y-59071333D01*
X112172667Y-59071333D01*
X112083293Y-59076521D01*
X112017320Y-59120728D01*
X112003333Y-59240667D01*
X111998146Y-59330040D01*
X111953939Y-59396014D01*
X111834000Y-59410000D01*
X111664667Y-59410000D01*
X111664667Y-60087333D01*
X111326000Y-60087333D01*
X111326000Y-59071333D01*
X111495333Y-59071333D01*
X111584707Y-59066146D01*
X111650681Y-59021939D01*
X111664667Y-58902000D01*
X111664667Y-58732667D01*
X112342000Y-58732667D01*
X112342000Y-58394000D01*
X113358000Y-58394000D01*
X113358000Y-59071333D01*
X113527333Y-59071333D01*
X113616707Y-59066146D01*
X113682681Y-59021939D01*
X113696667Y-58902000D01*
X113701854Y-58812626D01*
X113746061Y-58746653D01*
X113866000Y-58732667D01*
X113955374Y-58727479D01*
X114021347Y-58683272D01*
X114035333Y-58563333D01*
X114040521Y-58473960D01*
X114084728Y-58407986D01*
X114204667Y-58394000D01*
X114374000Y-58394000D01*
X114374000Y-59240667D01*
X114374000Y-59410000D01*
G36*
X114374000Y-59410000D02*
G01*
X114204667Y-59410000D01*
X114115293Y-59415187D01*
X114049320Y-59459394D01*
X114035333Y-59579333D01*
X114040521Y-59668707D01*
X114084728Y-59734680D01*
X114204667Y-59748667D01*
X114294040Y-59753854D01*
X114360014Y-59798061D01*
X114374000Y-59918000D01*
X114368813Y-60007373D01*
X114324606Y-60073347D01*
X114204667Y-60087333D01*
X114115293Y-60092521D01*
X114049320Y-60136728D01*
X114035333Y-60256667D01*
X114040521Y-60346040D01*
X114084728Y-60412014D01*
X114204667Y-60426000D01*
X114294040Y-60431187D01*
X114360014Y-60475394D01*
X114374000Y-60595333D01*
X114368813Y-60684707D01*
X114324606Y-60750680D01*
X114204667Y-60764667D01*
X114115293Y-60769854D01*
X114049320Y-60814061D01*
X114035333Y-60934000D01*
X114030146Y-61023373D01*
X113985939Y-61089347D01*
X113866000Y-61103333D01*
X113776627Y-61098146D01*
X113710653Y-61053939D01*
X113696667Y-60934000D01*
X113701854Y-60844626D01*
X113746061Y-60778653D01*
X113866000Y-60764667D01*
X113955374Y-60759479D01*
X114021347Y-60715272D01*
X114035333Y-60595333D01*
X114030146Y-60505960D01*
X113985939Y-60439986D01*
X113866000Y-60426000D01*
X113776627Y-60420812D01*
X113710653Y-60376605D01*
X113696667Y-60256667D01*
X113691479Y-60167293D01*
X113647272Y-60101319D01*
X113527333Y-60087333D01*
X113437960Y-60082146D01*
X113371986Y-60037939D01*
X113358000Y-59918000D01*
X113696667Y-59918000D01*
X113701854Y-60007373D01*
X113746061Y-60073347D01*
X113866000Y-60087333D01*
X113955374Y-60082146D01*
X114021347Y-60037939D01*
X114035333Y-59918000D01*
X114030146Y-59828626D01*
X113985939Y-59762653D01*
X113866000Y-59748667D01*
X113776627Y-59753854D01*
X113710653Y-59798061D01*
X113696667Y-59918000D01*
X113358000Y-59918000D01*
X113363188Y-59828626D01*
X113407395Y-59762653D01*
X113527333Y-59748667D01*
X113616707Y-59743479D01*
X113682681Y-59699272D01*
X113696667Y-59579333D01*
X113696667Y-59410000D01*
X113019333Y-59410000D01*
X113019333Y-60426000D01*
X113358000Y-60426000D01*
X113358000Y-60595333D01*
X113358000Y-61442000D01*
X113188667Y-61442000D01*
X113099293Y-61447187D01*
X113033320Y-61491394D01*
X113019333Y-61611333D01*
X113024521Y-61700707D01*
X113068728Y-61766680D01*
X113188667Y-61780667D01*
X113278040Y-61785854D01*
X113344014Y-61830061D01*
X113358000Y-61950000D01*
X113363188Y-62039373D01*
X113407395Y-62105347D01*
X113527333Y-62119333D01*
X113616707Y-62114146D01*
X113682681Y-62069939D01*
X113696667Y-61950000D01*
X113696667Y-61780667D01*
X114374000Y-61780667D01*
X114374000Y-61103333D01*
X115051333Y-61103333D01*
X115051333Y-61272667D01*
X115046146Y-61362040D01*
X115001939Y-61428014D01*
X114882000Y-61442000D01*
X114792627Y-61447187D01*
X114726653Y-61491394D01*
X114712667Y-61611333D01*
X114712667Y-61780667D01*
X115390000Y-61780667D01*
X115390000Y-61611333D01*
X115728667Y-61611333D01*
X115733854Y-61700707D01*
X115778061Y-61766680D01*
X115898000Y-61780667D01*
X115987374Y-61775479D01*
X116053347Y-61731272D01*
X116067333Y-61611333D01*
X116062146Y-61521960D01*
X116017939Y-61455986D01*
X115898000Y-61442000D01*
X115808627Y-61447187D01*
X115742653Y-61491394D01*
X115728667Y-61611333D01*
X115390000Y-61611333D01*
X115395188Y-61521960D01*
X115439395Y-61455986D01*
X115559333Y-61442000D01*
X115728667Y-61442000D01*
X115728667Y-60934000D01*
X116067333Y-60934000D01*
X116072521Y-61023373D01*
X116116728Y-61089347D01*
X116236667Y-61103333D01*
X116326040Y-61098146D01*
X116392014Y-61053939D01*
X116406000Y-60934000D01*
X116400813Y-60844626D01*
X116356606Y-60778653D01*
X116236667Y-60764667D01*
X116147293Y-60769854D01*
X116081320Y-60814061D01*
X116067333Y-60934000D01*
X115728667Y-60934000D01*
X115728667Y-60426000D01*
X117083333Y-60426000D01*
X117083333Y-60934000D01*
X117083333Y-61103333D01*
X116914000Y-61103333D01*
X116824627Y-61108521D01*
X116758653Y-61152728D01*
X116744667Y-61272667D01*
X116749854Y-61362040D01*
X116794061Y-61428014D01*
X116914000Y-61442000D01*
X117003374Y-61447187D01*
X117069347Y-61491394D01*
X117083333Y-61611333D01*
X117083333Y-61780667D01*
X116067333Y-61780667D01*
X116067333Y-61950000D01*
X116072521Y-62039373D01*
X116116728Y-62105347D01*
X116236667Y-62119333D01*
X116326040Y-62124521D01*
X116392014Y-62168728D01*
X116406000Y-62288667D01*
X116411188Y-62378040D01*
X116455395Y-62444014D01*
X116575333Y-62458000D01*
X116664707Y-62463187D01*
X116730681Y-62507394D01*
X116744667Y-62627333D01*
X116749854Y-62716707D01*
X116794061Y-62782680D01*
X116914000Y-62796667D01*
X117003374Y-62801854D01*
X117069347Y-62846061D01*
X117083333Y-62966000D01*
X117078146Y-63055373D01*
X117033939Y-63121347D01*
X116914000Y-63135333D01*
X116824627Y-63130146D01*
X116758653Y-63085939D01*
X116744667Y-62966000D01*
X116744667Y-62796667D01*
X116067333Y-62796667D01*
X116067333Y-62966000D01*
X116072521Y-63055373D01*
X116116728Y-63121347D01*
X116236667Y-63135333D01*
X116326040Y-63140521D01*
X116392014Y-63184728D01*
X116406000Y-63304667D01*
X116406000Y-63474000D01*
X115728667Y-63474000D01*
X115728667Y-62796667D01*
X115390000Y-62796667D01*
X115390000Y-63474000D01*
X114712667Y-63474000D01*
X114712667Y-63304667D01*
X114717854Y-63215293D01*
X114762061Y-63149319D01*
X114882000Y-63135333D01*
X114971374Y-63130146D01*
X115037347Y-63085939D01*
X115051333Y-62966000D01*
X115051333Y-62796667D01*
X114374000Y-62796667D01*
X114374000Y-63643333D01*
X114374000Y-63812667D01*
X114035333Y-63812667D01*
X114035333Y-64828667D01*
X114374000Y-64828667D01*
X114374000Y-66183333D01*
X113696667Y-66183333D01*
X113696667Y-66014000D01*
X113701854Y-65924626D01*
X113746061Y-65858653D01*
X113866000Y-65844667D01*
X114035333Y-65844667D01*
X114035333Y-65167333D01*
X113696667Y-65167333D01*
X113696667Y-64151333D01*
X113527333Y-64151333D01*
X113437960Y-64146146D01*
X113371986Y-64101939D01*
X113358000Y-63982000D01*
X113358000Y-63812667D01*
X112342000Y-63812667D01*
X112342000Y-63135333D01*
X112172667Y-63135333D01*
X112083293Y-63140521D01*
X112017320Y-63184728D01*
X112003333Y-63304667D01*
X111998146Y-63394040D01*
X111953939Y-63460014D01*
X111834000Y-63474000D01*
X111664667Y-63474000D01*
X111664667Y-64151333D01*
X111834000Y-64151333D01*
X111923374Y-64156521D01*
X111989347Y-64200728D01*
X112003333Y-64320667D01*
X112008521Y-64410040D01*
X112052728Y-64476014D01*
X112172667Y-64490000D01*
X112342000Y-64490000D01*
X112342000Y-64659333D01*
X112342000Y-65167333D01*
X112511333Y-65167333D01*
X112600707Y-65172521D01*
X112666681Y-65216728D01*
X112680667Y-65336667D01*
X112685854Y-65426040D01*
X112730061Y-65492014D01*
X112850000Y-65506000D01*
X113019333Y-65506000D01*
X113019333Y-64828667D01*
X113358000Y-64828667D01*
X113358000Y-66183333D01*
X112342000Y-66183333D01*
X112342000Y-65506000D01*
X112172667Y-65506000D01*
X112083293Y-65511187D01*
X112017320Y-65555394D01*
X112003333Y-65675333D01*
X111998146Y-65764707D01*
X111953939Y-65830680D01*
X111834000Y-65844667D01*
X111744627Y-65839479D01*
X111678653Y-65795272D01*
X111664667Y-65675333D01*
X111669854Y-65585960D01*
X111714061Y-65519986D01*
X111834000Y-65506000D01*
X111923374Y-65500812D01*
X111989347Y-65456605D01*
X112003333Y-65336667D01*
X111998146Y-65247293D01*
X111953939Y-65181319D01*
X111834000Y-65167333D01*
X111744627Y-65162146D01*
X111678653Y-65117939D01*
X111664667Y-64998000D01*
X111664667Y-64828667D01*
X110987333Y-64828667D01*
X110987333Y-64998000D01*
X110992521Y-65087373D01*
X111036728Y-65153347D01*
X111156667Y-65167333D01*
X111326000Y-65167333D01*
X111326000Y-65844667D01*
X110648667Y-65844667D01*
X110648667Y-66183333D01*
X108616667Y-66183333D01*
X108616667Y-65844667D01*
X109294000Y-65844667D01*
X109632667Y-65844667D01*
X109971333Y-65844667D01*
X109971333Y-65167333D01*
X110310000Y-65167333D01*
X110310000Y-65844667D01*
X110648667Y-65844667D01*
X110648667Y-64828667D01*
X110310000Y-64828667D01*
X110310000Y-65167333D01*
X109971333Y-65167333D01*
X109632667Y-65167333D01*
X109632667Y-65844667D01*
X109294000Y-65844667D01*
X109294000Y-65675333D01*
X109288813Y-65585960D01*
X109244606Y-65519986D01*
X109124667Y-65506000D01*
X109035293Y-65500812D01*
X108969320Y-65456605D01*
X108955333Y-65336667D01*
X108950146Y-65247293D01*
X108905939Y-65181319D01*
X108786000Y-65167333D01*
X108616667Y-65167333D01*
X108616667Y-64828667D01*
X109294000Y-64828667D01*
X109463333Y-64828667D01*
X109552707Y-64823479D01*
X109618681Y-64779272D01*
X109632667Y-64659333D01*
X111664667Y-64659333D01*
X111669854Y-64748707D01*
X111714061Y-64814680D01*
X111834000Y-64828667D01*
X111923374Y-64823479D01*
X111989347Y-64779272D01*
X112003333Y-64659333D01*
X111998146Y-64569960D01*
X111953939Y-64503986D01*
X111834000Y-64490000D01*
X111744627Y-64495187D01*
X111678653Y-64539394D01*
X111664667Y-64659333D01*
X109632667Y-64659333D01*
X109637854Y-64569960D01*
X109682061Y-64503986D01*
X109802000Y-64490000D01*
X109971333Y-64490000D01*
X109971333Y-63474000D01*
X110310000Y-63474000D01*
X110310000Y-64490000D01*
X111326000Y-64490000D01*
X111326000Y-63474000D01*
X110310000Y-63474000D01*
X109971333Y-63474000D01*
X109632667Y-63474000D01*
X109632667Y-63643333D01*
X109632667Y-64151333D01*
X109294000Y-64151333D01*
X109294000Y-64828667D01*
X108616667Y-64828667D01*
X108616667Y-64490000D01*
X108786000Y-64490000D01*
X108875374Y-64484812D01*
X108941347Y-64440605D01*
X108955333Y-64320667D01*
X108950146Y-64231293D01*
X108905939Y-64165319D01*
X108786000Y-64151333D01*
X108616667Y-64151333D01*
X108616667Y-63643333D01*
X108955333Y-63643333D01*
X108960521Y-63732707D01*
X109004728Y-63798680D01*
X109124667Y-63812667D01*
X109214040Y-63807479D01*
X109280014Y-63763272D01*
X109294000Y-63643333D01*
X109288813Y-63553960D01*
X109244606Y-63487986D01*
X109124667Y-63474000D01*
X109035293Y-63479187D01*
X108969320Y-63523394D01*
X108955333Y-63643333D01*
X108616667Y-63643333D01*
X108616667Y-62796667D01*
X108786000Y-62796667D01*
X108875374Y-62791479D01*
X108941347Y-62747272D01*
X108955333Y-62627333D01*
X108950146Y-62537960D01*
X108905939Y-62471986D01*
X108786000Y-62458000D01*
X108616667Y-62458000D01*
X108616667Y-61780667D01*
X109294000Y-61780667D01*
X109294000Y-61442000D01*
X109971333Y-61442000D01*
X109971333Y-61780667D01*
X109802000Y-61780667D01*
X109712627Y-61785854D01*
X109646653Y-61830061D01*
X109632667Y-61950000D01*
X109632667Y-62119333D01*
X108955333Y-62119333D01*
X108955333Y-62458000D01*
X109632667Y-62458000D01*
X109632667Y-62796667D01*
X108955333Y-62796667D01*
X108955333Y-63135333D01*
X109971333Y-63135333D01*
X109971333Y-62458000D01*
X110310000Y-62458000D01*
X110310000Y-62627333D01*
X110315188Y-62716707D01*
X110359395Y-62782680D01*
X110479333Y-62796667D01*
X110568707Y-62801854D01*
X110634681Y-62846061D01*
X110648667Y-62966000D01*
X110653854Y-63055373D01*
X110698061Y-63121347D01*
X110818000Y-63135333D01*
X110987333Y-63135333D01*
X110987333Y-62966000D01*
X112342000Y-62966000D01*
X112347188Y-63055373D01*
X112391395Y-63121347D01*
X112511333Y-63135333D01*
X112600707Y-63140521D01*
X112666681Y-63184728D01*
X112680667Y-63304667D01*
X112680667Y-63474000D01*
X113358000Y-63474000D01*
X113358000Y-63643333D01*
X113363188Y-63732707D01*
X113407395Y-63798680D01*
X113527333Y-63812667D01*
X113616707Y-63807479D01*
X113682681Y-63763272D01*
X113696667Y-63643333D01*
X113691479Y-63553960D01*
X113647272Y-63487986D01*
X113527333Y-63474000D01*
X113437960Y-63468812D01*
X113371986Y-63424605D01*
X113358000Y-63304667D01*
X113352813Y-63215293D01*
X113308606Y-63149319D01*
X113188667Y-63135333D01*
X113099293Y-63130146D01*
X113033320Y-63085939D01*
X113019333Y-62966000D01*
X113019333Y-62796667D01*
X112342000Y-62796667D01*
X112342000Y-62966000D01*
X110987333Y-62966000D01*
X110987333Y-62627333D01*
X111664667Y-62627333D01*
X111669854Y-62716707D01*
X111714061Y-62782680D01*
X111834000Y-62796667D01*
X111923374Y-62791479D01*
X111989347Y-62747272D01*
X112003333Y-62627333D01*
X111998146Y-62537960D01*
X111953939Y-62471986D01*
X111834000Y-62458000D01*
X111744627Y-62463187D01*
X111678653Y-62507394D01*
X111664667Y-62627333D01*
X110987333Y-62627333D01*
X110987333Y-62458000D01*
X111156667Y-62458000D01*
X111246040Y-62452812D01*
X111312014Y-62408605D01*
X111326000Y-62288667D01*
X112342000Y-62288667D01*
X112347188Y-62378040D01*
X112391395Y-62444014D01*
X112511333Y-62458000D01*
X112600707Y-62452812D01*
X112666681Y-62408605D01*
X112680667Y-62288667D01*
X113019333Y-62288667D01*
X113019333Y-62627333D01*
X113019333Y-62796667D01*
X114035333Y-62796667D01*
X114035333Y-62119333D01*
X114374000Y-62119333D01*
X114374000Y-62458000D01*
X115728667Y-62458000D01*
X115728667Y-62119333D01*
X114712667Y-62119333D01*
X114712667Y-61950000D01*
X114707479Y-61860626D01*
X114663272Y-61794653D01*
X114543333Y-61780667D01*
X114374000Y-61780667D01*
X114374000Y-62119333D01*
X114035333Y-62119333D01*
X113866000Y-62119333D01*
X113776627Y-62124521D01*
X113710653Y-62168728D01*
X113696667Y-62288667D01*
X113691479Y-62378040D01*
X113647272Y-62444014D01*
X113527333Y-62458000D01*
X113437960Y-62452812D01*
X113371986Y-62408605D01*
X113358000Y-62288667D01*
X113352813Y-62199293D01*
X113308606Y-62133319D01*
X113188667Y-62119333D01*
X113019333Y-62119333D01*
X113019333Y-62288667D01*
X112680667Y-62288667D01*
X112675479Y-62199293D01*
X112631272Y-62133319D01*
X112511333Y-62119333D01*
X112421960Y-62124521D01*
X112355986Y-62168728D01*
X112342000Y-62288667D01*
X111326000Y-62288667D01*
X111331188Y-62199293D01*
X111375395Y-62133319D01*
X111495333Y-62119333D01*
X111584707Y-62114146D01*
X111650681Y-62069939D01*
X111664667Y-61950000D01*
X111669854Y-61860626D01*
X111714061Y-61794653D01*
X111834000Y-61780667D01*
X111923374Y-61775479D01*
X111989347Y-61731272D01*
X112003333Y-61611333D01*
X112008521Y-61521960D01*
X112052728Y-61455986D01*
X112172667Y-61442000D01*
X112262040Y-61436812D01*
X112328014Y-61392605D01*
X112342000Y-61272667D01*
X112347188Y-61183293D01*
X112391395Y-61117319D01*
X112511333Y-61103333D01*
X112600707Y-61098146D01*
X112666681Y-61053939D01*
X112680667Y-60934000D01*
X112685854Y-60844626D01*
X112730061Y-60778653D01*
X112850000Y-60764667D01*
X112939374Y-60759479D01*
X113005347Y-60715272D01*
X113019333Y-60595333D01*
X113014146Y-60505960D01*
X112969939Y-60439986D01*
X112850000Y-60426000D01*
X112680667Y-60426000D01*
X112680667Y-59748667D01*
X112342000Y-59748667D01*
X112342000Y-60764667D01*
X111664667Y-60764667D01*
X111664667Y-61780667D01*
X111495333Y-61780667D01*
X111405960Y-61785854D01*
X111339986Y-61830061D01*
X111326000Y-61950000D01*
X111320813Y-62039373D01*
X111276606Y-62105347D01*
X111156667Y-62119333D01*
X111067293Y-62124521D01*
X111001320Y-62168728D01*
X110987333Y-62288667D01*
X110987333Y-62458000D01*
X110310000Y-62458000D01*
X109971333Y-62458000D01*
X109971333Y-61780667D01*
X110648667Y-61780667D01*
X110648667Y-61611333D01*
X110643479Y-61521960D01*
X110599272Y-61455986D01*
X110479333Y-61442000D01*
X110310000Y-61442000D01*
X110310000Y-60764667D01*
X109294000Y-60764667D01*
X109294000Y-60934000D01*
X109288813Y-61023373D01*
X109244606Y-61089347D01*
X109124667Y-61103333D01*
X109035293Y-61098146D01*
X108969320Y-61053939D01*
X108955333Y-60934000D01*
X108950146Y-60844626D01*
X108905939Y-60778653D01*
X108786000Y-60764667D01*
X108696627Y-60759479D01*
X108630653Y-60715272D01*
X108616667Y-60595333D01*
X108621854Y-60505960D01*
X108666061Y-60439986D01*
X108786000Y-60426000D01*
X108875374Y-60431187D01*
X108941347Y-60475394D01*
X108955333Y-60595333D01*
X108960521Y-60684707D01*
X109004728Y-60750680D01*
X109124667Y-60764667D01*
X109214040Y-60759479D01*
X109280014Y-60715272D01*
X109294000Y-60595333D01*
X109294000Y-60426000D01*
X110310000Y-60426000D01*
X110310000Y-60595333D01*
X110315188Y-60684707D01*
X110359395Y-60750680D01*
X110479333Y-60764667D01*
X110648667Y-60764667D01*
X110648667Y-61442000D01*
X111326000Y-61442000D01*
X111326000Y-61272667D01*
X111320813Y-61183293D01*
X111276606Y-61117319D01*
X111156667Y-61103333D01*
X110987333Y-61103333D01*
X110987333Y-60426000D01*
X111326000Y-60426000D01*
X111326000Y-60087333D01*
X111664667Y-60087333D01*
X111834000Y-60087333D01*
X111923374Y-60082146D01*
X111989347Y-60037939D01*
X112003333Y-59918000D01*
X112008521Y-59828626D01*
X112052728Y-59762653D01*
X112172667Y-59748667D01*
X112342000Y-59748667D01*
X112342000Y-59240667D01*
X112680667Y-59240667D01*
X112685854Y-59330040D01*
X112730061Y-59396014D01*
X112850000Y-59410000D01*
X112939374Y-59404812D01*
X113005347Y-59360605D01*
X113019333Y-59240667D01*
X113014146Y-59151293D01*
X112969939Y-59085319D01*
X112850000Y-59071333D01*
X112760627Y-59076521D01*
X112694653Y-59120728D01*
X112680667Y-59240667D01*
X112342000Y-59240667D01*
X112342000Y-59071333D01*
X112172667Y-59071333D01*
X112083293Y-59076521D01*
X112017320Y-59120728D01*
X112003333Y-59240667D01*
X111998146Y-59330040D01*
X111953939Y-59396014D01*
X111834000Y-59410000D01*
X111664667Y-59410000D01*
X111664667Y-60087333D01*
X111326000Y-60087333D01*
X111326000Y-59071333D01*
X111495333Y-59071333D01*
X111584707Y-59066146D01*
X111650681Y-59021939D01*
X111664667Y-58902000D01*
X111664667Y-58732667D01*
X112342000Y-58732667D01*
X112342000Y-58394000D01*
X113358000Y-58394000D01*
X113358000Y-59071333D01*
X113527333Y-59071333D01*
X113616707Y-59066146D01*
X113682681Y-59021939D01*
X113696667Y-58902000D01*
X113701854Y-58812626D01*
X113746061Y-58746653D01*
X113866000Y-58732667D01*
X113955374Y-58727479D01*
X114021347Y-58683272D01*
X114035333Y-58563333D01*
X114040521Y-58473960D01*
X114084728Y-58407986D01*
X114204667Y-58394000D01*
X114374000Y-58394000D01*
X114374000Y-59240667D01*
X114374000Y-59410000D01*
G37*
D14*
X124560000Y-61200000D02*
X124560000Y-62800000D01*
X123440000Y-61200000D02*
X123440000Y-62800000D01*
D17*
X123572000Y-61660000D02*
X124428000Y-61660000D01*
X124428000Y-61660000D02*
X124428000Y-62340000D01*
X124428000Y-62340000D02*
X123572000Y-62340000D01*
X123572000Y-62340000D02*
X123572000Y-61660000D01*
G36*
X123572000Y-61660000D02*
G01*
X124428000Y-61660000D01*
X124428000Y-62340000D01*
X123572000Y-62340000D01*
X123572000Y-61660000D01*
G37*
D12*
X136700000Y-101700000D02*
X136700000Y-106300000D01*
X131600000Y-101700000D02*
X131300000Y-101700000D01*
X131300000Y-101700000D02*
X131300000Y-106300000D01*
D16*
X131300000Y-101000000D02*
G75*
G03*
X131300000Y-101000000I-500000J0D01*
G01*
D12*
X132700000Y-61000000D02*
X132700000Y-65000000D01*
X127250000Y-61000000D02*
X127250000Y-65000000D01*
D16*
X127000000Y-61000000D02*
G75*
G03*
X127000000Y-61000000I-500000J0D01*
G01*
D14*
X117060000Y-106200000D02*
X117060000Y-107800000D01*
X115940000Y-106200000D02*
X115940000Y-107800000D01*
D17*
X116072000Y-106660000D02*
X116928000Y-106660000D01*
X116928000Y-106660000D02*
X116928000Y-107340000D01*
X116928000Y-107340000D02*
X116072000Y-107340000D01*
X116072000Y-107340000D02*
X116072000Y-106660000D01*
G36*
X116072000Y-106660000D02*
G01*
X116928000Y-106660000D01*
X116928000Y-107340000D01*
X116072000Y-107340000D01*
X116072000Y-106660000D01*
G37*
D14*
X138800000Y-71560000D02*
X137200000Y-71560000D01*
X138800000Y-70440000D02*
X137200000Y-70440000D01*
D17*
X138340000Y-70572000D02*
X137660000Y-70572000D01*
X137660000Y-70572000D02*
X137660000Y-71428000D01*
X137660000Y-71428000D02*
X138340000Y-71428000D01*
X138340000Y-71428000D02*
X138340000Y-70572000D01*
G36*
X138340000Y-70572000D02*
G01*
X137660000Y-70572000D01*
X137660000Y-71428000D01*
X138340000Y-71428000D01*
X138340000Y-70572000D01*
G37*
D10*
X100738000Y-107890000D02*
X102262000Y-107890000D01*
X102262000Y-107890000D02*
X101500000Y-106874000D01*
X101500000Y-106874000D02*
X100738000Y-107890000D01*
X100000000Y-106660000D02*
X100000000Y-91460000D01*
X102700000Y-106660000D02*
X102700000Y-91460000D01*
X104700000Y-106660000D02*
X100000000Y-106660000D01*
X104040000Y-106112000D02*
X104040000Y-104588000D01*
X103024000Y-105350000D02*
X104040000Y-106112000D01*
X104040000Y-104588000D02*
X103024000Y-105350000D01*
X104700000Y-91460000D02*
X104700000Y-106660000D01*
X104700000Y-91460000D02*
X100000000Y-91460000D01*
D14*
X119060000Y-106200000D02*
X119060000Y-107800000D01*
X117940000Y-106200000D02*
X117940000Y-107800000D01*
D17*
X118072000Y-106660000D02*
X118928000Y-106660000D01*
X118928000Y-106660000D02*
X118928000Y-107340000D01*
X118928000Y-107340000D02*
X118072000Y-107340000D01*
X118072000Y-107340000D02*
X118072000Y-106660000D01*
G36*
X118072000Y-106660000D02*
G01*
X118928000Y-106660000D01*
X118928000Y-107340000D01*
X118072000Y-107340000D01*
X118072000Y-106660000D01*
G37*
D14*
X120440000Y-107800000D02*
X120440000Y-106200000D01*
X121560000Y-107800000D02*
X121560000Y-106200000D01*
D17*
X121428000Y-107340000D02*
X120572000Y-107340000D01*
X120572000Y-107340000D02*
X120572000Y-106660000D01*
X120572000Y-106660000D02*
X121428000Y-106660000D01*
X121428000Y-106660000D02*
X121428000Y-107340000D01*
G36*
X121428000Y-107340000D02*
G01*
X120572000Y-107340000D01*
X120572000Y-106660000D01*
X121428000Y-106660000D01*
X121428000Y-107340000D01*
G37*
D14*
X131300000Y-96560000D02*
X129700000Y-96560000D01*
X131300000Y-95440000D02*
X129700000Y-95440000D01*
D17*
X130840000Y-95572000D02*
X130160000Y-95572000D01*
X130160000Y-95572000D02*
X130160000Y-96428000D01*
X130160000Y-96428000D02*
X130840000Y-96428000D01*
X130840000Y-96428000D02*
X130840000Y-95572000D01*
G36*
X130840000Y-95572000D02*
G01*
X130160000Y-95572000D01*
X130160000Y-96428000D01*
X130840000Y-96428000D01*
X130840000Y-95572000D01*
G37*
D14*
X130940000Y-89800000D02*
X130940000Y-88200000D01*
X132060000Y-89800000D02*
X132060000Y-88200000D01*
D17*
X131928000Y-89340000D02*
X131072000Y-89340000D01*
X131072000Y-89340000D02*
X131072000Y-88660000D01*
X131072000Y-88660000D02*
X131928000Y-88660000D01*
X131928000Y-88660000D02*
X131928000Y-89340000D01*
G36*
X131928000Y-89340000D02*
G01*
X131072000Y-89340000D01*
X131072000Y-88660000D01*
X131928000Y-88660000D01*
X131928000Y-89340000D01*
G37*
D16*
X111000000Y-92000000D02*
X114000000Y-92000000D01*
X114000000Y-92000000D02*
X114000000Y-96000000D01*
X114000000Y-96000000D02*
X111000000Y-96000000D01*
X111000000Y-96000000D02*
X111000000Y-92000000D01*
D12*
X113400000Y-94000000D02*
G75*
G03*
X113400000Y-94000000I-900000J0D01*
G01*
D14*
X128940000Y-89800000D02*
X128940000Y-88200000D01*
X130060000Y-89800000D02*
X130060000Y-88200000D01*
D17*
X129928000Y-89340000D02*
X129072000Y-89340000D01*
X129072000Y-89340000D02*
X129072000Y-88660000D01*
X129072000Y-88660000D02*
X129928000Y-88660000D01*
X129928000Y-88660000D02*
X129928000Y-89340000D01*
G36*
X129928000Y-89340000D02*
G01*
X129072000Y-89340000D01*
X129072000Y-88660000D01*
X129928000Y-88660000D01*
X129928000Y-89340000D01*
G37*
D14*
X128060000Y-106200000D02*
X128060000Y-107800000D01*
X126940000Y-106200000D02*
X126940000Y-107800000D01*
D17*
X127072000Y-106660000D02*
X127928000Y-106660000D01*
X127928000Y-106660000D02*
X127928000Y-107340000D01*
X127928000Y-107340000D02*
X127072000Y-107340000D01*
X127072000Y-107340000D02*
X127072000Y-106660000D01*
G36*
X127072000Y-106660000D02*
G01*
X127928000Y-106660000D01*
X127928000Y-107340000D01*
X127072000Y-107340000D01*
X127072000Y-106660000D01*
G37*
D20*
X139080000Y-120000000D02*
X139080000Y-115936000D01*
X139080000Y-110856000D02*
X139080000Y-115936000D01*
D11*
X139000000Y-113500000D02*
X129000000Y-113500000D01*
D20*
X138572000Y-120000000D02*
X139080000Y-120000000D01*
X138064000Y-117460000D02*
X138064000Y-120000000D01*
X135016000Y-117460000D02*
X135016000Y-120000000D01*
X132984000Y-117460000D02*
X132984000Y-120000000D01*
X130444000Y-120000000D02*
X138572000Y-120000000D01*
X129936000Y-117460000D02*
X129936000Y-120000000D01*
X128920000Y-120000000D02*
X130444000Y-120000000D01*
X128920000Y-115936000D02*
X128920000Y-120000000D01*
X128920000Y-110856000D02*
X139080000Y-110856000D01*
X128920000Y-110856000D02*
X128920000Y-115936000D01*
X138572000Y-115936000D02*
G75*
G03*
X138572000Y-115936000I-2032000J0D01*
G01*
X133492000Y-115936000D02*
G75*
G03*
X133492000Y-115936000I-2032000J0D01*
G01*
D14*
X138800000Y-67560000D02*
X137200000Y-67560000D01*
X138800000Y-66440000D02*
X137200000Y-66440000D01*
D17*
X138340000Y-66572000D02*
X137660000Y-66572000D01*
X137660000Y-66572000D02*
X137660000Y-67428000D01*
X137660000Y-67428000D02*
X138340000Y-67428000D01*
X138340000Y-67428000D02*
X138340000Y-66572000D01*
G36*
X138340000Y-66572000D02*
G01*
X137660000Y-66572000D01*
X137660000Y-67428000D01*
X138340000Y-67428000D01*
X138340000Y-66572000D01*
G37*
D14*
X131300000Y-98560000D02*
X129700000Y-98560000D01*
X131300000Y-97440000D02*
X129700000Y-97440000D01*
D17*
X130840000Y-97572000D02*
X130160000Y-97572000D01*
X130160000Y-97572000D02*
X130160000Y-98428000D01*
X130160000Y-98428000D02*
X130840000Y-98428000D01*
X130840000Y-98428000D02*
X130840000Y-97572000D01*
G36*
X130840000Y-97572000D02*
G01*
X130160000Y-97572000D01*
X130160000Y-98428000D01*
X130840000Y-98428000D01*
X130840000Y-97572000D01*
G37*
D14*
X122440000Y-107800000D02*
X122440000Y-106200000D01*
X123560000Y-107800000D02*
X123560000Y-106200000D01*
D17*
X123428000Y-107340000D02*
X122572000Y-107340000D01*
X122572000Y-107340000D02*
X122572000Y-106660000D01*
X122572000Y-106660000D02*
X123428000Y-106660000D01*
X123428000Y-106660000D02*
X123428000Y-107340000D01*
G36*
X123428000Y-107340000D02*
G01*
X122572000Y-107340000D01*
X122572000Y-106660000D01*
X123428000Y-106660000D01*
X123428000Y-107340000D01*
G37*
D12*
X109900000Y-75250000D02*
X108000000Y-75250000D01*
X108000000Y-75250000D02*
X108000000Y-74000000D01*
X108000000Y-71800000D02*
X109900000Y-71800000D01*
X108000000Y-71800000D02*
X108000000Y-73000000D01*
D16*
X110500000Y-71000000D02*
G75*
G03*
X110500000Y-71000000I-500000J0D01*
G01*
D14*
X141560000Y-105200000D02*
X141560000Y-106800000D01*
X140440000Y-105200000D02*
X140440000Y-106800000D01*
D17*
X140572000Y-105660000D02*
X141428000Y-105660000D01*
X141428000Y-105660000D02*
X141428000Y-106340000D01*
X141428000Y-106340000D02*
X140572000Y-106340000D01*
X140572000Y-106340000D02*
X140572000Y-105660000D01*
G36*
X140572000Y-105660000D02*
G01*
X141428000Y-105660000D01*
X141428000Y-106340000D01*
X140572000Y-106340000D01*
X140572000Y-105660000D01*
G37*
D12*
X106250000Y-109100000D02*
X106250000Y-111000000D01*
X106250000Y-111000000D02*
X105000000Y-111000000D01*
X102800000Y-111000000D02*
X102800000Y-109100000D01*
X102800000Y-111000000D02*
X104000000Y-111000000D01*
D16*
X102500000Y-109000000D02*
G75*
G03*
X102500000Y-109000000I-500000J0D01*
G01*
D14*
X122200000Y-100440000D02*
X123800000Y-100440000D01*
X122200000Y-101560000D02*
X123800000Y-101560000D01*
D17*
X122660000Y-101428000D02*
X123340000Y-101428000D01*
X123340000Y-101428000D02*
X123340000Y-100572000D01*
X123340000Y-100572000D02*
X122660000Y-100572000D01*
X122660000Y-100572000D02*
X122660000Y-101428000D01*
G36*
X122660000Y-101428000D02*
G01*
X123340000Y-101428000D01*
X123340000Y-100572000D01*
X122660000Y-100572000D01*
X122660000Y-101428000D01*
G37*
D14*
X119800000Y-76060000D02*
X118200000Y-76060000D01*
X119800000Y-74940000D02*
X118200000Y-74940000D01*
D17*
X119340000Y-75072000D02*
X118660000Y-75072000D01*
X118660000Y-75072000D02*
X118660000Y-75928000D01*
X118660000Y-75928000D02*
X119340000Y-75928000D01*
X119340000Y-75928000D02*
X119340000Y-75072000D01*
G36*
X119340000Y-75072000D02*
G01*
X118660000Y-75072000D01*
X118660000Y-75928000D01*
X119340000Y-75928000D01*
X119340000Y-75072000D01*
G37*
D12*
X110200000Y-104300000D02*
X110200000Y-101700000D01*
X110200000Y-101700000D02*
X111360000Y-101700000D01*
X113640000Y-101700000D02*
X114800000Y-101700000D01*
X113640000Y-101700000D02*
X113100000Y-100600000D01*
X114800000Y-101700000D02*
X114800000Y-103600000D01*
X111900000Y-100600000D02*
X111360000Y-101700000D01*
X115410000Y-104270000D02*
G75*
G03*
X115410000Y-104270000I-400000J0D01*
G01*
D14*
X125560000Y-106200000D02*
X125560000Y-107800000D01*
X124440000Y-106200000D02*
X124440000Y-107800000D01*
D17*
X124572000Y-106660000D02*
X125428000Y-106660000D01*
X125428000Y-106660000D02*
X125428000Y-107340000D01*
X125428000Y-107340000D02*
X124572000Y-107340000D01*
X124572000Y-107340000D02*
X124572000Y-106660000D01*
G36*
X124572000Y-106660000D02*
G01*
X125428000Y-106660000D01*
X125428000Y-107340000D01*
X124572000Y-107340000D01*
X124572000Y-106660000D01*
G37*
D14*
X122200000Y-93940000D02*
X123800000Y-93940000D01*
X122200000Y-95060000D02*
X123800000Y-95060000D01*
D17*
X122660000Y-94928000D02*
X123340000Y-94928000D01*
X123340000Y-94928000D02*
X123340000Y-94072000D01*
X123340000Y-94072000D02*
X122660000Y-94072000D01*
X122660000Y-94072000D02*
X122660000Y-94928000D01*
G36*
X122660000Y-94928000D02*
G01*
X123340000Y-94928000D01*
X123340000Y-94072000D01*
X122660000Y-94072000D01*
X122660000Y-94928000D01*
G37*
M02*
