G04 #@! TF.GenerationSoftware,KiCad,Pcbnew,7.0.8*
G04 #@! TF.CreationDate,2024-02-28T21:30:22+09:00*
G04 #@! TF.ProjectId,KT0913_Digital_Radio,4b543039-3133-45f4-9469-676974616c5f,rev?*
G04 #@! TF.SameCoordinates,Original*
G04 #@! TF.FileFunction,Copper,L1,Top*
G04 #@! TF.FilePolarity,Positive*
%FSLAX46Y46*%
G04 Gerber Fmt 4.6, Leading zero omitted, Abs format (unit mm)*
G04 Created by KiCad (PCBNEW 7.0.8) date 2024-02-28 21:30:22*
%MOMM*%
%LPD*%
G01*
G04 APERTURE LIST*
G04 Aperture macros list*
%AMFreePoly0*
4,1,21,-0.698500,0.419100,-0.677232,0.526022,-0.616666,0.616666,-0.526022,0.677232,-0.419100,0.698500,0.419100,0.698500,0.526022,0.677232,0.616666,0.616666,0.677232,0.526022,0.698500,0.419100,0.698500,-0.419100,0.677232,-0.526022,0.616666,-0.616666,0.526022,-0.677232,0.419100,-0.698500,-0.419100,-0.698500,-0.526022,-0.677232,-0.616666,-0.616666,-0.677232,-0.526022,-0.698500,-0.419100,
-0.698500,0.419100,-0.698500,0.419100,$1*%
%AMFreePoly1*
4,1,25,-0.750000,0.450000,-0.742031,0.518685,-0.697499,0.619541,-0.619541,0.697499,-0.518685,0.742031,-0.450000,0.750000,0.450000,0.750000,0.518685,0.742031,0.619541,0.697499,0.697499,0.619541,0.742031,0.518685,0.750000,0.450000,0.750000,-0.450000,0.742031,-0.518685,0.697499,-0.619541,0.619541,-0.697499,0.518685,-0.742031,0.450000,-0.750000,-0.450000,-0.750000,-0.518685,-0.742031,
-0.619541,-0.697499,-0.697499,-0.619541,-0.742031,-0.518685,-0.750000,-0.450000,-0.750000,0.450000,-0.750000,0.450000,$1*%
G04 Aperture macros list end*
G04 #@! TA.AperFunction,ComponentPad*
%ADD10FreePoly0,90.000000*%
G04 #@! TD*
G04 #@! TA.AperFunction,ComponentPad*
%ADD11C,1.397000*%
G04 #@! TD*
G04 #@! TA.AperFunction,ComponentPad*
%ADD12C,2.000000*%
G04 #@! TD*
G04 #@! TA.AperFunction,ComponentPad*
%ADD13C,5.000000*%
G04 #@! TD*
G04 #@! TA.AperFunction,ComponentPad*
%ADD14C,1.500000*%
G04 #@! TD*
G04 #@! TA.AperFunction,ComponentPad*
%ADD15C,1.200000*%
G04 #@! TD*
G04 #@! TA.AperFunction,ComponentPad*
%ADD16C,1.000000*%
G04 #@! TD*
G04 #@! TA.AperFunction,ComponentPad*
%ADD17C,1.800000*%
G04 #@! TD*
G04 #@! TA.AperFunction,ComponentPad*
%ADD18O,2.200000X2.800000*%
G04 #@! TD*
G04 #@! TA.AperFunction,ComponentPad*
%ADD19O,3.000000X2.000000*%
G04 #@! TD*
G04 #@! TA.AperFunction,ComponentPad*
%ADD20O,2.000000X3.000000*%
G04 #@! TD*
G04 #@! TA.AperFunction,ComponentPad*
%ADD21C,1.700000*%
G04 #@! TD*
G04 #@! TA.AperFunction,ComponentPad*
%ADD22R,1.500000X1.500000*%
G04 #@! TD*
G04 #@! TA.AperFunction,ComponentPad*
%ADD23O,3.600000X2.000000*%
G04 #@! TD*
G04 #@! TA.AperFunction,ComponentPad*
%ADD24O,4.400000X3.000000*%
G04 #@! TD*
G04 #@! TA.AperFunction,ComponentPad*
%ADD25FreePoly1,90.000000*%
G04 #@! TD*
G04 #@! TA.AperFunction,ViaPad*
%ADD26C,0.600000*%
G04 #@! TD*
G04 #@! TA.AperFunction,ViaPad*
%ADD27C,0.800000*%
G04 #@! TD*
G04 #@! TA.AperFunction,Conductor*
%ADD28C,0.500000*%
G04 #@! TD*
G04 #@! TA.AperFunction,Conductor*
%ADD29C,0.200000*%
G04 #@! TD*
G04 #@! TA.AperFunction,Conductor*
%ADD30C,0.700000*%
G04 #@! TD*
G04 #@! TA.AperFunction,Conductor*
%ADD31C,0.300000*%
G04 #@! TD*
G04 APERTURE END LIST*
D10*
X116310000Y-100620000D03*
D11*
X116310000Y-98080000D03*
X116310000Y-95540000D03*
X116310000Y-93000000D03*
X116310000Y-90460000D03*
X116310000Y-87920000D03*
X116310000Y-85380000D03*
X108690000Y-85380000D03*
X108690000Y-87920000D03*
X108690000Y-90460000D03*
X108690000Y-93000000D03*
X108690000Y-95540000D03*
X108690000Y-98080000D03*
X108690000Y-100620000D03*
D12*
X119750000Y-98750000D03*
X126250000Y-98750000D03*
X119750000Y-103250000D03*
X126250000Y-103250000D03*
D13*
X143000000Y-53000000D03*
D12*
X109000000Y-52000000D03*
D14*
X139500000Y-99000000D03*
X142000000Y-99000000D03*
X144500000Y-99000000D03*
D13*
X103000000Y-117000000D03*
D12*
X101500000Y-87000000D03*
X119500000Y-118700000D03*
D15*
X143500000Y-110000000D03*
X143500000Y-102000000D03*
D14*
X132059921Y-93500000D03*
X132059921Y-84500000D03*
D12*
X119750000Y-110750000D03*
X126250000Y-110750000D03*
X119750000Y-115250000D03*
X126250000Y-115250000D03*
D14*
X129000000Y-93500000D03*
X129000000Y-84500000D03*
D16*
X130000000Y-54000000D03*
X130000000Y-56000000D03*
D15*
X138000000Y-52000000D03*
X130000000Y-52000000D03*
D12*
X103500000Y-84500000D03*
X126250000Y-91250000D03*
X119750000Y-91250000D03*
X126250000Y-86750000D03*
X119750000Y-86750000D03*
D13*
X143000000Y-117000000D03*
D15*
X120000000Y-55500000D03*
X115000000Y-55500000D03*
D17*
X109460000Y-115936000D03*
X114540000Y-115936000D03*
D12*
X101500000Y-89500000D03*
D18*
X146600000Y-90500000D03*
X146600000Y-90500000D03*
D19*
X143200000Y-85950000D03*
X143200000Y-95050000D03*
X138450000Y-85280000D03*
X138450000Y-95720000D03*
D20*
X135450000Y-86350000D03*
X135450000Y-94650000D03*
D19*
X140000000Y-87730000D03*
X140000000Y-93270000D03*
D21*
X106000000Y-95500000D03*
X106000000Y-105500000D03*
D13*
X103000000Y-53000000D03*
D15*
X123000000Y-53500000D03*
X128000000Y-53500000D03*
X123000000Y-55500000D03*
X128000000Y-55500000D03*
D22*
X112840000Y-81500000D03*
D14*
X115380000Y-81500000D03*
X117920000Y-81500000D03*
X120460000Y-81500000D03*
X123000000Y-81500000D03*
X125540000Y-81500000D03*
X128080000Y-81500000D03*
X130620000Y-81500000D03*
X133160000Y-81500000D03*
D23*
X105200000Y-78900000D03*
X140800000Y-78900000D03*
D15*
X141000000Y-102000000D03*
X141000000Y-110000000D03*
D12*
X126500000Y-118700000D03*
D15*
X120500000Y-53500000D03*
X112500000Y-53500000D03*
X106000000Y-85000000D03*
X106000000Y-93000000D03*
D24*
X134000000Y-104000000D03*
D25*
X101500000Y-105350000D03*
D14*
X101500000Y-102810000D03*
X101500000Y-100270000D03*
X101500000Y-97730000D03*
X101500000Y-95190000D03*
X101500000Y-92650000D03*
D17*
X136540000Y-115936000D03*
X131460000Y-115936000D03*
D26*
X129690000Y-64410000D03*
X125000000Y-72700000D03*
X141000000Y-96400000D03*
X114150000Y-96580000D03*
X129700000Y-61500000D03*
X131900000Y-78000000D03*
X116000000Y-110000000D03*
X121800000Y-60790000D03*
X143000000Y-89000000D03*
X108000000Y-110000000D03*
X112500000Y-103100000D03*
X140000000Y-60000000D03*
X105000000Y-65000000D03*
X135000000Y-89000000D03*
D27*
X134300000Y-109300000D03*
X128440000Y-108200000D03*
X110450000Y-88250000D03*
X119680000Y-105480000D03*
D26*
X116840000Y-72560000D03*
X112110000Y-72550000D03*
X130020500Y-69000000D03*
X130620000Y-68220000D03*
X133200000Y-77050000D03*
X122420000Y-62860000D03*
X130310000Y-67300000D03*
X129020000Y-58030000D03*
X129699500Y-58679500D03*
X133350000Y-99250000D03*
X134650000Y-99250000D03*
X118000000Y-94100000D03*
D28*
X110440000Y-88260000D02*
X110440000Y-100540000D01*
X110440000Y-100540000D02*
X108170000Y-102810000D01*
X108170000Y-102810000D02*
X101500000Y-102810000D01*
X110450000Y-88250000D02*
X110440000Y-88260000D01*
D29*
X124870000Y-113860000D02*
X126270000Y-115260000D01*
X118300000Y-113770000D02*
X119790000Y-115260000D01*
X129690000Y-64410000D02*
X129690000Y-61510000D01*
X117340000Y-89160000D02*
X115360000Y-89160000D01*
X125540000Y-81500000D02*
X124420000Y-80380000D01*
X121140000Y-113860000D02*
X124870000Y-113860000D01*
X114540000Y-115936000D02*
X116706000Y-113770000D01*
X121810000Y-77770000D02*
X121810000Y-60800000D01*
X114150000Y-90370000D02*
X114150000Y-96580000D01*
X140800000Y-78900000D02*
X140700000Y-79000000D01*
X119750000Y-115250000D02*
X121140000Y-113860000D01*
X116706000Y-113770000D02*
X118300000Y-113770000D01*
X119750000Y-86750000D02*
X117340000Y-89160000D01*
X124420000Y-80380000D02*
X121810000Y-77770000D01*
X115360000Y-89160000D02*
X114150000Y-90370000D01*
X129690000Y-61510000D02*
X129700000Y-61500000D01*
X121810000Y-60800000D02*
X121800000Y-60790000D01*
D30*
X129540000Y-109300000D02*
X128440000Y-108200000D01*
X134300000Y-109300000D02*
X129540000Y-109300000D01*
D28*
X116310000Y-100620000D02*
X110370000Y-100620000D01*
X127780000Y-117430000D02*
X126520000Y-118690000D01*
X123340000Y-105480000D02*
X127780000Y-109920000D01*
X119680000Y-105480000D02*
X123340000Y-105480000D01*
X127780000Y-109920000D02*
X127780000Y-117430000D01*
X108690000Y-87920000D02*
X107120000Y-87920000D01*
X108690000Y-87920000D02*
X112800000Y-83810000D01*
X107120000Y-87920000D02*
X103700000Y-84500000D01*
X120610000Y-83810000D02*
X122970000Y-81450000D01*
X112800000Y-83810000D02*
X120610000Y-83810000D01*
D29*
X101500000Y-105350000D02*
X103490000Y-103360000D01*
X108397818Y-103360000D02*
X110057818Y-101700000D01*
X116940434Y-101700000D02*
X117400000Y-101240434D01*
X117400000Y-101240434D02*
X117400000Y-94180000D01*
X110057818Y-101700000D02*
X116940434Y-101700000D01*
X117400000Y-94180000D02*
X116260000Y-93040000D01*
X103490000Y-103360000D02*
X108397818Y-103360000D01*
X108300000Y-97730000D02*
X108620000Y-98050000D01*
X101500000Y-97730000D02*
X108300000Y-97730000D01*
X107220000Y-94100000D02*
X108640000Y-95520000D01*
X102590000Y-94100000D02*
X107220000Y-94100000D01*
X101500000Y-95190000D02*
X102590000Y-94100000D01*
X112110000Y-72550000D02*
X116830000Y-72550000D01*
X116830000Y-72550000D02*
X116840000Y-72560000D01*
X117100000Y-84590000D02*
X124960000Y-84590000D01*
X124960000Y-84590000D02*
X128030000Y-81520000D01*
X130020000Y-79560000D02*
X130020000Y-69000500D01*
X128080000Y-81500000D02*
X130020000Y-79560000D01*
X116310000Y-85380000D02*
X117100000Y-84590000D01*
X130020000Y-69000500D02*
X130020500Y-69000000D01*
X116310000Y-87920000D02*
X119240000Y-84990000D01*
X130460872Y-81420000D02*
X130640000Y-81420000D01*
X130620000Y-81500000D02*
X130620000Y-68220000D01*
X119240000Y-84990000D02*
X126890872Y-84990000D01*
X126890872Y-84990000D02*
X130460872Y-81420000D01*
X133160000Y-81500000D02*
X133160000Y-77040000D01*
D31*
X130280000Y-67270000D02*
X126830000Y-67270000D01*
X130310000Y-67300000D02*
X130280000Y-67270000D01*
X126830000Y-67270000D02*
X122420000Y-62860000D01*
X135650000Y-82200000D02*
X137250000Y-83800000D01*
X145150000Y-95860000D02*
X142000000Y-99010000D01*
X130410000Y-57380000D02*
X135650000Y-62620000D01*
X137250000Y-83800000D02*
X143670000Y-83800000D01*
X145150000Y-85280000D02*
X145150000Y-95860000D01*
X115000000Y-55500000D02*
X116880000Y-57380000D01*
X135650000Y-62620000D02*
X135650000Y-82200000D01*
X143670000Y-83800000D02*
X145150000Y-85280000D01*
X116880000Y-57380000D02*
X130410000Y-57380000D01*
X133090000Y-84500000D02*
X132059921Y-84500000D01*
X129020000Y-58030000D02*
X130070000Y-58030000D01*
X135130000Y-63090000D02*
X135130000Y-82460000D01*
X130070000Y-58030000D02*
X135130000Y-63090000D01*
X135130000Y-82460000D02*
X133090000Y-84500000D01*
X130220000Y-83280000D02*
X129000000Y-84500000D01*
X129699500Y-58679500D02*
X134470000Y-63450000D01*
X134470000Y-63450000D02*
X134470000Y-82190000D01*
X134470000Y-82190000D02*
X133380000Y-83280000D01*
X133380000Y-83280000D02*
X130220000Y-83280000D01*
X141560000Y-91920000D02*
X143200000Y-93560000D01*
X129000000Y-93500000D02*
X130580000Y-91920000D01*
X130580000Y-91920000D02*
X141560000Y-91920000D01*
X143200000Y-93560000D02*
X143200000Y-95050000D01*
X134000000Y-98600000D02*
X134919239Y-98600000D01*
X134919239Y-98600000D02*
X135300000Y-98980761D01*
X133350000Y-99250000D02*
X134000000Y-98600000D01*
X138300000Y-102000000D02*
X141000000Y-102000000D01*
X135300000Y-99000000D02*
X138300000Y-102000000D01*
X135300000Y-98980761D02*
X135300000Y-99000000D01*
X141000000Y-105600000D02*
X141000000Y-110000000D01*
X134650000Y-99250000D02*
X141000000Y-105600000D01*
D29*
X119750000Y-98750000D02*
X126240000Y-98750000D01*
X118000000Y-94100000D02*
X118000000Y-109000000D01*
X126340000Y-110750000D02*
X126360000Y-110730000D01*
X119750000Y-110750000D02*
X126340000Y-110750000D01*
X118000000Y-109000000D02*
X119750000Y-110750000D01*
X101500000Y-87000000D02*
X105200000Y-87000000D01*
X105200000Y-87000000D02*
X108670000Y-90470000D01*
G04 #@! TA.AperFunction,Conductor*
G36*
X104966942Y-87620185D02*
G01*
X104987584Y-87636819D01*
X107473254Y-90122489D01*
X107506739Y-90183812D01*
X107505342Y-90232722D01*
X107507419Y-90233111D01*
X107506365Y-90238745D01*
X107485863Y-90459999D01*
X107485863Y-90460000D01*
X107506365Y-90681259D01*
X107506366Y-90681261D01*
X107567174Y-90894979D01*
X107567180Y-90894994D01*
X107666222Y-91093896D01*
X107800133Y-91271224D01*
X107964344Y-91420921D01*
X107964346Y-91420923D01*
X108153266Y-91537897D01*
X108153272Y-91537900D01*
X108195693Y-91554333D01*
X108350675Y-91614374D01*
X108406074Y-91656946D01*
X108429665Y-91722713D01*
X108413954Y-91790793D01*
X108363930Y-91839572D01*
X108350684Y-91845621D01*
X108271371Y-91876348D01*
X108153272Y-91922099D01*
X108153266Y-91922102D01*
X107964346Y-92039076D01*
X107964344Y-92039078D01*
X107800133Y-92188775D01*
X107666222Y-92366103D01*
X107567180Y-92565005D01*
X107567174Y-92565020D01*
X107506366Y-92778738D01*
X107506365Y-92778740D01*
X107485863Y-92999999D01*
X107485863Y-93000000D01*
X107506365Y-93221259D01*
X107506366Y-93221261D01*
X107548240Y-93368432D01*
X107547654Y-93438299D01*
X107509387Y-93496758D01*
X107445589Y-93525248D01*
X107381526Y-93516929D01*
X107376765Y-93514957D01*
X107376760Y-93514955D01*
X107259361Y-93499500D01*
X107220000Y-93494318D01*
X107184670Y-93498969D01*
X107176572Y-93499500D01*
X107166261Y-93499500D01*
X107099222Y-93479815D01*
X107053467Y-93427011D01*
X107043523Y-93357853D01*
X107046995Y-93341566D01*
X107074718Y-93244129D01*
X107086397Y-93203083D01*
X107105215Y-93000000D01*
X107086397Y-92796917D01*
X107030582Y-92600750D01*
X107025321Y-92590185D01*
X106946565Y-92432020D01*
X106939673Y-92418179D01*
X106870722Y-92326873D01*
X106816762Y-92255418D01*
X106666041Y-92118019D01*
X106666039Y-92118017D01*
X106492642Y-92010655D01*
X106492635Y-92010651D01*
X106378940Y-91966606D01*
X106302456Y-91936976D01*
X106101976Y-91899500D01*
X105898024Y-91899500D01*
X105697544Y-91936976D01*
X105697541Y-91936976D01*
X105697541Y-91936977D01*
X105507364Y-92010651D01*
X105507357Y-92010655D01*
X105333960Y-92118017D01*
X105333958Y-92118019D01*
X105183237Y-92255418D01*
X105060327Y-92418178D01*
X104969422Y-92600739D01*
X104969417Y-92600752D01*
X104913602Y-92796917D01*
X104894785Y-92999999D01*
X104894785Y-93000000D01*
X104913602Y-93203082D01*
X104913603Y-93203084D01*
X104953005Y-93341566D01*
X104952419Y-93411433D01*
X104914152Y-93469892D01*
X104850355Y-93498382D01*
X104833739Y-93499500D01*
X102669955Y-93499500D01*
X102602916Y-93479815D01*
X102557161Y-93427011D01*
X102547217Y-93357853D01*
X102568379Y-93304377D01*
X102587102Y-93277639D01*
X102679575Y-93079330D01*
X102736207Y-92867977D01*
X102755277Y-92650000D01*
X102755233Y-92649500D01*
X102750044Y-92590185D01*
X102736207Y-92432023D01*
X102686020Y-92244723D01*
X102679577Y-92220677D01*
X102679576Y-92220676D01*
X102679575Y-92220670D01*
X102587102Y-92022362D01*
X102587100Y-92022359D01*
X102587099Y-92022357D01*
X102461599Y-91843124D01*
X102409268Y-91790793D01*
X102306877Y-91688402D01*
X102127639Y-91562898D01*
X102127640Y-91562898D01*
X102127638Y-91562897D01*
X101988087Y-91497824D01*
X101929330Y-91470425D01*
X101929326Y-91470424D01*
X101929322Y-91470422D01*
X101717977Y-91413793D01*
X101500002Y-91394723D01*
X101499998Y-91394723D01*
X101354682Y-91407436D01*
X101282023Y-91413793D01*
X101282020Y-91413793D01*
X101070677Y-91470422D01*
X101070668Y-91470426D01*
X100872361Y-91562898D01*
X100872357Y-91562900D01*
X100693121Y-91688402D01*
X100538402Y-91843121D01*
X100412900Y-92022357D01*
X100412898Y-92022361D01*
X100320426Y-92220668D01*
X100320422Y-92220677D01*
X100263793Y-92432020D01*
X100263793Y-92432024D01*
X100248028Y-92612221D01*
X100233800Y-92648593D01*
X100243477Y-92663650D01*
X100248028Y-92687778D01*
X100263793Y-92867975D01*
X100263793Y-92867979D01*
X100320422Y-93079322D01*
X100320424Y-93079326D01*
X100320425Y-93079330D01*
X100320828Y-93080194D01*
X100412897Y-93277638D01*
X100428276Y-93299601D01*
X100538402Y-93456877D01*
X100693123Y-93611598D01*
X100849121Y-93720829D01*
X100872361Y-93737102D01*
X101023583Y-93807618D01*
X101076022Y-93853790D01*
X101095174Y-93920984D01*
X101074958Y-93987865D01*
X101023583Y-94032382D01*
X100872361Y-94102898D01*
X100872357Y-94102900D01*
X100693121Y-94228402D01*
X100538402Y-94383121D01*
X100412900Y-94562357D01*
X100412898Y-94562361D01*
X100320426Y-94760668D01*
X100320422Y-94760677D01*
X100263793Y-94972020D01*
X100263793Y-94972024D01*
X100248028Y-95152221D01*
X100233800Y-95188593D01*
X100243477Y-95203650D01*
X100248028Y-95227778D01*
X100251248Y-95264586D01*
X100262904Y-95397821D01*
X100263793Y-95407975D01*
X100263793Y-95407979D01*
X100320422Y-95619322D01*
X100320424Y-95619326D01*
X100320425Y-95619330D01*
X100329542Y-95638881D01*
X100412897Y-95817638D01*
X100424962Y-95834868D01*
X100538402Y-95996877D01*
X100693123Y-96151598D01*
X100872360Y-96277101D01*
X100872361Y-96277102D01*
X101023583Y-96347618D01*
X101076022Y-96393790D01*
X101095174Y-96460984D01*
X101074958Y-96527865D01*
X101023583Y-96572382D01*
X100872361Y-96642898D01*
X100872357Y-96642900D01*
X100693121Y-96768402D01*
X100538402Y-96923121D01*
X100412900Y-97102357D01*
X100412898Y-97102361D01*
X100364986Y-97205109D01*
X100325201Y-97290429D01*
X100320426Y-97300668D01*
X100320422Y-97300677D01*
X100263793Y-97512020D01*
X100263793Y-97512024D01*
X100248028Y-97692221D01*
X100233800Y-97728593D01*
X100243477Y-97743650D01*
X100248028Y-97767778D01*
X100249378Y-97783214D01*
X100263728Y-97947239D01*
X100263793Y-97947973D01*
X100263793Y-97947979D01*
X100320422Y-98159322D01*
X100320424Y-98159326D01*
X100320425Y-98159330D01*
X100366661Y-98258484D01*
X100412897Y-98357638D01*
X100423206Y-98372361D01*
X100538402Y-98536877D01*
X100693123Y-98691598D01*
X100872360Y-98817101D01*
X100872361Y-98817102D01*
X101024175Y-98887894D01*
X101076614Y-98934066D01*
X101095766Y-99001260D01*
X101075550Y-99068141D01*
X101024175Y-99112658D01*
X100872614Y-99183332D01*
X100872612Y-99183333D01*
X100727249Y-99285117D01*
X100727248Y-99285117D01*
X101268281Y-99826149D01*
X101226900Y-99845048D01*
X101118239Y-99939202D01*
X101055185Y-100037316D01*
X100515117Y-99497248D01*
X100515117Y-99497249D01*
X100413333Y-99642612D01*
X100413332Y-99642614D01*
X100320898Y-99840840D01*
X100320894Y-99840849D01*
X100264289Y-100052105D01*
X100264287Y-100052115D01*
X100248028Y-100237961D01*
X100236591Y-100267197D01*
X100243477Y-100277911D01*
X100248028Y-100302038D01*
X100264287Y-100487884D01*
X100264289Y-100487894D01*
X100320894Y-100699150D01*
X100320898Y-100699159D01*
X100413333Y-100897387D01*
X100515117Y-101042750D01*
X101055184Y-100502683D01*
X101118239Y-100600798D01*
X101226900Y-100694952D01*
X101268280Y-100713850D01*
X100727248Y-101254881D01*
X100872613Y-101356667D01*
X100872615Y-101356668D01*
X101024174Y-101427341D01*
X101076614Y-101473513D01*
X101095766Y-101540706D01*
X101075551Y-101607588D01*
X101024176Y-101652105D01*
X100872358Y-101722900D01*
X100872357Y-101722900D01*
X100693121Y-101848402D01*
X100538402Y-102003121D01*
X100412900Y-102182357D01*
X100412898Y-102182361D01*
X100320426Y-102380668D01*
X100320422Y-102380677D01*
X100263793Y-102592020D01*
X100263793Y-102592024D01*
X100248028Y-102772221D01*
X100233800Y-102808593D01*
X100243477Y-102823650D01*
X100248028Y-102847778D01*
X100249288Y-102862181D01*
X100260413Y-102989348D01*
X100263793Y-103027975D01*
X100263793Y-103027979D01*
X100320422Y-103239322D01*
X100320424Y-103239326D01*
X100320425Y-103239330D01*
X100366287Y-103337681D01*
X100412897Y-103437638D01*
X100412898Y-103437639D01*
X100538402Y-103616877D01*
X100693123Y-103771598D01*
X100872361Y-103897102D01*
X100872362Y-103897102D01*
X100876796Y-103900207D01*
X100876150Y-103901129D01*
X100920465Y-103947601D01*
X100933691Y-104016208D01*
X100907726Y-104081073D01*
X100851207Y-104121467D01*
X100700480Y-104174209D01*
X100547737Y-104270184D01*
X100420184Y-104397737D01*
X100324211Y-104550476D01*
X100264631Y-104720745D01*
X100264630Y-104720750D01*
X100249500Y-104855039D01*
X100249500Y-105844960D01*
X100264630Y-105979249D01*
X100264631Y-105979254D01*
X100324211Y-106149523D01*
X100375093Y-106230500D01*
X100420184Y-106302262D01*
X100547738Y-106429816D01*
X100700478Y-106525789D01*
X100870745Y-106585368D01*
X100870750Y-106585369D01*
X100961246Y-106595565D01*
X101005040Y-106600499D01*
X101005043Y-106600500D01*
X101005046Y-106600500D01*
X101994957Y-106600500D01*
X101994958Y-106600499D01*
X102062104Y-106592934D01*
X102129249Y-106585369D01*
X102129252Y-106585368D01*
X102129255Y-106585368D01*
X102299522Y-106525789D01*
X102452262Y-106429816D01*
X102579816Y-106302262D01*
X102675789Y-106149522D01*
X102735368Y-105979255D01*
X102750500Y-105844954D01*
X102750500Y-105000097D01*
X102770185Y-104933058D01*
X102786819Y-104912416D01*
X103702416Y-103996819D01*
X103763739Y-103963334D01*
X103790097Y-103960500D01*
X105585685Y-103960500D01*
X105652724Y-103980185D01*
X105698479Y-104032989D01*
X105708423Y-104102147D01*
X105679398Y-104165703D01*
X105620620Y-104203477D01*
X105617778Y-104204275D01*
X105536344Y-104226094D01*
X105536335Y-104226098D01*
X105322171Y-104325964D01*
X105322169Y-104325965D01*
X105128597Y-104461505D01*
X104961505Y-104628597D01*
X104825965Y-104822169D01*
X104825964Y-104822171D01*
X104726098Y-105036335D01*
X104726094Y-105036344D01*
X104664938Y-105264586D01*
X104664936Y-105264596D01*
X104644341Y-105499999D01*
X104644341Y-105500000D01*
X104664936Y-105735403D01*
X104664938Y-105735413D01*
X104726094Y-105963655D01*
X104726096Y-105963659D01*
X104726097Y-105963663D01*
X104748737Y-106012214D01*
X104825965Y-106177830D01*
X104825967Y-106177834D01*
X104913093Y-106302262D01*
X104961505Y-106371401D01*
X105128599Y-106538495D01*
X105195541Y-106585368D01*
X105322165Y-106674032D01*
X105322167Y-106674033D01*
X105322170Y-106674035D01*
X105536337Y-106773903D01*
X105764592Y-106835063D01*
X105952918Y-106851539D01*
X105999999Y-106855659D01*
X106000000Y-106855659D01*
X106000001Y-106855659D01*
X106039234Y-106852226D01*
X106235408Y-106835063D01*
X106463663Y-106773903D01*
X106677830Y-106674035D01*
X106871401Y-106538495D01*
X107038495Y-106371401D01*
X107174035Y-106177830D01*
X107273903Y-105963663D01*
X107335063Y-105735408D01*
X107355659Y-105500000D01*
X107352831Y-105467682D01*
X107346191Y-105391784D01*
X107335063Y-105264592D01*
X107273903Y-105036337D01*
X107174035Y-104822171D01*
X107161609Y-104804424D01*
X107038494Y-104628597D01*
X106871402Y-104461506D01*
X106871395Y-104461501D01*
X106677834Y-104325967D01*
X106677830Y-104325965D01*
X106677828Y-104325964D01*
X106463663Y-104226097D01*
X106463659Y-104226096D01*
X106463655Y-104226094D01*
X106382222Y-104204275D01*
X106322561Y-104167910D01*
X106292032Y-104105063D01*
X106300326Y-104035688D01*
X106344812Y-103981810D01*
X106411364Y-103960535D01*
X106414315Y-103960500D01*
X108354390Y-103960500D01*
X108362488Y-103961030D01*
X108397818Y-103965682D01*
X108397819Y-103965682D01*
X108450072Y-103958802D01*
X108554580Y-103945044D01*
X108700659Y-103884536D01*
X108826100Y-103788282D01*
X108847802Y-103759998D01*
X108853128Y-103753923D01*
X110270234Y-102336819D01*
X110331557Y-102303334D01*
X110357915Y-102300500D01*
X116897006Y-102300500D01*
X116905104Y-102301030D01*
X116940434Y-102305682D01*
X116940435Y-102305682D01*
X116992688Y-102298802D01*
X117097196Y-102285044D01*
X117228049Y-102230842D01*
X117297516Y-102223374D01*
X117359996Y-102254649D01*
X117395648Y-102314738D01*
X117399500Y-102345404D01*
X117399500Y-108956571D01*
X117398969Y-108964673D01*
X117394318Y-108999999D01*
X117394318Y-109000000D01*
X117399500Y-109039360D01*
X117414955Y-109156760D01*
X117414956Y-109156762D01*
X117473133Y-109297215D01*
X117475464Y-109302841D01*
X117571718Y-109428282D01*
X117599995Y-109449980D01*
X117606085Y-109455320D01*
X117975980Y-109825215D01*
X118293482Y-110142717D01*
X118326967Y-110204040D01*
X118326007Y-110260838D01*
X118264892Y-110502174D01*
X118264890Y-110502187D01*
X118244357Y-110749994D01*
X118244357Y-110750005D01*
X118264890Y-110997812D01*
X118264892Y-110997824D01*
X118325936Y-111238881D01*
X118425826Y-111466606D01*
X118561833Y-111674782D01*
X118561836Y-111674785D01*
X118730256Y-111857738D01*
X118926491Y-112010474D01*
X118926493Y-112010475D01*
X119144478Y-112128443D01*
X119145190Y-112128828D01*
X119364141Y-112203994D01*
X119378294Y-112208853D01*
X119380386Y-112209571D01*
X119625665Y-112250500D01*
X119874335Y-112250500D01*
X120119614Y-112209571D01*
X120354810Y-112128828D01*
X120573509Y-112010474D01*
X120769744Y-111857738D01*
X120938164Y-111674785D01*
X121074173Y-111466607D01*
X121092560Y-111424689D01*
X121137517Y-111371204D01*
X121204253Y-111350514D01*
X121206116Y-111350500D01*
X124793884Y-111350500D01*
X124860923Y-111370185D01*
X124906678Y-111422989D01*
X124907440Y-111424689D01*
X124925827Y-111466608D01*
X125061833Y-111674782D01*
X125061836Y-111674785D01*
X125230256Y-111857738D01*
X125426491Y-112010474D01*
X125426493Y-112010475D01*
X125644478Y-112128443D01*
X125645190Y-112128828D01*
X125864141Y-112203994D01*
X125878294Y-112208853D01*
X125880386Y-112209571D01*
X126125665Y-112250500D01*
X126374335Y-112250500D01*
X126619614Y-112209571D01*
X126854810Y-112128828D01*
X126854820Y-112128822D01*
X126855687Y-112128443D01*
X126856079Y-112128392D01*
X126859661Y-112127163D01*
X126859913Y-112127899D01*
X126924987Y-112119539D01*
X126988100Y-112149514D01*
X127024988Y-112208853D01*
X127029500Y-112241998D01*
X127029500Y-113758550D01*
X127009815Y-113825589D01*
X126957011Y-113871344D01*
X126887853Y-113881288D01*
X126859493Y-113873193D01*
X126859458Y-113873297D01*
X126857491Y-113872622D01*
X126855705Y-113872112D01*
X126854618Y-113871635D01*
X126619493Y-113790916D01*
X126374293Y-113750000D01*
X126125707Y-113750000D01*
X125880506Y-113790916D01*
X125645396Y-113871630D01*
X125645385Y-113871635D01*
X125426768Y-113989944D01*
X125426765Y-113989946D01*
X125300418Y-114088285D01*
X125300418Y-114088286D01*
X125942105Y-114729973D01*
X125822075Y-114822075D01*
X125729973Y-114942104D01*
X125086753Y-114298884D01*
X125086752Y-114298884D01*
X125062237Y-114325516D01*
X124926266Y-114533635D01*
X124826412Y-114761282D01*
X124765387Y-115002261D01*
X124765385Y-115002270D01*
X124744859Y-115249994D01*
X124744859Y-115250005D01*
X124765385Y-115497729D01*
X124765387Y-115497738D01*
X124826412Y-115738717D01*
X124926267Y-115966367D01*
X125062227Y-116174470D01*
X125086753Y-116201113D01*
X125729972Y-115557894D01*
X125822075Y-115677925D01*
X125942103Y-115770026D01*
X125300418Y-116411712D01*
X125426768Y-116510055D01*
X125426771Y-116510057D01*
X125645385Y-116628364D01*
X125645396Y-116628369D01*
X125880506Y-116709083D01*
X126125707Y-116750000D01*
X126374293Y-116750000D01*
X126619493Y-116709083D01*
X126854601Y-116628370D01*
X126855681Y-116627897D01*
X126856160Y-116627835D01*
X126859459Y-116626703D01*
X126859691Y-116627381D01*
X126924980Y-116618989D01*
X126988095Y-116648961D01*
X127024986Y-116708297D01*
X127029500Y-116741449D01*
X127029500Y-117067768D01*
X127009815Y-117134807D01*
X126993180Y-117155450D01*
X126947815Y-117200814D01*
X126886492Y-117234299D01*
X126839726Y-117235441D01*
X126624335Y-117199500D01*
X126375665Y-117199500D01*
X126130383Y-117240429D01*
X125895197Y-117321169D01*
X125895188Y-117321172D01*
X125676493Y-117439524D01*
X125480257Y-117592261D01*
X125311833Y-117775217D01*
X125175826Y-117983393D01*
X125075936Y-118211118D01*
X125014892Y-118452175D01*
X125014890Y-118452187D01*
X124994357Y-118699994D01*
X124994357Y-118700005D01*
X125014890Y-118947812D01*
X125014892Y-118947824D01*
X125075936Y-119188881D01*
X125175826Y-119416606D01*
X125311833Y-119624782D01*
X125360027Y-119677134D01*
X125438694Y-119762590D01*
X125465324Y-119791517D01*
X125496246Y-119854172D01*
X125488386Y-119923598D01*
X125444239Y-119977753D01*
X125377821Y-119999444D01*
X125374094Y-119999500D01*
X120625906Y-119999500D01*
X120558867Y-119979815D01*
X120513112Y-119927011D01*
X120503168Y-119857853D01*
X120532193Y-119794297D01*
X120534676Y-119791517D01*
X120541864Y-119783709D01*
X120688164Y-119624785D01*
X120824173Y-119416607D01*
X120924063Y-119188881D01*
X120985108Y-118947821D01*
X120988750Y-118903870D01*
X121005643Y-118700005D01*
X121005643Y-118699994D01*
X120985109Y-118452187D01*
X120985107Y-118452175D01*
X120924063Y-118211118D01*
X120824173Y-117983393D01*
X120688166Y-117775217D01*
X120612603Y-117693134D01*
X120519744Y-117592262D01*
X120323509Y-117439526D01*
X120323507Y-117439525D01*
X120323506Y-117439524D01*
X120104811Y-117321172D01*
X120104802Y-117321169D01*
X119869616Y-117240429D01*
X119624335Y-117199500D01*
X119375665Y-117199500D01*
X119130383Y-117240429D01*
X118895197Y-117321169D01*
X118895188Y-117321172D01*
X118676493Y-117439524D01*
X118480257Y-117592261D01*
X118311833Y-117775217D01*
X118175826Y-117983393D01*
X118075936Y-118211118D01*
X118014892Y-118452175D01*
X118014890Y-118452187D01*
X117994357Y-118699994D01*
X117994357Y-118700005D01*
X118014890Y-118947812D01*
X118014892Y-118947824D01*
X118075936Y-119188881D01*
X118175826Y-119416606D01*
X118311833Y-119624782D01*
X118360027Y-119677134D01*
X118438694Y-119762590D01*
X118465324Y-119791517D01*
X118496246Y-119854172D01*
X118488386Y-119923598D01*
X118444239Y-119977753D01*
X118377821Y-119999444D01*
X118374094Y-119999500D01*
X104235057Y-119999500D01*
X104168018Y-119979815D01*
X104122263Y-119927011D01*
X104112319Y-119857853D01*
X104141344Y-119794297D01*
X104187660Y-119762409D01*
X104187141Y-119761205D01*
X104190436Y-119759782D01*
X104190451Y-119759777D01*
X104502793Y-119602913D01*
X104794811Y-119410849D01*
X105062558Y-119186183D01*
X105302412Y-118931953D01*
X105511130Y-118651596D01*
X105685889Y-118348904D01*
X105824326Y-118027971D01*
X105924569Y-117693136D01*
X105925399Y-117688433D01*
X105985260Y-117348938D01*
X105985259Y-117348938D01*
X105985262Y-117348927D01*
X106005585Y-117000000D01*
X105985262Y-116651073D01*
X105981258Y-116628364D01*
X105924571Y-116306872D01*
X105924569Y-116306865D01*
X105924569Y-116306864D01*
X105824326Y-115972029D01*
X105808787Y-115936006D01*
X108054700Y-115936006D01*
X108073864Y-116167297D01*
X108073866Y-116167308D01*
X108130842Y-116392300D01*
X108224075Y-116604848D01*
X108351016Y-116799147D01*
X108351019Y-116799151D01*
X108351021Y-116799153D01*
X108508216Y-116969913D01*
X108508219Y-116969915D01*
X108508222Y-116969918D01*
X108691365Y-117112464D01*
X108691371Y-117112468D01*
X108691374Y-117112470D01*
X108770794Y-117155450D01*
X108894652Y-117222479D01*
X108895497Y-117222936D01*
X109009487Y-117262068D01*
X109115015Y-117298297D01*
X109115017Y-117298297D01*
X109115019Y-117298298D01*
X109343951Y-117336500D01*
X109343952Y-117336500D01*
X109576048Y-117336500D01*
X109576049Y-117336500D01*
X109804981Y-117298298D01*
X110024503Y-117222936D01*
X110228626Y-117112470D01*
X110260960Y-117087304D01*
X110290129Y-117064600D01*
X110411784Y-116969913D01*
X110568979Y-116799153D01*
X110695924Y-116604849D01*
X110789157Y-116392300D01*
X110846134Y-116167305D01*
X110846135Y-116167297D01*
X110865300Y-115936006D01*
X110865300Y-115936005D01*
X113135202Y-115936005D01*
X113154361Y-116167218D01*
X113211317Y-116392135D01*
X113304515Y-116604606D01*
X113431418Y-116798846D01*
X113431422Y-116798851D01*
X113447524Y-116816341D01*
X113447525Y-116816341D01*
X114019972Y-116243894D01*
X114112075Y-116363925D01*
X114232104Y-116456026D01*
X113661676Y-117026454D01*
X113771649Y-117112050D01*
X113975697Y-117222476D01*
X113975706Y-117222479D01*
X114195139Y-117297811D01*
X114423993Y-117336000D01*
X114656007Y-117336000D01*
X114884860Y-117297811D01*
X115104293Y-117222479D01*
X115104302Y-117222476D01*
X115308353Y-117112048D01*
X115418322Y-117026455D01*
X115418322Y-117026454D01*
X114847894Y-116456026D01*
X114967925Y-116363925D01*
X115060026Y-116243895D01*
X115632473Y-116816342D01*
X115632474Y-116816341D01*
X115648584Y-116798843D01*
X115775483Y-116604609D01*
X115868682Y-116392135D01*
X115925638Y-116167218D01*
X115944798Y-115936005D01*
X115944798Y-115935994D01*
X115925638Y-115704781D01*
X115868682Y-115479864D01*
X115775484Y-115267393D01*
X115764124Y-115250005D01*
X118244859Y-115250005D01*
X118265385Y-115497729D01*
X118265387Y-115497738D01*
X118326412Y-115738717D01*
X118426267Y-115966367D01*
X118562227Y-116174470D01*
X118586753Y-116201113D01*
X119229972Y-115557894D01*
X119322075Y-115677925D01*
X119442104Y-115770026D01*
X118800418Y-116411712D01*
X118926768Y-116510055D01*
X118926771Y-116510057D01*
X119145385Y-116628364D01*
X119145396Y-116628369D01*
X119380506Y-116709083D01*
X119625707Y-116750000D01*
X119874293Y-116750000D01*
X120119493Y-116709083D01*
X120354603Y-116628369D01*
X120354614Y-116628364D01*
X120573230Y-116510056D01*
X120573235Y-116510052D01*
X120699580Y-116411713D01*
X120699580Y-116411712D01*
X120057894Y-115770026D01*
X120177925Y-115677925D01*
X120270026Y-115557895D01*
X120913244Y-116201113D01*
X120913246Y-116201113D01*
X120937769Y-116174475D01*
X121073732Y-115966367D01*
X121173587Y-115738717D01*
X121234612Y-115497738D01*
X121234614Y-115497729D01*
X121255141Y-115250005D01*
X121255141Y-115249994D01*
X121234614Y-115002270D01*
X121234612Y-115002261D01*
X121173587Y-114761282D01*
X121073732Y-114533632D01*
X120937770Y-114325525D01*
X120913245Y-114298885D01*
X120270026Y-114942104D01*
X120177925Y-114822075D01*
X120057894Y-114729973D01*
X120699580Y-114088286D01*
X120699580Y-114088285D01*
X120573236Y-113989947D01*
X120573231Y-113989944D01*
X120354614Y-113871635D01*
X120354603Y-113871630D01*
X120119493Y-113790916D01*
X119874293Y-113750000D01*
X119625707Y-113750000D01*
X119380506Y-113790916D01*
X119145396Y-113871630D01*
X119145385Y-113871635D01*
X118926768Y-113989944D01*
X118926765Y-113989946D01*
X118800418Y-114088285D01*
X118800418Y-114088286D01*
X119442105Y-114729973D01*
X119322075Y-114822075D01*
X119229973Y-114942104D01*
X118586753Y-114298884D01*
X118586752Y-114298884D01*
X118562237Y-114325516D01*
X118426266Y-114533635D01*
X118326412Y-114761282D01*
X118265387Y-115002261D01*
X118265385Y-115002270D01*
X118244859Y-115249994D01*
X118244859Y-115250005D01*
X115764124Y-115250005D01*
X115648581Y-115073153D01*
X115648577Y-115073148D01*
X115632474Y-115055657D01*
X115632473Y-115055657D01*
X115060026Y-115628104D01*
X114967925Y-115508075D01*
X114847894Y-115415973D01*
X115418322Y-114845544D01*
X115418322Y-114845543D01*
X115308349Y-114759948D01*
X115104302Y-114649523D01*
X115104293Y-114649520D01*
X114884860Y-114574188D01*
X114656007Y-114536000D01*
X114423993Y-114536000D01*
X114195139Y-114574188D01*
X113975706Y-114649520D01*
X113975697Y-114649523D01*
X113771646Y-114759951D01*
X113661676Y-114845543D01*
X113661676Y-114845544D01*
X114232105Y-115415973D01*
X114112075Y-115508075D01*
X114019972Y-115628104D01*
X113447525Y-115055657D01*
X113447524Y-115055657D01*
X113431414Y-115073157D01*
X113304516Y-115267390D01*
X113211317Y-115479864D01*
X113154361Y-115704781D01*
X113135202Y-115935994D01*
X113135202Y-115936005D01*
X110865300Y-115936005D01*
X110865300Y-115935993D01*
X110846135Y-115704702D01*
X110846133Y-115704691D01*
X110789157Y-115479699D01*
X110695924Y-115267151D01*
X110568983Y-115072852D01*
X110568980Y-115072849D01*
X110568979Y-115072847D01*
X110411784Y-114902087D01*
X110411779Y-114902083D01*
X110411777Y-114902081D01*
X110228634Y-114759535D01*
X110228628Y-114759531D01*
X110024504Y-114649064D01*
X110024495Y-114649061D01*
X109804984Y-114573702D01*
X109633282Y-114545050D01*
X109576049Y-114535500D01*
X109343951Y-114535500D01*
X109298164Y-114543140D01*
X109115015Y-114573702D01*
X108895504Y-114649061D01*
X108895495Y-114649064D01*
X108691371Y-114759531D01*
X108691365Y-114759535D01*
X108508222Y-114902081D01*
X108508219Y-114902084D01*
X108508216Y-114902086D01*
X108508216Y-114902087D01*
X108466492Y-114947412D01*
X108351016Y-115072852D01*
X108224075Y-115267151D01*
X108130842Y-115479699D01*
X108073866Y-115704691D01*
X108073864Y-115704702D01*
X108054700Y-115935993D01*
X108054700Y-115936006D01*
X105808787Y-115936006D01*
X105685889Y-115651096D01*
X105511130Y-115348404D01*
X105511129Y-115348402D01*
X105302415Y-115068050D01*
X105302410Y-115068044D01*
X105186433Y-114945117D01*
X105062558Y-114813817D01*
X104866209Y-114649061D01*
X104794813Y-114589152D01*
X104794805Y-114589146D01*
X104502796Y-114397088D01*
X104190458Y-114240226D01*
X104190452Y-114240223D01*
X103862012Y-114120681D01*
X103862009Y-114120680D01*
X103521915Y-114040077D01*
X103478519Y-114035004D01*
X103174759Y-113999500D01*
X102825241Y-113999500D01*
X102521480Y-114035004D01*
X102478085Y-114040077D01*
X102478083Y-114040077D01*
X102137990Y-114120680D01*
X102137987Y-114120681D01*
X101809547Y-114240223D01*
X101809541Y-114240226D01*
X101497203Y-114397088D01*
X101205194Y-114589146D01*
X101205186Y-114589152D01*
X100937442Y-114813817D01*
X100937440Y-114813819D01*
X100697589Y-115068044D01*
X100697584Y-115068050D01*
X100488870Y-115348402D01*
X100314113Y-115651091D01*
X100314107Y-115651104D01*
X100238359Y-115826708D01*
X100193731Y-115880468D01*
X100127123Y-115901566D01*
X100059682Y-115883304D01*
X100012820Y-115831480D01*
X100000500Y-115777594D01*
X100000500Y-102858585D01*
X100015074Y-102808949D01*
X100002931Y-102785846D01*
X100000500Y-102761414D01*
X100000500Y-100312846D01*
X100012912Y-100270575D01*
X100002931Y-100251585D01*
X100000500Y-100227153D01*
X100000500Y-97778585D01*
X100015074Y-97728949D01*
X100002931Y-97705846D01*
X100000500Y-97681414D01*
X100000500Y-95238585D01*
X100015074Y-95188949D01*
X100002931Y-95165846D01*
X100000500Y-95141414D01*
X100000500Y-92698585D01*
X100015074Y-92648949D01*
X100002931Y-92625846D01*
X100000500Y-92601414D01*
X100000500Y-90363844D01*
X100020185Y-90296805D01*
X100072989Y-90251050D01*
X100142147Y-90241106D01*
X100205703Y-90270131D01*
X100228309Y-90296023D01*
X100312227Y-90424470D01*
X100336753Y-90451113D01*
X101055184Y-89732682D01*
X101118239Y-89830798D01*
X101226900Y-89924952D01*
X101268281Y-89943850D01*
X100550418Y-90661712D01*
X100676768Y-90760055D01*
X100676771Y-90760057D01*
X100895385Y-90878364D01*
X100895396Y-90878369D01*
X101130506Y-90959083D01*
X101375707Y-91000000D01*
X101624293Y-91000000D01*
X101869493Y-90959083D01*
X102104603Y-90878369D01*
X102104614Y-90878364D01*
X102323230Y-90760056D01*
X102323235Y-90760052D01*
X102449580Y-90661713D01*
X102449580Y-90661712D01*
X101731718Y-89943850D01*
X101773100Y-89924952D01*
X101881761Y-89830798D01*
X101944815Y-89732683D01*
X102663244Y-90451113D01*
X102663246Y-90451113D01*
X102687769Y-90424475D01*
X102823732Y-90216367D01*
X102923587Y-89988717D01*
X102984612Y-89747738D01*
X102984614Y-89747729D01*
X103005141Y-89500005D01*
X103005141Y-89499994D01*
X102984614Y-89252270D01*
X102984612Y-89252261D01*
X102923587Y-89011282D01*
X102823732Y-88783632D01*
X102687770Y-88575525D01*
X102663245Y-88548885D01*
X101944814Y-89267316D01*
X101881761Y-89169202D01*
X101773100Y-89075048D01*
X101731718Y-89056149D01*
X102449580Y-88338286D01*
X102449053Y-88329791D01*
X102421466Y-88291459D01*
X102417792Y-88221686D01*
X102452424Y-88161003D01*
X102462254Y-88152483D01*
X102519744Y-88107738D01*
X102688164Y-87924785D01*
X102824173Y-87716607D01*
X102842560Y-87674689D01*
X102887517Y-87621204D01*
X102954253Y-87600514D01*
X102956116Y-87600500D01*
X104899903Y-87600500D01*
X104966942Y-87620185D01*
G37*
G04 #@! TD.AperFunction*
G04 #@! TA.AperFunction,Conductor*
G36*
X141831982Y-50020185D02*
G01*
X141877737Y-50072989D01*
X141887681Y-50142147D01*
X141858656Y-50205703D01*
X141812339Y-50237590D01*
X141812859Y-50238795D01*
X141809541Y-50240226D01*
X141497203Y-50397088D01*
X141205194Y-50589146D01*
X141205186Y-50589152D01*
X140937442Y-50813817D01*
X140937440Y-50813819D01*
X140697589Y-51068044D01*
X140697584Y-51068050D01*
X140488870Y-51348402D01*
X140314113Y-51651091D01*
X140314107Y-51651104D01*
X140175674Y-51972027D01*
X140075430Y-52306865D01*
X140075428Y-52306872D01*
X140014739Y-52651061D01*
X140014738Y-52651072D01*
X139994415Y-52999996D01*
X139994415Y-53000003D01*
X140014738Y-53348927D01*
X140014739Y-53348938D01*
X140075428Y-53693127D01*
X140075430Y-53693134D01*
X140175674Y-54027972D01*
X140314107Y-54348895D01*
X140314113Y-54348908D01*
X140488870Y-54651597D01*
X140697584Y-54931949D01*
X140697589Y-54931955D01*
X140818768Y-55060396D01*
X140937442Y-55186183D01*
X141109739Y-55330757D01*
X141205186Y-55410847D01*
X141205194Y-55410853D01*
X141497203Y-55602911D01*
X141497207Y-55602913D01*
X141809549Y-55759777D01*
X142137989Y-55879319D01*
X142478086Y-55959923D01*
X142825241Y-56000500D01*
X142825248Y-56000500D01*
X143174752Y-56000500D01*
X143174759Y-56000500D01*
X143521914Y-55959923D01*
X143862011Y-55879319D01*
X144190451Y-55759777D01*
X144502793Y-55602913D01*
X144794811Y-55410849D01*
X145062558Y-55186183D01*
X145302412Y-54931953D01*
X145511130Y-54651596D01*
X145685889Y-54348904D01*
X145761641Y-54173290D01*
X145806269Y-54119531D01*
X145872877Y-54098433D01*
X145940318Y-54116695D01*
X145987179Y-54168519D01*
X145999500Y-54222405D01*
X145999500Y-82107318D01*
X145999842Y-82112100D01*
X146000000Y-82116524D01*
X146000000Y-82500000D01*
X146129168Y-82629168D01*
X146154281Y-82665338D01*
X146179672Y-82720938D01*
X146179679Y-82720951D01*
X146246981Y-82825675D01*
X146291814Y-82895437D01*
X146295720Y-82901514D01*
X146436275Y-83063724D01*
X146549209Y-83161581D01*
X146598487Y-83204281D01*
X146727256Y-83287035D01*
X146764684Y-83311089D01*
X146779050Y-83320321D01*
X146834662Y-83345718D01*
X146870830Y-83370830D01*
X147000000Y-83500000D01*
X147383479Y-83500000D01*
X147387905Y-83500158D01*
X147392679Y-83500499D01*
X147392682Y-83500500D01*
X147497293Y-83500500D01*
X147502695Y-83500735D01*
X147545519Y-83504482D01*
X147671771Y-83516918D01*
X147691685Y-83520541D01*
X147758349Y-83538403D01*
X147851570Y-83566682D01*
X147867971Y-83572958D01*
X147935411Y-83604406D01*
X147938375Y-83605888D01*
X147975969Y-83625982D01*
X148022327Y-83650762D01*
X148028667Y-83654657D01*
X148094828Y-83700983D01*
X148098600Y-83703844D01*
X148170808Y-83763103D01*
X148175309Y-83767182D01*
X148232815Y-83824688D01*
X148236895Y-83829190D01*
X148296154Y-83901398D01*
X148299015Y-83905170D01*
X148345341Y-83971331D01*
X148349236Y-83977671D01*
X148394101Y-84061605D01*
X148395607Y-84064618D01*
X148400708Y-84075555D01*
X148427040Y-84132027D01*
X148433319Y-84148435D01*
X148461601Y-84241669D01*
X148479454Y-84308299D01*
X148483082Y-84328238D01*
X148495523Y-84454554D01*
X148499264Y-84497300D01*
X148499500Y-84502708D01*
X148499500Y-96497289D01*
X148499264Y-96502697D01*
X148495523Y-96545445D01*
X148483082Y-96671759D01*
X148479454Y-96691698D01*
X148469376Y-96729310D01*
X148450504Y-96769291D01*
X148061774Y-97313512D01*
X148031758Y-97343178D01*
X148028488Y-97345457D01*
X148022266Y-97349269D01*
X147938397Y-97394099D01*
X147935372Y-97395611D01*
X147883851Y-97419636D01*
X147855765Y-97428846D01*
X147514539Y-97497092D01*
X147490220Y-97499500D01*
X147392682Y-97499500D01*
X147180235Y-97530044D01*
X147180225Y-97530047D01*
X146974284Y-97590517D01*
X146779061Y-97679672D01*
X146779048Y-97679679D01*
X146598485Y-97795720D01*
X146436275Y-97936275D01*
X146295720Y-98098485D01*
X146179679Y-98279048D01*
X146179672Y-98279061D01*
X146090517Y-98474284D01*
X146030047Y-98680225D01*
X146030044Y-98680235D01*
X145999500Y-98892682D01*
X145999500Y-98951414D01*
X145984925Y-99001049D01*
X145997069Y-99024153D01*
X145999500Y-99048585D01*
X145999500Y-115777594D01*
X145979815Y-115844633D01*
X145927011Y-115890388D01*
X145857853Y-115900332D01*
X145794297Y-115871307D01*
X145761641Y-115826708D01*
X145709009Y-115704695D01*
X145685889Y-115651096D01*
X145511130Y-115348404D01*
X145511129Y-115348402D01*
X145302415Y-115068050D01*
X145302410Y-115068044D01*
X145186433Y-114945117D01*
X145062558Y-114813817D01*
X144866209Y-114649061D01*
X144794813Y-114589152D01*
X144794805Y-114589146D01*
X144502796Y-114397088D01*
X144190458Y-114240226D01*
X144190452Y-114240223D01*
X143862012Y-114120681D01*
X143862009Y-114120680D01*
X143521915Y-114040077D01*
X143478519Y-114035004D01*
X143174759Y-113999500D01*
X142825241Y-113999500D01*
X142521480Y-114035004D01*
X142478085Y-114040077D01*
X142478083Y-114040077D01*
X142137990Y-114120680D01*
X142137987Y-114120681D01*
X141809547Y-114240223D01*
X141809541Y-114240226D01*
X141497203Y-114397088D01*
X141205194Y-114589146D01*
X141205186Y-114589152D01*
X140937442Y-114813817D01*
X140937440Y-114813819D01*
X140697589Y-115068044D01*
X140697584Y-115068050D01*
X140488870Y-115348402D01*
X140314113Y-115651091D01*
X140314107Y-115651104D01*
X140175674Y-115972027D01*
X140075430Y-116306865D01*
X140075428Y-116306872D01*
X140014739Y-116651061D01*
X140014738Y-116651072D01*
X139994415Y-116999996D01*
X139994415Y-117000003D01*
X140014738Y-117348927D01*
X140014739Y-117348938D01*
X140075428Y-117693127D01*
X140075430Y-117693134D01*
X140175674Y-118027972D01*
X140314107Y-118348895D01*
X140314113Y-118348908D01*
X140488870Y-118651597D01*
X140697584Y-118931949D01*
X140697589Y-118931955D01*
X140793550Y-119033667D01*
X140937442Y-119186183D01*
X141031186Y-119264843D01*
X141205186Y-119410847D01*
X141205194Y-119410853D01*
X141497203Y-119602911D01*
X141497207Y-119602913D01*
X141809549Y-119759777D01*
X141809557Y-119759779D01*
X141812859Y-119761205D01*
X141812261Y-119762590D01*
X141863621Y-119800408D01*
X141888553Y-119865678D01*
X141874241Y-119934066D01*
X141825227Y-119983860D01*
X141764943Y-119999500D01*
X127625906Y-119999500D01*
X127558867Y-119979815D01*
X127513112Y-119927011D01*
X127503168Y-119857853D01*
X127532193Y-119794297D01*
X127534676Y-119791517D01*
X127541864Y-119783709D01*
X127688164Y-119624785D01*
X127824173Y-119416607D01*
X127924063Y-119188881D01*
X127985108Y-118947821D01*
X127988750Y-118903870D01*
X128005643Y-118700005D01*
X128005643Y-118699994D01*
X127985109Y-118452187D01*
X127985108Y-118452183D01*
X127985108Y-118452179D01*
X127985105Y-118452166D01*
X127968878Y-118388086D01*
X127971502Y-118318265D01*
X128001400Y-118269966D01*
X128265642Y-118005724D01*
X128279271Y-117993947D01*
X128298530Y-117979610D01*
X128332101Y-117939601D01*
X128335761Y-117935606D01*
X128341590Y-117929778D01*
X128361941Y-117904039D01*
X128370356Y-117894010D01*
X128411302Y-117845214D01*
X128411306Y-117845205D01*
X128415274Y-117839175D01*
X128415325Y-117839208D01*
X128419372Y-117832856D01*
X128419320Y-117832824D01*
X128423112Y-117826675D01*
X128455575Y-117757058D01*
X128487679Y-117693134D01*
X128490040Y-117688433D01*
X128490042Y-117688421D01*
X128492509Y-117681646D01*
X128492567Y-117681667D01*
X128495043Y-117674546D01*
X128494986Y-117674527D01*
X128497255Y-117667678D01*
X128497255Y-117667676D01*
X128497257Y-117667673D01*
X128512788Y-117592449D01*
X128530500Y-117517721D01*
X128530500Y-117517718D01*
X128531339Y-117510548D01*
X128531397Y-117510554D01*
X128532164Y-117503056D01*
X128532104Y-117503051D01*
X128532733Y-117495860D01*
X128531981Y-117470026D01*
X128530500Y-117419102D01*
X128530500Y-115936006D01*
X130054700Y-115936006D01*
X130073864Y-116167297D01*
X130073866Y-116167308D01*
X130130842Y-116392300D01*
X130224075Y-116604848D01*
X130351016Y-116799147D01*
X130351019Y-116799151D01*
X130351021Y-116799153D01*
X130508216Y-116969913D01*
X130508219Y-116969915D01*
X130508222Y-116969918D01*
X130691365Y-117112464D01*
X130691371Y-117112468D01*
X130691374Y-117112470D01*
X130770794Y-117155450D01*
X130894652Y-117222479D01*
X130895497Y-117222936D01*
X131009487Y-117262068D01*
X131115015Y-117298297D01*
X131115017Y-117298297D01*
X131115019Y-117298298D01*
X131343951Y-117336500D01*
X131343952Y-117336500D01*
X131576048Y-117336500D01*
X131576049Y-117336500D01*
X131804981Y-117298298D01*
X132024503Y-117222936D01*
X132228626Y-117112470D01*
X132260960Y-117087304D01*
X132290129Y-117064600D01*
X132411784Y-116969913D01*
X132568979Y-116799153D01*
X132695924Y-116604849D01*
X132789157Y-116392300D01*
X132846134Y-116167305D01*
X132846135Y-116167297D01*
X132865300Y-115936006D01*
X135134700Y-115936006D01*
X135153864Y-116167297D01*
X135153866Y-116167308D01*
X135210842Y-116392300D01*
X135304075Y-116604848D01*
X135431016Y-116799147D01*
X135431019Y-116799151D01*
X135431021Y-116799153D01*
X135588216Y-116969913D01*
X135588219Y-116969915D01*
X135588222Y-116969918D01*
X135771365Y-117112464D01*
X135771371Y-117112468D01*
X135771374Y-117112470D01*
X135850794Y-117155450D01*
X135974652Y-117222479D01*
X135975497Y-117222936D01*
X136089487Y-117262068D01*
X136195015Y-117298297D01*
X136195017Y-117298297D01*
X136195019Y-117298298D01*
X136423951Y-117336500D01*
X136423952Y-117336500D01*
X136656048Y-117336500D01*
X136656049Y-117336500D01*
X136884981Y-117298298D01*
X137104503Y-117222936D01*
X137308626Y-117112470D01*
X137340960Y-117087304D01*
X137370129Y-117064600D01*
X137491784Y-116969913D01*
X137648979Y-116799153D01*
X137775924Y-116604849D01*
X137869157Y-116392300D01*
X137926134Y-116167305D01*
X137926135Y-116167297D01*
X137945300Y-115936006D01*
X137945300Y-115935993D01*
X137926135Y-115704702D01*
X137926133Y-115704691D01*
X137869157Y-115479699D01*
X137775924Y-115267151D01*
X137648983Y-115072852D01*
X137648980Y-115072849D01*
X137648979Y-115072847D01*
X137491784Y-114902087D01*
X137491779Y-114902083D01*
X137491777Y-114902081D01*
X137308634Y-114759535D01*
X137308628Y-114759531D01*
X137104504Y-114649064D01*
X137104495Y-114649061D01*
X136884984Y-114573702D01*
X136713282Y-114545050D01*
X136656049Y-114535500D01*
X136423951Y-114535500D01*
X136378164Y-114543140D01*
X136195015Y-114573702D01*
X135975504Y-114649061D01*
X135975495Y-114649064D01*
X135771371Y-114759531D01*
X135771365Y-114759535D01*
X135588222Y-114902081D01*
X135588219Y-114902084D01*
X135588216Y-114902086D01*
X135588216Y-114902087D01*
X135546492Y-114947412D01*
X135431016Y-115072852D01*
X135304075Y-115267151D01*
X135210842Y-115479699D01*
X135153866Y-115704691D01*
X135153864Y-115704702D01*
X135134700Y-115935993D01*
X135134700Y-115936006D01*
X132865300Y-115936006D01*
X132865300Y-115935993D01*
X132846135Y-115704702D01*
X132846133Y-115704691D01*
X132789157Y-115479699D01*
X132695924Y-115267151D01*
X132568983Y-115072852D01*
X132568980Y-115072849D01*
X132568979Y-115072847D01*
X132411784Y-114902087D01*
X132411779Y-114902083D01*
X132411777Y-114902081D01*
X132228634Y-114759535D01*
X132228628Y-114759531D01*
X132024504Y-114649064D01*
X132024495Y-114649061D01*
X131804984Y-114573702D01*
X131633282Y-114545050D01*
X131576049Y-114535500D01*
X131343951Y-114535500D01*
X131298164Y-114543140D01*
X131115015Y-114573702D01*
X130895504Y-114649061D01*
X130895495Y-114649064D01*
X130691371Y-114759531D01*
X130691365Y-114759535D01*
X130508222Y-114902081D01*
X130508219Y-114902084D01*
X130508216Y-114902086D01*
X130508216Y-114902087D01*
X130466492Y-114947412D01*
X130351016Y-115072852D01*
X130224075Y-115267151D01*
X130130842Y-115479699D01*
X130073866Y-115704691D01*
X130073864Y-115704702D01*
X130054700Y-115935993D01*
X130054700Y-115936006D01*
X128530500Y-115936006D01*
X128530500Y-109983705D01*
X128531809Y-109965735D01*
X128535289Y-109941974D01*
X128530736Y-109889939D01*
X128530500Y-109884532D01*
X128530500Y-109876296D01*
X128530500Y-109876291D01*
X128526691Y-109843705D01*
X128522422Y-109794907D01*
X128536189Y-109726407D01*
X128584804Y-109676224D01*
X128652833Y-109660291D01*
X128718676Y-109683666D01*
X128733629Y-109696417D01*
X128912385Y-109875173D01*
X128915788Y-109878865D01*
X128951662Y-109921099D01*
X128951663Y-109921100D01*
X129016119Y-109970098D01*
X129079246Y-110020842D01*
X129079252Y-110020845D01*
X129080183Y-110021440D01*
X129098023Y-110032504D01*
X129098934Y-110033053D01*
X129098936Y-110033054D01*
X129172439Y-110067060D01*
X129244979Y-110103036D01*
X129244984Y-110103037D01*
X129244988Y-110103039D01*
X129246127Y-110103458D01*
X129265776Y-110110376D01*
X129266830Y-110110730D01*
X129266833Y-110110732D01*
X129306379Y-110119436D01*
X129345925Y-110128141D01*
X129424505Y-110147684D01*
X129425594Y-110147832D01*
X129446375Y-110150377D01*
X129447502Y-110150499D01*
X129447503Y-110150500D01*
X129447504Y-110150500D01*
X129528469Y-110150500D01*
X129609432Y-110152693D01*
X129609432Y-110152692D01*
X129609435Y-110152693D01*
X129610479Y-110152608D01*
X129632648Y-110150500D01*
X133969933Y-110150500D01*
X134013790Y-110159821D01*
X134014014Y-110159135D01*
X134020194Y-110161142D01*
X134020197Y-110161144D01*
X134205354Y-110200500D01*
X134205355Y-110200500D01*
X134394644Y-110200500D01*
X134394646Y-110200500D01*
X134579803Y-110161144D01*
X134752730Y-110084151D01*
X134905871Y-109972888D01*
X135032533Y-109832216D01*
X135127179Y-109668284D01*
X135185674Y-109488256D01*
X135205460Y-109300000D01*
X135185674Y-109111744D01*
X135127179Y-108931716D01*
X135032533Y-108767784D01*
X134905871Y-108627112D01*
X134905870Y-108627111D01*
X134752734Y-108515851D01*
X134752729Y-108515848D01*
X134579807Y-108438857D01*
X134579802Y-108438855D01*
X134434001Y-108407865D01*
X134394646Y-108399500D01*
X134205354Y-108399500D01*
X134165999Y-108407865D01*
X134020198Y-108438855D01*
X134014014Y-108440865D01*
X134013790Y-108440178D01*
X133969933Y-108449500D01*
X129943651Y-108449500D01*
X129876612Y-108429815D01*
X129855970Y-108413181D01*
X129268715Y-107825926D01*
X129249009Y-107800245D01*
X129172533Y-107667784D01*
X129045871Y-107527112D01*
X129045870Y-107527111D01*
X128892734Y-107415851D01*
X128892729Y-107415848D01*
X128719807Y-107338857D01*
X128719802Y-107338855D01*
X128574001Y-107307865D01*
X128534646Y-107299500D01*
X128345354Y-107299500D01*
X128312897Y-107306398D01*
X128160197Y-107338855D01*
X128160192Y-107338857D01*
X127987270Y-107415848D01*
X127987265Y-107415851D01*
X127834129Y-107527111D01*
X127707466Y-107667785D01*
X127612821Y-107831715D01*
X127612818Y-107831722D01*
X127554327Y-108011740D01*
X127554326Y-108011744D01*
X127534540Y-108200000D01*
X127546464Y-108313451D01*
X127533894Y-108382181D01*
X127486162Y-108433204D01*
X127418422Y-108450322D01*
X127352180Y-108428099D01*
X127335462Y-108414093D01*
X123915729Y-104994361D01*
X123903949Y-104980730D01*
X123896482Y-104970701D01*
X123889612Y-104961472D01*
X123874433Y-104948735D01*
X123849587Y-104927886D01*
X123845612Y-104924244D01*
X123842690Y-104921322D01*
X123839780Y-104918411D01*
X123814040Y-104898059D01*
X123755209Y-104848694D01*
X123749180Y-104844729D01*
X123749212Y-104844680D01*
X123742853Y-104840628D01*
X123742822Y-104840679D01*
X123736680Y-104836891D01*
X123736678Y-104836890D01*
X123736677Y-104836889D01*
X123697474Y-104818608D01*
X123667058Y-104804424D01*
X123632894Y-104787267D01*
X123598433Y-104769960D01*
X123598431Y-104769959D01*
X123598430Y-104769959D01*
X123591645Y-104767489D01*
X123591665Y-104767433D01*
X123584549Y-104764959D01*
X123584531Y-104765015D01*
X123577671Y-104762742D01*
X123549841Y-104756996D01*
X123502434Y-104747207D01*
X123453472Y-104735603D01*
X123427719Y-104729499D01*
X123420547Y-104728661D01*
X123420553Y-104728601D01*
X123413055Y-104727835D01*
X123413050Y-104727895D01*
X123405860Y-104727265D01*
X123329083Y-104729500D01*
X120652490Y-104729500D01*
X120585451Y-104709815D01*
X120539696Y-104657011D01*
X120529752Y-104587853D01*
X120558777Y-104524297D01*
X120576327Y-104507647D01*
X120699580Y-104411713D01*
X120699580Y-104411712D01*
X120057894Y-103770026D01*
X120177925Y-103677925D01*
X120270026Y-103557895D01*
X120913244Y-104201113D01*
X120913246Y-104201113D01*
X120937769Y-104174475D01*
X121073732Y-103966367D01*
X121173587Y-103738717D01*
X121234612Y-103497738D01*
X121234614Y-103497729D01*
X121255141Y-103250005D01*
X124744859Y-103250005D01*
X124765385Y-103497729D01*
X124765387Y-103497738D01*
X124826412Y-103738717D01*
X124926267Y-103966367D01*
X125062227Y-104174470D01*
X125086753Y-104201113D01*
X125729972Y-103557894D01*
X125822075Y-103677925D01*
X125942104Y-103770026D01*
X125300418Y-104411712D01*
X125426768Y-104510055D01*
X125426771Y-104510057D01*
X125645385Y-104628364D01*
X125645396Y-104628369D01*
X125880506Y-104709083D01*
X126125707Y-104750000D01*
X126374293Y-104750000D01*
X126619493Y-104709083D01*
X126854603Y-104628369D01*
X126854614Y-104628364D01*
X127073230Y-104510056D01*
X127073235Y-104510052D01*
X127199580Y-104411713D01*
X127199580Y-104411712D01*
X126557894Y-103770026D01*
X126677925Y-103677925D01*
X126770026Y-103557895D01*
X127413244Y-104201113D01*
X127413246Y-104201113D01*
X127437769Y-104174475D01*
X127551758Y-104000001D01*
X131294891Y-104000001D01*
X131315300Y-104285362D01*
X131376109Y-104564895D01*
X131476091Y-104832958D01*
X131613191Y-105084038D01*
X131613192Y-105084039D01*
X131784639Y-105313065D01*
X131784649Y-105313077D01*
X131986922Y-105515350D01*
X131986940Y-105515366D01*
X132150249Y-105637617D01*
X132150250Y-105637617D01*
X132730771Y-105057095D01*
X132864653Y-105123761D01*
X133038816Y-105173314D01*
X132416061Y-105796069D01*
X132467045Y-105823909D01*
X132735104Y-105923890D01*
X133014637Y-105984699D01*
X133228566Y-106000000D01*
X134771434Y-106000000D01*
X134985362Y-105984699D01*
X135264895Y-105923890D01*
X135532951Y-105823910D01*
X135583937Y-105796069D01*
X134961182Y-105173314D01*
X135135347Y-105123761D01*
X135269227Y-105057096D01*
X135849748Y-105637617D01*
X135849749Y-105637617D01*
X136013062Y-105515363D01*
X136013080Y-105515347D01*
X136215350Y-105313077D01*
X136215360Y-105313065D01*
X136386807Y-105084039D01*
X136386808Y-105084038D01*
X136523908Y-104832958D01*
X136623890Y-104564895D01*
X136684699Y-104285362D01*
X136705109Y-104000001D01*
X136705109Y-103999998D01*
X136684699Y-103714637D01*
X136623890Y-103435104D01*
X136523908Y-103167041D01*
X136386808Y-102915961D01*
X136386807Y-102915960D01*
X136215360Y-102686934D01*
X136215350Y-102686922D01*
X136013077Y-102484649D01*
X136013059Y-102484633D01*
X135849749Y-102362381D01*
X135849748Y-102362381D01*
X135269226Y-102942903D01*
X135135347Y-102876239D01*
X134961182Y-102826685D01*
X135583938Y-102203929D01*
X135532952Y-102176089D01*
X135264895Y-102076109D01*
X134985362Y-102015300D01*
X134771434Y-102000000D01*
X133228566Y-102000000D01*
X133014637Y-102015300D01*
X132735104Y-102076109D01*
X132467047Y-102176089D01*
X132467040Y-102176092D01*
X132416061Y-102203928D01*
X132416060Y-102203929D01*
X133038816Y-102826685D01*
X132864653Y-102876239D01*
X132730772Y-102942903D01*
X132150250Y-102362381D01*
X132150249Y-102362381D01*
X131986940Y-102484633D01*
X131986922Y-102484649D01*
X131784649Y-102686922D01*
X131784639Y-102686934D01*
X131613192Y-102915960D01*
X131613191Y-102915961D01*
X131476091Y-103167041D01*
X131376109Y-103435104D01*
X131315300Y-103714637D01*
X131294891Y-103999998D01*
X131294891Y-104000001D01*
X127551758Y-104000001D01*
X127573732Y-103966367D01*
X127673587Y-103738717D01*
X127734612Y-103497738D01*
X127734614Y-103497729D01*
X127755141Y-103250005D01*
X127755141Y-103249994D01*
X127734614Y-103002270D01*
X127734612Y-103002261D01*
X127673587Y-102761282D01*
X127573732Y-102533632D01*
X127437770Y-102325525D01*
X127413245Y-102298885D01*
X126770026Y-102942104D01*
X126677925Y-102822075D01*
X126557894Y-102729973D01*
X127199580Y-102088286D01*
X127199580Y-102088285D01*
X127073236Y-101989947D01*
X127073231Y-101989944D01*
X126854614Y-101871635D01*
X126854603Y-101871630D01*
X126619493Y-101790916D01*
X126374293Y-101750000D01*
X126125707Y-101750000D01*
X125880506Y-101790916D01*
X125645396Y-101871630D01*
X125645385Y-101871635D01*
X125426768Y-101989944D01*
X125426765Y-101989946D01*
X125300418Y-102088285D01*
X125300418Y-102088286D01*
X125942105Y-102729973D01*
X125822075Y-102822075D01*
X125729973Y-102942104D01*
X125086753Y-102298884D01*
X125086752Y-102298884D01*
X125062237Y-102325516D01*
X124926266Y-102533635D01*
X124826412Y-102761282D01*
X124765387Y-103002261D01*
X124765385Y-103002270D01*
X124744859Y-103249994D01*
X124744859Y-103250005D01*
X121255141Y-103250005D01*
X121255141Y-103249994D01*
X121234614Y-103002270D01*
X121234612Y-103002261D01*
X121173587Y-102761282D01*
X121073732Y-102533632D01*
X120937770Y-102325525D01*
X120913245Y-102298885D01*
X120270026Y-102942104D01*
X120177925Y-102822075D01*
X120057894Y-102729972D01*
X120699580Y-102088286D01*
X120699580Y-102088285D01*
X120573236Y-101989947D01*
X120573231Y-101989944D01*
X120354614Y-101871635D01*
X120354603Y-101871630D01*
X120119493Y-101790916D01*
X119874293Y-101750000D01*
X119625707Y-101750000D01*
X119380506Y-101790916D01*
X119145396Y-101871630D01*
X119145385Y-101871635D01*
X118926771Y-101989942D01*
X118926769Y-101989943D01*
X118800662Y-102088097D01*
X118735668Y-102113739D01*
X118667128Y-102100172D01*
X118616803Y-102051704D01*
X118600500Y-101990243D01*
X118600500Y-100010390D01*
X118620185Y-99943351D01*
X118672989Y-99897596D01*
X118742147Y-99887652D01*
X118800660Y-99912535D01*
X118926491Y-100010474D01*
X119145190Y-100128828D01*
X119380386Y-100209571D01*
X119625665Y-100250500D01*
X119874335Y-100250500D01*
X120119614Y-100209571D01*
X120354810Y-100128828D01*
X120573509Y-100010474D01*
X120769744Y-99857738D01*
X120938164Y-99674785D01*
X121074173Y-99466607D01*
X121090557Y-99429255D01*
X121092560Y-99424689D01*
X121137517Y-99371204D01*
X121204253Y-99350514D01*
X121206116Y-99350500D01*
X124793884Y-99350500D01*
X124860923Y-99370185D01*
X124906678Y-99422989D01*
X124907440Y-99424689D01*
X124925827Y-99466608D01*
X125061833Y-99674782D01*
X125061836Y-99674785D01*
X125230256Y-99857738D01*
X125426491Y-100010474D01*
X125645190Y-100128828D01*
X125880386Y-100209571D01*
X126125665Y-100250500D01*
X126374335Y-100250500D01*
X126619614Y-100209571D01*
X126854810Y-100128828D01*
X127073509Y-100010474D01*
X127269744Y-99857738D01*
X127438164Y-99674785D01*
X127574173Y-99466607D01*
X127669184Y-99250003D01*
X132544435Y-99250003D01*
X132564630Y-99429249D01*
X132564631Y-99429254D01*
X132624211Y-99599523D01*
X132661886Y-99659482D01*
X132720184Y-99752262D01*
X132847738Y-99879816D01*
X133000478Y-99975789D01*
X133099362Y-100010390D01*
X133170745Y-100035368D01*
X133170750Y-100035369D01*
X133349996Y-100055565D01*
X133350000Y-100055565D01*
X133350004Y-100055565D01*
X133529249Y-100035369D01*
X133529252Y-100035368D01*
X133529255Y-100035368D01*
X133699522Y-99975789D01*
X133852262Y-99879816D01*
X133912319Y-99819759D01*
X133973642Y-99786274D01*
X134043334Y-99791258D01*
X134087681Y-99819759D01*
X134147738Y-99879816D01*
X134300478Y-99975789D01*
X134470745Y-100035368D01*
X134477974Y-100036182D01*
X134542388Y-100063246D01*
X134551776Y-100071722D01*
X140313181Y-105833127D01*
X140346666Y-105894450D01*
X140349500Y-105920808D01*
X140349500Y-109049100D01*
X140329815Y-109116139D01*
X140309038Y-109140737D01*
X140183237Y-109255418D01*
X140060327Y-109418178D01*
X139969422Y-109600739D01*
X139969417Y-109600752D01*
X139913602Y-109796917D01*
X139894785Y-109999999D01*
X139894785Y-110000000D01*
X139913602Y-110203082D01*
X139969417Y-110399247D01*
X139969422Y-110399260D01*
X140060327Y-110581821D01*
X140183237Y-110744581D01*
X140333958Y-110881980D01*
X140333960Y-110881982D01*
X140433141Y-110943392D01*
X140507363Y-110989348D01*
X140697544Y-111063024D01*
X140898024Y-111100500D01*
X140898026Y-111100500D01*
X141101974Y-111100500D01*
X141101976Y-111100500D01*
X141302456Y-111063024D01*
X141492637Y-110989348D01*
X141666041Y-110881981D01*
X141810812Y-110750005D01*
X141816762Y-110744581D01*
X141816764Y-110744579D01*
X141939673Y-110581821D01*
X142030582Y-110399250D01*
X142086397Y-110203083D01*
X142105215Y-110000000D01*
X142394785Y-110000000D01*
X142413602Y-110203082D01*
X142469417Y-110399247D01*
X142469422Y-110399260D01*
X142560327Y-110581821D01*
X142683237Y-110744581D01*
X142833958Y-110881980D01*
X142833960Y-110881982D01*
X142933141Y-110943392D01*
X143007363Y-110989348D01*
X143197544Y-111063024D01*
X143398024Y-111100500D01*
X143398026Y-111100500D01*
X143601974Y-111100500D01*
X143601976Y-111100500D01*
X143802456Y-111063024D01*
X143992637Y-110989348D01*
X144166041Y-110881981D01*
X144310812Y-110750005D01*
X144316762Y-110744581D01*
X144316764Y-110744579D01*
X144439673Y-110581821D01*
X144530582Y-110399250D01*
X144586397Y-110203083D01*
X144605215Y-110000000D01*
X144599838Y-109941977D01*
X144586397Y-109796917D01*
X144585825Y-109794907D01*
X144530582Y-109600750D01*
X144520689Y-109580883D01*
X144447702Y-109434304D01*
X144439673Y-109418179D01*
X144352572Y-109302839D01*
X144316762Y-109255418D01*
X144166041Y-109118019D01*
X144166039Y-109118017D01*
X143992642Y-109010655D01*
X143992635Y-109010651D01*
X143853037Y-108956571D01*
X143802456Y-108936976D01*
X143601976Y-108899500D01*
X143398024Y-108899500D01*
X143197544Y-108936976D01*
X143197541Y-108936976D01*
X143197541Y-108936977D01*
X143007364Y-109010651D01*
X143007357Y-109010655D01*
X142833960Y-109118017D01*
X142833958Y-109118019D01*
X142683237Y-109255418D01*
X142560327Y-109418178D01*
X142469422Y-109600739D01*
X142469417Y-109600752D01*
X142413602Y-109796917D01*
X142394785Y-109999999D01*
X142394785Y-110000000D01*
X142105215Y-110000000D01*
X142099838Y-109941977D01*
X142086397Y-109796917D01*
X142085825Y-109794907D01*
X142030582Y-109600750D01*
X142020689Y-109580883D01*
X141947702Y-109434304D01*
X141939673Y-109418179D01*
X141852572Y-109302839D01*
X141816762Y-109255418D01*
X141690962Y-109140737D01*
X141654680Y-109081026D01*
X141650500Y-109049100D01*
X141650500Y-105685501D01*
X141652268Y-105669488D01*
X141652026Y-105669466D01*
X141652758Y-105661710D01*
X141652760Y-105661703D01*
X141650500Y-105589796D01*
X141650500Y-105559075D01*
X141649579Y-105551788D01*
X141649122Y-105545979D01*
X141648160Y-105515363D01*
X141647597Y-105497431D01*
X141641676Y-105477053D01*
X141637731Y-105458004D01*
X141635071Y-105436942D01*
X141617186Y-105391771D01*
X141615298Y-105386254D01*
X141601744Y-105339602D01*
X141601744Y-105339601D01*
X141590939Y-105321332D01*
X141582379Y-105303858D01*
X141577583Y-105291744D01*
X141574568Y-105284129D01*
X141546014Y-105244828D01*
X141542810Y-105239950D01*
X141518082Y-105198137D01*
X141518081Y-105198135D01*
X141503075Y-105183129D01*
X141490435Y-105168330D01*
X141477961Y-105151160D01*
X141440528Y-105120194D01*
X141436206Y-105116260D01*
X139182127Y-102862181D01*
X139148642Y-102800858D01*
X139153626Y-102731166D01*
X139195498Y-102675233D01*
X139260962Y-102650816D01*
X139269808Y-102650500D01*
X140050446Y-102650500D01*
X140117485Y-102670185D01*
X140149400Y-102699773D01*
X140183237Y-102744580D01*
X140333958Y-102881980D01*
X140333960Y-102881982D01*
X140433141Y-102943392D01*
X140507363Y-102989348D01*
X140697544Y-103063024D01*
X140898024Y-103100500D01*
X140898026Y-103100500D01*
X141101974Y-103100500D01*
X141101976Y-103100500D01*
X141302456Y-103063024D01*
X141492637Y-102989348D01*
X141666041Y-102881981D01*
X141816764Y-102744579D01*
X141939673Y-102581821D01*
X142030582Y-102399250D01*
X142086397Y-102203083D01*
X142105215Y-102000000D01*
X142394785Y-102000000D01*
X142413602Y-102203082D01*
X142469417Y-102399247D01*
X142469422Y-102399260D01*
X142560327Y-102581821D01*
X142683237Y-102744581D01*
X142833958Y-102881980D01*
X142833960Y-102881982D01*
X142933141Y-102943392D01*
X143007363Y-102989348D01*
X143197544Y-103063024D01*
X143398024Y-103100500D01*
X143398026Y-103100500D01*
X143601974Y-103100500D01*
X143601976Y-103100500D01*
X143802456Y-103063024D01*
X143992637Y-102989348D01*
X144166041Y-102881981D01*
X144316764Y-102744579D01*
X144439673Y-102581821D01*
X144530582Y-102399250D01*
X144586397Y-102203083D01*
X144605215Y-102000000D01*
X144604283Y-101989947D01*
X144586397Y-101796917D01*
X144565337Y-101722900D01*
X144530582Y-101600750D01*
X144520510Y-101580523D01*
X144444235Y-101427341D01*
X144439673Y-101418179D01*
X144316764Y-101255421D01*
X144316762Y-101255418D01*
X144166041Y-101118019D01*
X144166039Y-101118017D01*
X143992642Y-101010655D01*
X143992635Y-101010651D01*
X143897546Y-100973814D01*
X143802456Y-100936976D01*
X143601976Y-100899500D01*
X143398024Y-100899500D01*
X143197544Y-100936976D01*
X143197541Y-100936976D01*
X143197541Y-100936977D01*
X143007364Y-101010651D01*
X143007357Y-101010655D01*
X142833960Y-101118017D01*
X142833958Y-101118019D01*
X142683237Y-101255418D01*
X142560327Y-101418178D01*
X142469422Y-101600739D01*
X142469417Y-101600752D01*
X142413602Y-101796917D01*
X142394785Y-101999999D01*
X142394785Y-102000000D01*
X142105215Y-102000000D01*
X142104283Y-101989947D01*
X142086397Y-101796917D01*
X142065337Y-101722900D01*
X142030582Y-101600750D01*
X142020510Y-101580523D01*
X141944235Y-101427341D01*
X141939673Y-101418179D01*
X141816764Y-101255421D01*
X141816762Y-101255418D01*
X141666041Y-101118019D01*
X141666039Y-101118017D01*
X141492642Y-101010655D01*
X141492635Y-101010651D01*
X141397546Y-100973814D01*
X141302456Y-100936976D01*
X141101976Y-100899500D01*
X140898024Y-100899500D01*
X140697544Y-100936976D01*
X140697541Y-100936976D01*
X140697541Y-100936977D01*
X140507364Y-101010651D01*
X140507357Y-101010655D01*
X140333960Y-101118017D01*
X140333958Y-101118019D01*
X140183237Y-101255419D01*
X140149400Y-101300227D01*
X140093291Y-101341863D01*
X140050446Y-101349500D01*
X138620808Y-101349500D01*
X138553769Y-101329815D01*
X138533127Y-101313181D01*
X135857004Y-98637058D01*
X135837953Y-98612497D01*
X135818085Y-98578901D01*
X135818076Y-98578891D01*
X135803075Y-98563890D01*
X135790435Y-98549091D01*
X135777961Y-98531921D01*
X135740528Y-98500955D01*
X135736206Y-98497021D01*
X135439673Y-98200488D01*
X135429600Y-98187914D01*
X135429413Y-98188070D01*
X135424440Y-98182059D01*
X135371995Y-98132810D01*
X135350274Y-98111089D01*
X135344479Y-98106594D01*
X135340037Y-98102799D01*
X135304635Y-98069554D01*
X135304627Y-98069548D01*
X135286031Y-98059325D01*
X135269770Y-98048644D01*
X135253002Y-98035637D01*
X135229419Y-98025432D01*
X135208417Y-98016343D01*
X135203195Y-98013786D01*
X135160607Y-97990373D01*
X135160604Y-97990372D01*
X135140040Y-97985092D01*
X135121635Y-97978790D01*
X135102166Y-97970365D01*
X135102160Y-97970363D01*
X135054190Y-97962766D01*
X135048475Y-97961582D01*
X135032011Y-97957355D01*
X135001419Y-97949500D01*
X135001416Y-97949500D01*
X134980194Y-97949500D01*
X134960794Y-97947973D01*
X134939835Y-97944653D01*
X134939834Y-97944653D01*
X134916025Y-97946903D01*
X134891469Y-97949225D01*
X134885631Y-97949500D01*
X134085506Y-97949500D01*
X134069495Y-97947732D01*
X134069473Y-97947974D01*
X134061706Y-97947239D01*
X133989783Y-97949500D01*
X133959075Y-97949500D01*
X133959071Y-97949500D01*
X133959060Y-97949501D01*
X133951804Y-97950417D01*
X133945986Y-97950875D01*
X133897432Y-97952401D01*
X133897431Y-97952401D01*
X133877041Y-97958325D01*
X133857996Y-97962269D01*
X133836942Y-97964929D01*
X133791774Y-97982811D01*
X133786248Y-97984703D01*
X133739602Y-97998255D01*
X133739595Y-97998258D01*
X133721329Y-98009061D01*
X133703861Y-98017619D01*
X133684128Y-98025432D01*
X133644830Y-98053983D01*
X133639953Y-98057186D01*
X133626281Y-98065272D01*
X133598132Y-98081920D01*
X133583126Y-98096926D01*
X133568336Y-98109558D01*
X133551167Y-98122032D01*
X133551165Y-98122034D01*
X133520194Y-98159470D01*
X133516262Y-98163791D01*
X133251775Y-98428277D01*
X133190452Y-98461762D01*
X133177988Y-98463815D01*
X133170752Y-98464630D01*
X133170744Y-98464632D01*
X133000478Y-98524210D01*
X132847737Y-98620184D01*
X132720184Y-98747737D01*
X132624211Y-98900476D01*
X132564631Y-99070745D01*
X132564630Y-99070750D01*
X132544435Y-99249996D01*
X132544435Y-99250003D01*
X127669184Y-99250003D01*
X127674063Y-99238881D01*
X127735108Y-98997821D01*
X127736059Y-98986349D01*
X127755643Y-98750005D01*
X127755643Y-98749994D01*
X127735109Y-98502187D01*
X127735107Y-98502175D01*
X127674063Y-98261118D01*
X127574173Y-98033393D01*
X127438166Y-97825217D01*
X127385629Y-97768147D01*
X127269744Y-97642262D01*
X127073509Y-97489526D01*
X127073507Y-97489525D01*
X127073506Y-97489524D01*
X126854811Y-97371172D01*
X126854802Y-97371169D01*
X126619616Y-97290429D01*
X126374335Y-97249500D01*
X126125665Y-97249500D01*
X125880383Y-97290429D01*
X125645197Y-97371169D01*
X125645188Y-97371172D01*
X125426493Y-97489524D01*
X125230257Y-97642261D01*
X125061833Y-97825217D01*
X124925827Y-98033391D01*
X124907440Y-98075311D01*
X124862483Y-98128796D01*
X124795747Y-98149486D01*
X124793884Y-98149500D01*
X121206116Y-98149500D01*
X121139077Y-98129815D01*
X121093322Y-98077011D01*
X121092560Y-98075311D01*
X121080863Y-98048644D01*
X121074173Y-98033393D01*
X121064140Y-98018036D01*
X120938166Y-97825217D01*
X120885629Y-97768147D01*
X120769744Y-97642262D01*
X120573509Y-97489526D01*
X120573507Y-97489525D01*
X120573506Y-97489524D01*
X120354811Y-97371172D01*
X120354802Y-97371169D01*
X120119616Y-97290429D01*
X119874335Y-97249500D01*
X119625665Y-97249500D01*
X119380383Y-97290429D01*
X119145197Y-97371169D01*
X119145188Y-97371172D01*
X118926493Y-97489524D01*
X118800662Y-97587463D01*
X118735668Y-97613105D01*
X118667128Y-97599538D01*
X118616803Y-97551070D01*
X118600500Y-97489609D01*
X118600500Y-94682412D01*
X118620185Y-94615373D01*
X118627555Y-94605097D01*
X118629810Y-94602267D01*
X118629816Y-94602262D01*
X118725789Y-94449522D01*
X118785368Y-94279255D01*
X118785377Y-94279175D01*
X118805565Y-94100003D01*
X118805565Y-94099996D01*
X118785369Y-93920750D01*
X118785368Y-93920745D01*
X118725789Y-93750478D01*
X118629816Y-93597738D01*
X118502262Y-93470184D01*
X118481961Y-93457428D01*
X118349523Y-93374211D01*
X118179254Y-93314631D01*
X118179249Y-93314630D01*
X118000004Y-93294435D01*
X117999996Y-93294435D01*
X117820750Y-93314630D01*
X117820745Y-93314631D01*
X117653604Y-93373117D01*
X117583825Y-93376678D01*
X117523197Y-93341949D01*
X117490970Y-93279956D01*
X117493182Y-93227007D01*
X117492581Y-93226895D01*
X117493361Y-93222721D01*
X117493385Y-93222132D01*
X117493634Y-93221260D01*
X117514137Y-93000000D01*
X117493634Y-92778740D01*
X117432824Y-92565016D01*
X117405665Y-92510474D01*
X117366602Y-92432024D01*
X117333778Y-92366104D01*
X117199868Y-92188778D01*
X117199866Y-92188775D01*
X117035655Y-92039078D01*
X117035653Y-92039076D01*
X116846733Y-91922102D01*
X116846727Y-91922100D01*
X116649322Y-91845624D01*
X116593925Y-91803054D01*
X116570334Y-91737287D01*
X116586045Y-91669207D01*
X116636069Y-91620428D01*
X116649308Y-91614380D01*
X116846730Y-91537899D01*
X117035655Y-91420922D01*
X117192079Y-91278323D01*
X117199866Y-91271224D01*
X117200474Y-91270419D01*
X117215890Y-91250005D01*
X118244357Y-91250005D01*
X118264890Y-91497812D01*
X118264892Y-91497824D01*
X118325936Y-91738881D01*
X118425826Y-91966606D01*
X118561833Y-92174782D01*
X118574715Y-92188775D01*
X118730256Y-92357738D01*
X118926491Y-92510474D01*
X118926493Y-92510475D01*
X119129917Y-92620563D01*
X119145190Y-92628828D01*
X119380386Y-92709571D01*
X119625665Y-92750500D01*
X119874335Y-92750500D01*
X120119614Y-92709571D01*
X120354810Y-92628828D01*
X120573509Y-92510474D01*
X120769744Y-92357738D01*
X120938164Y-92174785D01*
X121074173Y-91966607D01*
X121174063Y-91738881D01*
X121235108Y-91497821D01*
X121236271Y-91483791D01*
X121255643Y-91250005D01*
X124744357Y-91250005D01*
X124764890Y-91497812D01*
X124764892Y-91497824D01*
X124825936Y-91738881D01*
X124925826Y-91966606D01*
X125061833Y-92174782D01*
X125074715Y-92188775D01*
X125230256Y-92357738D01*
X125426491Y-92510474D01*
X125426493Y-92510475D01*
X125629917Y-92620563D01*
X125645190Y-92628828D01*
X125880386Y-92709571D01*
X126125665Y-92750500D01*
X126374335Y-92750500D01*
X126619614Y-92709571D01*
X126854810Y-92628828D01*
X127073509Y-92510474D01*
X127269744Y-92357738D01*
X127438164Y-92174785D01*
X127574173Y-91966607D01*
X127674063Y-91738881D01*
X127735108Y-91497821D01*
X127736271Y-91483791D01*
X127755643Y-91250005D01*
X127755643Y-91249994D01*
X127735109Y-91002187D01*
X127735107Y-91002175D01*
X127674063Y-90761118D01*
X127574173Y-90533393D01*
X127438166Y-90325217D01*
X127411291Y-90296023D01*
X127269744Y-90142262D01*
X127073509Y-89989526D01*
X127073507Y-89989525D01*
X127073506Y-89989524D01*
X126854811Y-89871172D01*
X126854802Y-89871169D01*
X126619616Y-89790429D01*
X126374335Y-89749500D01*
X126125665Y-89749500D01*
X125880383Y-89790429D01*
X125645197Y-89871169D01*
X125645188Y-89871172D01*
X125426493Y-89989524D01*
X125230257Y-90142261D01*
X125061833Y-90325217D01*
X124925826Y-90533393D01*
X124825936Y-90761118D01*
X124764892Y-91002175D01*
X124764890Y-91002187D01*
X124744357Y-91249994D01*
X124744357Y-91250005D01*
X121255643Y-91250005D01*
X121255643Y-91249994D01*
X121235109Y-91002187D01*
X121235107Y-91002175D01*
X121174063Y-90761118D01*
X121074173Y-90533393D01*
X120938166Y-90325217D01*
X120911291Y-90296023D01*
X120769744Y-90142262D01*
X120573509Y-89989526D01*
X120573507Y-89989525D01*
X120573506Y-89989524D01*
X120354811Y-89871172D01*
X120354802Y-89871169D01*
X120119616Y-89790429D01*
X119874335Y-89749500D01*
X119625665Y-89749500D01*
X119380383Y-89790429D01*
X119145197Y-89871169D01*
X119145188Y-89871172D01*
X118926493Y-89989524D01*
X118730257Y-90142261D01*
X118561833Y-90325217D01*
X118425826Y-90533393D01*
X118325936Y-90761118D01*
X118264892Y-91002175D01*
X118264890Y-91002187D01*
X118244357Y-91249994D01*
X118244357Y-91250005D01*
X117215890Y-91250005D01*
X117333778Y-91093896D01*
X117432824Y-90894984D01*
X117493634Y-90681260D01*
X117514137Y-90460000D01*
X117513313Y-90451113D01*
X117493634Y-90238740D01*
X117493633Y-90238738D01*
X117491921Y-90232722D01*
X117432824Y-90025016D01*
X117414749Y-89988717D01*
X117356219Y-89871172D01*
X117333778Y-89826104D01*
X117199868Y-89648778D01*
X117199866Y-89648775D01*
X117035655Y-89499078D01*
X117035653Y-89499076D01*
X116846733Y-89382102D01*
X116846727Y-89382100D01*
X116649322Y-89305624D01*
X116593925Y-89263054D01*
X116570334Y-89197287D01*
X116586045Y-89129207D01*
X116636069Y-89080428D01*
X116649308Y-89074380D01*
X116846730Y-88997899D01*
X117035655Y-88880922D01*
X117195455Y-88735245D01*
X117199866Y-88731224D01*
X117199868Y-88731222D01*
X117333778Y-88553896D01*
X117432824Y-88354984D01*
X117493634Y-88141260D01*
X117514137Y-87920000D01*
X117510590Y-87881716D01*
X117493634Y-87698739D01*
X117488515Y-87680749D01*
X117489101Y-87610882D01*
X117520098Y-87559135D01*
X118073919Y-87005315D01*
X118135237Y-86971833D01*
X118204928Y-86976817D01*
X118260862Y-87018688D01*
X118281800Y-87062558D01*
X118326408Y-87238707D01*
X118326411Y-87238715D01*
X118426267Y-87466367D01*
X118562227Y-87674470D01*
X118586753Y-87701113D01*
X119229972Y-87057894D01*
X119322075Y-87177925D01*
X119442104Y-87270026D01*
X118800418Y-87911712D01*
X118926768Y-88010055D01*
X118926771Y-88010057D01*
X119145385Y-88128364D01*
X119145396Y-88128369D01*
X119380506Y-88209083D01*
X119625707Y-88250000D01*
X119874293Y-88250000D01*
X120119493Y-88209083D01*
X120354603Y-88128369D01*
X120354614Y-88128364D01*
X120573230Y-88010056D01*
X120573235Y-88010052D01*
X120699580Y-87911713D01*
X120699580Y-87911712D01*
X120057894Y-87270026D01*
X120177925Y-87177925D01*
X120270026Y-87057895D01*
X120913244Y-87701113D01*
X120913246Y-87701113D01*
X120937769Y-87674475D01*
X121073732Y-87466367D01*
X121173587Y-87238717D01*
X121234612Y-86997738D01*
X121234614Y-86997729D01*
X121255141Y-86750005D01*
X121255141Y-86749994D01*
X121234614Y-86502270D01*
X121234612Y-86502261D01*
X121173587Y-86261282D01*
X121073732Y-86033632D01*
X120937770Y-85825525D01*
X120912876Y-85798484D01*
X120881953Y-85735830D01*
X120889813Y-85666404D01*
X120933959Y-85612248D01*
X121000376Y-85590556D01*
X121004105Y-85590500D01*
X124995895Y-85590500D01*
X125062934Y-85610185D01*
X125108689Y-85662989D01*
X125118633Y-85732147D01*
X125089608Y-85795703D01*
X125087124Y-85798484D01*
X125062229Y-85825525D01*
X124926267Y-86033632D01*
X124826412Y-86261282D01*
X124765387Y-86502261D01*
X124765385Y-86502270D01*
X124744859Y-86749994D01*
X124744859Y-86750005D01*
X124765385Y-86997729D01*
X124765387Y-86997738D01*
X124826412Y-87238717D01*
X124926267Y-87466367D01*
X125062227Y-87674470D01*
X125086753Y-87701113D01*
X125729972Y-87057894D01*
X125822075Y-87177925D01*
X125942104Y-87270026D01*
X125300418Y-87911712D01*
X125426768Y-88010055D01*
X125426771Y-88010057D01*
X125645385Y-88128364D01*
X125645396Y-88128369D01*
X125880506Y-88209083D01*
X126125707Y-88250000D01*
X126374293Y-88250000D01*
X126619493Y-88209083D01*
X126854603Y-88128369D01*
X126854614Y-88128364D01*
X127073230Y-88010056D01*
X127073235Y-88010052D01*
X127199580Y-87911713D01*
X127199580Y-87911712D01*
X126557894Y-87270026D01*
X126677925Y-87177925D01*
X126770026Y-87057895D01*
X127413244Y-87701113D01*
X127413246Y-87701113D01*
X127437769Y-87674475D01*
X127573732Y-87466367D01*
X127673587Y-87238717D01*
X127734612Y-86997738D01*
X127734614Y-86997729D01*
X127755141Y-86750005D01*
X127755141Y-86749994D01*
X127734614Y-86502270D01*
X127734612Y-86502261D01*
X127673587Y-86261282D01*
X127573732Y-86033632D01*
X127437770Y-85825525D01*
X127413245Y-85798885D01*
X126770026Y-86442104D01*
X126677925Y-86322075D01*
X126557894Y-86229972D01*
X127199580Y-85588286D01*
X127199033Y-85579470D01*
X127214526Y-85511340D01*
X127247307Y-85473411D01*
X127319154Y-85418282D01*
X127340855Y-85389999D01*
X127346183Y-85383922D01*
X127688956Y-85041149D01*
X127750277Y-85007666D01*
X127819969Y-85012650D01*
X127875902Y-85054522D01*
X127889016Y-85076425D01*
X127912898Y-85127639D01*
X128038402Y-85306877D01*
X128193123Y-85461598D01*
X128372361Y-85587102D01*
X128570670Y-85679575D01*
X128782023Y-85736207D01*
X128964926Y-85752208D01*
X128999998Y-85755277D01*
X129000000Y-85755277D01*
X129000002Y-85755277D01*
X129028254Y-85752805D01*
X129217977Y-85736207D01*
X129429330Y-85679575D01*
X129627639Y-85587102D01*
X129806877Y-85461598D01*
X129961598Y-85306877D01*
X130087102Y-85127639D01*
X130179575Y-84929330D01*
X130236207Y-84717977D01*
X130255277Y-84500000D01*
X130255276Y-84499994D01*
X130248119Y-84418179D01*
X130236207Y-84282023D01*
X130233967Y-84273663D01*
X130235626Y-84203816D01*
X130266055Y-84153889D01*
X130453128Y-83966816D01*
X130514451Y-83933334D01*
X130540808Y-83930500D01*
X130756304Y-83930500D01*
X130823343Y-83950185D01*
X130869098Y-84002989D01*
X130879042Y-84072147D01*
X130876079Y-84086593D01*
X130823714Y-84282020D01*
X130823714Y-84282022D01*
X130823714Y-84282023D01*
X130821957Y-84302102D01*
X130804644Y-84499997D01*
X130804644Y-84500002D01*
X130823714Y-84717975D01*
X130823714Y-84717979D01*
X130880343Y-84929322D01*
X130880345Y-84929326D01*
X130880346Y-84929330D01*
X130913300Y-85000000D01*
X130972818Y-85127638D01*
X130986794Y-85147597D01*
X131098323Y-85306877D01*
X131253044Y-85461598D01*
X131432282Y-85587102D01*
X131630591Y-85679575D01*
X131841944Y-85736207D01*
X132024847Y-85752208D01*
X132059919Y-85755277D01*
X132059921Y-85755277D01*
X132059923Y-85755277D01*
X132088175Y-85752805D01*
X132277898Y-85736207D01*
X132489251Y-85679575D01*
X132687560Y-85587102D01*
X132866798Y-85461598D01*
X133021519Y-85306877D01*
X133096092Y-85200374D01*
X133150668Y-85156750D01*
X133184961Y-85149438D01*
X133184863Y-85148818D01*
X133192561Y-85147598D01*
X133192563Y-85147597D01*
X133192569Y-85147597D01*
X133212956Y-85141673D01*
X133231996Y-85137731D01*
X133253058Y-85135071D01*
X133298235Y-85117183D01*
X133303735Y-85115300D01*
X133350398Y-85101744D01*
X133368665Y-85090939D01*
X133386136Y-85082380D01*
X133405871Y-85074568D01*
X133445177Y-85046010D01*
X133450043Y-85042813D01*
X133489293Y-85019602D01*
X133491860Y-85018084D01*
X133491860Y-85018083D01*
X133491865Y-85018081D01*
X133506870Y-85003075D01*
X133521668Y-84990436D01*
X133538837Y-84977963D01*
X133569809Y-84940522D01*
X133573723Y-84936221D01*
X135432322Y-83077623D01*
X135493641Y-83044141D01*
X135563333Y-83049125D01*
X135607680Y-83077626D01*
X136729564Y-84199510D01*
X136739635Y-84212080D01*
X136739822Y-84211926D01*
X136748549Y-84222474D01*
X136776118Y-84286675D01*
X136764601Y-84355589D01*
X136750864Y-84377681D01*
X136689531Y-84456483D01*
X136689527Y-84456488D01*
X136585253Y-84649170D01*
X136536033Y-84698760D01*
X136467816Y-84713868D01*
X136402261Y-84689697D01*
X136400036Y-84688006D01*
X136358533Y-84655703D01*
X136273509Y-84589526D01*
X136150559Y-84522989D01*
X136054811Y-84471172D01*
X136054802Y-84471169D01*
X135819616Y-84390429D01*
X135574335Y-84349500D01*
X135325665Y-84349500D01*
X135080383Y-84390429D01*
X134845197Y-84471169D01*
X134845188Y-84471172D01*
X134626493Y-84589524D01*
X134430257Y-84742261D01*
X134261833Y-84925217D01*
X134125826Y-85133393D01*
X134025936Y-85361118D01*
X133964892Y-85602175D01*
X133964890Y-85602186D01*
X133949500Y-85787935D01*
X133949500Y-86912065D01*
X133964890Y-87097813D01*
X133964892Y-87097824D01*
X134025936Y-87338881D01*
X134125826Y-87566606D01*
X134261833Y-87774782D01*
X134261836Y-87774785D01*
X134430256Y-87957738D01*
X134626491Y-88110474D01*
X134845190Y-88228828D01*
X135080386Y-88309571D01*
X135325665Y-88350500D01*
X135574335Y-88350500D01*
X135819614Y-88309571D01*
X136054810Y-88228828D01*
X136273509Y-88110474D01*
X136469744Y-87957738D01*
X136638164Y-87774785D01*
X136774173Y-87566607D01*
X136874063Y-87338881D01*
X136935108Y-87097821D01*
X136950500Y-86912067D01*
X136950500Y-86648482D01*
X136970185Y-86581443D01*
X137022989Y-86535688D01*
X137092147Y-86525744D01*
X137142319Y-86544672D01*
X137233393Y-86604173D01*
X137321255Y-86642713D01*
X137461118Y-86704063D01*
X137702175Y-86765107D01*
X137702179Y-86765108D01*
X137702181Y-86765108D01*
X137702186Y-86765109D01*
X137835376Y-86776145D01*
X137887933Y-86780500D01*
X138099610Y-86780500D01*
X138166649Y-86800185D01*
X138212404Y-86852989D01*
X138222348Y-86922147D01*
X138208665Y-86963515D01*
X138182008Y-87012774D01*
X138121172Y-87125188D01*
X138121169Y-87125197D01*
X138040429Y-87360383D01*
X137999500Y-87605665D01*
X137999500Y-87854334D01*
X138040429Y-88099616D01*
X138121169Y-88334802D01*
X138121172Y-88334811D01*
X138239524Y-88553506D01*
X138239526Y-88553509D01*
X138392262Y-88749744D01*
X138534762Y-88880924D01*
X138575217Y-88918166D01*
X138783393Y-89054173D01*
X139011118Y-89154063D01*
X139181806Y-89197287D01*
X139252179Y-89215108D01*
X139252181Y-89215108D01*
X139252186Y-89215109D01*
X139385376Y-89226145D01*
X139437933Y-89230500D01*
X139437935Y-89230500D01*
X140562065Y-89230500D01*
X140562067Y-89230500D01*
X140623284Y-89225427D01*
X140747813Y-89215109D01*
X140747816Y-89215108D01*
X140747821Y-89215108D01*
X140988881Y-89154063D01*
X141216607Y-89054173D01*
X141424785Y-88918164D01*
X141607738Y-88749744D01*
X141760474Y-88553509D01*
X141878828Y-88334810D01*
X141959571Y-88099614D01*
X142000500Y-87854335D01*
X142000500Y-87605665D01*
X141979880Y-87482094D01*
X141988262Y-87412730D01*
X142032815Y-87358908D01*
X142099394Y-87337718D01*
X142152000Y-87348131D01*
X142211117Y-87374062D01*
X142211114Y-87374062D01*
X142422566Y-87427609D01*
X142452179Y-87435108D01*
X142452181Y-87435108D01*
X142452186Y-87435109D01*
X142585376Y-87446145D01*
X142637933Y-87450500D01*
X142637935Y-87450500D01*
X143762065Y-87450500D01*
X143762067Y-87450500D01*
X143823284Y-87445427D01*
X143947813Y-87435109D01*
X143947816Y-87435108D01*
X143947821Y-87435108D01*
X144188881Y-87374063D01*
X144224274Y-87358538D01*
X144325690Y-87314053D01*
X144394990Y-87305150D01*
X144458102Y-87335127D01*
X144494989Y-87394466D01*
X144499500Y-87427609D01*
X144499500Y-93572390D01*
X144479815Y-93639429D01*
X144427011Y-93685184D01*
X144357853Y-93695128D01*
X144325690Y-93685946D01*
X144188881Y-93625937D01*
X143942850Y-93563633D01*
X143943296Y-93561871D01*
X143887547Y-93534863D01*
X143851119Y-93475240D01*
X143848386Y-93462414D01*
X143847597Y-93457435D01*
X143847597Y-93457430D01*
X143841676Y-93437052D01*
X143837731Y-93418003D01*
X143835071Y-93396942D01*
X143817186Y-93351772D01*
X143815297Y-93346252D01*
X143801743Y-93299599D01*
X143797068Y-93291695D01*
X143790939Y-93281332D01*
X143782379Y-93263858D01*
X143781351Y-93261262D01*
X143774568Y-93244129D01*
X143746014Y-93204828D01*
X143742810Y-93199950D01*
X143718082Y-93158137D01*
X143718081Y-93158135D01*
X143703075Y-93143129D01*
X143690435Y-93128330D01*
X143677961Y-93111160D01*
X143640528Y-93080194D01*
X143636206Y-93076260D01*
X142080434Y-91520488D01*
X142070361Y-91507914D01*
X142070174Y-91508070D01*
X142065201Y-91502059D01*
X142012756Y-91452810D01*
X141991035Y-91431089D01*
X141985240Y-91426594D01*
X141980798Y-91422799D01*
X141945396Y-91389554D01*
X141945388Y-91389548D01*
X141926792Y-91379325D01*
X141910531Y-91368644D01*
X141893763Y-91355637D01*
X141870180Y-91345432D01*
X141849178Y-91336343D01*
X141843956Y-91333786D01*
X141801368Y-91310373D01*
X141801365Y-91310372D01*
X141780801Y-91305092D01*
X141762396Y-91298790D01*
X141742927Y-91290365D01*
X141742921Y-91290363D01*
X141694951Y-91282766D01*
X141689236Y-91281582D01*
X141672772Y-91277355D01*
X141642180Y-91269500D01*
X141642177Y-91269500D01*
X141620955Y-91269500D01*
X141601555Y-91267973D01*
X141580596Y-91264653D01*
X141580595Y-91264653D01*
X141556786Y-91266903D01*
X141532230Y-91269225D01*
X141526392Y-91269500D01*
X130665504Y-91269500D01*
X130649493Y-91267732D01*
X130649471Y-91267974D01*
X130641704Y-91267240D01*
X130641703Y-91267240D01*
X130569796Y-91269500D01*
X130539075Y-91269500D01*
X130539071Y-91269500D01*
X130539061Y-91269501D01*
X130531793Y-91270419D01*
X130525976Y-91270876D01*
X130477435Y-91272402D01*
X130477424Y-91272404D01*
X130457048Y-91278323D01*
X130438008Y-91282266D01*
X130416947Y-91284927D01*
X130416939Y-91284929D01*
X130371775Y-91302811D01*
X130366247Y-91304703D01*
X130319602Y-91318255D01*
X130301332Y-91329060D01*
X130283863Y-91337618D01*
X130264128Y-91345432D01*
X130264126Y-91345433D01*
X130224839Y-91373977D01*
X130219956Y-91377184D01*
X130178132Y-91401919D01*
X130163126Y-91416926D01*
X130148336Y-91429558D01*
X130131167Y-91442032D01*
X130131165Y-91442034D01*
X130100194Y-91479470D01*
X130096262Y-91483791D01*
X129346113Y-92233939D01*
X129284790Y-92267424D01*
X129226346Y-92266035D01*
X129217983Y-92263794D01*
X129217970Y-92263792D01*
X129000002Y-92244723D01*
X128999998Y-92244723D01*
X128877752Y-92255418D01*
X128782023Y-92263793D01*
X128782020Y-92263793D01*
X128570677Y-92320422D01*
X128570668Y-92320426D01*
X128372361Y-92412898D01*
X128372357Y-92412900D01*
X128193121Y-92538402D01*
X128038402Y-92693121D01*
X127912900Y-92872357D01*
X127912898Y-92872361D01*
X127820426Y-93070668D01*
X127820422Y-93070677D01*
X127763793Y-93282020D01*
X127763793Y-93282024D01*
X127744723Y-93499997D01*
X127744723Y-93500002D01*
X127746204Y-93516929D01*
X127756937Y-93639616D01*
X127763793Y-93717975D01*
X127763793Y-93717979D01*
X127820421Y-93929317D01*
X127820423Y-93929322D01*
X127820425Y-93929330D01*
X127848244Y-93988987D01*
X127912897Y-94127638D01*
X127912898Y-94127639D01*
X128038402Y-94306877D01*
X128193123Y-94461598D01*
X128372361Y-94587102D01*
X128570670Y-94679575D01*
X128570676Y-94679576D01*
X128570677Y-94679577D01*
X128601364Y-94687799D01*
X128782023Y-94736207D01*
X128964926Y-94752208D01*
X128999998Y-94755277D01*
X129000000Y-94755277D01*
X129000002Y-94755277D01*
X129028254Y-94752805D01*
X129217977Y-94736207D01*
X129429330Y-94679575D01*
X129627639Y-94587102D01*
X129806877Y-94461598D01*
X129961598Y-94306877D01*
X130087102Y-94127639D01*
X130179575Y-93929330D01*
X130179577Y-93929320D01*
X130179579Y-93929317D01*
X130214929Y-93797387D01*
X130236207Y-93717977D01*
X130253796Y-93516929D01*
X130255277Y-93500002D01*
X130255277Y-93499997D01*
X130249589Y-93434984D01*
X130236207Y-93282023D01*
X130233967Y-93273663D01*
X130235626Y-93203816D01*
X130266057Y-93153887D01*
X130813127Y-92606819D01*
X130874450Y-92573334D01*
X130900808Y-92570500D01*
X130945983Y-92570500D01*
X131013022Y-92590185D01*
X131058777Y-92642989D01*
X131068721Y-92712147D01*
X131047558Y-92765623D01*
X130972821Y-92872357D01*
X130972819Y-92872361D01*
X130880347Y-93070668D01*
X130880343Y-93070677D01*
X130823714Y-93282020D01*
X130823714Y-93282024D01*
X130804644Y-93499997D01*
X130804644Y-93500002D01*
X130806125Y-93516929D01*
X130816858Y-93639616D01*
X130823714Y-93717975D01*
X130823714Y-93717979D01*
X130880342Y-93929317D01*
X130880344Y-93929322D01*
X130880346Y-93929330D01*
X130908165Y-93988987D01*
X130972818Y-94127638D01*
X130972819Y-94127639D01*
X131098323Y-94306877D01*
X131253044Y-94461598D01*
X131432282Y-94587102D01*
X131630591Y-94679575D01*
X131630597Y-94679576D01*
X131630598Y-94679577D01*
X131661285Y-94687799D01*
X131841944Y-94736207D01*
X132024847Y-94752208D01*
X132059919Y-94755277D01*
X132059921Y-94755277D01*
X132059923Y-94755277D01*
X132088175Y-94752805D01*
X132277898Y-94736207D01*
X132489251Y-94679575D01*
X132687560Y-94587102D01*
X132866798Y-94461598D01*
X133021519Y-94306877D01*
X133147023Y-94127639D01*
X133239496Y-93929330D01*
X133239498Y-93929320D01*
X133239500Y-93929317D01*
X133274850Y-93797387D01*
X133296128Y-93717977D01*
X133313717Y-93516929D01*
X133315198Y-93500002D01*
X133315198Y-93499997D01*
X133309510Y-93434984D01*
X133296128Y-93282023D01*
X133241817Y-93079331D01*
X133239498Y-93070677D01*
X133239497Y-93070676D01*
X133239496Y-93070670D01*
X133147023Y-92872362D01*
X133147021Y-92872359D01*
X133147020Y-92872357D01*
X133072284Y-92765623D01*
X133049957Y-92699417D01*
X133066967Y-92631650D01*
X133117915Y-92583837D01*
X133173859Y-92570500D01*
X134726334Y-92570500D01*
X134793373Y-92590185D01*
X134839128Y-92642989D01*
X134849072Y-92712147D01*
X134820047Y-92775703D01*
X134785351Y-92803555D01*
X134626496Y-92889522D01*
X134626494Y-92889523D01*
X134430257Y-93042261D01*
X134261833Y-93225217D01*
X134125826Y-93433393D01*
X134025936Y-93661118D01*
X133964892Y-93902175D01*
X133964890Y-93902186D01*
X133955922Y-94010425D01*
X133950332Y-94077899D01*
X133949500Y-94087935D01*
X133949500Y-95212065D01*
X133964890Y-95397813D01*
X133964892Y-95397824D01*
X134025936Y-95638881D01*
X134125826Y-95866606D01*
X134261833Y-96074782D01*
X134261836Y-96074785D01*
X134430256Y-96257738D01*
X134626491Y-96410474D01*
X134655563Y-96426207D01*
X134843410Y-96527865D01*
X134845190Y-96528828D01*
X135080386Y-96609571D01*
X135325665Y-96650500D01*
X135574335Y-96650500D01*
X135819614Y-96609571D01*
X136054810Y-96528828D01*
X136273509Y-96410474D01*
X136400036Y-96311994D01*
X136465030Y-96286351D01*
X136533570Y-96299917D01*
X136583894Y-96348386D01*
X136585244Y-96350814D01*
X136608502Y-96393790D01*
X136686812Y-96538495D01*
X136689526Y-96543509D01*
X136842262Y-96739744D01*
X136984619Y-96870793D01*
X137025217Y-96908166D01*
X137233393Y-97044173D01*
X137461118Y-97144063D01*
X137609348Y-97181600D01*
X137702179Y-97205108D01*
X137702181Y-97205108D01*
X137702186Y-97205109D01*
X137835376Y-97216145D01*
X137887933Y-97220500D01*
X137887935Y-97220500D01*
X139012065Y-97220500D01*
X139012067Y-97220500D01*
X139073284Y-97215427D01*
X139197813Y-97205109D01*
X139197816Y-97205108D01*
X139197821Y-97205108D01*
X139438881Y-97144063D01*
X139666607Y-97044173D01*
X139874785Y-96908164D01*
X140057738Y-96739744D01*
X140210474Y-96543509D01*
X140328828Y-96324810D01*
X140409571Y-96089614D01*
X140450500Y-95844335D01*
X140450500Y-95595665D01*
X140409571Y-95350386D01*
X140328828Y-95115190D01*
X140241334Y-94953516D01*
X140226740Y-94885189D01*
X140251403Y-94819817D01*
X140307493Y-94778156D01*
X140350390Y-94770500D01*
X140562065Y-94770500D01*
X140562067Y-94770500D01*
X140623284Y-94765427D01*
X140747813Y-94755109D01*
X140747816Y-94755108D01*
X140747821Y-94755108D01*
X140988881Y-94694063D01*
X141048000Y-94668130D01*
X141117298Y-94659227D01*
X141180411Y-94689203D01*
X141217298Y-94748542D01*
X141220119Y-94802095D01*
X141199500Y-94925664D01*
X141199500Y-94925665D01*
X141199500Y-95174335D01*
X141202114Y-95190000D01*
X141240429Y-95419616D01*
X141321169Y-95654802D01*
X141321172Y-95654811D01*
X141437864Y-95870438D01*
X141439526Y-95873509D01*
X141592262Y-96069744D01*
X141745191Y-96210525D01*
X141775217Y-96238166D01*
X141983393Y-96374173D01*
X142211118Y-96474063D01*
X142417042Y-96526210D01*
X142452179Y-96535108D01*
X142452181Y-96535108D01*
X142452186Y-96535109D01*
X142576928Y-96545445D01*
X142637933Y-96550500D01*
X143240192Y-96550500D01*
X143307231Y-96570185D01*
X143352986Y-96622989D01*
X143362930Y-96692147D01*
X143333905Y-96755703D01*
X143327873Y-96762181D01*
X142354000Y-97736052D01*
X142292677Y-97769537D01*
X142234231Y-97768147D01*
X142217985Y-97763794D01*
X142217978Y-97763793D01*
X142217977Y-97763793D01*
X142108988Y-97754258D01*
X142000002Y-97744723D01*
X141999998Y-97744723D01*
X141854682Y-97757436D01*
X141782023Y-97763793D01*
X141782020Y-97763793D01*
X141570677Y-97820422D01*
X141570668Y-97820426D01*
X141372361Y-97912898D01*
X141372357Y-97912900D01*
X141193121Y-98038402D01*
X141038402Y-98193121D01*
X140912900Y-98372357D01*
X140912898Y-98372362D01*
X140862382Y-98480693D01*
X140816209Y-98533132D01*
X140749016Y-98552284D01*
X140682135Y-98532068D01*
X140637618Y-98480693D01*
X140627483Y-98458958D01*
X140587102Y-98372362D01*
X140587099Y-98372358D01*
X140587099Y-98372357D01*
X140461599Y-98193124D01*
X140390507Y-98122032D01*
X140306877Y-98038402D01*
X140127639Y-97912898D01*
X140127640Y-97912898D01*
X140127638Y-97912897D01*
X140011492Y-97858738D01*
X139929330Y-97820425D01*
X139929326Y-97820424D01*
X139929322Y-97820422D01*
X139717977Y-97763793D01*
X139500002Y-97744723D01*
X139499998Y-97744723D01*
X139354682Y-97757436D01*
X139282023Y-97763793D01*
X139282020Y-97763793D01*
X139070677Y-97820422D01*
X139070668Y-97820426D01*
X138872361Y-97912898D01*
X138872357Y-97912900D01*
X138693121Y-98038402D01*
X138538402Y-98193121D01*
X138412900Y-98372357D01*
X138412898Y-98372361D01*
X138320426Y-98570668D01*
X138320422Y-98570677D01*
X138263793Y-98782020D01*
X138263793Y-98782024D01*
X138244723Y-98999997D01*
X138244723Y-99000002D01*
X138263793Y-99217975D01*
X138263793Y-99217979D01*
X138320422Y-99429322D01*
X138320424Y-99429326D01*
X138320425Y-99429330D01*
X138350482Y-99493787D01*
X138412897Y-99627638D01*
X138435191Y-99659476D01*
X138538402Y-99806877D01*
X138693123Y-99961598D01*
X138872361Y-100087102D01*
X139070670Y-100179575D01*
X139282023Y-100236207D01*
X139464926Y-100252208D01*
X139499998Y-100255277D01*
X139500000Y-100255277D01*
X139500002Y-100255277D01*
X139528254Y-100252805D01*
X139717977Y-100236207D01*
X139929330Y-100179575D01*
X140127639Y-100087102D01*
X140306877Y-99961598D01*
X140461598Y-99806877D01*
X140587102Y-99627639D01*
X140637618Y-99519306D01*
X140683790Y-99466867D01*
X140750984Y-99447715D01*
X140817865Y-99467931D01*
X140862381Y-99519306D01*
X140912898Y-99627639D01*
X141038402Y-99806877D01*
X141193123Y-99961598D01*
X141372361Y-100087102D01*
X141570670Y-100179575D01*
X141782023Y-100236207D01*
X141964926Y-100252208D01*
X141999998Y-100255277D01*
X142000000Y-100255277D01*
X142000002Y-100255277D01*
X142028254Y-100252805D01*
X142217977Y-100236207D01*
X142429330Y-100179575D01*
X142627639Y-100087102D01*
X142806877Y-99961598D01*
X142961598Y-99806877D01*
X143087102Y-99627639D01*
X143137618Y-99519306D01*
X143183790Y-99466867D01*
X143250984Y-99447715D01*
X143317865Y-99467931D01*
X143362381Y-99519306D01*
X143412898Y-99627639D01*
X143538402Y-99806877D01*
X143693123Y-99961598D01*
X143872361Y-100087102D01*
X144070670Y-100179575D01*
X144282023Y-100236207D01*
X144464926Y-100252208D01*
X144499998Y-100255277D01*
X144500000Y-100255277D01*
X144500002Y-100255277D01*
X144528254Y-100252805D01*
X144717977Y-100236207D01*
X144929330Y-100179575D01*
X145127639Y-100087102D01*
X145306877Y-99961598D01*
X145461598Y-99806877D01*
X145587102Y-99627639D01*
X145679575Y-99429330D01*
X145736207Y-99217977D01*
X145751972Y-99037778D01*
X145766199Y-99001405D01*
X145756523Y-98986349D01*
X145751972Y-98962221D01*
X145745888Y-98892682D01*
X145736207Y-98782023D01*
X145690783Y-98612497D01*
X145679577Y-98570677D01*
X145679576Y-98570676D01*
X145679575Y-98570670D01*
X145587102Y-98372362D01*
X145587100Y-98372359D01*
X145587099Y-98372357D01*
X145461599Y-98193124D01*
X145390507Y-98122032D01*
X145306877Y-98038402D01*
X145127639Y-97912898D01*
X145127640Y-97912898D01*
X145127638Y-97912897D01*
X145011492Y-97858738D01*
X144929330Y-97820425D01*
X144929326Y-97820424D01*
X144929322Y-97820422D01*
X144717977Y-97763793D01*
X144500002Y-97744723D01*
X144499994Y-97744723D01*
X144494422Y-97745210D01*
X144425923Y-97731437D01*
X144375744Y-97682818D01*
X144359817Y-97614788D01*
X144383198Y-97548946D01*
X144395938Y-97534006D01*
X145549513Y-96380431D01*
X145562079Y-96370365D01*
X145561925Y-96370178D01*
X145567937Y-96365204D01*
X145567937Y-96365203D01*
X145567940Y-96365202D01*
X145617190Y-96312755D01*
X145638912Y-96291034D01*
X145643402Y-96285244D01*
X145647184Y-96280814D01*
X145680448Y-96245393D01*
X145690674Y-96226789D01*
X145701347Y-96210541D01*
X145714363Y-96193763D01*
X145733652Y-96149187D01*
X145736224Y-96143936D01*
X145736561Y-96143321D01*
X145759627Y-96101368D01*
X145764904Y-96080808D01*
X145771206Y-96062403D01*
X145779636Y-96042926D01*
X145787235Y-95994945D01*
X145788417Y-95989234D01*
X145800500Y-95942177D01*
X145800500Y-95920955D01*
X145802027Y-95901555D01*
X145805347Y-95880595D01*
X145800775Y-95832227D01*
X145800500Y-95826389D01*
X145800500Y-92386784D01*
X145820185Y-92319745D01*
X145872989Y-92273990D01*
X145942147Y-92264046D01*
X145971949Y-92272221D01*
X146103889Y-92326873D01*
X146348852Y-92385683D01*
X146600000Y-92405449D01*
X146851148Y-92385683D01*
X147096111Y-92326873D01*
X147328859Y-92230466D01*
X147543659Y-92098836D01*
X147735224Y-91935224D01*
X147898836Y-91743659D01*
X148030466Y-91528859D01*
X148126873Y-91296111D01*
X148185683Y-91051148D01*
X148200500Y-90862882D01*
X148200500Y-90137118D01*
X148185683Y-89948852D01*
X148126873Y-89703889D01*
X148067935Y-89561600D01*
X148030466Y-89471140D01*
X147898839Y-89256346D01*
X147898838Y-89256343D01*
X147790253Y-89129207D01*
X147735224Y-89064776D01*
X147563566Y-88918166D01*
X147543656Y-88901161D01*
X147543653Y-88901160D01*
X147328859Y-88769533D01*
X147096110Y-88673126D01*
X146851151Y-88614317D01*
X146600000Y-88594551D01*
X146348848Y-88614317D01*
X146103887Y-88673127D01*
X146103885Y-88673127D01*
X145971952Y-88727776D01*
X145902483Y-88735245D01*
X145840004Y-88703970D01*
X145804352Y-88643881D01*
X145800500Y-88613215D01*
X145800500Y-85365502D01*
X145802268Y-85349489D01*
X145802026Y-85349467D01*
X145802758Y-85341711D01*
X145802760Y-85341704D01*
X145800500Y-85269796D01*
X145800500Y-85239075D01*
X145799579Y-85231788D01*
X145799122Y-85225979D01*
X145797597Y-85177431D01*
X145791676Y-85157053D01*
X145787731Y-85138004D01*
X145785071Y-85116942D01*
X145767185Y-85071769D01*
X145765296Y-85066249D01*
X145751743Y-85019600D01*
X145740940Y-85001334D01*
X145732378Y-84983856D01*
X145724568Y-84964129D01*
X145724565Y-84964125D01*
X145696014Y-84924827D01*
X145692811Y-84919951D01*
X145668081Y-84878135D01*
X145668079Y-84878133D01*
X145668078Y-84878131D01*
X145653075Y-84863129D01*
X145640435Y-84848330D01*
X145627961Y-84831160D01*
X145590528Y-84800194D01*
X145586206Y-84796260D01*
X144190434Y-83400488D01*
X144180361Y-83387914D01*
X144180174Y-83388070D01*
X144175201Y-83382059D01*
X144122756Y-83332810D01*
X144101035Y-83311089D01*
X144095240Y-83306594D01*
X144090798Y-83302799D01*
X144055396Y-83269554D01*
X144055388Y-83269548D01*
X144036792Y-83259325D01*
X144020531Y-83248644D01*
X144003763Y-83235637D01*
X143979410Y-83225099D01*
X143959178Y-83216343D01*
X143953956Y-83213786D01*
X143911368Y-83190373D01*
X143911365Y-83190372D01*
X143890801Y-83185092D01*
X143872396Y-83178790D01*
X143852927Y-83170365D01*
X143852921Y-83170363D01*
X143804951Y-83162766D01*
X143799236Y-83161582D01*
X143782772Y-83157355D01*
X143752180Y-83149500D01*
X143752177Y-83149500D01*
X143730955Y-83149500D01*
X143711555Y-83147973D01*
X143690596Y-83144653D01*
X143690595Y-83144653D01*
X143666786Y-83146903D01*
X143642230Y-83149225D01*
X143636392Y-83149500D01*
X137570808Y-83149500D01*
X137503769Y-83129815D01*
X137483127Y-83113181D01*
X136336819Y-81966873D01*
X136303334Y-81905550D01*
X136300500Y-81879192D01*
X136300500Y-79050000D01*
X138504290Y-79050000D01*
X138540916Y-79269492D01*
X138621630Y-79504603D01*
X138621635Y-79504614D01*
X138739942Y-79723228D01*
X138739948Y-79723237D01*
X138892626Y-79919397D01*
X138892635Y-79919407D01*
X139075522Y-80087767D01*
X139075521Y-80087767D01*
X139283632Y-80223732D01*
X139511282Y-80323587D01*
X139752261Y-80384612D01*
X139752269Y-80384614D01*
X139937959Y-80400000D01*
X140650000Y-80400000D01*
X140650000Y-79400000D01*
X140950000Y-79400000D01*
X140950000Y-80400000D01*
X141662041Y-80400000D01*
X141847730Y-80384614D01*
X141847738Y-80384612D01*
X142088717Y-80323587D01*
X142316367Y-80223732D01*
X142524478Y-80087767D01*
X142707364Y-79919407D01*
X142707371Y-79919399D01*
X142750468Y-79864028D01*
X142807177Y-79823214D01*
X142876950Y-79819539D01*
X142937634Y-79854169D01*
X142969962Y-79916110D01*
X142970210Y-79917403D01*
X142988678Y-80016196D01*
X143016559Y-80088164D01*
X143065702Y-80215019D01*
X143177948Y-80396302D01*
X143209507Y-80430920D01*
X143321593Y-80553872D01*
X143491746Y-80682367D01*
X143682606Y-80777403D01*
X143682608Y-80777403D01*
X143682611Y-80777405D01*
X143887690Y-80835756D01*
X144046806Y-80850500D01*
X144046810Y-80850500D01*
X144153190Y-80850500D01*
X144153194Y-80850500D01*
X144312310Y-80835756D01*
X144517389Y-80777405D01*
X144517393Y-80777403D01*
X144517394Y-80777403D01*
X144708253Y-80682367D01*
X144708253Y-80682366D01*
X144708255Y-80682366D01*
X144878407Y-80553872D01*
X145022052Y-80396302D01*
X145134298Y-80215019D01*
X145211321Y-80016198D01*
X145250500Y-79806610D01*
X145250500Y-79593390D01*
X145211321Y-79383802D01*
X145134298Y-79184981D01*
X145022052Y-79003698D01*
X144878407Y-78846128D01*
X144791798Y-78780723D01*
X144708253Y-78717632D01*
X144517393Y-78622596D01*
X144312310Y-78564244D01*
X144153194Y-78549500D01*
X144046806Y-78549500D01*
X143919513Y-78561295D01*
X143887689Y-78564244D01*
X143682607Y-78622596D01*
X143682605Y-78622596D01*
X143491746Y-78717632D01*
X143321590Y-78846130D01*
X143315520Y-78852788D01*
X143255806Y-78889065D01*
X143185959Y-78887299D01*
X143128154Y-78848052D01*
X143100744Y-78783783D01*
X143100312Y-78779476D01*
X143099999Y-78775706D01*
X143059083Y-78530506D01*
X142978369Y-78295396D01*
X142978364Y-78295385D01*
X142860057Y-78076771D01*
X142860051Y-78076762D01*
X142707373Y-77880602D01*
X142707364Y-77880592D01*
X142524477Y-77712232D01*
X142524478Y-77712232D01*
X142316367Y-77576267D01*
X142088717Y-77476412D01*
X141847738Y-77415387D01*
X141847730Y-77415385D01*
X141662041Y-77400000D01*
X140950000Y-77400000D01*
X140950000Y-78400000D01*
X140650000Y-78400000D01*
X140650000Y-77400000D01*
X139937959Y-77400000D01*
X139752269Y-77415385D01*
X139752261Y-77415387D01*
X139511282Y-77476412D01*
X139283632Y-77576267D01*
X139075521Y-77712232D01*
X138892635Y-77880592D01*
X138892626Y-77880602D01*
X138739948Y-78076762D01*
X138739942Y-78076771D01*
X138621635Y-78295385D01*
X138621630Y-78295396D01*
X138540916Y-78530507D01*
X138504290Y-78749999D01*
X138504291Y-78750000D01*
X139522935Y-78750000D01*
X139500000Y-78828111D01*
X139500000Y-78971889D01*
X139522935Y-79050000D01*
X138504290Y-79050000D01*
X136300500Y-79050000D01*
X136300500Y-62705502D01*
X136302268Y-62689489D01*
X136302026Y-62689467D01*
X136302758Y-62681711D01*
X136302760Y-62681704D01*
X136300500Y-62609796D01*
X136300500Y-62579075D01*
X136299579Y-62571788D01*
X136299122Y-62565979D01*
X136297597Y-62517431D01*
X136291676Y-62497053D01*
X136287731Y-62478004D01*
X136285071Y-62456942D01*
X136267185Y-62411769D01*
X136265296Y-62406249D01*
X136251743Y-62359600D01*
X136240940Y-62341334D01*
X136232378Y-62323856D01*
X136224568Y-62304129D01*
X136224565Y-62304125D01*
X136196014Y-62264827D01*
X136192811Y-62259951D01*
X136168081Y-62218135D01*
X136168079Y-62218133D01*
X136168078Y-62218131D01*
X136153075Y-62203129D01*
X136140435Y-62188330D01*
X136127961Y-62171160D01*
X136090528Y-62140194D01*
X136086206Y-62136260D01*
X130930434Y-56980488D01*
X130920361Y-56967914D01*
X130920174Y-56968070D01*
X130915201Y-56962059D01*
X130862756Y-56912810D01*
X130841035Y-56891089D01*
X130835240Y-56886594D01*
X130830798Y-56882799D01*
X130795396Y-56849554D01*
X130795391Y-56849551D01*
X130789563Y-56846347D01*
X130740299Y-56796802D01*
X130725641Y-56728487D01*
X130750243Y-56663092D01*
X130753429Y-56659039D01*
X130835910Y-56558538D01*
X130928814Y-56384727D01*
X130986024Y-56196132D01*
X131005341Y-56000000D01*
X130986024Y-55803868D01*
X130928814Y-55615273D01*
X130928811Y-55615269D01*
X130928811Y-55615266D01*
X130835913Y-55441467D01*
X130835909Y-55441460D01*
X130710883Y-55289116D01*
X130558539Y-55164090D01*
X130558532Y-55164086D01*
X130456143Y-55109358D01*
X130406299Y-55060396D01*
X130390838Y-54992258D01*
X130414670Y-54926579D01*
X130456143Y-54890642D01*
X130534690Y-54848657D01*
X130558538Y-54835910D01*
X130710883Y-54710883D01*
X130835910Y-54558538D01*
X130907039Y-54425465D01*
X130928811Y-54384733D01*
X130928812Y-54384731D01*
X130928814Y-54384727D01*
X130986024Y-54196132D01*
X131005341Y-54000000D01*
X130986024Y-53803868D01*
X130928814Y-53615273D01*
X130928811Y-53615269D01*
X130928811Y-53615266D01*
X130835913Y-53441467D01*
X130835909Y-53441460D01*
X130710883Y-53289116D01*
X130558539Y-53164090D01*
X130553471Y-53160704D01*
X130554654Y-53158932D01*
X130511692Y-53116724D01*
X130496236Y-53048586D01*
X130520073Y-52982908D01*
X130554714Y-52950911D01*
X130666041Y-52881981D01*
X130816764Y-52744579D01*
X130939673Y-52581821D01*
X131030582Y-52399250D01*
X131086397Y-52203083D01*
X131105215Y-52000000D01*
X136894785Y-52000000D01*
X136913602Y-52203082D01*
X136969417Y-52399247D01*
X136969422Y-52399260D01*
X137060327Y-52581821D01*
X137183237Y-52744581D01*
X137333958Y-52881980D01*
X137333960Y-52881982D01*
X137383564Y-52912695D01*
X137507363Y-52989348D01*
X137697544Y-53063024D01*
X137898024Y-53100500D01*
X137898026Y-53100500D01*
X138101974Y-53100500D01*
X138101976Y-53100500D01*
X138302456Y-53063024D01*
X138492637Y-52989348D01*
X138666041Y-52881981D01*
X138816764Y-52744579D01*
X138939673Y-52581821D01*
X139030582Y-52399250D01*
X139086397Y-52203083D01*
X139105215Y-52000000D01*
X139105214Y-51999994D01*
X139086397Y-51796917D01*
X139044909Y-51651104D01*
X139030582Y-51600750D01*
X138939673Y-51418179D01*
X138880704Y-51340091D01*
X138816762Y-51255418D01*
X138666041Y-51118019D01*
X138666039Y-51118017D01*
X138492642Y-51010655D01*
X138492635Y-51010651D01*
X138378233Y-50966332D01*
X138302456Y-50936976D01*
X138101976Y-50899500D01*
X137898024Y-50899500D01*
X137697544Y-50936976D01*
X137697541Y-50936976D01*
X137697541Y-50936977D01*
X137507364Y-51010651D01*
X137507357Y-51010655D01*
X137333960Y-51118017D01*
X137333958Y-51118019D01*
X137183237Y-51255418D01*
X137060327Y-51418178D01*
X136969422Y-51600739D01*
X136969417Y-51600752D01*
X136913602Y-51796917D01*
X136894785Y-51999999D01*
X136894785Y-52000000D01*
X131105215Y-52000000D01*
X131105214Y-51999994D01*
X131086397Y-51796917D01*
X131044909Y-51651104D01*
X131030582Y-51600750D01*
X130939673Y-51418179D01*
X130880704Y-51340091D01*
X130816762Y-51255418D01*
X130666041Y-51118019D01*
X130666039Y-51118017D01*
X130492642Y-51010655D01*
X130492635Y-51010651D01*
X130378233Y-50966332D01*
X130302456Y-50936976D01*
X130101976Y-50899500D01*
X129898024Y-50899500D01*
X129697544Y-50936976D01*
X129697541Y-50936976D01*
X129697541Y-50936977D01*
X129507364Y-51010651D01*
X129507357Y-51010655D01*
X129333960Y-51118017D01*
X129333958Y-51118019D01*
X129183237Y-51255418D01*
X129060327Y-51418178D01*
X128969422Y-51600739D01*
X128969417Y-51600752D01*
X128913602Y-51796917D01*
X128894785Y-51999999D01*
X128894785Y-52000000D01*
X128913602Y-52203082D01*
X128969417Y-52399247D01*
X128969422Y-52399260D01*
X129060327Y-52581821D01*
X129183237Y-52744581D01*
X129333958Y-52881980D01*
X129333960Y-52881982D01*
X129445282Y-52950909D01*
X129491918Y-53002936D01*
X129503022Y-53071918D01*
X129475069Y-53135953D01*
X129445853Y-53159692D01*
X129446529Y-53160704D01*
X129441460Y-53164090D01*
X129289115Y-53289117D01*
X129287221Y-53291426D01*
X129285922Y-53292310D01*
X129284809Y-53293424D01*
X129284597Y-53293212D01*
X129229474Y-53330757D01*
X129159629Y-53332624D01*
X129099862Y-53296434D01*
X129072106Y-53246691D01*
X129030582Y-53100750D01*
X129016225Y-53071918D01*
X128971904Y-52982908D01*
X128939673Y-52918179D01*
X128816764Y-52755421D01*
X128816762Y-52755418D01*
X128666041Y-52618019D01*
X128666039Y-52618017D01*
X128492642Y-52510655D01*
X128492635Y-52510651D01*
X128303705Y-52437460D01*
X128302456Y-52436976D01*
X128101976Y-52399500D01*
X127898024Y-52399500D01*
X127697544Y-52436976D01*
X127697541Y-52436976D01*
X127697541Y-52436977D01*
X127507364Y-52510651D01*
X127507357Y-52510655D01*
X127333960Y-52618017D01*
X127333958Y-52618019D01*
X127183237Y-52755418D01*
X127060327Y-52918178D01*
X126969422Y-53100739D01*
X126969417Y-53100752D01*
X126913602Y-53296917D01*
X126894785Y-53499999D01*
X126894785Y-53500000D01*
X126913602Y-53703082D01*
X126969417Y-53899247D01*
X126969422Y-53899260D01*
X127060327Y-54081821D01*
X127183237Y-54244581D01*
X127312898Y-54362782D01*
X127333959Y-54381981D01*
X127350108Y-54391980D01*
X127354296Y-54394573D01*
X127400931Y-54446601D01*
X127412035Y-54515583D01*
X127384082Y-54579617D01*
X127354296Y-54605427D01*
X127333957Y-54618020D01*
X127183237Y-54755418D01*
X127060327Y-54918178D01*
X126969422Y-55100739D01*
X126969417Y-55100752D01*
X126913602Y-55296917D01*
X126894785Y-55499999D01*
X126894785Y-55500000D01*
X126913602Y-55703082D01*
X126969417Y-55899247D01*
X126969422Y-55899260D01*
X127060327Y-56081821D01*
X127183237Y-56244581D01*
X127219459Y-56277601D01*
X127331576Y-56379809D01*
X127333958Y-56381980D01*
X127333960Y-56381982D01*
X127433141Y-56443392D01*
X127507363Y-56489348D01*
X127507371Y-56489351D01*
X127507373Y-56489352D01*
X127508719Y-56489874D01*
X127509268Y-56490296D01*
X127512497Y-56491904D01*
X127512182Y-56492535D01*
X127564121Y-56532446D01*
X127587711Y-56598213D01*
X127572000Y-56666294D01*
X127521976Y-56715072D01*
X127463925Y-56729500D01*
X123534692Y-56729500D01*
X123467653Y-56709815D01*
X123421898Y-56657011D01*
X123411954Y-56587853D01*
X123440979Y-56524297D01*
X123487380Y-56491645D01*
X123487284Y-56491453D01*
X123488549Y-56490822D01*
X123489898Y-56489874D01*
X123492409Y-56488901D01*
X123492411Y-56488899D01*
X123665735Y-56381581D01*
X123667677Y-56379808D01*
X123120580Y-55832711D01*
X123217947Y-55780019D01*
X123297060Y-55694079D01*
X123330340Y-55618208D01*
X123876618Y-56164487D01*
X123939245Y-56081556D01*
X124030113Y-55899069D01*
X124030116Y-55899063D01*
X124085902Y-55702992D01*
X124085903Y-55702989D01*
X124104713Y-55500000D01*
X124104713Y-55499999D01*
X124085903Y-55297010D01*
X124085902Y-55297007D01*
X124030116Y-55100936D01*
X124030113Y-55100930D01*
X123939244Y-54918440D01*
X123876619Y-54835511D01*
X123876618Y-54835511D01*
X123330957Y-55381173D01*
X123324953Y-55357462D01*
X123261064Y-55259673D01*
X123168885Y-55187928D01*
X123117560Y-55170308D01*
X123667678Y-54620190D01*
X123667677Y-54620189D01*
X123665734Y-54618417D01*
X123665735Y-54618417D01*
X123644751Y-54605424D01*
X123598117Y-54553395D01*
X123587014Y-54484413D01*
X123614969Y-54420380D01*
X123644756Y-54394570D01*
X123665736Y-54381580D01*
X123667677Y-54379808D01*
X123120580Y-53832711D01*
X123217947Y-53780019D01*
X123297060Y-53694079D01*
X123330340Y-53618208D01*
X123876618Y-54164487D01*
X123939245Y-54081556D01*
X124030113Y-53899069D01*
X124030116Y-53899063D01*
X124085902Y-53702992D01*
X124085903Y-53702989D01*
X124104713Y-53500000D01*
X124104713Y-53499999D01*
X124085903Y-53297010D01*
X124085902Y-53297007D01*
X124030116Y-53100936D01*
X124030113Y-53100930D01*
X123939244Y-52918440D01*
X123876619Y-52835511D01*
X123876618Y-52835511D01*
X123330957Y-53381173D01*
X123324953Y-53357462D01*
X123261064Y-53259673D01*
X123168885Y-53187928D01*
X123117560Y-53170308D01*
X123667678Y-52620190D01*
X123667677Y-52620189D01*
X123665737Y-52618420D01*
X123492415Y-52511102D01*
X123302321Y-52437460D01*
X123101928Y-52400000D01*
X122898072Y-52400000D01*
X122697678Y-52437460D01*
X122507584Y-52511102D01*
X122334261Y-52618420D01*
X122332321Y-52620188D01*
X122332321Y-52620189D01*
X122879420Y-53167288D01*
X122782053Y-53219981D01*
X122702940Y-53305921D01*
X122669660Y-53381791D01*
X122123380Y-52835511D01*
X122060754Y-52918443D01*
X121969886Y-53100930D01*
X121969883Y-53100936D01*
X121914097Y-53297007D01*
X121914096Y-53297010D01*
X121895287Y-53499999D01*
X121895287Y-53500000D01*
X121914096Y-53702989D01*
X121914097Y-53702992D01*
X121969883Y-53899063D01*
X121969886Y-53899069D01*
X122060750Y-54081549D01*
X122060755Y-54081556D01*
X122123380Y-54164487D01*
X122669042Y-53618825D01*
X122675047Y-53642538D01*
X122738936Y-53740327D01*
X122831115Y-53812072D01*
X122882439Y-53829691D01*
X122332321Y-54379809D01*
X122334263Y-54381580D01*
X122355245Y-54394572D01*
X122401881Y-54446600D01*
X122412985Y-54515581D01*
X122385032Y-54579616D01*
X122355249Y-54605424D01*
X122334263Y-54618418D01*
X122334261Y-54618420D01*
X122332321Y-54620188D01*
X122332321Y-54620189D01*
X122879420Y-55167288D01*
X122782053Y-55219981D01*
X122702940Y-55305921D01*
X122669660Y-55381791D01*
X122123380Y-54835511D01*
X122060754Y-54918443D01*
X121969886Y-55100930D01*
X121969883Y-55100936D01*
X121914097Y-55297007D01*
X121914096Y-55297010D01*
X121895287Y-55499999D01*
X121895287Y-55500000D01*
X121914096Y-55702989D01*
X121914097Y-55702992D01*
X121969883Y-55899063D01*
X121969886Y-55899069D01*
X122060750Y-56081549D01*
X122060755Y-56081556D01*
X122123380Y-56164487D01*
X122669042Y-55618825D01*
X122675047Y-55642538D01*
X122738936Y-55740327D01*
X122831115Y-55812072D01*
X122882439Y-55829691D01*
X122332321Y-56379809D01*
X122334261Y-56381579D01*
X122507588Y-56488899D01*
X122507590Y-56488901D01*
X122510102Y-56489874D01*
X122511127Y-56490662D01*
X122512716Y-56491453D01*
X122512561Y-56491763D01*
X122565504Y-56532446D01*
X122589094Y-56598213D01*
X122573383Y-56666294D01*
X122523359Y-56715072D01*
X122465308Y-56729500D01*
X120536075Y-56729500D01*
X120469036Y-56709815D01*
X120423281Y-56657011D01*
X120413337Y-56587853D01*
X120442362Y-56524297D01*
X120487734Y-56492369D01*
X120487503Y-56491904D01*
X120490558Y-56490382D01*
X120491281Y-56489874D01*
X120492255Y-56489495D01*
X120492637Y-56489348D01*
X120666041Y-56381981D01*
X120816764Y-56244579D01*
X120939673Y-56081821D01*
X121030582Y-55899250D01*
X121086397Y-55703083D01*
X121105215Y-55500000D01*
X121096954Y-55410853D01*
X121086397Y-55296917D01*
X121072106Y-55246691D01*
X121030582Y-55100750D01*
X121016974Y-55073422D01*
X120976560Y-54992258D01*
X120939673Y-54918179D01*
X120816764Y-54755421D01*
X120816761Y-54755417D01*
X120816759Y-54755415D01*
X120811971Y-54751050D01*
X120775692Y-54691338D01*
X120777456Y-54621490D01*
X120816701Y-54563684D01*
X120850720Y-54543790D01*
X120992413Y-54488898D01*
X121165735Y-54381581D01*
X121167677Y-54379808D01*
X120620580Y-53832711D01*
X120717947Y-53780019D01*
X120797060Y-53694079D01*
X120830340Y-53618208D01*
X121376618Y-54164487D01*
X121439245Y-54081556D01*
X121530113Y-53899069D01*
X121530116Y-53899063D01*
X121585902Y-53702992D01*
X121585903Y-53702989D01*
X121604713Y-53500000D01*
X121604713Y-53499999D01*
X121585903Y-53297010D01*
X121585902Y-53297007D01*
X121530116Y-53100936D01*
X121530113Y-53100930D01*
X121439244Y-52918440D01*
X121376619Y-52835511D01*
X121376618Y-52835511D01*
X120830957Y-53381173D01*
X120824953Y-53357462D01*
X120761064Y-53259673D01*
X120668885Y-53187928D01*
X120617560Y-53170308D01*
X121167678Y-52620190D01*
X121167677Y-52620189D01*
X121165737Y-52618420D01*
X120992415Y-52511102D01*
X120802321Y-52437460D01*
X120601928Y-52400000D01*
X120398072Y-52400000D01*
X120197678Y-52437460D01*
X120007584Y-52511102D01*
X119834261Y-52618420D01*
X119832321Y-52620188D01*
X119832321Y-52620189D01*
X120379420Y-53167288D01*
X120282053Y-53219981D01*
X120202940Y-53305921D01*
X120169660Y-53381791D01*
X119623380Y-52835511D01*
X119560754Y-52918443D01*
X119469886Y-53100930D01*
X119469883Y-53100936D01*
X119414097Y-53297007D01*
X119414096Y-53297010D01*
X119395287Y-53499999D01*
X119395287Y-53500000D01*
X119414096Y-53702989D01*
X119414097Y-53702992D01*
X119469883Y-53899063D01*
X119469886Y-53899069D01*
X119560750Y-54081549D01*
X119560755Y-54081556D01*
X119623380Y-54164487D01*
X120169042Y-53618825D01*
X120175047Y-53642538D01*
X120238936Y-53740327D01*
X120331115Y-53812072D01*
X120382439Y-53829691D01*
X119820150Y-54391980D01*
X119758827Y-54425465D01*
X119755255Y-54426187D01*
X119697545Y-54436975D01*
X119507364Y-54510651D01*
X119507357Y-54510655D01*
X119333960Y-54618017D01*
X119333958Y-54618019D01*
X119183237Y-54755418D01*
X119060327Y-54918178D01*
X118969422Y-55100739D01*
X118969417Y-55100752D01*
X118913602Y-55296917D01*
X118894785Y-55499999D01*
X118894785Y-55500000D01*
X118913602Y-55703082D01*
X118969417Y-55899247D01*
X118969422Y-55899260D01*
X119060327Y-56081821D01*
X119183237Y-56244581D01*
X119219459Y-56277601D01*
X119331576Y-56379809D01*
X119333958Y-56381980D01*
X119333960Y-56381982D01*
X119433141Y-56443392D01*
X119507363Y-56489348D01*
X119507371Y-56489351D01*
X119507373Y-56489352D01*
X119508719Y-56489874D01*
X119509268Y-56490296D01*
X119512497Y-56491904D01*
X119512182Y-56492535D01*
X119564121Y-56532446D01*
X119587711Y-56598213D01*
X119572000Y-56666294D01*
X119521976Y-56715072D01*
X119463925Y-56729500D01*
X117200808Y-56729500D01*
X117133769Y-56709815D01*
X117113127Y-56693181D01*
X116130663Y-55710717D01*
X116097178Y-55649394D01*
X116094873Y-55611601D01*
X116105215Y-55500000D01*
X116086397Y-55296917D01*
X116030582Y-55100750D01*
X116016974Y-55073422D01*
X115976560Y-54992258D01*
X115939673Y-54918179D01*
X115816764Y-54755421D01*
X115816762Y-54755418D01*
X115666041Y-54618019D01*
X115666039Y-54618017D01*
X115492642Y-54510655D01*
X115492635Y-54510651D01*
X115327301Y-54446601D01*
X115302456Y-54436976D01*
X115101976Y-54399500D01*
X114898024Y-54399500D01*
X114697544Y-54436976D01*
X114697541Y-54436976D01*
X114697541Y-54436977D01*
X114507364Y-54510651D01*
X114507357Y-54510655D01*
X114333960Y-54618017D01*
X114333958Y-54618019D01*
X114183237Y-54755418D01*
X114060327Y-54918178D01*
X113969422Y-55100739D01*
X113969417Y-55100752D01*
X113913602Y-55296917D01*
X113894785Y-55499999D01*
X113894785Y-55500000D01*
X113913602Y-55703082D01*
X113969417Y-55899247D01*
X113969422Y-55899260D01*
X114060327Y-56081821D01*
X114183237Y-56244581D01*
X114219459Y-56277601D01*
X114331576Y-56379809D01*
X114333958Y-56381980D01*
X114333960Y-56381982D01*
X114433141Y-56443392D01*
X114507363Y-56489348D01*
X114697544Y-56563024D01*
X114898024Y-56600500D01*
X114898026Y-56600500D01*
X115101975Y-56600500D01*
X115101976Y-56600500D01*
X115103922Y-56600136D01*
X115104870Y-56600231D01*
X115107686Y-56599971D01*
X115107737Y-56600521D01*
X115173437Y-56607162D01*
X115214396Y-56634342D01*
X116359564Y-57779510D01*
X116369635Y-57792080D01*
X116369822Y-57791926D01*
X116374796Y-57797937D01*
X116374798Y-57797940D01*
X116403345Y-57824748D01*
X116427243Y-57847190D01*
X116448967Y-57868913D01*
X116454757Y-57873405D01*
X116459197Y-57877197D01*
X116488498Y-57904711D01*
X116494607Y-57910448D01*
X116494609Y-57910449D01*
X116513205Y-57920672D01*
X116529470Y-57931357D01*
X116546232Y-57944360D01*
X116546235Y-57944361D01*
X116546236Y-57944362D01*
X116590823Y-57963656D01*
X116596059Y-57966221D01*
X116638632Y-57989627D01*
X116654340Y-57993659D01*
X116659186Y-57994904D01*
X116677598Y-58001207D01*
X116697073Y-58009635D01*
X116736033Y-58015805D01*
X116745046Y-58017233D01*
X116750756Y-58018415D01*
X116797823Y-58030500D01*
X116819050Y-58030500D01*
X116838447Y-58032026D01*
X116859404Y-58035346D01*
X116907761Y-58030774D01*
X116913598Y-58030500D01*
X128103678Y-58030500D01*
X128170717Y-58050185D01*
X128216472Y-58102989D01*
X128226898Y-58140617D01*
X128234630Y-58209249D01*
X128294210Y-58379521D01*
X128294211Y-58379522D01*
X128390184Y-58532262D01*
X128517738Y-58659816D01*
X128670478Y-58755789D01*
X128840745Y-58815368D01*
X128847318Y-58817668D01*
X128846568Y-58819808D01*
X128898149Y-58848647D01*
X128926637Y-58894492D01*
X128973711Y-59029023D01*
X129069684Y-59181762D01*
X129197238Y-59309316D01*
X129349978Y-59405289D01*
X129520245Y-59464868D01*
X129527474Y-59465682D01*
X129591888Y-59492746D01*
X129601276Y-59501222D01*
X133783181Y-63683126D01*
X133816666Y-63744449D01*
X133819500Y-63770807D01*
X133819500Y-76269488D01*
X133799815Y-76336527D01*
X133747011Y-76382282D01*
X133677853Y-76392226D01*
X133629528Y-76374482D01*
X133549523Y-76324211D01*
X133379254Y-76264631D01*
X133379249Y-76264630D01*
X133200004Y-76244435D01*
X133199996Y-76244435D01*
X133020750Y-76264630D01*
X133020745Y-76264631D01*
X132850476Y-76324211D01*
X132697737Y-76420184D01*
X132570184Y-76547737D01*
X132474211Y-76700476D01*
X132414631Y-76870745D01*
X132414630Y-76870750D01*
X132394435Y-77049996D01*
X132394435Y-77050003D01*
X132414630Y-77229249D01*
X132414631Y-77229254D01*
X132474211Y-77399524D01*
X132540493Y-77505009D01*
X132559500Y-77570982D01*
X132559500Y-80329345D01*
X132539815Y-80396384D01*
X132506623Y-80430920D01*
X132353121Y-80538402D01*
X132198402Y-80693121D01*
X132072900Y-80872357D01*
X132072898Y-80872361D01*
X132002382Y-81023583D01*
X131956209Y-81076022D01*
X131889016Y-81095174D01*
X131822135Y-81074958D01*
X131777618Y-81023583D01*
X131728050Y-80917285D01*
X131707102Y-80872362D01*
X131707099Y-80872358D01*
X131707099Y-80872357D01*
X131581599Y-80693124D01*
X131530991Y-80642516D01*
X131426877Y-80538402D01*
X131382979Y-80507664D01*
X131273376Y-80430918D01*
X131229751Y-80376341D01*
X131220500Y-80329344D01*
X131220500Y-68802412D01*
X131240185Y-68735373D01*
X131247555Y-68725097D01*
X131249810Y-68722267D01*
X131249816Y-68722262D01*
X131345789Y-68569522D01*
X131405368Y-68399255D01*
X131405369Y-68399249D01*
X131425565Y-68220003D01*
X131425565Y-68219996D01*
X131405369Y-68040750D01*
X131405368Y-68040745D01*
X131378395Y-67963662D01*
X131345789Y-67870478D01*
X131336834Y-67856227D01*
X131249815Y-67717737D01*
X131128211Y-67596133D01*
X131094726Y-67534810D01*
X131094977Y-67486219D01*
X131094589Y-67486176D01*
X131094996Y-67482562D01*
X131095005Y-67480841D01*
X131095364Y-67479264D01*
X131095368Y-67479255D01*
X131115565Y-67300000D01*
X131095368Y-67120745D01*
X131035789Y-66950478D01*
X130939816Y-66797738D01*
X130812262Y-66670184D01*
X130701350Y-66600493D01*
X130659523Y-66574211D01*
X130489254Y-66514631D01*
X130489249Y-66514630D01*
X130310004Y-66494435D01*
X130309996Y-66494435D01*
X130130750Y-66514630D01*
X130130745Y-66514631D01*
X129960475Y-66574211D01*
X129918650Y-66600493D01*
X129852677Y-66619500D01*
X127150808Y-66619500D01*
X127083769Y-66599815D01*
X127063127Y-66583181D01*
X123241722Y-62761776D01*
X123208237Y-62700453D01*
X123206182Y-62687973D01*
X123205368Y-62680745D01*
X123145789Y-62510478D01*
X123049816Y-62357738D01*
X122922262Y-62230184D01*
X122903080Y-62218131D01*
X122769523Y-62134211D01*
X122599254Y-62074631D01*
X122599249Y-62074630D01*
X122420004Y-62054435D01*
X122419996Y-62054435D01*
X122240750Y-62074630D01*
X122240745Y-62074631D01*
X122070476Y-62134211D01*
X121917737Y-62230184D01*
X121790184Y-62357737D01*
X121694211Y-62510476D01*
X121634631Y-62680745D01*
X121634630Y-62680750D01*
X121614435Y-62859996D01*
X121614435Y-62860003D01*
X121634630Y-63039249D01*
X121634631Y-63039254D01*
X121694211Y-63209523D01*
X121790184Y-63362262D01*
X121917738Y-63489816D01*
X122070478Y-63585789D01*
X122240745Y-63645368D01*
X122247974Y-63646182D01*
X122312388Y-63673246D01*
X122321776Y-63681722D01*
X126309564Y-67669509D01*
X126319640Y-67682086D01*
X126319827Y-67681932D01*
X126324795Y-67687937D01*
X126377260Y-67737205D01*
X126398961Y-67758907D01*
X126398965Y-67758910D01*
X126398966Y-67758911D01*
X126404759Y-67763404D01*
X126409191Y-67767190D01*
X126444607Y-67800448D01*
X126451517Y-67804247D01*
X126463207Y-67810674D01*
X126479468Y-67821355D01*
X126496237Y-67834363D01*
X126540827Y-67853658D01*
X126546056Y-67856220D01*
X126588632Y-67879627D01*
X126609193Y-67884905D01*
X126627597Y-67891207D01*
X126647074Y-67899636D01*
X126684927Y-67905630D01*
X126695054Y-67907235D01*
X126700764Y-67908417D01*
X126747823Y-67920500D01*
X126769045Y-67920500D01*
X126788442Y-67922026D01*
X126809405Y-67925347D01*
X126854104Y-67921121D01*
X126857770Y-67920775D01*
X126863608Y-67920500D01*
X129709424Y-67920500D01*
X129776463Y-67940185D01*
X129822218Y-67992989D01*
X129832644Y-68058384D01*
X129822687Y-68146753D01*
X129795620Y-68211167D01*
X129740422Y-68249910D01*
X129670980Y-68274209D01*
X129518237Y-68370184D01*
X129390684Y-68497737D01*
X129294711Y-68650476D01*
X129235131Y-68820745D01*
X129235130Y-68820750D01*
X129214935Y-68999996D01*
X129214935Y-69000003D01*
X129235130Y-69179249D01*
X129235131Y-69179254D01*
X129294711Y-69349523D01*
X129390684Y-69502263D01*
X129392445Y-69504470D01*
X129393137Y-69506166D01*
X129394389Y-69508158D01*
X129394040Y-69508377D01*
X129418855Y-69569156D01*
X129419500Y-69581785D01*
X129419500Y-79259902D01*
X129399815Y-79326941D01*
X129383181Y-79347583D01*
X128481881Y-80248882D01*
X128420558Y-80282367D01*
X128362108Y-80280976D01*
X128299828Y-80264289D01*
X128297977Y-80263793D01*
X128297973Y-80263792D01*
X128297970Y-80263792D01*
X128080002Y-80244723D01*
X128079998Y-80244723D01*
X127952151Y-80255908D01*
X127862023Y-80263793D01*
X127862020Y-80263793D01*
X127650677Y-80320422D01*
X127650668Y-80320426D01*
X127452361Y-80412898D01*
X127452357Y-80412900D01*
X127273121Y-80538402D01*
X127118402Y-80693121D01*
X126992900Y-80872357D01*
X126992900Y-80872358D01*
X126992898Y-80872361D01*
X126992898Y-80872362D01*
X126980197Y-80899597D01*
X126922105Y-81024176D01*
X126875932Y-81076615D01*
X126808738Y-81095766D01*
X126741857Y-81075550D01*
X126697341Y-81024175D01*
X126626666Y-80872613D01*
X126524880Y-80727248D01*
X125984814Y-81267315D01*
X125921761Y-81169202D01*
X125813100Y-81075048D01*
X125771718Y-81056149D01*
X126312750Y-80515117D01*
X126167387Y-80413333D01*
X125969159Y-80320898D01*
X125969150Y-80320894D01*
X125757894Y-80264289D01*
X125757884Y-80264287D01*
X125540001Y-80245225D01*
X125539999Y-80245225D01*
X125322115Y-80264287D01*
X125322105Y-80264289D01*
X125110849Y-80320894D01*
X125110840Y-80320898D01*
X124912614Y-80413332D01*
X124912612Y-80413333D01*
X124767249Y-80515117D01*
X124767248Y-80515117D01*
X125308281Y-81056149D01*
X125266900Y-81075048D01*
X125158239Y-81169202D01*
X125095185Y-81267316D01*
X124555117Y-80727248D01*
X124555117Y-80727249D01*
X124453333Y-80872612D01*
X124453332Y-80872614D01*
X124382658Y-81024175D01*
X124336485Y-81076614D01*
X124269292Y-81095766D01*
X124202411Y-81075550D01*
X124157894Y-81024175D01*
X124108050Y-80917285D01*
X124087102Y-80872362D01*
X124087099Y-80872358D01*
X124087099Y-80872357D01*
X123961599Y-80693124D01*
X123910991Y-80642516D01*
X123806877Y-80538402D01*
X123653374Y-80430918D01*
X123627638Y-80412897D01*
X123528484Y-80366661D01*
X123429330Y-80320425D01*
X123429326Y-80320424D01*
X123429322Y-80320422D01*
X123217977Y-80263793D01*
X123000002Y-80244723D01*
X122999998Y-80244723D01*
X122872151Y-80255908D01*
X122782023Y-80263793D01*
X122782020Y-80263793D01*
X122570677Y-80320422D01*
X122570668Y-80320426D01*
X122372361Y-80412898D01*
X122372357Y-80412900D01*
X122193121Y-80538402D01*
X122038402Y-80693121D01*
X121912900Y-80872357D01*
X121912898Y-80872361D01*
X121842382Y-81023583D01*
X121796209Y-81076022D01*
X121729016Y-81095174D01*
X121662135Y-81074958D01*
X121617618Y-81023583D01*
X121568050Y-80917285D01*
X121547102Y-80872362D01*
X121547099Y-80872358D01*
X121547099Y-80872357D01*
X121421599Y-80693124D01*
X121370991Y-80642516D01*
X121266877Y-80538402D01*
X121113374Y-80430918D01*
X121087638Y-80412897D01*
X120988484Y-80366661D01*
X120889330Y-80320425D01*
X120889326Y-80320424D01*
X120889322Y-80320422D01*
X120677977Y-80263793D01*
X120460002Y-80244723D01*
X120459998Y-80244723D01*
X120332151Y-80255908D01*
X120242023Y-80263793D01*
X120242020Y-80263793D01*
X120030677Y-80320422D01*
X120030668Y-80320426D01*
X119832361Y-80412898D01*
X119832357Y-80412900D01*
X119653121Y-80538402D01*
X119498402Y-80693121D01*
X119372900Y-80872357D01*
X119372898Y-80872361D01*
X119302382Y-81023583D01*
X119256209Y-81076022D01*
X119189016Y-81095174D01*
X119122135Y-81074958D01*
X119077618Y-81023583D01*
X119028050Y-80917285D01*
X119007102Y-80872362D01*
X119007099Y-80872358D01*
X119007099Y-80872357D01*
X118881599Y-80693124D01*
X118830991Y-80642516D01*
X118726877Y-80538402D01*
X118573374Y-80430918D01*
X118547638Y-80412897D01*
X118448484Y-80366661D01*
X118349330Y-80320425D01*
X118349326Y-80320424D01*
X118349322Y-80320422D01*
X118137977Y-80263793D01*
X117920002Y-80244723D01*
X117919998Y-80244723D01*
X117792151Y-80255908D01*
X117702023Y-80263793D01*
X117702020Y-80263793D01*
X117490677Y-80320422D01*
X117490668Y-80320426D01*
X117292361Y-80412898D01*
X117292357Y-80412900D01*
X117113121Y-80538402D01*
X116958402Y-80693121D01*
X116832900Y-80872357D01*
X116832898Y-80872361D01*
X116762382Y-81023583D01*
X116716209Y-81076022D01*
X116649016Y-81095174D01*
X116582135Y-81074958D01*
X116537618Y-81023583D01*
X116488050Y-80917285D01*
X116467102Y-80872362D01*
X116467099Y-80872358D01*
X116467099Y-80872357D01*
X116341599Y-80693124D01*
X116290991Y-80642516D01*
X116186877Y-80538402D01*
X116033374Y-80430918D01*
X116007638Y-80412897D01*
X115908484Y-80366661D01*
X115809330Y-80320425D01*
X115809326Y-80320424D01*
X115809322Y-80320422D01*
X115597977Y-80263793D01*
X115380002Y-80244723D01*
X115379998Y-80244723D01*
X115252151Y-80255908D01*
X115162023Y-80263793D01*
X115162020Y-80263793D01*
X114950677Y-80320422D01*
X114950668Y-80320426D01*
X114752361Y-80412898D01*
X114752357Y-80412900D01*
X114573121Y-80538402D01*
X114418402Y-80693121D01*
X114316074Y-80839262D01*
X114261497Y-80882887D01*
X114191999Y-80890081D01*
X114129644Y-80858558D01*
X114094230Y-80798328D01*
X114090499Y-80768139D01*
X114090499Y-80702129D01*
X114090498Y-80702123D01*
X114090497Y-80702116D01*
X114084091Y-80642517D01*
X114033796Y-80507669D01*
X114033795Y-80507668D01*
X114033793Y-80507664D01*
X113947547Y-80392455D01*
X113947544Y-80392452D01*
X113832335Y-80306206D01*
X113832328Y-80306202D01*
X113697482Y-80255908D01*
X113697483Y-80255908D01*
X113637883Y-80249501D01*
X113637881Y-80249500D01*
X113637873Y-80249500D01*
X113637864Y-80249500D01*
X112042129Y-80249500D01*
X112042123Y-80249501D01*
X111982516Y-80255908D01*
X111847671Y-80306202D01*
X111847664Y-80306206D01*
X111732455Y-80392452D01*
X111732452Y-80392455D01*
X111646206Y-80507664D01*
X111646202Y-80507671D01*
X111595908Y-80642517D01*
X111590468Y-80693121D01*
X111589501Y-80702123D01*
X111589500Y-80702135D01*
X111589500Y-82297870D01*
X111589501Y-82297876D01*
X111595908Y-82357483D01*
X111646202Y-82492328D01*
X111646206Y-82492335D01*
X111732452Y-82607544D01*
X111732455Y-82607547D01*
X111847664Y-82693793D01*
X111847671Y-82693797D01*
X111982517Y-82744091D01*
X111982516Y-82744091D01*
X111988897Y-82744777D01*
X112042127Y-82750500D01*
X113637872Y-82750499D01*
X113697483Y-82744091D01*
X113832331Y-82693796D01*
X113947546Y-82607546D01*
X114033796Y-82492331D01*
X114084091Y-82357483D01*
X114090500Y-82297873D01*
X114090499Y-82231860D01*
X114110183Y-82164824D01*
X114162986Y-82119068D01*
X114232144Y-82109124D01*
X114295700Y-82138148D01*
X114316073Y-82160738D01*
X114352949Y-82213401D01*
X114418402Y-82306877D01*
X114573123Y-82461598D01*
X114752361Y-82587102D01*
X114950670Y-82679575D01*
X115162023Y-82736207D01*
X115344926Y-82752208D01*
X115379998Y-82755277D01*
X115380000Y-82755277D01*
X115380002Y-82755277D01*
X115408254Y-82752805D01*
X115597977Y-82736207D01*
X115809330Y-82679575D01*
X116007639Y-82587102D01*
X116186877Y-82461598D01*
X116341598Y-82306877D01*
X116467102Y-82127639D01*
X116537618Y-81976414D01*
X116583790Y-81923977D01*
X116650984Y-81904825D01*
X116717865Y-81925041D01*
X116762381Y-81976414D01*
X116832898Y-82127639D01*
X116958402Y-82306877D01*
X117113123Y-82461598D01*
X117292361Y-82587102D01*
X117490670Y-82679575D01*
X117702023Y-82736207D01*
X117884926Y-82752208D01*
X117919998Y-82755277D01*
X117920000Y-82755277D01*
X117920002Y-82755277D01*
X117948254Y-82752805D01*
X118137977Y-82736207D01*
X118349330Y-82679575D01*
X118547639Y-82587102D01*
X118726877Y-82461598D01*
X118881598Y-82306877D01*
X119007102Y-82127639D01*
X119077618Y-81976414D01*
X119123790Y-81923977D01*
X119190984Y-81904825D01*
X119257865Y-81925041D01*
X119302381Y-81976414D01*
X119372898Y-82127639D01*
X119498402Y-82306877D01*
X119653123Y-82461598D01*
X119832361Y-82587102D01*
X120030670Y-82679575D01*
X120242023Y-82736207D01*
X120326915Y-82743633D01*
X120391982Y-82769085D01*
X120432961Y-82825675D01*
X120436840Y-82895437D01*
X120403790Y-82954841D01*
X120378108Y-82980523D01*
X120335450Y-83023181D01*
X120274130Y-83056666D01*
X120247770Y-83059500D01*
X112863705Y-83059500D01*
X112845735Y-83058191D01*
X112821972Y-83054710D01*
X112776533Y-83058686D01*
X112769931Y-83059264D01*
X112764530Y-83059500D01*
X112756289Y-83059500D01*
X112734579Y-83062037D01*
X112723724Y-83063306D01*
X112708419Y-83064645D01*
X112647199Y-83070001D01*
X112640132Y-83071460D01*
X112640120Y-83071404D01*
X112632763Y-83073035D01*
X112632777Y-83073092D01*
X112625743Y-83074759D01*
X112553575Y-83101025D01*
X112480675Y-83125181D01*
X112474126Y-83128236D01*
X112474101Y-83128183D01*
X112467308Y-83131471D01*
X112467334Y-83131523D01*
X112460880Y-83134764D01*
X112396708Y-83176971D01*
X112331347Y-83217285D01*
X112325683Y-83221765D01*
X112325647Y-83221719D01*
X112319798Y-83226484D01*
X112319835Y-83226528D01*
X112314310Y-83231164D01*
X112314304Y-83231169D01*
X112314304Y-83231170D01*
X112278092Y-83269552D01*
X112261597Y-83287035D01*
X110104195Y-85444436D01*
X110042872Y-85477921D01*
X109973180Y-85472937D01*
X109917247Y-85431065D01*
X109893043Y-85368196D01*
X109892793Y-85365502D01*
X109873634Y-85158740D01*
X109812824Y-84945016D01*
X109808439Y-84936210D01*
X109756131Y-84831160D01*
X109713778Y-84746104D01*
X109640577Y-84649170D01*
X109579866Y-84568775D01*
X109415655Y-84419078D01*
X109415653Y-84419076D01*
X109226733Y-84302102D01*
X109226727Y-84302099D01*
X109097857Y-84252175D01*
X109019528Y-84221830D01*
X108801104Y-84181000D01*
X108578896Y-84181000D01*
X108360472Y-84221830D01*
X108313410Y-84240062D01*
X108153272Y-84302099D01*
X108153266Y-84302102D01*
X107964346Y-84419076D01*
X107964344Y-84419078D01*
X107800133Y-84568775D01*
X107666222Y-84746103D01*
X107567180Y-84945005D01*
X107567174Y-84945020D01*
X107506366Y-85158738D01*
X107506365Y-85158740D01*
X107485863Y-85379999D01*
X107485863Y-85380000D01*
X107506365Y-85601259D01*
X107506366Y-85601261D01*
X107567174Y-85814979D01*
X107567180Y-85814994D01*
X107666222Y-86013896D01*
X107800133Y-86191224D01*
X107964344Y-86340921D01*
X107964346Y-86340923D01*
X108153266Y-86457897D01*
X108153272Y-86457900D01*
X108179767Y-86468164D01*
X108350675Y-86534374D01*
X108406074Y-86576946D01*
X108429665Y-86642713D01*
X108413954Y-86710793D01*
X108363930Y-86759572D01*
X108350684Y-86765621D01*
X108271371Y-86796348D01*
X108153272Y-86842099D01*
X108153266Y-86842102D01*
X107964346Y-86959076D01*
X107964344Y-86959078D01*
X107800132Y-87108776D01*
X107791485Y-87120228D01*
X107735376Y-87161863D01*
X107692532Y-87169500D01*
X107482229Y-87169500D01*
X107415190Y-87149815D01*
X107394548Y-87133181D01*
X106452829Y-86191462D01*
X106419344Y-86130139D01*
X106424328Y-86060447D01*
X106466200Y-86004514D01*
X106487818Y-85992536D01*
X106487503Y-85991904D01*
X106492623Y-85989353D01*
X106492637Y-85989348D01*
X106666041Y-85881981D01*
X106816764Y-85744579D01*
X106939673Y-85581821D01*
X107030582Y-85399250D01*
X107086397Y-85203083D01*
X107105215Y-85000000D01*
X107100120Y-84945020D01*
X107086397Y-84796917D01*
X107059432Y-84702147D01*
X107030582Y-84600750D01*
X107026298Y-84592147D01*
X106955767Y-84450500D01*
X106939673Y-84418179D01*
X106842417Y-84289391D01*
X106816762Y-84255418D01*
X106666041Y-84118019D01*
X106666039Y-84118017D01*
X106492642Y-84010655D01*
X106492635Y-84010651D01*
X106344286Y-83953181D01*
X106302456Y-83936976D01*
X106101976Y-83899500D01*
X105898024Y-83899500D01*
X105697544Y-83936976D01*
X105697541Y-83936976D01*
X105697541Y-83936977D01*
X105507364Y-84010651D01*
X105507357Y-84010655D01*
X105333960Y-84118017D01*
X105333958Y-84118019D01*
X105178999Y-84259283D01*
X105178000Y-84258187D01*
X105124362Y-84290771D01*
X105054515Y-84289001D01*
X104996712Y-84249751D01*
X104972246Y-84201389D01*
X104924063Y-84011119D01*
X104824173Y-83783393D01*
X104770332Y-83700983D01*
X104688166Y-83575217D01*
X104619069Y-83500158D01*
X104519744Y-83392262D01*
X104323509Y-83239526D01*
X104323507Y-83239525D01*
X104323506Y-83239524D01*
X104104811Y-83121172D01*
X104104802Y-83121169D01*
X103869616Y-83040429D01*
X103624335Y-82999500D01*
X103375665Y-82999500D01*
X103130383Y-83040429D01*
X102895197Y-83121169D01*
X102895188Y-83121172D01*
X102676493Y-83239524D01*
X102480257Y-83392261D01*
X102311833Y-83575217D01*
X102175826Y-83783393D01*
X102075936Y-84011118D01*
X102014892Y-84252175D01*
X102014890Y-84252187D01*
X101994357Y-84499994D01*
X101994357Y-84500005D01*
X102014890Y-84747812D01*
X102014892Y-84747824D01*
X102075936Y-84988881D01*
X102175826Y-85216606D01*
X102311836Y-85424786D01*
X102374347Y-85492690D01*
X102405270Y-85555344D01*
X102397410Y-85624770D01*
X102353263Y-85678926D01*
X102286846Y-85700617D01*
X102224101Y-85685728D01*
X102104816Y-85621175D01*
X102104813Y-85621174D01*
X102104810Y-85621172D01*
X102104804Y-85621170D01*
X102104802Y-85621169D01*
X101869616Y-85540429D01*
X101624335Y-85499500D01*
X101375665Y-85499500D01*
X101130383Y-85540429D01*
X100895197Y-85621169D01*
X100895188Y-85621172D01*
X100676493Y-85739524D01*
X100480257Y-85892261D01*
X100311836Y-86075215D01*
X100228309Y-86203063D01*
X100175162Y-86248419D01*
X100105931Y-86257843D01*
X100042595Y-86228341D01*
X100005264Y-86169281D01*
X100000500Y-86135241D01*
X100000500Y-79806610D01*
X100749500Y-79806610D01*
X100788679Y-80016198D01*
X100865702Y-80215019D01*
X100977948Y-80396302D01*
X101009507Y-80430920D01*
X101121593Y-80553872D01*
X101291746Y-80682367D01*
X101482606Y-80777403D01*
X101482608Y-80777403D01*
X101482611Y-80777405D01*
X101687690Y-80835756D01*
X101846806Y-80850500D01*
X101846810Y-80850500D01*
X101953190Y-80850500D01*
X101953194Y-80850500D01*
X102112310Y-80835756D01*
X102317389Y-80777405D01*
X102317393Y-80777403D01*
X102317394Y-80777403D01*
X102508253Y-80682367D01*
X102508253Y-80682366D01*
X102508255Y-80682366D01*
X102678407Y-80553872D01*
X102822052Y-80396302D01*
X102934298Y-80215019D01*
X103011321Y-80016198D01*
X103029666Y-79918059D01*
X103061333Y-79855781D01*
X103121645Y-79820508D01*
X103191453Y-79823442D01*
X103248594Y-79863651D01*
X103249407Y-79864684D01*
X103292262Y-79919744D01*
X103453159Y-80067860D01*
X103475217Y-80088166D01*
X103683393Y-80224173D01*
X103911118Y-80324063D01*
X104117559Y-80376341D01*
X104152179Y-80385108D01*
X104152181Y-80385108D01*
X104152186Y-80385109D01*
X104285376Y-80396145D01*
X104337933Y-80400500D01*
X104337935Y-80400500D01*
X106062065Y-80400500D01*
X106062067Y-80400500D01*
X106123284Y-80395427D01*
X106247813Y-80385109D01*
X106247816Y-80385108D01*
X106247821Y-80385108D01*
X106488881Y-80324063D01*
X106716607Y-80224173D01*
X106924785Y-80088164D01*
X107107738Y-79919744D01*
X107260474Y-79723509D01*
X107378828Y-79504810D01*
X107459571Y-79269614D01*
X107500500Y-79024335D01*
X107500500Y-78775665D01*
X107459571Y-78530386D01*
X107378828Y-78295190D01*
X107260474Y-78076491D01*
X107107738Y-77880256D01*
X106924785Y-77711836D01*
X106924782Y-77711833D01*
X106716606Y-77575826D01*
X106488881Y-77475936D01*
X106247824Y-77414892D01*
X106247813Y-77414890D01*
X106082548Y-77401197D01*
X106062067Y-77399500D01*
X104337933Y-77399500D01*
X104318521Y-77401108D01*
X104152186Y-77414890D01*
X104152175Y-77414892D01*
X103911118Y-77475936D01*
X103683393Y-77575826D01*
X103475217Y-77711833D01*
X103292261Y-77880257D01*
X103139524Y-78076493D01*
X103021172Y-78295188D01*
X103021169Y-78295197D01*
X102940429Y-78530383D01*
X102899499Y-78775670D01*
X102899225Y-78778978D01*
X102898735Y-78780246D01*
X102898656Y-78780723D01*
X102898557Y-78780706D01*
X102874072Y-78844162D01*
X102817669Y-78885400D01*
X102747926Y-78889598D01*
X102686984Y-78855424D01*
X102684015Y-78852279D01*
X102678407Y-78846128D01*
X102508253Y-78717632D01*
X102317393Y-78622596D01*
X102112310Y-78564244D01*
X101953194Y-78549500D01*
X101846806Y-78549500D01*
X101719513Y-78561295D01*
X101687689Y-78564244D01*
X101482607Y-78622596D01*
X101482605Y-78622596D01*
X101291746Y-78717632D01*
X101121593Y-78846127D01*
X100977947Y-79003699D01*
X100865702Y-79184980D01*
X100865701Y-79184982D01*
X100811477Y-79324952D01*
X100788679Y-79383802D01*
X100749500Y-79593390D01*
X100749500Y-79806610D01*
X100000500Y-79806610D01*
X100000500Y-72550003D01*
X111304435Y-72550003D01*
X111324630Y-72729249D01*
X111324631Y-72729254D01*
X111384211Y-72899523D01*
X111480184Y-73052262D01*
X111607738Y-73179816D01*
X111760478Y-73275789D01*
X111930745Y-73335368D01*
X111930750Y-73335369D01*
X112109996Y-73355565D01*
X112110000Y-73355565D01*
X112110004Y-73355565D01*
X112289249Y-73335369D01*
X112289252Y-73335368D01*
X112289255Y-73335368D01*
X112459522Y-73275789D01*
X112612262Y-73179816D01*
X112612267Y-73179810D01*
X112615097Y-73177555D01*
X112617275Y-73176665D01*
X112618158Y-73176111D01*
X112618255Y-73176265D01*
X112679783Y-73151145D01*
X112692412Y-73150500D01*
X116247060Y-73150500D01*
X116314099Y-73170185D01*
X116334741Y-73186819D01*
X116337738Y-73189816D01*
X116428080Y-73246582D01*
X116474561Y-73275788D01*
X116490478Y-73285789D01*
X116660745Y-73345368D01*
X116660750Y-73345369D01*
X116839996Y-73365565D01*
X116840000Y-73365565D01*
X116840004Y-73365565D01*
X117019249Y-73345369D01*
X117019252Y-73345368D01*
X117019255Y-73345368D01*
X117189522Y-73285789D01*
X117342262Y-73189816D01*
X117469816Y-73062262D01*
X117565789Y-72909522D01*
X117625368Y-72739255D01*
X117626495Y-72729254D01*
X117645565Y-72560003D01*
X117645565Y-72559996D01*
X117625369Y-72380750D01*
X117625368Y-72380745D01*
X117565788Y-72210476D01*
X117469815Y-72057737D01*
X117342262Y-71930184D01*
X117189523Y-71834211D01*
X117019254Y-71774631D01*
X117019249Y-71774630D01*
X116840004Y-71754435D01*
X116839996Y-71754435D01*
X116660750Y-71774630D01*
X116660745Y-71774631D01*
X116490476Y-71834211D01*
X116360711Y-71915748D01*
X116338326Y-71929815D01*
X116337245Y-71930494D01*
X116271273Y-71949500D01*
X112692412Y-71949500D01*
X112625373Y-71929815D01*
X112615097Y-71922445D01*
X112612263Y-71920185D01*
X112612262Y-71920184D01*
X112555496Y-71884515D01*
X112459523Y-71824211D01*
X112289254Y-71764631D01*
X112289249Y-71764630D01*
X112110004Y-71744435D01*
X112109996Y-71744435D01*
X111930750Y-71764630D01*
X111930745Y-71764631D01*
X111760476Y-71824211D01*
X111607737Y-71920184D01*
X111480184Y-72047737D01*
X111384211Y-72200476D01*
X111324631Y-72370745D01*
X111324630Y-72370750D01*
X111304435Y-72549996D01*
X111304435Y-72550003D01*
X100000500Y-72550003D01*
X100000500Y-54222405D01*
X100020185Y-54155366D01*
X100072989Y-54109611D01*
X100142147Y-54099667D01*
X100205703Y-54128692D01*
X100238359Y-54173291D01*
X100314107Y-54348895D01*
X100314113Y-54348908D01*
X100488870Y-54651597D01*
X100697584Y-54931949D01*
X100697589Y-54931955D01*
X100818768Y-55060396D01*
X100937442Y-55186183D01*
X101109739Y-55330757D01*
X101205186Y-55410847D01*
X101205194Y-55410853D01*
X101497203Y-55602911D01*
X101497207Y-55602913D01*
X101809549Y-55759777D01*
X102137989Y-55879319D01*
X102478086Y-55959923D01*
X102825241Y-56000500D01*
X102825248Y-56000500D01*
X103174752Y-56000500D01*
X103174759Y-56000500D01*
X103521914Y-55959923D01*
X103862011Y-55879319D01*
X104190451Y-55759777D01*
X104502793Y-55602913D01*
X104794811Y-55410849D01*
X105062558Y-55186183D01*
X105302412Y-54931953D01*
X105511130Y-54651596D01*
X105685889Y-54348904D01*
X105824326Y-54027971D01*
X105924569Y-53693136D01*
X105938299Y-53615273D01*
X105985260Y-53348938D01*
X105985259Y-53348938D01*
X105985262Y-53348927D01*
X106005585Y-53000000D01*
X106004964Y-52989344D01*
X105991362Y-52755811D01*
X105985262Y-52651073D01*
X105979817Y-52620190D01*
X105924571Y-52306872D01*
X105924569Y-52306865D01*
X105909512Y-52256571D01*
X105832701Y-52000005D01*
X107494357Y-52000005D01*
X107514890Y-52247812D01*
X107514892Y-52247824D01*
X107575936Y-52488881D01*
X107675826Y-52716606D01*
X107811833Y-52924782D01*
X107811836Y-52924785D01*
X107980256Y-53107738D01*
X108176491Y-53260474D01*
X108176493Y-53260475D01*
X108309812Y-53332624D01*
X108395190Y-53378828D01*
X108630386Y-53459571D01*
X108875665Y-53500500D01*
X109124335Y-53500500D01*
X109127331Y-53500000D01*
X111394785Y-53500000D01*
X111413602Y-53703082D01*
X111469417Y-53899247D01*
X111469422Y-53899260D01*
X111560327Y-54081821D01*
X111683237Y-54244581D01*
X111822638Y-54371660D01*
X111831576Y-54379809D01*
X111833958Y-54381980D01*
X111833960Y-54381982D01*
X111922779Y-54436976D01*
X112007363Y-54489348D01*
X112197544Y-54563024D01*
X112398024Y-54600500D01*
X112398026Y-54600500D01*
X112601974Y-54600500D01*
X112601976Y-54600500D01*
X112802456Y-54563024D01*
X112992637Y-54489348D01*
X113166041Y-54381981D01*
X113316764Y-54244579D01*
X113439673Y-54081821D01*
X113530582Y-53899250D01*
X113586397Y-53703083D01*
X113605215Y-53500000D01*
X113586397Y-53296917D01*
X113530582Y-53100750D01*
X113516225Y-53071918D01*
X113471904Y-52982908D01*
X113439673Y-52918179D01*
X113316764Y-52755421D01*
X113316762Y-52755418D01*
X113166041Y-52618019D01*
X113166039Y-52618017D01*
X112992642Y-52510655D01*
X112992635Y-52510651D01*
X112803705Y-52437460D01*
X112802456Y-52436976D01*
X112601976Y-52399500D01*
X112398024Y-52399500D01*
X112197544Y-52436976D01*
X112197541Y-52436976D01*
X112197541Y-52436977D01*
X112007364Y-52510651D01*
X112007357Y-52510655D01*
X111833960Y-52618017D01*
X111833958Y-52618019D01*
X111683237Y-52755418D01*
X111560327Y-52918178D01*
X111469422Y-53100739D01*
X111469417Y-53100752D01*
X111413602Y-53296917D01*
X111394785Y-53499999D01*
X111394785Y-53500000D01*
X109127331Y-53500000D01*
X109369614Y-53459571D01*
X109604810Y-53378828D01*
X109823509Y-53260474D01*
X110019744Y-53107738D01*
X110188164Y-52924785D01*
X110324173Y-52716607D01*
X110424063Y-52488881D01*
X110485108Y-52247821D01*
X110505643Y-52000000D01*
X110503325Y-51972029D01*
X110485109Y-51752187D01*
X110485107Y-51752175D01*
X110424063Y-51511118D01*
X110324173Y-51283393D01*
X110188166Y-51075217D01*
X110128732Y-51010655D01*
X110019744Y-50892262D01*
X109823509Y-50739526D01*
X109823507Y-50739525D01*
X109823506Y-50739524D01*
X109604811Y-50621172D01*
X109604802Y-50621169D01*
X109369616Y-50540429D01*
X109124335Y-50499500D01*
X108875665Y-50499500D01*
X108630383Y-50540429D01*
X108395197Y-50621169D01*
X108395188Y-50621172D01*
X108176493Y-50739524D01*
X107980257Y-50892261D01*
X107811833Y-51075217D01*
X107675826Y-51283393D01*
X107575936Y-51511118D01*
X107514892Y-51752175D01*
X107514890Y-51752187D01*
X107494357Y-51999994D01*
X107494357Y-52000005D01*
X105832701Y-52000005D01*
X105824326Y-51972029D01*
X105685889Y-51651096D01*
X105511130Y-51348404D01*
X105511129Y-51348402D01*
X105302415Y-51068050D01*
X105302410Y-51068044D01*
X105136566Y-50892261D01*
X105062558Y-50813817D01*
X104914488Y-50689572D01*
X104794813Y-50589152D01*
X104794805Y-50589146D01*
X104502796Y-50397088D01*
X104190458Y-50240226D01*
X104187141Y-50238795D01*
X104187738Y-50237409D01*
X104136379Y-50199592D01*
X104111447Y-50134322D01*
X104125759Y-50065934D01*
X104174773Y-50016140D01*
X104235057Y-50000500D01*
X141764943Y-50000500D01*
X141831982Y-50020185D01*
G37*
G04 #@! TD.AperFunction*
G04 #@! TA.AperFunction,Conductor*
G36*
X107488084Y-98350185D02*
G01*
X107533839Y-98402989D01*
X107540311Y-98420566D01*
X107567173Y-98514979D01*
X107567176Y-98514985D01*
X107666222Y-98713896D01*
X107800133Y-98891224D01*
X107964344Y-99040921D01*
X107964346Y-99040923D01*
X108153266Y-99157897D01*
X108153272Y-99157900D01*
X108192684Y-99173168D01*
X108351367Y-99234642D01*
X108406766Y-99277214D01*
X108430357Y-99342981D01*
X108414646Y-99411061D01*
X108364622Y-99459840D01*
X108351365Y-99465894D01*
X108153505Y-99542545D01*
X108153490Y-99542552D01*
X107964651Y-99659476D01*
X107952597Y-99670465D01*
X108533130Y-100250998D01*
X108451955Y-100292359D01*
X108362359Y-100381955D01*
X108320998Y-100463129D01*
X107743056Y-99885187D01*
X107666651Y-99986367D01*
X107666646Y-99986374D01*
X107567649Y-100185186D01*
X107567643Y-100185201D01*
X107506860Y-100398831D01*
X107506859Y-100398833D01*
X107486366Y-100619999D01*
X107486366Y-100620000D01*
X107506859Y-100841166D01*
X107506860Y-100841168D01*
X107567643Y-101054798D01*
X107567649Y-101054813D01*
X107666646Y-101253625D01*
X107666651Y-101253632D01*
X107743056Y-101354811D01*
X108320998Y-100776869D01*
X108362359Y-100858045D01*
X108451955Y-100947641D01*
X108533129Y-100989001D01*
X107952596Y-101569533D01*
X107952597Y-101569534D01*
X107964643Y-101580517D01*
X107964652Y-101580523D01*
X108062198Y-101640921D01*
X108108834Y-101692949D01*
X108119938Y-101761930D01*
X108091985Y-101825965D01*
X108084602Y-101834029D01*
X107895451Y-102023181D01*
X107834128Y-102056666D01*
X107807770Y-102059500D01*
X102565624Y-102059500D01*
X102498585Y-102039815D01*
X102464048Y-102006622D01*
X102461598Y-102003123D01*
X102448417Y-101989942D01*
X102306877Y-101848402D01*
X102127639Y-101722898D01*
X102127640Y-101722898D01*
X102127638Y-101722897D01*
X101975824Y-101652105D01*
X101923385Y-101605932D01*
X101904233Y-101538739D01*
X101924449Y-101471858D01*
X101975825Y-101427340D01*
X102127392Y-101356664D01*
X102272750Y-101254882D01*
X101731718Y-100713850D01*
X101773100Y-100694952D01*
X101881761Y-100600798D01*
X101944815Y-100502683D01*
X102484882Y-101042750D01*
X102586665Y-100897391D01*
X102586669Y-100897383D01*
X102679100Y-100699164D01*
X102679105Y-100699150D01*
X102735710Y-100487894D01*
X102735712Y-100487884D01*
X102754775Y-100270000D01*
X102754775Y-100269999D01*
X102735712Y-100052115D01*
X102735710Y-100052105D01*
X102679105Y-99840849D01*
X102679101Y-99840840D01*
X102586666Y-99642613D01*
X102484880Y-99497248D01*
X101944814Y-100037315D01*
X101881761Y-99939202D01*
X101773100Y-99845048D01*
X101731718Y-99826149D01*
X102272750Y-99285117D01*
X102127387Y-99183333D01*
X101975824Y-99112658D01*
X101923385Y-99066486D01*
X101904233Y-98999292D01*
X101924449Y-98932411D01*
X101975822Y-98887895D01*
X102127639Y-98817102D01*
X102306877Y-98691598D01*
X102461598Y-98536877D01*
X102569081Y-98383374D01*
X102623657Y-98339751D01*
X102670655Y-98330500D01*
X107421045Y-98330500D01*
X107488084Y-98350185D01*
G37*
G04 #@! TD.AperFunction*
G04 #@! TA.AperFunction,Conductor*
G36*
X109614153Y-98958055D02*
G01*
X109668093Y-99002465D01*
X109689461Y-99068987D01*
X109689500Y-99072112D01*
X109689500Y-99781268D01*
X109669815Y-99848307D01*
X109653181Y-99868949D01*
X109059001Y-100463129D01*
X109017641Y-100381955D01*
X108928045Y-100292359D01*
X108846870Y-100250998D01*
X109427402Y-99670465D01*
X109427402Y-99670464D01*
X109415356Y-99659482D01*
X109415347Y-99659476D01*
X109226509Y-99542552D01*
X109226503Y-99542549D01*
X109028634Y-99465895D01*
X108973233Y-99423322D01*
X108949642Y-99357555D01*
X108965353Y-99289475D01*
X109015377Y-99240696D01*
X109028615Y-99234649D01*
X109226730Y-99157899D01*
X109415655Y-99040922D01*
X109481963Y-98980473D01*
X109544765Y-98949858D01*
X109614153Y-98958055D01*
G37*
G04 #@! TD.AperFunction*
G04 #@! TA.AperFunction,Conductor*
G36*
X115245560Y-84580185D02*
G01*
X115291315Y-84632989D01*
X115301259Y-84702147D01*
X115287393Y-84740283D01*
X115288777Y-84740973D01*
X115187180Y-84945005D01*
X115187174Y-84945020D01*
X115126366Y-85158738D01*
X115126365Y-85158740D01*
X115105863Y-85379999D01*
X115105863Y-85380000D01*
X115126365Y-85601259D01*
X115126366Y-85601261D01*
X115187174Y-85814979D01*
X115187180Y-85814994D01*
X115286222Y-86013896D01*
X115420133Y-86191224D01*
X115584344Y-86340921D01*
X115584346Y-86340923D01*
X115773266Y-86457897D01*
X115773272Y-86457900D01*
X115799767Y-86468164D01*
X115970675Y-86534374D01*
X116026074Y-86576946D01*
X116049665Y-86642713D01*
X116033954Y-86710793D01*
X115983930Y-86759572D01*
X115970684Y-86765621D01*
X115891371Y-86796348D01*
X115773272Y-86842099D01*
X115773266Y-86842102D01*
X115584346Y-86959076D01*
X115584344Y-86959078D01*
X115420133Y-87108775D01*
X115286222Y-87286103D01*
X115187180Y-87485005D01*
X115187174Y-87485020D01*
X115126366Y-87698738D01*
X115126365Y-87698740D01*
X115105863Y-87919999D01*
X115105863Y-87920000D01*
X115126365Y-88141259D01*
X115126366Y-88141261D01*
X115187174Y-88354979D01*
X115187180Y-88354994D01*
X115286222Y-88553896D01*
X115420133Y-88731224D01*
X115584344Y-88880921D01*
X115584346Y-88880923D01*
X115773266Y-88997897D01*
X115773272Y-88997900D01*
X115778693Y-89000000D01*
X115970675Y-89074374D01*
X116026074Y-89116946D01*
X116049665Y-89182713D01*
X116033954Y-89250793D01*
X115983930Y-89299572D01*
X115970684Y-89305621D01*
X115891371Y-89336348D01*
X115773272Y-89382099D01*
X115773266Y-89382102D01*
X115584346Y-89499076D01*
X115584344Y-89499078D01*
X115420133Y-89648775D01*
X115286222Y-89826103D01*
X115187180Y-90025005D01*
X115187174Y-90025020D01*
X115126366Y-90238738D01*
X115126365Y-90238740D01*
X115105863Y-90459999D01*
X115105863Y-90460000D01*
X115126365Y-90681259D01*
X115126366Y-90681261D01*
X115187174Y-90894979D01*
X115187180Y-90894994D01*
X115286222Y-91093896D01*
X115420133Y-91271224D01*
X115584344Y-91420921D01*
X115584346Y-91420923D01*
X115773266Y-91537897D01*
X115773272Y-91537900D01*
X115815693Y-91554333D01*
X115970675Y-91614374D01*
X116026074Y-91656946D01*
X116049665Y-91722713D01*
X116033954Y-91790793D01*
X115983930Y-91839572D01*
X115970684Y-91845621D01*
X115891371Y-91876348D01*
X115773272Y-91922099D01*
X115773266Y-91922102D01*
X115584346Y-92039076D01*
X115584344Y-92039078D01*
X115420133Y-92188775D01*
X115286222Y-92366103D01*
X115187180Y-92565005D01*
X115187174Y-92565020D01*
X115126366Y-92778738D01*
X115126365Y-92778740D01*
X115105863Y-92999999D01*
X115105863Y-93000000D01*
X115126365Y-93221259D01*
X115126366Y-93221261D01*
X115187174Y-93434979D01*
X115187180Y-93434994D01*
X115286222Y-93633896D01*
X115420133Y-93811224D01*
X115549676Y-93929317D01*
X115582053Y-93958833D01*
X115584344Y-93960921D01*
X115584346Y-93960923D01*
X115773266Y-94077897D01*
X115773272Y-94077900D01*
X115799176Y-94087935D01*
X115970675Y-94154374D01*
X116026074Y-94196946D01*
X116049665Y-94262713D01*
X116033954Y-94330793D01*
X115983930Y-94379572D01*
X115970684Y-94385621D01*
X115891371Y-94416348D01*
X115773272Y-94462099D01*
X115773266Y-94462102D01*
X115584346Y-94579076D01*
X115584344Y-94579078D01*
X115420133Y-94728775D01*
X115286222Y-94906103D01*
X115187180Y-95105005D01*
X115187174Y-95105020D01*
X115126366Y-95318738D01*
X115126365Y-95318740D01*
X115105863Y-95539999D01*
X115105863Y-95540000D01*
X115126365Y-95761259D01*
X115126366Y-95761261D01*
X115187174Y-95974979D01*
X115187180Y-95974994D01*
X115286222Y-96173896D01*
X115420133Y-96351224D01*
X115584344Y-96500921D01*
X115584346Y-96500923D01*
X115773266Y-96617897D01*
X115773272Y-96617900D01*
X115815693Y-96634333D01*
X115970675Y-96694374D01*
X116026074Y-96736946D01*
X116049665Y-96802713D01*
X116033954Y-96870793D01*
X115983930Y-96919572D01*
X115970684Y-96925621D01*
X115891371Y-96956348D01*
X115773272Y-97002099D01*
X115773266Y-97002102D01*
X115584346Y-97119076D01*
X115584344Y-97119078D01*
X115420133Y-97268775D01*
X115286222Y-97446103D01*
X115187180Y-97645005D01*
X115187174Y-97645020D01*
X115126366Y-97858738D01*
X115126365Y-97858740D01*
X115105863Y-98079999D01*
X115105863Y-98080000D01*
X115126365Y-98301259D01*
X115126366Y-98301261D01*
X115187174Y-98514979D01*
X115187180Y-98514994D01*
X115286222Y-98713896D01*
X115420133Y-98891224D01*
X115584344Y-99040921D01*
X115584346Y-99040923D01*
X115773266Y-99157897D01*
X115773267Y-99157897D01*
X115773270Y-99157899D01*
X115845370Y-99185830D01*
X115900770Y-99228403D01*
X115924361Y-99294170D01*
X115908650Y-99362250D01*
X115858626Y-99411029D01*
X115814458Y-99424677D01*
X115716266Y-99435740D01*
X115716260Y-99435741D01*
X115550376Y-99493786D01*
X115550374Y-99493787D01*
X115401562Y-99587291D01*
X115277288Y-99711565D01*
X115214515Y-99811471D01*
X115162181Y-99857763D01*
X115109521Y-99869500D01*
X111314500Y-99869500D01*
X111247461Y-99849815D01*
X111201706Y-99797011D01*
X111190500Y-99745500D01*
X111190500Y-94725519D01*
X111210185Y-94658480D01*
X111262989Y-94612725D01*
X111332147Y-94602781D01*
X111351044Y-94607806D01*
X111351075Y-94607687D01*
X111517819Y-94650499D01*
X111517823Y-94650500D01*
X111517827Y-94650500D01*
X111640923Y-94650500D01*
X111640925Y-94650500D01*
X111640930Y-94650499D01*
X111640934Y-94650499D01*
X111654174Y-94648826D01*
X111763058Y-94635071D01*
X111915871Y-94574568D01*
X111932678Y-94562357D01*
X112048835Y-94477965D01*
X112048835Y-94477963D01*
X112048837Y-94477963D01*
X112153600Y-94351326D01*
X112223579Y-94202613D01*
X112254376Y-94041170D01*
X112249196Y-93958833D01*
X112745624Y-93958833D01*
X112755944Y-94122860D01*
X112806732Y-94279171D01*
X112806734Y-94279175D01*
X112894798Y-94417940D01*
X113014603Y-94530445D01*
X113014611Y-94530451D01*
X113158628Y-94609625D01*
X113158632Y-94609627D01*
X113317823Y-94650500D01*
X113317827Y-94650500D01*
X113440923Y-94650500D01*
X113440925Y-94650500D01*
X113440930Y-94650499D01*
X113440934Y-94650499D01*
X113454174Y-94648826D01*
X113563058Y-94635071D01*
X113715871Y-94574568D01*
X113732678Y-94562357D01*
X113848835Y-94477965D01*
X113848835Y-94477963D01*
X113848837Y-94477963D01*
X113953600Y-94351326D01*
X114023579Y-94202613D01*
X114054376Y-94041170D01*
X114044056Y-93877140D01*
X113993268Y-93720829D01*
X113905202Y-93582060D01*
X113898178Y-93575464D01*
X113785396Y-93469554D01*
X113785388Y-93469548D01*
X113641371Y-93390374D01*
X113641361Y-93390371D01*
X113482180Y-93349500D01*
X113482177Y-93349500D01*
X113359075Y-93349500D01*
X113359065Y-93349500D01*
X113236942Y-93364929D01*
X113236939Y-93364929D01*
X113084130Y-93425431D01*
X113084121Y-93425436D01*
X112951164Y-93522034D01*
X112951162Y-93522037D01*
X112846400Y-93648673D01*
X112776420Y-93797387D01*
X112756833Y-93900069D01*
X112745624Y-93958830D01*
X112745624Y-93958832D01*
X112745624Y-93958833D01*
X112249196Y-93958833D01*
X112244056Y-93877140D01*
X112193268Y-93720829D01*
X112105202Y-93582060D01*
X112098178Y-93575464D01*
X111985396Y-93469554D01*
X111985388Y-93469548D01*
X111841371Y-93390374D01*
X111841361Y-93390371D01*
X111682180Y-93349500D01*
X111682177Y-93349500D01*
X111559075Y-93349500D01*
X111559065Y-93349500D01*
X111436942Y-93364929D01*
X111436937Y-93364930D01*
X111360147Y-93395334D01*
X111290569Y-93401711D01*
X111228589Y-93369459D01*
X111193885Y-93308817D01*
X111190500Y-93280042D01*
X111190500Y-88801641D01*
X111207113Y-88739641D01*
X111213109Y-88729256D01*
X111277179Y-88618284D01*
X111335674Y-88438256D01*
X111355460Y-88250000D01*
X111335674Y-88061744D01*
X111277179Y-87881716D01*
X111182533Y-87717784D01*
X111055871Y-87577112D01*
X111055870Y-87577111D01*
X110902734Y-87465851D01*
X110902729Y-87465848D01*
X110729807Y-87388857D01*
X110729802Y-87388855D01*
X110584307Y-87357930D01*
X110522825Y-87324738D01*
X110489049Y-87263575D01*
X110493701Y-87193860D01*
X110522405Y-87148961D01*
X113074549Y-84596819D01*
X113135872Y-84563334D01*
X113162230Y-84560500D01*
X115178521Y-84560500D01*
X115245560Y-84580185D01*
G37*
G04 #@! TD.AperFunction*
G04 #@! TA.AperFunction,Conductor*
G36*
X100205703Y-87771045D02*
G01*
X100228309Y-87796937D01*
X100311833Y-87924782D01*
X100311836Y-87924785D01*
X100480256Y-88107738D01*
X100537718Y-88152463D01*
X100578531Y-88209173D01*
X100582206Y-88278946D01*
X100550672Y-88334202D01*
X100550418Y-88338286D01*
X101268281Y-89056149D01*
X101226900Y-89075048D01*
X101118239Y-89169202D01*
X101055185Y-89267316D01*
X100336753Y-88548884D01*
X100336752Y-88548884D01*
X100312237Y-88575516D01*
X100228309Y-88703978D01*
X100175162Y-88749334D01*
X100105931Y-88758758D01*
X100042595Y-88729256D01*
X100005264Y-88670196D01*
X100000500Y-88636156D01*
X100000500Y-87864758D01*
X100020185Y-87797719D01*
X100072989Y-87751964D01*
X100142147Y-87742020D01*
X100205703Y-87771045D01*
G37*
G04 #@! TD.AperFunction*
G04 #@! TA.AperFunction,Conductor*
G36*
X125158239Y-81830798D02*
G01*
X125266900Y-81924952D01*
X125308280Y-81943850D01*
X124767248Y-82484881D01*
X124912612Y-82586666D01*
X125110840Y-82679101D01*
X125110849Y-82679105D01*
X125322105Y-82735710D01*
X125322115Y-82735712D01*
X125539999Y-82754775D01*
X125645521Y-82745542D01*
X125714022Y-82759308D01*
X125764205Y-82807923D01*
X125780139Y-82875951D01*
X125756764Y-82941795D01*
X125744011Y-82956751D01*
X124747584Y-83953181D01*
X124686261Y-83986666D01*
X124659903Y-83989500D01*
X121791230Y-83989500D01*
X121724191Y-83969815D01*
X121678436Y-83917011D01*
X121668492Y-83847853D01*
X121697517Y-83784297D01*
X121703549Y-83777819D01*
X121951469Y-83529899D01*
X122707241Y-82774125D01*
X122768562Y-82740642D01*
X122805722Y-82738280D01*
X122982110Y-82753711D01*
X122999999Y-82755277D01*
X123000000Y-82755277D01*
X123000002Y-82755277D01*
X123028254Y-82752805D01*
X123217977Y-82736207D01*
X123429330Y-82679575D01*
X123627639Y-82587102D01*
X123806877Y-82461598D01*
X123961598Y-82306877D01*
X124087102Y-82127639D01*
X124157895Y-81975822D01*
X124204066Y-81923385D01*
X124271260Y-81904233D01*
X124338141Y-81924449D01*
X124382658Y-81975824D01*
X124453333Y-82127387D01*
X124555117Y-82272750D01*
X125095184Y-81732683D01*
X125158239Y-81830798D01*
G37*
G04 #@! TD.AperFunction*
M02*
