G04 #@! TF.GenerationSoftware,KiCad,Pcbnew,7.0.8*
G04 #@! TF.CreationDate,2024-02-28T21:31:28+09:00*
G04 #@! TF.ProjectId,KT0913_Digital_Radio_1.2w,4b543039-3133-45f4-9469-676974616c5f,rev?*
G04 #@! TF.SameCoordinates,Original*
G04 #@! TF.FileFunction,Soldermask,Bot*
G04 #@! TF.FilePolarity,Negative*
%FSLAX46Y46*%
G04 Gerber Fmt 4.6, Leading zero omitted, Abs format (unit mm)*
G04 Created by KiCad (PCBNEW 7.0.8) date 2024-02-28 21:31:28*
%MOMM*%
%LPD*%
G01*
G04 APERTURE LIST*
G04 Aperture macros list*
%AMRoundRect*
0 Rectangle with rounded corners*
0 $1 Rounding radius*
0 $2 $3 $4 $5 $6 $7 $8 $9 X,Y pos of 4 corners*
0 Add a 4 corners polygon primitive as box body*
4,1,4,$2,$3,$4,$5,$6,$7,$8,$9,$2,$3,0*
0 Add four circle primitives for the rounded corners*
1,1,$1+$1,$2,$3*
1,1,$1+$1,$4,$5*
1,1,$1+$1,$6,$7*
1,1,$1+$1,$8,$9*
0 Add four rect primitives between the rounded corners*
20,1,$1+$1,$2,$3,$4,$5,0*
20,1,$1+$1,$4,$5,$6,$7,0*
20,1,$1+$1,$6,$7,$8,$9,0*
20,1,$1+$1,$8,$9,$2,$3,0*%
%AMFreePoly0*
4,1,21,-0.698500,0.419100,-0.677232,0.526022,-0.616666,0.616666,-0.526022,0.677232,-0.419100,0.698500,0.419100,0.698500,0.526022,0.677232,0.616666,0.616666,0.677232,0.526022,0.698500,0.419100,0.698500,-0.419100,0.677232,-0.526022,0.616666,-0.616666,0.526022,-0.677232,0.419100,-0.698500,-0.419100,-0.698500,-0.526022,-0.677232,-0.616666,-0.616666,-0.677232,-0.526022,-0.698500,-0.419100,
-0.698500,0.419100,-0.698500,0.419100,$1*%
%AMFreePoly1*
4,1,25,-0.750000,0.450000,-0.742031,0.518685,-0.697499,0.619541,-0.619541,0.697499,-0.518685,0.742031,-0.450000,0.750000,0.450000,0.750000,0.518685,0.742031,0.619541,0.697499,0.697499,0.619541,0.742031,0.518685,0.750000,0.450000,0.750000,-0.450000,0.742031,-0.518685,0.697499,-0.619541,0.619541,-0.697499,0.518685,-0.742031,0.450000,-0.750000,-0.450000,-0.750000,-0.518685,-0.742031,
-0.619541,-0.697499,-0.697499,-0.619541,-0.742031,-0.518685,-0.750000,-0.450000,-0.750000,0.450000,-0.750000,0.450000,$1*%
G04 Aperture macros list end*
%ADD10FreePoly0,90.000000*%
%ADD11C,1.397000*%
%ADD12C,2.000000*%
%ADD13C,5.000000*%
%ADD14C,1.500000*%
%ADD15C,1.200000*%
%ADD16C,1.000000*%
%ADD17C,1.800000*%
%ADD18O,2.200000X2.800000*%
%ADD19O,3.000000X2.000000*%
%ADD20O,2.000000X3.000000*%
%ADD21C,1.700000*%
%ADD22R,1.500000X1.500000*%
%ADD23O,3.600000X2.000000*%
%ADD24RoundRect,0.230000X0.230000X-0.570000X0.230000X0.570000X-0.230000X0.570000X-0.230000X-0.570000X0*%
%ADD25RoundRect,0.230000X0.570000X0.230000X-0.570000X0.230000X-0.570000X-0.230000X0.570000X-0.230000X0*%
%ADD26RoundRect,0.230000X-0.570000X-0.230000X0.570000X-0.230000X0.570000X0.230000X-0.570000X0.230000X0*%
%ADD27RoundRect,0.200000X-0.200000X0.650000X-0.200000X-0.650000X0.200000X-0.650000X0.200000X0.650000X0*%
%ADD28RoundRect,0.230000X-0.230000X0.570000X-0.230000X-0.570000X0.230000X-0.570000X0.230000X0.570000X0*%
%ADD29RoundRect,0.085000X-0.085000X0.715000X-0.085000X-0.715000X0.085000X-0.715000X0.085000X0.715000X0*%
%ADD30O,2.600000X1.800000*%
%ADD31RoundRect,0.100000X-0.100000X0.700000X-0.100000X-0.700000X0.100000X-0.700000X0.100000X0.700000X0*%
%ADD32FreePoly1,90.000000*%
%ADD33C,0.800000*%
%ADD34RoundRect,0.400000X-0.400000X0.600000X-0.400000X-0.600000X0.400000X-0.600000X0.400000X0.600000X0*%
%ADD35RoundRect,0.162500X0.712500X0.162500X-0.712500X0.162500X-0.712500X-0.162500X0.712500X-0.162500X0*%
%ADD36RoundRect,0.162500X-0.162500X0.712500X-0.162500X-0.712500X0.162500X-0.712500X0.162500X0.712500X0*%
%ADD37RoundRect,0.150000X-0.725000X-0.150000X0.725000X-0.150000X0.725000X0.150000X-0.725000X0.150000X0*%
%ADD38RoundRect,0.162500X-0.712500X-0.162500X0.712500X-0.162500X0.712500X0.162500X-0.712500X0.162500X0*%
G04 APERTURE END LIST*
D10*
X116310000Y-100620000D03*
D11*
X116310000Y-98080000D03*
X116310000Y-95540000D03*
X116310000Y-93000000D03*
X116310000Y-90460000D03*
X116310000Y-87920000D03*
X116310000Y-85380000D03*
X108690000Y-85380000D03*
X108690000Y-87920000D03*
X108690000Y-90460000D03*
X108690000Y-93000000D03*
X108690000Y-95540000D03*
X108690000Y-98080000D03*
X108690000Y-100620000D03*
D12*
X119750000Y-98750000D03*
X126250000Y-98750000D03*
X119750000Y-103250000D03*
X126250000Y-103250000D03*
D13*
X143000000Y-53000000D03*
D12*
X109000000Y-52000000D03*
D14*
X139500000Y-99000000D03*
X142000000Y-99000000D03*
X144500000Y-99000000D03*
D13*
X103000000Y-117000000D03*
D12*
X101500000Y-87000000D03*
X119500000Y-118700000D03*
D15*
X143500000Y-110000000D03*
X143500000Y-102000000D03*
D14*
X132059921Y-93500000D03*
X132059921Y-84500000D03*
D12*
X119750000Y-110750000D03*
X126250000Y-110750000D03*
X119750000Y-115250000D03*
X126250000Y-115250000D03*
D14*
X129000000Y-93500000D03*
X129000000Y-84500000D03*
D16*
X130000000Y-54000000D03*
X130000000Y-56000000D03*
D15*
X138000000Y-52000000D03*
X130000000Y-52000000D03*
D12*
X103500000Y-84500000D03*
X126250000Y-91250000D03*
X119750000Y-91250000D03*
X126250000Y-86750000D03*
X119750000Y-86750000D03*
D13*
X143000000Y-117000000D03*
D15*
X120000000Y-55500000D03*
X115000000Y-55500000D03*
D17*
X109460000Y-115936000D03*
X114540000Y-115936000D03*
D12*
X101500000Y-89500000D03*
D18*
X146600000Y-90500000D03*
X146600000Y-90500000D03*
D19*
X143200000Y-85950000D03*
X143200000Y-95050000D03*
X138450000Y-85280000D03*
X138450000Y-95720000D03*
D20*
X135450000Y-86350000D03*
X135450000Y-94650000D03*
D19*
X140000000Y-87730000D03*
X140000000Y-93270000D03*
D21*
X106000000Y-95500000D03*
X106000000Y-105500000D03*
D13*
X103000000Y-53000000D03*
D15*
X123000000Y-53500000D03*
X128000000Y-53500000D03*
X123000000Y-55500000D03*
X128000000Y-55500000D03*
D17*
X101900000Y-79700000D03*
X144100000Y-79700000D03*
D22*
X112840000Y-81500000D03*
D14*
X115380000Y-81500000D03*
X117920000Y-81500000D03*
X120460000Y-81500000D03*
X123000000Y-81500000D03*
X125540000Y-81500000D03*
X128080000Y-81500000D03*
X130620000Y-81500000D03*
X133160000Y-81500000D03*
D23*
X105200000Y-78900000D03*
X140800000Y-78900000D03*
D15*
X141000000Y-102000000D03*
X141000000Y-110000000D03*
D12*
X126500000Y-118700000D03*
D15*
X120500000Y-53500000D03*
X112500000Y-53500000D03*
X106000000Y-85000000D03*
X106000000Y-93000000D03*
D24*
X112500000Y-87700000D03*
X112500000Y-85300000D03*
D25*
X139200000Y-64000000D03*
X136800000Y-64000000D03*
D26*
X117800000Y-77500000D03*
X120200000Y-77500000D03*
D25*
X139200000Y-69000000D03*
X136800000Y-69000000D03*
D26*
X121800000Y-96500000D03*
X124200000Y-96500000D03*
D27*
X106000000Y-99600000D03*
X106000000Y-102400000D03*
D28*
X124000000Y-60800000D03*
X124000000Y-63200000D03*
D24*
X108000000Y-107700000D03*
X108000000Y-105300000D03*
D29*
X133025000Y-101900000D03*
X133675000Y-101900000D03*
X134325000Y-101900000D03*
X134975000Y-101900000D03*
X134975000Y-106100000D03*
X134325000Y-106100000D03*
X133675000Y-106100000D03*
X133025000Y-106100000D03*
D30*
X134000000Y-104000000D03*
D31*
X127777500Y-60200000D03*
X128412500Y-60200000D03*
X129047500Y-60200000D03*
X129682500Y-60200000D03*
X130317500Y-60200000D03*
X130952500Y-60200000D03*
X131587500Y-60200000D03*
X132222500Y-60200000D03*
X132222500Y-65800000D03*
X131587500Y-65800000D03*
X130952500Y-65800000D03*
X130317500Y-65800000D03*
X129682500Y-65800000D03*
X129047500Y-65800000D03*
X128412500Y-65800000D03*
X127777500Y-65800000D03*
D28*
X116500000Y-105800000D03*
X116500000Y-108200000D03*
D25*
X139200000Y-71000000D03*
X136800000Y-71000000D03*
D32*
X101500000Y-105350000D03*
D14*
X101500000Y-102810000D03*
X101500000Y-100270000D03*
X101500000Y-97730000D03*
X101500000Y-95190000D03*
X101500000Y-92650000D03*
D28*
X118500000Y-105800000D03*
X118500000Y-108200000D03*
D24*
X113500000Y-100700000D03*
X113500000Y-98300000D03*
D25*
X131700000Y-96000000D03*
X129300000Y-96000000D03*
D24*
X131500000Y-90200000D03*
X131500000Y-87800000D03*
D33*
X113900000Y-93000000D03*
X112100000Y-93000000D03*
D34*
X113000000Y-90400000D03*
X113000000Y-95600000D03*
D24*
X129500000Y-90200000D03*
X129500000Y-87800000D03*
D28*
X127500000Y-105800000D03*
X127500000Y-108200000D03*
D17*
X136540000Y-115936000D03*
X131460000Y-115936000D03*
D25*
X139200000Y-67000000D03*
X136800000Y-67000000D03*
X131700000Y-98000000D03*
X129300000Y-98000000D03*
D24*
X123000000Y-108200000D03*
X123000000Y-105800000D03*
D35*
X110450000Y-72550000D03*
X110450000Y-74450000D03*
X107550000Y-73500000D03*
D28*
X141000000Y-104800000D03*
X141000000Y-107200000D03*
D36*
X103550000Y-108550000D03*
X105450000Y-108550000D03*
X104500000Y-111450000D03*
D24*
X121000000Y-108200000D03*
X121000000Y-105800000D03*
D26*
X121800000Y-101000000D03*
X124200000Y-101000000D03*
D25*
X120200000Y-75500000D03*
X117800000Y-75500000D03*
D37*
X111050000Y-104450000D03*
X111050000Y-103500000D03*
X111050000Y-102550000D03*
D38*
X113950000Y-102550000D03*
X113950000Y-104450000D03*
D28*
X125000000Y-105800000D03*
X125000000Y-108200000D03*
D26*
X121800000Y-94500000D03*
X124200000Y-94500000D03*
M02*
