G04 #@! TF.GenerationSoftware,KiCad,Pcbnew,7.0.8*
G04 #@! TF.CreationDate,2024-02-28T21:31:28+09:00*
G04 #@! TF.ProjectId,KT0913_Digital_Radio_1.2w,4b543039-3133-45f4-9469-676974616c5f,rev?*
G04 #@! TF.SameCoordinates,Original*
G04 #@! TF.FileFunction,Legend,Top*
G04 #@! TF.FilePolarity,Positive*
%FSLAX46Y46*%
G04 Gerber Fmt 4.6, Leading zero omitted, Abs format (unit mm)*
G04 Created by KiCad (PCBNEW 7.0.8) date 2024-02-28 21:31:28*
%MOMM*%
%LPD*%
G01*
G04 APERTURE LIST*
%ADD10C,0.150000*%
%ADD11C,0.250000*%
%ADD12C,0.200000*%
%ADD13C,0.120000*%
%ADD14C,0.381000*%
%ADD15C,0.300000*%
%ADD16C,0.304800*%
%ADD17C,0.010000*%
%ADD18C,0.254000*%
%ADD19C,0.100000*%
%ADD20C,1.700000*%
G04 APERTURE END LIST*
D10*
X133300000Y-109500000D02*
G75*
G03*
X133300000Y-109500000I-1300000J0D01*
G01*
X137300000Y-109500000D02*
G75*
G03*
X137300000Y-109500000I-1300000J0D01*
G01*
D11*
X136000000Y-110500000D02*
X136000000Y-108500000D01*
X135000000Y-109500000D02*
X137000000Y-109500000D01*
X131000000Y-109500000D02*
X133000000Y-109500000D01*
D10*
X129859160Y-99766009D02*
X130125826Y-99766009D01*
X130240112Y-100289819D02*
X129859160Y-100289819D01*
X129859160Y-100289819D02*
X129859160Y-99289819D01*
X129859160Y-99289819D02*
X130240112Y-99289819D01*
X130925827Y-100289819D02*
X130925827Y-99766009D01*
X130925827Y-99766009D02*
X130887732Y-99670771D01*
X130887732Y-99670771D02*
X130811541Y-99623152D01*
X130811541Y-99623152D02*
X130659160Y-99623152D01*
X130659160Y-99623152D02*
X130582970Y-99670771D01*
X130925827Y-100242200D02*
X130849636Y-100289819D01*
X130849636Y-100289819D02*
X130659160Y-100289819D01*
X130659160Y-100289819D02*
X130582970Y-100242200D01*
X130582970Y-100242200D02*
X130544874Y-100146961D01*
X130544874Y-100146961D02*
X130544874Y-100051723D01*
X130544874Y-100051723D02*
X130582970Y-99956485D01*
X130582970Y-99956485D02*
X130659160Y-99908866D01*
X130659160Y-99908866D02*
X130849636Y-99908866D01*
X130849636Y-99908866D02*
X130925827Y-99861247D01*
X131306780Y-100289819D02*
X131306780Y-99623152D01*
X131306780Y-99813628D02*
X131344875Y-99718390D01*
X131344875Y-99718390D02*
X131382970Y-99670771D01*
X131382970Y-99670771D02*
X131459161Y-99623152D01*
X131459161Y-99623152D02*
X131535351Y-99623152D01*
X131802018Y-100289819D02*
X131802018Y-99289819D01*
X131802018Y-99289819D02*
X132106780Y-99289819D01*
X132106780Y-99289819D02*
X132182970Y-99337438D01*
X132182970Y-99337438D02*
X132221065Y-99385057D01*
X132221065Y-99385057D02*
X132259161Y-99480295D01*
X132259161Y-99480295D02*
X132259161Y-99623152D01*
X132259161Y-99623152D02*
X132221065Y-99718390D01*
X132221065Y-99718390D02*
X132182970Y-99766009D01*
X132182970Y-99766009D02*
X132106780Y-99813628D01*
X132106780Y-99813628D02*
X131802018Y-99813628D01*
X132602018Y-100289819D02*
X132602018Y-99289819D01*
X132944875Y-100289819D02*
X132944875Y-99766009D01*
X132944875Y-99766009D02*
X132906780Y-99670771D01*
X132906780Y-99670771D02*
X132830589Y-99623152D01*
X132830589Y-99623152D02*
X132716303Y-99623152D01*
X132716303Y-99623152D02*
X132640113Y-99670771D01*
X132640113Y-99670771D02*
X132602018Y-99718390D01*
X133440113Y-100289819D02*
X133363923Y-100242200D01*
X133363923Y-100242200D02*
X133325828Y-100194580D01*
X133325828Y-100194580D02*
X133287732Y-100099342D01*
X133287732Y-100099342D02*
X133287732Y-99813628D01*
X133287732Y-99813628D02*
X133325828Y-99718390D01*
X133325828Y-99718390D02*
X133363923Y-99670771D01*
X133363923Y-99670771D02*
X133440113Y-99623152D01*
X133440113Y-99623152D02*
X133554399Y-99623152D01*
X133554399Y-99623152D02*
X133630590Y-99670771D01*
X133630590Y-99670771D02*
X133668685Y-99718390D01*
X133668685Y-99718390D02*
X133706780Y-99813628D01*
X133706780Y-99813628D02*
X133706780Y-100099342D01*
X133706780Y-100099342D02*
X133668685Y-100194580D01*
X133668685Y-100194580D02*
X133630590Y-100242200D01*
X133630590Y-100242200D02*
X133554399Y-100289819D01*
X133554399Y-100289819D02*
X133440113Y-100289819D01*
X134049638Y-99623152D02*
X134049638Y-100289819D01*
X134049638Y-99718390D02*
X134087733Y-99670771D01*
X134087733Y-99670771D02*
X134163923Y-99623152D01*
X134163923Y-99623152D02*
X134278209Y-99623152D01*
X134278209Y-99623152D02*
X134354400Y-99670771D01*
X134354400Y-99670771D02*
X134392495Y-99766009D01*
X134392495Y-99766009D02*
X134392495Y-100289819D01*
X135078210Y-100242200D02*
X135002019Y-100289819D01*
X135002019Y-100289819D02*
X134849638Y-100289819D01*
X134849638Y-100289819D02*
X134773448Y-100242200D01*
X134773448Y-100242200D02*
X134735352Y-100146961D01*
X134735352Y-100146961D02*
X134735352Y-99766009D01*
X134735352Y-99766009D02*
X134773448Y-99670771D01*
X134773448Y-99670771D02*
X134849638Y-99623152D01*
X134849638Y-99623152D02*
X135002019Y-99623152D01*
X135002019Y-99623152D02*
X135078210Y-99670771D01*
X135078210Y-99670771D02*
X135116305Y-99766009D01*
X135116305Y-99766009D02*
X135116305Y-99861247D01*
X135116305Y-99861247D02*
X134735352Y-99956485D01*
X136030590Y-99242200D02*
X135344876Y-100527914D01*
X136449638Y-99289819D02*
X136602019Y-99289819D01*
X136602019Y-99289819D02*
X136678209Y-99337438D01*
X136678209Y-99337438D02*
X136754400Y-99432676D01*
X136754400Y-99432676D02*
X136792495Y-99623152D01*
X136792495Y-99623152D02*
X136792495Y-99956485D01*
X136792495Y-99956485D02*
X136754400Y-100146961D01*
X136754400Y-100146961D02*
X136678209Y-100242200D01*
X136678209Y-100242200D02*
X136602019Y-100289819D01*
X136602019Y-100289819D02*
X136449638Y-100289819D01*
X136449638Y-100289819D02*
X136373447Y-100242200D01*
X136373447Y-100242200D02*
X136297257Y-100146961D01*
X136297257Y-100146961D02*
X136259161Y-99956485D01*
X136259161Y-99956485D02*
X136259161Y-99623152D01*
X136259161Y-99623152D02*
X136297257Y-99432676D01*
X136297257Y-99432676D02*
X136373447Y-99337438D01*
X136373447Y-99337438D02*
X136449638Y-99289819D01*
X137402018Y-99766009D02*
X137135352Y-99766009D01*
X137135352Y-100289819D02*
X137135352Y-99289819D01*
X137135352Y-99289819D02*
X137516304Y-99289819D01*
X138087732Y-99766009D02*
X137821066Y-99766009D01*
X137821066Y-100289819D02*
X137821066Y-99289819D01*
X137821066Y-99289819D02*
X138202018Y-99289819D01*
D12*
X111661904Y-102398480D02*
X111661904Y-103288957D01*
X111661904Y-103288957D02*
X111714285Y-103393719D01*
X111714285Y-103393719D02*
X111766666Y-103446100D01*
X111766666Y-103446100D02*
X111871428Y-103498480D01*
X111871428Y-103498480D02*
X112080952Y-103498480D01*
X112080952Y-103498480D02*
X112185714Y-103446100D01*
X112185714Y-103446100D02*
X112238095Y-103393719D01*
X112238095Y-103393719D02*
X112290476Y-103288957D01*
X112290476Y-103288957D02*
X112290476Y-102398480D01*
X113285714Y-102765147D02*
X113285714Y-103498480D01*
X113023809Y-102346100D02*
X112761904Y-103131814D01*
X112761904Y-103131814D02*
X113442857Y-103131814D01*
X111598480Y-98338095D02*
X110498480Y-98338095D01*
X110498480Y-98338095D02*
X110498480Y-97919047D01*
X110498480Y-97919047D02*
X110550861Y-97814285D01*
X110550861Y-97814285D02*
X110603242Y-97761904D01*
X110603242Y-97761904D02*
X110708004Y-97709523D01*
X110708004Y-97709523D02*
X110865147Y-97709523D01*
X110865147Y-97709523D02*
X110969909Y-97761904D01*
X110969909Y-97761904D02*
X111022290Y-97814285D01*
X111022290Y-97814285D02*
X111074671Y-97919047D01*
X111074671Y-97919047D02*
X111074671Y-98338095D01*
X111598480Y-97238095D02*
X110498480Y-97238095D01*
X111493719Y-96085713D02*
X111546100Y-96138094D01*
X111546100Y-96138094D02*
X111598480Y-96295237D01*
X111598480Y-96295237D02*
X111598480Y-96399999D01*
X111598480Y-96399999D02*
X111546100Y-96557142D01*
X111546100Y-96557142D02*
X111441338Y-96661904D01*
X111441338Y-96661904D02*
X111336576Y-96714285D01*
X111336576Y-96714285D02*
X111127052Y-96766666D01*
X111127052Y-96766666D02*
X110969909Y-96766666D01*
X110969909Y-96766666D02*
X110760385Y-96714285D01*
X110760385Y-96714285D02*
X110655623Y-96661904D01*
X110655623Y-96661904D02*
X110550861Y-96557142D01*
X110550861Y-96557142D02*
X110498480Y-96399999D01*
X110498480Y-96399999D02*
X110498480Y-96295237D01*
X110498480Y-96295237D02*
X110550861Y-96138094D01*
X110550861Y-96138094D02*
X110603242Y-96085713D01*
X111598480Y-95038094D02*
X111598480Y-95666666D01*
X111598480Y-95352380D02*
X110498480Y-95352380D01*
X110498480Y-95352380D02*
X110655623Y-95457142D01*
X110655623Y-95457142D02*
X110760385Y-95561904D01*
X110760385Y-95561904D02*
X110812766Y-95666666D01*
X110498480Y-94095237D02*
X110498480Y-94304761D01*
X110498480Y-94304761D02*
X110550861Y-94409523D01*
X110550861Y-94409523D02*
X110603242Y-94461904D01*
X110603242Y-94461904D02*
X110760385Y-94566666D01*
X110760385Y-94566666D02*
X110969909Y-94619047D01*
X110969909Y-94619047D02*
X111388957Y-94619047D01*
X111388957Y-94619047D02*
X111493719Y-94566666D01*
X111493719Y-94566666D02*
X111546100Y-94514285D01*
X111546100Y-94514285D02*
X111598480Y-94409523D01*
X111598480Y-94409523D02*
X111598480Y-94199999D01*
X111598480Y-94199999D02*
X111546100Y-94095237D01*
X111546100Y-94095237D02*
X111493719Y-94042856D01*
X111493719Y-94042856D02*
X111388957Y-93990475D01*
X111388957Y-93990475D02*
X111127052Y-93990475D01*
X111127052Y-93990475D02*
X111022290Y-94042856D01*
X111022290Y-94042856D02*
X110969909Y-94095237D01*
X110969909Y-94095237D02*
X110917528Y-94199999D01*
X110917528Y-94199999D02*
X110917528Y-94409523D01*
X110917528Y-94409523D02*
X110969909Y-94514285D01*
X110969909Y-94514285D02*
X111022290Y-94566666D01*
X111022290Y-94566666D02*
X111127052Y-94619047D01*
X111022290Y-93152380D02*
X111022290Y-93519047D01*
X111598480Y-93519047D02*
X110498480Y-93519047D01*
X110498480Y-93519047D02*
X110498480Y-92995237D01*
X111598480Y-91999999D02*
X111598480Y-92628571D01*
X111598480Y-92314285D02*
X110498480Y-92314285D01*
X110498480Y-92314285D02*
X110655623Y-92419047D01*
X110655623Y-92419047D02*
X110760385Y-92523809D01*
X110760385Y-92523809D02*
X110812766Y-92628571D01*
X110969909Y-91371428D02*
X110917528Y-91476190D01*
X110917528Y-91476190D02*
X110865147Y-91528571D01*
X110865147Y-91528571D02*
X110760385Y-91580952D01*
X110760385Y-91580952D02*
X110708004Y-91580952D01*
X110708004Y-91580952D02*
X110603242Y-91528571D01*
X110603242Y-91528571D02*
X110550861Y-91476190D01*
X110550861Y-91476190D02*
X110498480Y-91371428D01*
X110498480Y-91371428D02*
X110498480Y-91161904D01*
X110498480Y-91161904D02*
X110550861Y-91057142D01*
X110550861Y-91057142D02*
X110603242Y-91004761D01*
X110603242Y-91004761D02*
X110708004Y-90952380D01*
X110708004Y-90952380D02*
X110760385Y-90952380D01*
X110760385Y-90952380D02*
X110865147Y-91004761D01*
X110865147Y-91004761D02*
X110917528Y-91057142D01*
X110917528Y-91057142D02*
X110969909Y-91161904D01*
X110969909Y-91161904D02*
X110969909Y-91371428D01*
X110969909Y-91371428D02*
X111022290Y-91476190D01*
X111022290Y-91476190D02*
X111074671Y-91528571D01*
X111074671Y-91528571D02*
X111179433Y-91580952D01*
X111179433Y-91580952D02*
X111388957Y-91580952D01*
X111388957Y-91580952D02*
X111493719Y-91528571D01*
X111493719Y-91528571D02*
X111546100Y-91476190D01*
X111546100Y-91476190D02*
X111598480Y-91371428D01*
X111598480Y-91371428D02*
X111598480Y-91161904D01*
X111598480Y-91161904D02*
X111546100Y-91057142D01*
X111546100Y-91057142D02*
X111493719Y-91004761D01*
X111493719Y-91004761D02*
X111388957Y-90952380D01*
X111388957Y-90952380D02*
X111179433Y-90952380D01*
X111179433Y-90952380D02*
X111074671Y-91004761D01*
X111074671Y-91004761D02*
X111022290Y-91057142D01*
X111022290Y-91057142D02*
X110969909Y-91161904D01*
X110498480Y-90585714D02*
X110498480Y-89904761D01*
X110498480Y-89904761D02*
X110917528Y-90271428D01*
X110917528Y-90271428D02*
X110917528Y-90114285D01*
X110917528Y-90114285D02*
X110969909Y-90009523D01*
X110969909Y-90009523D02*
X111022290Y-89957142D01*
X111022290Y-89957142D02*
X111127052Y-89904761D01*
X111127052Y-89904761D02*
X111388957Y-89904761D01*
X111388957Y-89904761D02*
X111493719Y-89957142D01*
X111493719Y-89957142D02*
X111546100Y-90009523D01*
X111546100Y-90009523D02*
X111598480Y-90114285D01*
X111598480Y-90114285D02*
X111598480Y-90428571D01*
X111598480Y-90428571D02*
X111546100Y-90533333D01*
X111546100Y-90533333D02*
X111493719Y-90585714D01*
X110603242Y-89485714D02*
X110550861Y-89433333D01*
X110550861Y-89433333D02*
X110498480Y-89328571D01*
X110498480Y-89328571D02*
X110498480Y-89066666D01*
X110498480Y-89066666D02*
X110550861Y-88961904D01*
X110550861Y-88961904D02*
X110603242Y-88909523D01*
X110603242Y-88909523D02*
X110708004Y-88857142D01*
X110708004Y-88857142D02*
X110812766Y-88857142D01*
X110812766Y-88857142D02*
X110969909Y-88909523D01*
X110969909Y-88909523D02*
X111598480Y-89538095D01*
X111598480Y-89538095D02*
X111598480Y-88857142D01*
X110498480Y-87914285D02*
X110498480Y-88123809D01*
X110498480Y-88123809D02*
X110550861Y-88228571D01*
X110550861Y-88228571D02*
X110603242Y-88280952D01*
X110603242Y-88280952D02*
X110760385Y-88385714D01*
X110760385Y-88385714D02*
X110969909Y-88438095D01*
X110969909Y-88438095D02*
X111388957Y-88438095D01*
X111388957Y-88438095D02*
X111493719Y-88385714D01*
X111493719Y-88385714D02*
X111546100Y-88333333D01*
X111546100Y-88333333D02*
X111598480Y-88228571D01*
X111598480Y-88228571D02*
X111598480Y-88019047D01*
X111598480Y-88019047D02*
X111546100Y-87914285D01*
X111546100Y-87914285D02*
X111493719Y-87861904D01*
X111493719Y-87861904D02*
X111388957Y-87809523D01*
X111388957Y-87809523D02*
X111127052Y-87809523D01*
X111127052Y-87809523D02*
X111022290Y-87861904D01*
X111022290Y-87861904D02*
X110969909Y-87914285D01*
X110969909Y-87914285D02*
X110917528Y-88019047D01*
X110917528Y-88019047D02*
X110917528Y-88228571D01*
X110917528Y-88228571D02*
X110969909Y-88333333D01*
X110969909Y-88333333D02*
X111022290Y-88385714D01*
X111022290Y-88385714D02*
X111127052Y-88438095D01*
X120800000Y-97414838D02*
X120800000Y-95414838D01*
X120800000Y-95414838D02*
X121200000Y-96843409D01*
X121200000Y-96843409D02*
X121600000Y-95414838D01*
X121600000Y-95414838D02*
X121600000Y-97414838D01*
X122171429Y-96367219D02*
X122571429Y-96367219D01*
X122742857Y-97414838D02*
X122171429Y-97414838D01*
X122171429Y-97414838D02*
X122171429Y-95414838D01*
X122171429Y-95414838D02*
X122742857Y-95414838D01*
X123257143Y-97414838D02*
X123257143Y-95414838D01*
X123257143Y-95414838D02*
X123942857Y-97414838D01*
X123942857Y-97414838D02*
X123942857Y-95414838D01*
X124514286Y-95414838D02*
X124514286Y-97033885D01*
X124514286Y-97033885D02*
X124571429Y-97224361D01*
X124571429Y-97224361D02*
X124628572Y-97319600D01*
X124628572Y-97319600D02*
X124742857Y-97414838D01*
X124742857Y-97414838D02*
X124971429Y-97414838D01*
X124971429Y-97414838D02*
X125085714Y-97319600D01*
X125085714Y-97319600D02*
X125142857Y-97224361D01*
X125142857Y-97224361D02*
X125200000Y-97033885D01*
X125200000Y-97033885D02*
X125200000Y-95414838D01*
X107742857Y-54608028D02*
X108266667Y-54608028D01*
X107638095Y-55122314D02*
X108004762Y-53322314D01*
X108004762Y-53322314D02*
X108371429Y-55122314D01*
X108738095Y-55122314D02*
X108738095Y-53322314D01*
X108738095Y-53322314D02*
X109366667Y-55122314D01*
X109366667Y-55122314D02*
X109366667Y-53322314D01*
X109733333Y-53322314D02*
X110361905Y-53322314D01*
X110047619Y-55122314D02*
X110047619Y-53322314D01*
D10*
X131367618Y-98599104D02*
X131748571Y-98599104D01*
X131291428Y-98884819D02*
X131558095Y-97884819D01*
X131558095Y-97884819D02*
X131824761Y-98884819D01*
X132091428Y-98884819D02*
X132091428Y-97884819D01*
X132091428Y-97884819D02*
X132548571Y-98884819D01*
X132548571Y-98884819D02*
X132548571Y-97884819D01*
X132815237Y-97884819D02*
X133272380Y-97884819D01*
X133043808Y-98884819D02*
X133043808Y-97884819D01*
X134110475Y-98837200D02*
X134224761Y-98884819D01*
X134224761Y-98884819D02*
X134415237Y-98884819D01*
X134415237Y-98884819D02*
X134491428Y-98837200D01*
X134491428Y-98837200D02*
X134529523Y-98789580D01*
X134529523Y-98789580D02*
X134567618Y-98694342D01*
X134567618Y-98694342D02*
X134567618Y-98599104D01*
X134567618Y-98599104D02*
X134529523Y-98503866D01*
X134529523Y-98503866D02*
X134491428Y-98456247D01*
X134491428Y-98456247D02*
X134415237Y-98408628D01*
X134415237Y-98408628D02*
X134262856Y-98361009D01*
X134262856Y-98361009D02*
X134186666Y-98313390D01*
X134186666Y-98313390D02*
X134148571Y-98265771D01*
X134148571Y-98265771D02*
X134110475Y-98170533D01*
X134110475Y-98170533D02*
X134110475Y-98075295D01*
X134110475Y-98075295D02*
X134148571Y-97980057D01*
X134148571Y-97980057D02*
X134186666Y-97932438D01*
X134186666Y-97932438D02*
X134262856Y-97884819D01*
X134262856Y-97884819D02*
X134453333Y-97884819D01*
X134453333Y-97884819D02*
X134567618Y-97932438D01*
X134910476Y-98361009D02*
X135177142Y-98361009D01*
X135291428Y-98884819D02*
X134910476Y-98884819D01*
X134910476Y-98884819D02*
X134910476Y-97884819D01*
X134910476Y-97884819D02*
X135291428Y-97884819D01*
X136015238Y-98884819D02*
X135634286Y-98884819D01*
X135634286Y-98884819D02*
X135634286Y-97884819D01*
X136281905Y-98361009D02*
X136548571Y-98361009D01*
X136662857Y-98884819D02*
X136281905Y-98884819D01*
X136281905Y-98884819D02*
X136281905Y-97884819D01*
X136281905Y-97884819D02*
X136662857Y-97884819D01*
X137462858Y-98789580D02*
X137424762Y-98837200D01*
X137424762Y-98837200D02*
X137310477Y-98884819D01*
X137310477Y-98884819D02*
X137234286Y-98884819D01*
X137234286Y-98884819D02*
X137120000Y-98837200D01*
X137120000Y-98837200D02*
X137043810Y-98741961D01*
X137043810Y-98741961D02*
X137005715Y-98646723D01*
X137005715Y-98646723D02*
X136967619Y-98456247D01*
X136967619Y-98456247D02*
X136967619Y-98313390D01*
X136967619Y-98313390D02*
X137005715Y-98122914D01*
X137005715Y-98122914D02*
X137043810Y-98027676D01*
X137043810Y-98027676D02*
X137120000Y-97932438D01*
X137120000Y-97932438D02*
X137234286Y-97884819D01*
X137234286Y-97884819D02*
X137310477Y-97884819D01*
X137310477Y-97884819D02*
X137424762Y-97932438D01*
X137424762Y-97932438D02*
X137462858Y-97980057D01*
X137691429Y-97884819D02*
X138148572Y-97884819D01*
X137920000Y-98884819D02*
X137920000Y-97884819D01*
X102760133Y-86583333D02*
X103426800Y-86350000D01*
X102760133Y-86183333D02*
X104160133Y-86183333D01*
X104160133Y-86183333D02*
X104160133Y-86450000D01*
X104160133Y-86450000D02*
X104093466Y-86516667D01*
X104093466Y-86516667D02*
X104026800Y-86550000D01*
X104026800Y-86550000D02*
X103893466Y-86583333D01*
X103893466Y-86583333D02*
X103693466Y-86583333D01*
X103693466Y-86583333D02*
X103560133Y-86550000D01*
X103560133Y-86550000D02*
X103493466Y-86516667D01*
X103493466Y-86516667D02*
X103426800Y-86450000D01*
X103426800Y-86450000D02*
X103426800Y-86183333D01*
X102893466Y-87283333D02*
X102826800Y-87250000D01*
X102826800Y-87250000D02*
X102760133Y-87150000D01*
X102760133Y-87150000D02*
X102760133Y-87083333D01*
X102760133Y-87083333D02*
X102826800Y-86983333D01*
X102826800Y-86983333D02*
X102960133Y-86916667D01*
X102960133Y-86916667D02*
X103093466Y-86883333D01*
X103093466Y-86883333D02*
X103360133Y-86850000D01*
X103360133Y-86850000D02*
X103560133Y-86850000D01*
X103560133Y-86850000D02*
X103826800Y-86883333D01*
X103826800Y-86883333D02*
X103960133Y-86916667D01*
X103960133Y-86916667D02*
X104093466Y-86983333D01*
X104093466Y-86983333D02*
X104160133Y-87083333D01*
X104160133Y-87083333D02*
X104160133Y-87150000D01*
X104160133Y-87150000D02*
X104093466Y-87250000D01*
X104093466Y-87250000D02*
X104026800Y-87283333D01*
X104160133Y-87516667D02*
X104160133Y-87950000D01*
X104160133Y-87950000D02*
X103626800Y-87716667D01*
X103626800Y-87716667D02*
X103626800Y-87816667D01*
X103626800Y-87816667D02*
X103560133Y-87883333D01*
X103560133Y-87883333D02*
X103493466Y-87916667D01*
X103493466Y-87916667D02*
X103360133Y-87950000D01*
X103360133Y-87950000D02*
X103026800Y-87950000D01*
X103026800Y-87950000D02*
X102893466Y-87916667D01*
X102893466Y-87916667D02*
X102826800Y-87883333D01*
X102826800Y-87883333D02*
X102760133Y-87816667D01*
X102760133Y-87816667D02*
X102760133Y-87616667D01*
X102760133Y-87616667D02*
X102826800Y-87550000D01*
X102826800Y-87550000D02*
X102893466Y-87516667D01*
X121000000Y-116939866D02*
X120666666Y-116939866D01*
X120666666Y-116939866D02*
X120633333Y-117606533D01*
X120633333Y-117606533D02*
X120666666Y-117539866D01*
X120666666Y-117539866D02*
X120733333Y-117473200D01*
X120733333Y-117473200D02*
X120900000Y-117473200D01*
X120900000Y-117473200D02*
X120966666Y-117539866D01*
X120966666Y-117539866D02*
X121000000Y-117606533D01*
X121000000Y-117606533D02*
X121033333Y-117739866D01*
X121033333Y-117739866D02*
X121033333Y-118073200D01*
X121033333Y-118073200D02*
X121000000Y-118206533D01*
X121000000Y-118206533D02*
X120966666Y-118273200D01*
X120966666Y-118273200D02*
X120900000Y-118339866D01*
X120900000Y-118339866D02*
X120733333Y-118339866D01*
X120733333Y-118339866D02*
X120666666Y-118273200D01*
X120666666Y-118273200D02*
X120633333Y-118206533D01*
X121333333Y-118206533D02*
X121366667Y-118273200D01*
X121366667Y-118273200D02*
X121333333Y-118339866D01*
X121333333Y-118339866D02*
X121300000Y-118273200D01*
X121300000Y-118273200D02*
X121333333Y-118206533D01*
X121333333Y-118206533D02*
X121333333Y-118339866D01*
X121800000Y-116939866D02*
X121866666Y-116939866D01*
X121866666Y-116939866D02*
X121933333Y-117006533D01*
X121933333Y-117006533D02*
X121966666Y-117073200D01*
X121966666Y-117073200D02*
X122000000Y-117206533D01*
X122000000Y-117206533D02*
X122033333Y-117473200D01*
X122033333Y-117473200D02*
X122033333Y-117806533D01*
X122033333Y-117806533D02*
X122000000Y-118073200D01*
X122000000Y-118073200D02*
X121966666Y-118206533D01*
X121966666Y-118206533D02*
X121933333Y-118273200D01*
X121933333Y-118273200D02*
X121866666Y-118339866D01*
X121866666Y-118339866D02*
X121800000Y-118339866D01*
X121800000Y-118339866D02*
X121733333Y-118273200D01*
X121733333Y-118273200D02*
X121700000Y-118206533D01*
X121700000Y-118206533D02*
X121666666Y-118073200D01*
X121666666Y-118073200D02*
X121633333Y-117806533D01*
X121633333Y-117806533D02*
X121633333Y-117473200D01*
X121633333Y-117473200D02*
X121666666Y-117206533D01*
X121666666Y-117206533D02*
X121700000Y-117073200D01*
X121700000Y-117073200D02*
X121733333Y-117006533D01*
X121733333Y-117006533D02*
X121800000Y-116939866D01*
X122266667Y-117406533D02*
X122433333Y-118339866D01*
X122433333Y-118339866D02*
X122600000Y-117406533D01*
X144054819Y-111733332D02*
X143578628Y-111999999D01*
X144054819Y-112190475D02*
X143054819Y-112190475D01*
X143054819Y-112190475D02*
X143054819Y-111885713D01*
X143054819Y-111885713D02*
X143102438Y-111809523D01*
X143102438Y-111809523D02*
X143150057Y-111771428D01*
X143150057Y-111771428D02*
X143245295Y-111733332D01*
X143245295Y-111733332D02*
X143388152Y-111733332D01*
X143388152Y-111733332D02*
X143483390Y-111771428D01*
X143483390Y-111771428D02*
X143531009Y-111809523D01*
X143531009Y-111809523D02*
X143578628Y-111885713D01*
X143578628Y-111885713D02*
X143578628Y-112190475D01*
X143054819Y-111466666D02*
X143054819Y-110971428D01*
X143054819Y-110971428D02*
X143435771Y-111238094D01*
X143435771Y-111238094D02*
X143435771Y-111123809D01*
X143435771Y-111123809D02*
X143483390Y-111047618D01*
X143483390Y-111047618D02*
X143531009Y-111009523D01*
X143531009Y-111009523D02*
X143626247Y-110971428D01*
X143626247Y-110971428D02*
X143864342Y-110971428D01*
X143864342Y-110971428D02*
X143959580Y-111009523D01*
X143959580Y-111009523D02*
X144007200Y-111047618D01*
X144007200Y-111047618D02*
X144054819Y-111123809D01*
X144054819Y-111123809D02*
X144054819Y-111352380D01*
X144054819Y-111352380D02*
X144007200Y-111428571D01*
X144007200Y-111428571D02*
X143959580Y-111466666D01*
X142954819Y-106971428D02*
X142954819Y-106476190D01*
X142954819Y-106476190D02*
X143335771Y-106742856D01*
X143335771Y-106742856D02*
X143335771Y-106628571D01*
X143335771Y-106628571D02*
X143383390Y-106552380D01*
X143383390Y-106552380D02*
X143431009Y-106514285D01*
X143431009Y-106514285D02*
X143526247Y-106476190D01*
X143526247Y-106476190D02*
X143764342Y-106476190D01*
X143764342Y-106476190D02*
X143859580Y-106514285D01*
X143859580Y-106514285D02*
X143907200Y-106552380D01*
X143907200Y-106552380D02*
X143954819Y-106628571D01*
X143954819Y-106628571D02*
X143954819Y-106857142D01*
X143954819Y-106857142D02*
X143907200Y-106933333D01*
X143907200Y-106933333D02*
X143859580Y-106971428D01*
X142954819Y-106209523D02*
X142954819Y-105714285D01*
X142954819Y-105714285D02*
X143335771Y-105980951D01*
X143335771Y-105980951D02*
X143335771Y-105866666D01*
X143335771Y-105866666D02*
X143383390Y-105790475D01*
X143383390Y-105790475D02*
X143431009Y-105752380D01*
X143431009Y-105752380D02*
X143526247Y-105714285D01*
X143526247Y-105714285D02*
X143764342Y-105714285D01*
X143764342Y-105714285D02*
X143859580Y-105752380D01*
X143859580Y-105752380D02*
X143907200Y-105790475D01*
X143907200Y-105790475D02*
X143954819Y-105866666D01*
X143954819Y-105866666D02*
X143954819Y-106095237D01*
X143954819Y-106095237D02*
X143907200Y-106171428D01*
X143907200Y-106171428D02*
X143859580Y-106209523D01*
X143954819Y-105371427D02*
X142954819Y-105371427D01*
X143573866Y-105295237D02*
X143954819Y-105066665D01*
X143288152Y-105066665D02*
X143669104Y-105371427D01*
D12*
X132498480Y-95683332D02*
X132498480Y-96207142D01*
X132498480Y-96207142D02*
X131398480Y-96207142D01*
X132498480Y-94740475D02*
X132498480Y-95369047D01*
X132498480Y-95054761D02*
X131398480Y-95054761D01*
X131398480Y-95054761D02*
X131555623Y-95159523D01*
X131555623Y-95159523D02*
X131660385Y-95264285D01*
X131660385Y-95264285D02*
X131712766Y-95369047D01*
X120742857Y-109414838D02*
X120742857Y-107414838D01*
X120742857Y-107414838D02*
X121028571Y-107414838D01*
X121028571Y-107414838D02*
X121200000Y-107510076D01*
X121200000Y-107510076D02*
X121314285Y-107700552D01*
X121314285Y-107700552D02*
X121371428Y-107891028D01*
X121371428Y-107891028D02*
X121428571Y-108271980D01*
X121428571Y-108271980D02*
X121428571Y-108557695D01*
X121428571Y-108557695D02*
X121371428Y-108938647D01*
X121371428Y-108938647D02*
X121314285Y-109129123D01*
X121314285Y-109129123D02*
X121200000Y-109319600D01*
X121200000Y-109319600D02*
X121028571Y-109414838D01*
X121028571Y-109414838D02*
X120742857Y-109414838D01*
X122171428Y-107414838D02*
X122400000Y-107414838D01*
X122400000Y-107414838D02*
X122514285Y-107510076D01*
X122514285Y-107510076D02*
X122628571Y-107700552D01*
X122628571Y-107700552D02*
X122685714Y-108081504D01*
X122685714Y-108081504D02*
X122685714Y-108748171D01*
X122685714Y-108748171D02*
X122628571Y-109129123D01*
X122628571Y-109129123D02*
X122514285Y-109319600D01*
X122514285Y-109319600D02*
X122400000Y-109414838D01*
X122400000Y-109414838D02*
X122171428Y-109414838D01*
X122171428Y-109414838D02*
X122057143Y-109319600D01*
X122057143Y-109319600D02*
X121942857Y-109129123D01*
X121942857Y-109129123D02*
X121885714Y-108748171D01*
X121885714Y-108748171D02*
X121885714Y-108081504D01*
X121885714Y-108081504D02*
X121942857Y-107700552D01*
X121942857Y-107700552D02*
X122057143Y-107510076D01*
X122057143Y-107510076D02*
X122171428Y-107414838D01*
X123085714Y-107414838D02*
X123371428Y-109414838D01*
X123371428Y-109414838D02*
X123600000Y-107986266D01*
X123600000Y-107986266D02*
X123828571Y-109414838D01*
X123828571Y-109414838D02*
X124114286Y-107414838D01*
X124571429Y-109414838D02*
X124571429Y-107414838D01*
X124571429Y-107414838D02*
X125257143Y-109414838D01*
X125257143Y-109414838D02*
X125257143Y-107414838D01*
X129498480Y-95683332D02*
X129498480Y-96207142D01*
X129498480Y-96207142D02*
X128398480Y-96207142D01*
X128503242Y-95369047D02*
X128450861Y-95316666D01*
X128450861Y-95316666D02*
X128398480Y-95211904D01*
X128398480Y-95211904D02*
X128398480Y-94949999D01*
X128398480Y-94949999D02*
X128450861Y-94845237D01*
X128450861Y-94845237D02*
X128503242Y-94792856D01*
X128503242Y-94792856D02*
X128608004Y-94740475D01*
X128608004Y-94740475D02*
X128712766Y-94740475D01*
X128712766Y-94740475D02*
X128869909Y-94792856D01*
X128869909Y-94792856D02*
X129498480Y-95421428D01*
X129498480Y-95421428D02*
X129498480Y-94740475D01*
D10*
X137619048Y-55078628D02*
X137619048Y-55554819D01*
X137352381Y-54554819D02*
X137619048Y-55078628D01*
X137619048Y-55078628D02*
X137885714Y-54554819D01*
X138571428Y-55554819D02*
X138114285Y-55554819D01*
X138342857Y-55554819D02*
X138342857Y-54554819D01*
X138342857Y-54554819D02*
X138266666Y-54697676D01*
X138266666Y-54697676D02*
X138190476Y-54792914D01*
X138190476Y-54792914D02*
X138114285Y-54840533D01*
X131333333Y-54554819D02*
X131828571Y-54554819D01*
X131828571Y-54554819D02*
X131561905Y-54935771D01*
X131561905Y-54935771D02*
X131676190Y-54935771D01*
X131676190Y-54935771D02*
X131752381Y-54983390D01*
X131752381Y-54983390D02*
X131790476Y-55031009D01*
X131790476Y-55031009D02*
X131828571Y-55126247D01*
X131828571Y-55126247D02*
X131828571Y-55364342D01*
X131828571Y-55364342D02*
X131790476Y-55459580D01*
X131790476Y-55459580D02*
X131752381Y-55507200D01*
X131752381Y-55507200D02*
X131676190Y-55554819D01*
X131676190Y-55554819D02*
X131447619Y-55554819D01*
X131447619Y-55554819D02*
X131371428Y-55507200D01*
X131371428Y-55507200D02*
X131333333Y-55459580D01*
X132133333Y-54650057D02*
X132171429Y-54602438D01*
X132171429Y-54602438D02*
X132247619Y-54554819D01*
X132247619Y-54554819D02*
X132438095Y-54554819D01*
X132438095Y-54554819D02*
X132514286Y-54602438D01*
X132514286Y-54602438D02*
X132552381Y-54650057D01*
X132552381Y-54650057D02*
X132590476Y-54745295D01*
X132590476Y-54745295D02*
X132590476Y-54840533D01*
X132590476Y-54840533D02*
X132552381Y-54983390D01*
X132552381Y-54983390D02*
X132095238Y-55554819D01*
X132095238Y-55554819D02*
X132590476Y-55554819D01*
X132933334Y-55459580D02*
X132971429Y-55507200D01*
X132971429Y-55507200D02*
X132933334Y-55554819D01*
X132933334Y-55554819D02*
X132895238Y-55507200D01*
X132895238Y-55507200D02*
X132933334Y-55459580D01*
X132933334Y-55459580D02*
X132933334Y-55554819D01*
X133238095Y-54554819D02*
X133771429Y-54554819D01*
X133771429Y-54554819D02*
X133428571Y-55554819D01*
X134190476Y-54983390D02*
X134114286Y-54935771D01*
X134114286Y-54935771D02*
X134076191Y-54888152D01*
X134076191Y-54888152D02*
X134038095Y-54792914D01*
X134038095Y-54792914D02*
X134038095Y-54745295D01*
X134038095Y-54745295D02*
X134076191Y-54650057D01*
X134076191Y-54650057D02*
X134114286Y-54602438D01*
X134114286Y-54602438D02*
X134190476Y-54554819D01*
X134190476Y-54554819D02*
X134342857Y-54554819D01*
X134342857Y-54554819D02*
X134419048Y-54602438D01*
X134419048Y-54602438D02*
X134457143Y-54650057D01*
X134457143Y-54650057D02*
X134495238Y-54745295D01*
X134495238Y-54745295D02*
X134495238Y-54792914D01*
X134495238Y-54792914D02*
X134457143Y-54888152D01*
X134457143Y-54888152D02*
X134419048Y-54935771D01*
X134419048Y-54935771D02*
X134342857Y-54983390D01*
X134342857Y-54983390D02*
X134190476Y-54983390D01*
X134190476Y-54983390D02*
X134114286Y-55031009D01*
X134114286Y-55031009D02*
X134076191Y-55078628D01*
X134076191Y-55078628D02*
X134038095Y-55173866D01*
X134038095Y-55173866D02*
X134038095Y-55364342D01*
X134038095Y-55364342D02*
X134076191Y-55459580D01*
X134076191Y-55459580D02*
X134114286Y-55507200D01*
X134114286Y-55507200D02*
X134190476Y-55554819D01*
X134190476Y-55554819D02*
X134342857Y-55554819D01*
X134342857Y-55554819D02*
X134419048Y-55507200D01*
X134419048Y-55507200D02*
X134457143Y-55459580D01*
X134457143Y-55459580D02*
X134495238Y-55364342D01*
X134495238Y-55364342D02*
X134495238Y-55173866D01*
X134495238Y-55173866D02*
X134457143Y-55078628D01*
X134457143Y-55078628D02*
X134419048Y-55031009D01*
X134419048Y-55031009D02*
X134342857Y-54983390D01*
X134838096Y-55554819D02*
X134838096Y-54554819D01*
X134914286Y-55173866D02*
X135142858Y-55554819D01*
X135142858Y-54888152D02*
X134838096Y-55269104D01*
X135485715Y-55554819D02*
X135485715Y-54554819D01*
X135485715Y-55031009D02*
X135942858Y-55031009D01*
X135942858Y-55554819D02*
X135942858Y-54554819D01*
X136247619Y-54888152D02*
X136666667Y-54888152D01*
X136666667Y-54888152D02*
X136247619Y-55554819D01*
X136247619Y-55554819D02*
X136666667Y-55554819D01*
X139266667Y-52454819D02*
X139000000Y-51978628D01*
X138809524Y-52454819D02*
X138809524Y-51454819D01*
X138809524Y-51454819D02*
X139114286Y-51454819D01*
X139114286Y-51454819D02*
X139190476Y-51502438D01*
X139190476Y-51502438D02*
X139228571Y-51550057D01*
X139228571Y-51550057D02*
X139266667Y-51645295D01*
X139266667Y-51645295D02*
X139266667Y-51788152D01*
X139266667Y-51788152D02*
X139228571Y-51883390D01*
X139228571Y-51883390D02*
X139190476Y-51931009D01*
X139190476Y-51931009D02*
X139114286Y-51978628D01*
X139114286Y-51978628D02*
X138809524Y-51978628D01*
X139533333Y-51454819D02*
X140066667Y-51454819D01*
X140066667Y-51454819D02*
X139723809Y-52454819D01*
X133028571Y-51554819D02*
X133523809Y-51554819D01*
X133523809Y-51554819D02*
X133257143Y-51935771D01*
X133257143Y-51935771D02*
X133371428Y-51935771D01*
X133371428Y-51935771D02*
X133447619Y-51983390D01*
X133447619Y-51983390D02*
X133485714Y-52031009D01*
X133485714Y-52031009D02*
X133523809Y-52126247D01*
X133523809Y-52126247D02*
X133523809Y-52364342D01*
X133523809Y-52364342D02*
X133485714Y-52459580D01*
X133485714Y-52459580D02*
X133447619Y-52507200D01*
X133447619Y-52507200D02*
X133371428Y-52554819D01*
X133371428Y-52554819D02*
X133142857Y-52554819D01*
X133142857Y-52554819D02*
X133066666Y-52507200D01*
X133066666Y-52507200D02*
X133028571Y-52459580D01*
X133790476Y-51554819D02*
X134285714Y-51554819D01*
X134285714Y-51554819D02*
X134019048Y-51935771D01*
X134019048Y-51935771D02*
X134133333Y-51935771D01*
X134133333Y-51935771D02*
X134209524Y-51983390D01*
X134209524Y-51983390D02*
X134247619Y-52031009D01*
X134247619Y-52031009D02*
X134285714Y-52126247D01*
X134285714Y-52126247D02*
X134285714Y-52364342D01*
X134285714Y-52364342D02*
X134247619Y-52459580D01*
X134247619Y-52459580D02*
X134209524Y-52507200D01*
X134209524Y-52507200D02*
X134133333Y-52554819D01*
X134133333Y-52554819D02*
X133904762Y-52554819D01*
X133904762Y-52554819D02*
X133828571Y-52507200D01*
X133828571Y-52507200D02*
X133790476Y-52459580D01*
X134628572Y-52554819D02*
X134628572Y-51554819D01*
X134704762Y-52173866D02*
X134933334Y-52554819D01*
X134933334Y-51888152D02*
X134628572Y-52269104D01*
X102139866Y-84916666D02*
X101473200Y-85149999D01*
X102139866Y-85316666D02*
X100739866Y-85316666D01*
X100739866Y-85316666D02*
X100739866Y-85049999D01*
X100739866Y-85049999D02*
X100806533Y-84983333D01*
X100806533Y-84983333D02*
X100873200Y-84949999D01*
X100873200Y-84949999D02*
X101006533Y-84916666D01*
X101006533Y-84916666D02*
X101206533Y-84916666D01*
X101206533Y-84916666D02*
X101339866Y-84949999D01*
X101339866Y-84949999D02*
X101406533Y-84983333D01*
X101406533Y-84983333D02*
X101473200Y-85049999D01*
X101473200Y-85049999D02*
X101473200Y-85316666D01*
X102006533Y-84216666D02*
X102073200Y-84249999D01*
X102073200Y-84249999D02*
X102139866Y-84349999D01*
X102139866Y-84349999D02*
X102139866Y-84416666D01*
X102139866Y-84416666D02*
X102073200Y-84516666D01*
X102073200Y-84516666D02*
X101939866Y-84583333D01*
X101939866Y-84583333D02*
X101806533Y-84616666D01*
X101806533Y-84616666D02*
X101539866Y-84649999D01*
X101539866Y-84649999D02*
X101339866Y-84649999D01*
X101339866Y-84649999D02*
X101073200Y-84616666D01*
X101073200Y-84616666D02*
X100939866Y-84583333D01*
X100939866Y-84583333D02*
X100806533Y-84516666D01*
X100806533Y-84516666D02*
X100739866Y-84416666D01*
X100739866Y-84416666D02*
X100739866Y-84349999D01*
X100739866Y-84349999D02*
X100806533Y-84249999D01*
X100806533Y-84249999D02*
X100873200Y-84216666D01*
X102139866Y-83549999D02*
X102139866Y-83949999D01*
X102139866Y-83749999D02*
X100739866Y-83749999D01*
X100739866Y-83749999D02*
X100939866Y-83816666D01*
X100939866Y-83816666D02*
X101073200Y-83883333D01*
X101073200Y-83883333D02*
X101139866Y-83949999D01*
D12*
X121821428Y-83414838D02*
X121821428Y-85033885D01*
X121821428Y-85033885D02*
X121892857Y-85224361D01*
X121892857Y-85224361D02*
X121964286Y-85319600D01*
X121964286Y-85319600D02*
X122107143Y-85414838D01*
X122107143Y-85414838D02*
X122392857Y-85414838D01*
X122392857Y-85414838D02*
X122535714Y-85319600D01*
X122535714Y-85319600D02*
X122607143Y-85224361D01*
X122607143Y-85224361D02*
X122678571Y-85033885D01*
X122678571Y-85033885D02*
X122678571Y-83414838D01*
X123392857Y-85414838D02*
X123392857Y-83414838D01*
X123392857Y-83414838D02*
X123964286Y-83414838D01*
X123964286Y-83414838D02*
X124107143Y-83510076D01*
X124107143Y-83510076D02*
X124178572Y-83605314D01*
X124178572Y-83605314D02*
X124250000Y-83795790D01*
X124250000Y-83795790D02*
X124250000Y-84081504D01*
X124250000Y-84081504D02*
X124178572Y-84271980D01*
X124178572Y-84271980D02*
X124107143Y-84367219D01*
X124107143Y-84367219D02*
X123964286Y-84462457D01*
X123964286Y-84462457D02*
X123392857Y-84462457D01*
D10*
X111985714Y-55859580D02*
X111947618Y-55907200D01*
X111947618Y-55907200D02*
X111833333Y-55954819D01*
X111833333Y-55954819D02*
X111757142Y-55954819D01*
X111757142Y-55954819D02*
X111642856Y-55907200D01*
X111642856Y-55907200D02*
X111566666Y-55811961D01*
X111566666Y-55811961D02*
X111528571Y-55716723D01*
X111528571Y-55716723D02*
X111490475Y-55526247D01*
X111490475Y-55526247D02*
X111490475Y-55383390D01*
X111490475Y-55383390D02*
X111528571Y-55192914D01*
X111528571Y-55192914D02*
X111566666Y-55097676D01*
X111566666Y-55097676D02*
X111642856Y-55002438D01*
X111642856Y-55002438D02*
X111757142Y-54954819D01*
X111757142Y-54954819D02*
X111833333Y-54954819D01*
X111833333Y-54954819D02*
X111947618Y-55002438D01*
X111947618Y-55002438D02*
X111985714Y-55050057D01*
X112747618Y-55954819D02*
X112290475Y-55954819D01*
X112519047Y-55954819D02*
X112519047Y-54954819D01*
X112519047Y-54954819D02*
X112442856Y-55097676D01*
X112442856Y-55097676D02*
X112366666Y-55192914D01*
X112366666Y-55192914D02*
X112290475Y-55240533D01*
X113014285Y-54954819D02*
X113509523Y-54954819D01*
X113509523Y-54954819D02*
X113242857Y-55335771D01*
X113242857Y-55335771D02*
X113357142Y-55335771D01*
X113357142Y-55335771D02*
X113433333Y-55383390D01*
X113433333Y-55383390D02*
X113471428Y-55431009D01*
X113471428Y-55431009D02*
X113509523Y-55526247D01*
X113509523Y-55526247D02*
X113509523Y-55764342D01*
X113509523Y-55764342D02*
X113471428Y-55859580D01*
X113471428Y-55859580D02*
X113433333Y-55907200D01*
X113433333Y-55907200D02*
X113357142Y-55954819D01*
X113357142Y-55954819D02*
X113128571Y-55954819D01*
X113128571Y-55954819D02*
X113052380Y-55907200D01*
X113052380Y-55907200D02*
X113014285Y-55859580D01*
X116642856Y-55954819D02*
X116185713Y-55954819D01*
X116414285Y-55954819D02*
X116414285Y-54954819D01*
X116414285Y-54954819D02*
X116338094Y-55097676D01*
X116338094Y-55097676D02*
X116261904Y-55192914D01*
X116261904Y-55192914D02*
X116185713Y-55240533D01*
X117366666Y-54954819D02*
X116985714Y-54954819D01*
X116985714Y-54954819D02*
X116947618Y-55431009D01*
X116947618Y-55431009D02*
X116985714Y-55383390D01*
X116985714Y-55383390D02*
X117061904Y-55335771D01*
X117061904Y-55335771D02*
X117252380Y-55335771D01*
X117252380Y-55335771D02*
X117328571Y-55383390D01*
X117328571Y-55383390D02*
X117366666Y-55431009D01*
X117366666Y-55431009D02*
X117404761Y-55526247D01*
X117404761Y-55526247D02*
X117404761Y-55764342D01*
X117404761Y-55764342D02*
X117366666Y-55859580D01*
X117366666Y-55859580D02*
X117328571Y-55907200D01*
X117328571Y-55907200D02*
X117252380Y-55954819D01*
X117252380Y-55954819D02*
X117061904Y-55954819D01*
X117061904Y-55954819D02*
X116985714Y-55907200D01*
X116985714Y-55907200D02*
X116947618Y-55859580D01*
X117747619Y-55288152D02*
X117747619Y-56288152D01*
X117747619Y-55335771D02*
X117823809Y-55288152D01*
X117823809Y-55288152D02*
X117976190Y-55288152D01*
X117976190Y-55288152D02*
X118052381Y-55335771D01*
X118052381Y-55335771D02*
X118090476Y-55383390D01*
X118090476Y-55383390D02*
X118128571Y-55478628D01*
X118128571Y-55478628D02*
X118128571Y-55764342D01*
X118128571Y-55764342D02*
X118090476Y-55859580D01*
X118090476Y-55859580D02*
X118052381Y-55907200D01*
X118052381Y-55907200D02*
X117976190Y-55954819D01*
X117976190Y-55954819D02*
X117823809Y-55954819D01*
X117823809Y-55954819D02*
X117747619Y-55907200D01*
X118738095Y-55431009D02*
X118471429Y-55431009D01*
X118471429Y-55954819D02*
X118471429Y-54954819D01*
X118471429Y-54954819D02*
X118852381Y-54954819D01*
D12*
X108997619Y-107891004D02*
X108997619Y-106591004D01*
X108997619Y-106591004D02*
X109492857Y-106591004D01*
X109492857Y-106591004D02*
X109616667Y-106652909D01*
X109616667Y-106652909D02*
X109678572Y-106714814D01*
X109678572Y-106714814D02*
X109740476Y-106838623D01*
X109740476Y-106838623D02*
X109740476Y-107024338D01*
X109740476Y-107024338D02*
X109678572Y-107148147D01*
X109678572Y-107148147D02*
X109616667Y-107210052D01*
X109616667Y-107210052D02*
X109492857Y-107271957D01*
X109492857Y-107271957D02*
X108997619Y-107271957D01*
X110545238Y-106591004D02*
X110792857Y-106591004D01*
X110792857Y-106591004D02*
X110916667Y-106652909D01*
X110916667Y-106652909D02*
X111040476Y-106776719D01*
X111040476Y-106776719D02*
X111102381Y-107024338D01*
X111102381Y-107024338D02*
X111102381Y-107457671D01*
X111102381Y-107457671D02*
X111040476Y-107705290D01*
X111040476Y-107705290D02*
X110916667Y-107829100D01*
X110916667Y-107829100D02*
X110792857Y-107891004D01*
X110792857Y-107891004D02*
X110545238Y-107891004D01*
X110545238Y-107891004D02*
X110421429Y-107829100D01*
X110421429Y-107829100D02*
X110297619Y-107705290D01*
X110297619Y-107705290D02*
X110235715Y-107457671D01*
X110235715Y-107457671D02*
X110235715Y-107024338D01*
X110235715Y-107024338D02*
X110297619Y-106776719D01*
X110297619Y-106776719D02*
X110421429Y-106652909D01*
X110421429Y-106652909D02*
X110545238Y-106591004D01*
X111535715Y-106591004D02*
X111845239Y-107891004D01*
X111845239Y-107891004D02*
X112092858Y-106962433D01*
X112092858Y-106962433D02*
X112340477Y-107891004D01*
X112340477Y-107891004D02*
X112650001Y-106591004D01*
X113145238Y-107210052D02*
X113578572Y-107210052D01*
X113764286Y-107891004D02*
X113145238Y-107891004D01*
X113145238Y-107891004D02*
X113145238Y-106591004D01*
X113145238Y-106591004D02*
X113764286Y-106591004D01*
X115064285Y-107891004D02*
X114630952Y-107271957D01*
X114321428Y-107891004D02*
X114321428Y-106591004D01*
X114321428Y-106591004D02*
X114816666Y-106591004D01*
X114816666Y-106591004D02*
X114940476Y-106652909D01*
X114940476Y-106652909D02*
X115002381Y-106714814D01*
X115002381Y-106714814D02*
X115064285Y-106838623D01*
X115064285Y-106838623D02*
X115064285Y-107024338D01*
X115064285Y-107024338D02*
X115002381Y-107148147D01*
X115002381Y-107148147D02*
X114940476Y-107210052D01*
X114940476Y-107210052D02*
X114816666Y-107271957D01*
X114816666Y-107271957D02*
X114321428Y-107271957D01*
D10*
X104093466Y-88966667D02*
X104160133Y-88900000D01*
X104160133Y-88900000D02*
X104160133Y-88800000D01*
X104160133Y-88800000D02*
X104093466Y-88700000D01*
X104093466Y-88700000D02*
X103960133Y-88633334D01*
X103960133Y-88633334D02*
X103826800Y-88600000D01*
X103826800Y-88600000D02*
X103560133Y-88566667D01*
X103560133Y-88566667D02*
X103360133Y-88566667D01*
X103360133Y-88566667D02*
X103093466Y-88600000D01*
X103093466Y-88600000D02*
X102960133Y-88633334D01*
X102960133Y-88633334D02*
X102826800Y-88700000D01*
X102826800Y-88700000D02*
X102760133Y-88800000D01*
X102760133Y-88800000D02*
X102760133Y-88866667D01*
X102760133Y-88866667D02*
X102826800Y-88966667D01*
X102826800Y-88966667D02*
X102893466Y-89000000D01*
X102893466Y-89000000D02*
X103360133Y-89000000D01*
X103360133Y-89000000D02*
X103360133Y-88866667D01*
X102760133Y-89300000D02*
X104160133Y-89300000D01*
X104160133Y-89300000D02*
X102760133Y-89700000D01*
X102760133Y-89700000D02*
X104160133Y-89700000D01*
X102760133Y-90033333D02*
X104160133Y-90033333D01*
X104160133Y-90033333D02*
X104160133Y-90200000D01*
X104160133Y-90200000D02*
X104093466Y-90300000D01*
X104093466Y-90300000D02*
X103960133Y-90366667D01*
X103960133Y-90366667D02*
X103826800Y-90400000D01*
X103826800Y-90400000D02*
X103560133Y-90433333D01*
X103560133Y-90433333D02*
X103360133Y-90433333D01*
X103360133Y-90433333D02*
X103093466Y-90400000D01*
X103093466Y-90400000D02*
X102960133Y-90366667D01*
X102960133Y-90366667D02*
X102826800Y-90300000D01*
X102826800Y-90300000D02*
X102760133Y-90200000D01*
X102760133Y-90200000D02*
X102760133Y-90033333D01*
X140666666Y-89954819D02*
X140666666Y-90669104D01*
X140666666Y-90669104D02*
X140619047Y-90811961D01*
X140619047Y-90811961D02*
X140523809Y-90907200D01*
X140523809Y-90907200D02*
X140380952Y-90954819D01*
X140380952Y-90954819D02*
X140285714Y-90954819D01*
X141666666Y-90954819D02*
X141095238Y-90954819D01*
X141380952Y-90954819D02*
X141380952Y-89954819D01*
X141380952Y-89954819D02*
X141285714Y-90097676D01*
X141285714Y-90097676D02*
X141190476Y-90192914D01*
X141190476Y-90192914D02*
X141095238Y-90240533D01*
D12*
X107998480Y-102583332D02*
X107998480Y-103107142D01*
X107998480Y-103107142D02*
X106898480Y-103107142D01*
X106898480Y-102321428D02*
X106898480Y-101640475D01*
X106898480Y-101640475D02*
X107317528Y-102007142D01*
X107317528Y-102007142D02*
X107317528Y-101849999D01*
X107317528Y-101849999D02*
X107369909Y-101745237D01*
X107369909Y-101745237D02*
X107422290Y-101692856D01*
X107422290Y-101692856D02*
X107527052Y-101640475D01*
X107527052Y-101640475D02*
X107788957Y-101640475D01*
X107788957Y-101640475D02*
X107893719Y-101692856D01*
X107893719Y-101692856D02*
X107946100Y-101745237D01*
X107946100Y-101745237D02*
X107998480Y-101849999D01*
X107998480Y-101849999D02*
X107998480Y-102164285D01*
X107998480Y-102164285D02*
X107946100Y-102269047D01*
X107946100Y-102269047D02*
X107893719Y-102321428D01*
D10*
X126385714Y-52059580D02*
X126347618Y-52107200D01*
X126347618Y-52107200D02*
X126233333Y-52154819D01*
X126233333Y-52154819D02*
X126157142Y-52154819D01*
X126157142Y-52154819D02*
X126042856Y-52107200D01*
X126042856Y-52107200D02*
X125966666Y-52011961D01*
X125966666Y-52011961D02*
X125928571Y-51916723D01*
X125928571Y-51916723D02*
X125890475Y-51726247D01*
X125890475Y-51726247D02*
X125890475Y-51583390D01*
X125890475Y-51583390D02*
X125928571Y-51392914D01*
X125928571Y-51392914D02*
X125966666Y-51297676D01*
X125966666Y-51297676D02*
X126042856Y-51202438D01*
X126042856Y-51202438D02*
X126157142Y-51154819D01*
X126157142Y-51154819D02*
X126233333Y-51154819D01*
X126233333Y-51154819D02*
X126347618Y-51202438D01*
X126347618Y-51202438D02*
X126385714Y-51250057D01*
X127147618Y-52154819D02*
X126690475Y-52154819D01*
X126919047Y-52154819D02*
X126919047Y-51154819D01*
X126919047Y-51154819D02*
X126842856Y-51297676D01*
X126842856Y-51297676D02*
X126766666Y-51392914D01*
X126766666Y-51392914D02*
X126690475Y-51440533D01*
X127871428Y-51154819D02*
X127490476Y-51154819D01*
X127490476Y-51154819D02*
X127452380Y-51631009D01*
X127452380Y-51631009D02*
X127490476Y-51583390D01*
X127490476Y-51583390D02*
X127566666Y-51535771D01*
X127566666Y-51535771D02*
X127757142Y-51535771D01*
X127757142Y-51535771D02*
X127833333Y-51583390D01*
X127833333Y-51583390D02*
X127871428Y-51631009D01*
X127871428Y-51631009D02*
X127909523Y-51726247D01*
X127909523Y-51726247D02*
X127909523Y-51964342D01*
X127909523Y-51964342D02*
X127871428Y-52059580D01*
X127871428Y-52059580D02*
X127833333Y-52107200D01*
X127833333Y-52107200D02*
X127757142Y-52154819D01*
X127757142Y-52154819D02*
X127566666Y-52154819D01*
X127566666Y-52154819D02*
X127490476Y-52107200D01*
X127490476Y-52107200D02*
X127452380Y-52059580D01*
X124642856Y-53954819D02*
X124185713Y-53954819D01*
X124414285Y-53954819D02*
X124414285Y-52954819D01*
X124414285Y-52954819D02*
X124338094Y-53097676D01*
X124338094Y-53097676D02*
X124261904Y-53192914D01*
X124261904Y-53192914D02*
X124185713Y-53240533D01*
X125366666Y-52954819D02*
X124985714Y-52954819D01*
X124985714Y-52954819D02*
X124947618Y-53431009D01*
X124947618Y-53431009D02*
X124985714Y-53383390D01*
X124985714Y-53383390D02*
X125061904Y-53335771D01*
X125061904Y-53335771D02*
X125252380Y-53335771D01*
X125252380Y-53335771D02*
X125328571Y-53383390D01*
X125328571Y-53383390D02*
X125366666Y-53431009D01*
X125366666Y-53431009D02*
X125404761Y-53526247D01*
X125404761Y-53526247D02*
X125404761Y-53764342D01*
X125404761Y-53764342D02*
X125366666Y-53859580D01*
X125366666Y-53859580D02*
X125328571Y-53907200D01*
X125328571Y-53907200D02*
X125252380Y-53954819D01*
X125252380Y-53954819D02*
X125061904Y-53954819D01*
X125061904Y-53954819D02*
X124985714Y-53907200D01*
X124985714Y-53907200D02*
X124947618Y-53859580D01*
X125747619Y-53288152D02*
X125747619Y-54288152D01*
X125747619Y-53335771D02*
X125823809Y-53288152D01*
X125823809Y-53288152D02*
X125976190Y-53288152D01*
X125976190Y-53288152D02*
X126052381Y-53335771D01*
X126052381Y-53335771D02*
X126090476Y-53383390D01*
X126090476Y-53383390D02*
X126128571Y-53478628D01*
X126128571Y-53478628D02*
X126128571Y-53764342D01*
X126128571Y-53764342D02*
X126090476Y-53859580D01*
X126090476Y-53859580D02*
X126052381Y-53907200D01*
X126052381Y-53907200D02*
X125976190Y-53954819D01*
X125976190Y-53954819D02*
X125823809Y-53954819D01*
X125823809Y-53954819D02*
X125747619Y-53907200D01*
X126738095Y-53431009D02*
X126471429Y-53431009D01*
X126471429Y-53954819D02*
X126471429Y-52954819D01*
X126471429Y-52954819D02*
X126852381Y-52954819D01*
X122585714Y-52059580D02*
X122547618Y-52107200D01*
X122547618Y-52107200D02*
X122433333Y-52154819D01*
X122433333Y-52154819D02*
X122357142Y-52154819D01*
X122357142Y-52154819D02*
X122242856Y-52107200D01*
X122242856Y-52107200D02*
X122166666Y-52011961D01*
X122166666Y-52011961D02*
X122128571Y-51916723D01*
X122128571Y-51916723D02*
X122090475Y-51726247D01*
X122090475Y-51726247D02*
X122090475Y-51583390D01*
X122090475Y-51583390D02*
X122128571Y-51392914D01*
X122128571Y-51392914D02*
X122166666Y-51297676D01*
X122166666Y-51297676D02*
X122242856Y-51202438D01*
X122242856Y-51202438D02*
X122357142Y-51154819D01*
X122357142Y-51154819D02*
X122433333Y-51154819D01*
X122433333Y-51154819D02*
X122547618Y-51202438D01*
X122547618Y-51202438D02*
X122585714Y-51250057D01*
X123347618Y-52154819D02*
X122890475Y-52154819D01*
X123119047Y-52154819D02*
X123119047Y-51154819D01*
X123119047Y-51154819D02*
X123042856Y-51297676D01*
X123042856Y-51297676D02*
X122966666Y-51392914D01*
X122966666Y-51392914D02*
X122890475Y-51440533D01*
X124033333Y-51488152D02*
X124033333Y-52154819D01*
X123842857Y-51107200D02*
X123652380Y-51821485D01*
X123652380Y-51821485D02*
X124147619Y-51821485D01*
X124642856Y-55954819D02*
X124185713Y-55954819D01*
X124414285Y-55954819D02*
X124414285Y-54954819D01*
X124414285Y-54954819D02*
X124338094Y-55097676D01*
X124338094Y-55097676D02*
X124261904Y-55192914D01*
X124261904Y-55192914D02*
X124185713Y-55240533D01*
X125366666Y-54954819D02*
X124985714Y-54954819D01*
X124985714Y-54954819D02*
X124947618Y-55431009D01*
X124947618Y-55431009D02*
X124985714Y-55383390D01*
X124985714Y-55383390D02*
X125061904Y-55335771D01*
X125061904Y-55335771D02*
X125252380Y-55335771D01*
X125252380Y-55335771D02*
X125328571Y-55383390D01*
X125328571Y-55383390D02*
X125366666Y-55431009D01*
X125366666Y-55431009D02*
X125404761Y-55526247D01*
X125404761Y-55526247D02*
X125404761Y-55764342D01*
X125404761Y-55764342D02*
X125366666Y-55859580D01*
X125366666Y-55859580D02*
X125328571Y-55907200D01*
X125328571Y-55907200D02*
X125252380Y-55954819D01*
X125252380Y-55954819D02*
X125061904Y-55954819D01*
X125061904Y-55954819D02*
X124985714Y-55907200D01*
X124985714Y-55907200D02*
X124947618Y-55859580D01*
X125747619Y-55288152D02*
X125747619Y-56288152D01*
X125747619Y-55335771D02*
X125823809Y-55288152D01*
X125823809Y-55288152D02*
X125976190Y-55288152D01*
X125976190Y-55288152D02*
X126052381Y-55335771D01*
X126052381Y-55335771D02*
X126090476Y-55383390D01*
X126090476Y-55383390D02*
X126128571Y-55478628D01*
X126128571Y-55478628D02*
X126128571Y-55764342D01*
X126128571Y-55764342D02*
X126090476Y-55859580D01*
X126090476Y-55859580D02*
X126052381Y-55907200D01*
X126052381Y-55907200D02*
X125976190Y-55954819D01*
X125976190Y-55954819D02*
X125823809Y-55954819D01*
X125823809Y-55954819D02*
X125747619Y-55907200D01*
X126738095Y-55431009D02*
X126471429Y-55431009D01*
X126471429Y-55954819D02*
X126471429Y-54954819D01*
X126471429Y-54954819D02*
X126852381Y-54954819D01*
D12*
X122161904Y-67898480D02*
X122161904Y-68788957D01*
X122161904Y-68788957D02*
X122214285Y-68893719D01*
X122214285Y-68893719D02*
X122266666Y-68946100D01*
X122266666Y-68946100D02*
X122371428Y-68998480D01*
X122371428Y-68998480D02*
X122580952Y-68998480D01*
X122580952Y-68998480D02*
X122685714Y-68946100D01*
X122685714Y-68946100D02*
X122738095Y-68893719D01*
X122738095Y-68893719D02*
X122790476Y-68788957D01*
X122790476Y-68788957D02*
X122790476Y-67898480D01*
X123838095Y-67898480D02*
X123314285Y-67898480D01*
X123314285Y-67898480D02*
X123261904Y-68422290D01*
X123261904Y-68422290D02*
X123314285Y-68369909D01*
X123314285Y-68369909D02*
X123419047Y-68317528D01*
X123419047Y-68317528D02*
X123680952Y-68317528D01*
X123680952Y-68317528D02*
X123785714Y-68369909D01*
X123785714Y-68369909D02*
X123838095Y-68422290D01*
X123838095Y-68422290D02*
X123890476Y-68527052D01*
X123890476Y-68527052D02*
X123890476Y-68788957D01*
X123890476Y-68788957D02*
X123838095Y-68893719D01*
X123838095Y-68893719D02*
X123785714Y-68946100D01*
X123785714Y-68946100D02*
X123680952Y-68998480D01*
X123680952Y-68998480D02*
X123419047Y-68998480D01*
X123419047Y-68998480D02*
X123314285Y-68946100D01*
X123314285Y-68946100D02*
X123261904Y-68893719D01*
X114409523Y-66684195D02*
X114933333Y-66684195D01*
X114304761Y-66998480D02*
X114671428Y-65898480D01*
X114671428Y-65898480D02*
X115038095Y-66998480D01*
X116138095Y-67103242D02*
X116033333Y-67050861D01*
X116033333Y-67050861D02*
X115928571Y-66946100D01*
X115928571Y-66946100D02*
X115771428Y-66788957D01*
X115771428Y-66788957D02*
X115666666Y-66736576D01*
X115666666Y-66736576D02*
X115561904Y-66736576D01*
X115614285Y-66998480D02*
X115509523Y-66946100D01*
X115509523Y-66946100D02*
X115404761Y-66841338D01*
X115404761Y-66841338D02*
X115352380Y-66631814D01*
X115352380Y-66631814D02*
X115352380Y-66265147D01*
X115352380Y-66265147D02*
X115404761Y-66055623D01*
X115404761Y-66055623D02*
X115509523Y-65950861D01*
X115509523Y-65950861D02*
X115614285Y-65898480D01*
X115614285Y-65898480D02*
X115823809Y-65898480D01*
X115823809Y-65898480D02*
X115928571Y-65950861D01*
X115928571Y-65950861D02*
X116033333Y-66055623D01*
X116033333Y-66055623D02*
X116085714Y-66265147D01*
X116085714Y-66265147D02*
X116085714Y-66631814D01*
X116085714Y-66631814D02*
X116033333Y-66841338D01*
X116033333Y-66841338D02*
X115928571Y-66946100D01*
X115928571Y-66946100D02*
X115823809Y-66998480D01*
X115823809Y-66998480D02*
X115614285Y-66998480D01*
X116557142Y-66998480D02*
X116557142Y-65898480D01*
X116557142Y-65898480D02*
X116923809Y-66684195D01*
X116923809Y-66684195D02*
X117290476Y-65898480D01*
X117290476Y-65898480D02*
X117290476Y-66998480D01*
X118390476Y-66998480D02*
X117761904Y-66998480D01*
X118076190Y-66998480D02*
X118076190Y-65898480D01*
X118076190Y-65898480D02*
X117971428Y-66055623D01*
X117971428Y-66055623D02*
X117866666Y-66160385D01*
X117866666Y-66160385D02*
X117761904Y-66212766D01*
X119333333Y-65898480D02*
X119123809Y-65898480D01*
X119123809Y-65898480D02*
X119019047Y-65950861D01*
X119019047Y-65950861D02*
X118966666Y-66003242D01*
X118966666Y-66003242D02*
X118861904Y-66160385D01*
X118861904Y-66160385D02*
X118809523Y-66369909D01*
X118809523Y-66369909D02*
X118809523Y-66788957D01*
X118809523Y-66788957D02*
X118861904Y-66893719D01*
X118861904Y-66893719D02*
X118914285Y-66946100D01*
X118914285Y-66946100D02*
X119019047Y-66998480D01*
X119019047Y-66998480D02*
X119228571Y-66998480D01*
X119228571Y-66998480D02*
X119333333Y-66946100D01*
X119333333Y-66946100D02*
X119385714Y-66893719D01*
X119385714Y-66893719D02*
X119438095Y-66788957D01*
X119438095Y-66788957D02*
X119438095Y-66527052D01*
X119438095Y-66527052D02*
X119385714Y-66422290D01*
X119385714Y-66422290D02*
X119333333Y-66369909D01*
X119333333Y-66369909D02*
X119228571Y-66317528D01*
X119228571Y-66317528D02*
X119019047Y-66317528D01*
X119019047Y-66317528D02*
X118914285Y-66369909D01*
X118914285Y-66369909D02*
X118861904Y-66422290D01*
X118861904Y-66422290D02*
X118809523Y-66527052D01*
X120119047Y-65898480D02*
X120223809Y-65898480D01*
X120223809Y-65898480D02*
X120328571Y-65950861D01*
X120328571Y-65950861D02*
X120380952Y-66003242D01*
X120380952Y-66003242D02*
X120433333Y-66108004D01*
X120433333Y-66108004D02*
X120485714Y-66317528D01*
X120485714Y-66317528D02*
X120485714Y-66579433D01*
X120485714Y-66579433D02*
X120433333Y-66788957D01*
X120433333Y-66788957D02*
X120380952Y-66893719D01*
X120380952Y-66893719D02*
X120328571Y-66946100D01*
X120328571Y-66946100D02*
X120223809Y-66998480D01*
X120223809Y-66998480D02*
X120119047Y-66998480D01*
X120119047Y-66998480D02*
X120014285Y-66946100D01*
X120014285Y-66946100D02*
X119961904Y-66893719D01*
X119961904Y-66893719D02*
X119909523Y-66788957D01*
X119909523Y-66788957D02*
X119857142Y-66579433D01*
X119857142Y-66579433D02*
X119857142Y-66317528D01*
X119857142Y-66317528D02*
X119909523Y-66108004D01*
X119909523Y-66108004D02*
X119961904Y-66003242D01*
X119961904Y-66003242D02*
X120014285Y-65950861D01*
X120014285Y-65950861D02*
X120119047Y-65898480D01*
X120904761Y-66003242D02*
X120957142Y-65950861D01*
X120957142Y-65950861D02*
X121061904Y-65898480D01*
X121061904Y-65898480D02*
X121323809Y-65898480D01*
X121323809Y-65898480D02*
X121428571Y-65950861D01*
X121428571Y-65950861D02*
X121480952Y-66003242D01*
X121480952Y-66003242D02*
X121533333Y-66108004D01*
X121533333Y-66108004D02*
X121533333Y-66212766D01*
X121533333Y-66212766D02*
X121480952Y-66369909D01*
X121480952Y-66369909D02*
X120852380Y-66998480D01*
X120852380Y-66998480D02*
X121533333Y-66998480D01*
X122214285Y-66474671D02*
X122214285Y-66998480D01*
X121847618Y-65898480D02*
X122214285Y-66474671D01*
X122214285Y-66474671D02*
X122580952Y-65898480D01*
X122947618Y-66579433D02*
X123785714Y-66579433D01*
X124676190Y-66422290D02*
X124309523Y-66422290D01*
X124309523Y-66998480D02*
X124309523Y-65898480D01*
X124309523Y-65898480D02*
X124833333Y-65898480D01*
X125776190Y-66998480D02*
X125252380Y-66998480D01*
X125252380Y-66998480D02*
X125252380Y-65898480D01*
X126038094Y-65898480D02*
X126299999Y-66998480D01*
X126299999Y-66998480D02*
X126509523Y-66212766D01*
X126509523Y-66212766D02*
X126719047Y-66998480D01*
X126719047Y-66998480D02*
X126980952Y-65898480D01*
X127399999Y-66579433D02*
X128238095Y-66579433D01*
X129128571Y-66422290D02*
X128761904Y-66422290D01*
X128761904Y-66998480D02*
X128761904Y-65898480D01*
X128761904Y-65898480D02*
X129285714Y-65898480D01*
X130071428Y-66422290D02*
X130228571Y-66474671D01*
X130228571Y-66474671D02*
X130280952Y-66527052D01*
X130280952Y-66527052D02*
X130333333Y-66631814D01*
X130333333Y-66631814D02*
X130333333Y-66788957D01*
X130333333Y-66788957D02*
X130280952Y-66893719D01*
X130280952Y-66893719D02*
X130228571Y-66946100D01*
X130228571Y-66946100D02*
X130123809Y-66998480D01*
X130123809Y-66998480D02*
X129704761Y-66998480D01*
X129704761Y-66998480D02*
X129704761Y-65898480D01*
X129704761Y-65898480D02*
X130071428Y-65898480D01*
X130071428Y-65898480D02*
X130176190Y-65950861D01*
X130176190Y-65950861D02*
X130228571Y-66003242D01*
X130228571Y-66003242D02*
X130280952Y-66108004D01*
X130280952Y-66108004D02*
X130280952Y-66212766D01*
X130280952Y-66212766D02*
X130228571Y-66317528D01*
X130228571Y-66317528D02*
X130176190Y-66369909D01*
X130176190Y-66369909D02*
X130071428Y-66422290D01*
X130071428Y-66422290D02*
X129704761Y-66422290D01*
X130699999Y-65898480D02*
X130961904Y-66998480D01*
X130961904Y-66998480D02*
X131171428Y-66212766D01*
X131171428Y-66212766D02*
X131380952Y-66998480D01*
X131380952Y-66998480D02*
X131642857Y-65898480D01*
D13*
X127261428Y-79974760D02*
X127347143Y-80041426D01*
X127347143Y-80041426D02*
X127490000Y-80041426D01*
X127490000Y-80041426D02*
X127547143Y-79974760D01*
X127547143Y-79974760D02*
X127575714Y-79908093D01*
X127575714Y-79908093D02*
X127604285Y-79774760D01*
X127604285Y-79774760D02*
X127604285Y-79641426D01*
X127604285Y-79641426D02*
X127575714Y-79508093D01*
X127575714Y-79508093D02*
X127547143Y-79441426D01*
X127547143Y-79441426D02*
X127490000Y-79374760D01*
X127490000Y-79374760D02*
X127375714Y-79308093D01*
X127375714Y-79308093D02*
X127318571Y-79241426D01*
X127318571Y-79241426D02*
X127290000Y-79174760D01*
X127290000Y-79174760D02*
X127261428Y-79041426D01*
X127261428Y-79041426D02*
X127261428Y-78908093D01*
X127261428Y-78908093D02*
X127290000Y-78774760D01*
X127290000Y-78774760D02*
X127318571Y-78708093D01*
X127318571Y-78708093D02*
X127375714Y-78641426D01*
X127375714Y-78641426D02*
X127518571Y-78641426D01*
X127518571Y-78641426D02*
X127604285Y-78708093D01*
X127861429Y-80041426D02*
X127861429Y-78641426D01*
X127861429Y-78641426D02*
X128004286Y-78641426D01*
X128004286Y-78641426D02*
X128090000Y-78708093D01*
X128090000Y-78708093D02*
X128147143Y-78841426D01*
X128147143Y-78841426D02*
X128175714Y-78974760D01*
X128175714Y-78974760D02*
X128204286Y-79241426D01*
X128204286Y-79241426D02*
X128204286Y-79441426D01*
X128204286Y-79441426D02*
X128175714Y-79708093D01*
X128175714Y-79708093D02*
X128147143Y-79841426D01*
X128147143Y-79841426D02*
X128090000Y-79974760D01*
X128090000Y-79974760D02*
X128004286Y-80041426D01*
X128004286Y-80041426D02*
X127861429Y-80041426D01*
X128432857Y-79641426D02*
X128718572Y-79641426D01*
X128375714Y-80041426D02*
X128575714Y-78641426D01*
X128575714Y-78641426D02*
X128775714Y-80041426D01*
X122129999Y-78641426D02*
X122329999Y-80041426D01*
X122329999Y-80041426D02*
X122529999Y-78641426D01*
X122730000Y-80041426D02*
X122730000Y-78641426D01*
X122730000Y-78641426D02*
X122872857Y-78641426D01*
X122872857Y-78641426D02*
X122958571Y-78708093D01*
X122958571Y-78708093D02*
X123015714Y-78841426D01*
X123015714Y-78841426D02*
X123044285Y-78974760D01*
X123044285Y-78974760D02*
X123072857Y-79241426D01*
X123072857Y-79241426D02*
X123072857Y-79441426D01*
X123072857Y-79441426D02*
X123044285Y-79708093D01*
X123044285Y-79708093D02*
X123015714Y-79841426D01*
X123015714Y-79841426D02*
X122958571Y-79974760D01*
X122958571Y-79974760D02*
X122872857Y-80041426D01*
X122872857Y-80041426D02*
X122730000Y-80041426D01*
X123330000Y-80041426D02*
X123330000Y-78641426D01*
X123330000Y-78641426D02*
X123472857Y-78641426D01*
X123472857Y-78641426D02*
X123558571Y-78708093D01*
X123558571Y-78708093D02*
X123615714Y-78841426D01*
X123615714Y-78841426D02*
X123644285Y-78974760D01*
X123644285Y-78974760D02*
X123672857Y-79241426D01*
X123672857Y-79241426D02*
X123672857Y-79441426D01*
X123672857Y-79441426D02*
X123644285Y-79708093D01*
X123644285Y-79708093D02*
X123615714Y-79841426D01*
X123615714Y-79841426D02*
X123558571Y-79974760D01*
X123558571Y-79974760D02*
X123472857Y-80041426D01*
X123472857Y-80041426D02*
X123330000Y-80041426D01*
X114415714Y-78641426D02*
X114615714Y-80041426D01*
X114615714Y-80041426D02*
X114815714Y-78641426D01*
X115101429Y-80041426D02*
X115044286Y-79974760D01*
X115044286Y-79974760D02*
X115015715Y-79908093D01*
X115015715Y-79908093D02*
X114987143Y-79774760D01*
X114987143Y-79774760D02*
X114987143Y-79374760D01*
X114987143Y-79374760D02*
X115015715Y-79241426D01*
X115015715Y-79241426D02*
X115044286Y-79174760D01*
X115044286Y-79174760D02*
X115101429Y-79108093D01*
X115101429Y-79108093D02*
X115187143Y-79108093D01*
X115187143Y-79108093D02*
X115244286Y-79174760D01*
X115244286Y-79174760D02*
X115272858Y-79241426D01*
X115272858Y-79241426D02*
X115301429Y-79374760D01*
X115301429Y-79374760D02*
X115301429Y-79774760D01*
X115301429Y-79774760D02*
X115272858Y-79908093D01*
X115272858Y-79908093D02*
X115244286Y-79974760D01*
X115244286Y-79974760D02*
X115187143Y-80041426D01*
X115187143Y-80041426D02*
X115101429Y-80041426D01*
X115815715Y-79108093D02*
X115815715Y-80041426D01*
X115558572Y-79108093D02*
X115558572Y-79841426D01*
X115558572Y-79841426D02*
X115587143Y-79974760D01*
X115587143Y-79974760D02*
X115644286Y-80041426D01*
X115644286Y-80041426D02*
X115730000Y-80041426D01*
X115730000Y-80041426D02*
X115787143Y-79974760D01*
X115787143Y-79974760D02*
X115815715Y-79908093D01*
X116015714Y-79108093D02*
X116244286Y-79108093D01*
X116101429Y-78641426D02*
X116101429Y-79841426D01*
X116101429Y-79841426D02*
X116130000Y-79974760D01*
X116130000Y-79974760D02*
X116187143Y-80041426D01*
X116187143Y-80041426D02*
X116244286Y-80041426D01*
X132390000Y-78574760D02*
X131875714Y-80374760D01*
X132932857Y-80041426D02*
X132732857Y-79374760D01*
X132590000Y-80041426D02*
X132590000Y-78641426D01*
X132590000Y-78641426D02*
X132818571Y-78641426D01*
X132818571Y-78641426D02*
X132875714Y-78708093D01*
X132875714Y-78708093D02*
X132904285Y-78774760D01*
X132904285Y-78774760D02*
X132932857Y-78908093D01*
X132932857Y-78908093D02*
X132932857Y-79108093D01*
X132932857Y-79108093D02*
X132904285Y-79241426D01*
X132904285Y-79241426D02*
X132875714Y-79308093D01*
X132875714Y-79308093D02*
X132818571Y-79374760D01*
X132818571Y-79374760D02*
X132590000Y-79374760D01*
X133190000Y-79308093D02*
X133390000Y-79308093D01*
X133475714Y-80041426D02*
X133190000Y-80041426D01*
X133190000Y-80041426D02*
X133190000Y-78641426D01*
X133190000Y-78641426D02*
X133475714Y-78641426D01*
X133704285Y-79974760D02*
X133790000Y-80041426D01*
X133790000Y-80041426D02*
X133932857Y-80041426D01*
X133932857Y-80041426D02*
X133990000Y-79974760D01*
X133990000Y-79974760D02*
X134018571Y-79908093D01*
X134018571Y-79908093D02*
X134047142Y-79774760D01*
X134047142Y-79774760D02*
X134047142Y-79641426D01*
X134047142Y-79641426D02*
X134018571Y-79508093D01*
X134018571Y-79508093D02*
X133990000Y-79441426D01*
X133990000Y-79441426D02*
X133932857Y-79374760D01*
X133932857Y-79374760D02*
X133818571Y-79308093D01*
X133818571Y-79308093D02*
X133761428Y-79241426D01*
X133761428Y-79241426D02*
X133732857Y-79174760D01*
X133732857Y-79174760D02*
X133704285Y-79041426D01*
X133704285Y-79041426D02*
X133704285Y-78908093D01*
X133704285Y-78908093D02*
X133732857Y-78774760D01*
X133732857Y-78774760D02*
X133761428Y-78708093D01*
X133761428Y-78708093D02*
X133818571Y-78641426D01*
X133818571Y-78641426D02*
X133961428Y-78641426D01*
X133961428Y-78641426D02*
X134047142Y-78708093D01*
D12*
X115190476Y-77501885D02*
X115666666Y-77501885D01*
X115095238Y-77844742D02*
X115428571Y-76644742D01*
X115428571Y-76644742D02*
X115761904Y-77844742D01*
X116761904Y-77959028D02*
X116666666Y-77901885D01*
X116666666Y-77901885D02*
X116571428Y-77787600D01*
X116571428Y-77787600D02*
X116428571Y-77616171D01*
X116428571Y-77616171D02*
X116333333Y-77559028D01*
X116333333Y-77559028D02*
X116238095Y-77559028D01*
X116285714Y-77844742D02*
X116190476Y-77787600D01*
X116190476Y-77787600D02*
X116095238Y-77673314D01*
X116095238Y-77673314D02*
X116047619Y-77444742D01*
X116047619Y-77444742D02*
X116047619Y-77044742D01*
X116047619Y-77044742D02*
X116095238Y-76816171D01*
X116095238Y-76816171D02*
X116190476Y-76701885D01*
X116190476Y-76701885D02*
X116285714Y-76644742D01*
X116285714Y-76644742D02*
X116476190Y-76644742D01*
X116476190Y-76644742D02*
X116571428Y-76701885D01*
X116571428Y-76701885D02*
X116666666Y-76816171D01*
X116666666Y-76816171D02*
X116714285Y-77044742D01*
X116714285Y-77044742D02*
X116714285Y-77444742D01*
X116714285Y-77444742D02*
X116666666Y-77673314D01*
X116666666Y-77673314D02*
X116571428Y-77787600D01*
X116571428Y-77787600D02*
X116476190Y-77844742D01*
X116476190Y-77844742D02*
X116285714Y-77844742D01*
X117142857Y-77844742D02*
X117142857Y-76644742D01*
X117142857Y-76644742D02*
X117476190Y-77501885D01*
X117476190Y-77501885D02*
X117809523Y-76644742D01*
X117809523Y-76644742D02*
X117809523Y-77844742D01*
X118809523Y-77844742D02*
X118238095Y-77844742D01*
X118523809Y-77844742D02*
X118523809Y-76644742D01*
X118523809Y-76644742D02*
X118428571Y-76816171D01*
X118428571Y-76816171D02*
X118333333Y-76930457D01*
X118333333Y-76930457D02*
X118238095Y-76987600D01*
X119666666Y-76644742D02*
X119476190Y-76644742D01*
X119476190Y-76644742D02*
X119380952Y-76701885D01*
X119380952Y-76701885D02*
X119333333Y-76759028D01*
X119333333Y-76759028D02*
X119238095Y-76930457D01*
X119238095Y-76930457D02*
X119190476Y-77159028D01*
X119190476Y-77159028D02*
X119190476Y-77616171D01*
X119190476Y-77616171D02*
X119238095Y-77730457D01*
X119238095Y-77730457D02*
X119285714Y-77787600D01*
X119285714Y-77787600D02*
X119380952Y-77844742D01*
X119380952Y-77844742D02*
X119571428Y-77844742D01*
X119571428Y-77844742D02*
X119666666Y-77787600D01*
X119666666Y-77787600D02*
X119714285Y-77730457D01*
X119714285Y-77730457D02*
X119761904Y-77616171D01*
X119761904Y-77616171D02*
X119761904Y-77330457D01*
X119761904Y-77330457D02*
X119714285Y-77216171D01*
X119714285Y-77216171D02*
X119666666Y-77159028D01*
X119666666Y-77159028D02*
X119571428Y-77101885D01*
X119571428Y-77101885D02*
X119380952Y-77101885D01*
X119380952Y-77101885D02*
X119285714Y-77159028D01*
X119285714Y-77159028D02*
X119238095Y-77216171D01*
X119238095Y-77216171D02*
X119190476Y-77330457D01*
X120380952Y-76644742D02*
X120476190Y-76644742D01*
X120476190Y-76644742D02*
X120571428Y-76701885D01*
X120571428Y-76701885D02*
X120619047Y-76759028D01*
X120619047Y-76759028D02*
X120666666Y-76873314D01*
X120666666Y-76873314D02*
X120714285Y-77101885D01*
X120714285Y-77101885D02*
X120714285Y-77387600D01*
X120714285Y-77387600D02*
X120666666Y-77616171D01*
X120666666Y-77616171D02*
X120619047Y-77730457D01*
X120619047Y-77730457D02*
X120571428Y-77787600D01*
X120571428Y-77787600D02*
X120476190Y-77844742D01*
X120476190Y-77844742D02*
X120380952Y-77844742D01*
X120380952Y-77844742D02*
X120285714Y-77787600D01*
X120285714Y-77787600D02*
X120238095Y-77730457D01*
X120238095Y-77730457D02*
X120190476Y-77616171D01*
X120190476Y-77616171D02*
X120142857Y-77387600D01*
X120142857Y-77387600D02*
X120142857Y-77101885D01*
X120142857Y-77101885D02*
X120190476Y-76873314D01*
X120190476Y-76873314D02*
X120238095Y-76759028D01*
X120238095Y-76759028D02*
X120285714Y-76701885D01*
X120285714Y-76701885D02*
X120380952Y-76644742D01*
X121095238Y-76759028D02*
X121142857Y-76701885D01*
X121142857Y-76701885D02*
X121238095Y-76644742D01*
X121238095Y-76644742D02*
X121476190Y-76644742D01*
X121476190Y-76644742D02*
X121571428Y-76701885D01*
X121571428Y-76701885D02*
X121619047Y-76759028D01*
X121619047Y-76759028D02*
X121666666Y-76873314D01*
X121666666Y-76873314D02*
X121666666Y-76987600D01*
X121666666Y-76987600D02*
X121619047Y-77159028D01*
X121619047Y-77159028D02*
X121047619Y-77844742D01*
X121047619Y-77844742D02*
X121666666Y-77844742D01*
X122285714Y-77273314D02*
X122285714Y-77844742D01*
X121952381Y-76644742D02*
X122285714Y-77273314D01*
X122285714Y-77273314D02*
X122619047Y-76644742D01*
X122952381Y-77387600D02*
X123714286Y-77387600D01*
X124523809Y-77216171D02*
X124190476Y-77216171D01*
X124190476Y-77844742D02*
X124190476Y-76644742D01*
X124190476Y-76644742D02*
X124666666Y-76644742D01*
X125523809Y-77844742D02*
X125047619Y-77844742D01*
X125047619Y-77844742D02*
X125047619Y-76644742D01*
X125761905Y-76644742D02*
X126000000Y-77844742D01*
X126000000Y-77844742D02*
X126190476Y-76987600D01*
X126190476Y-76987600D02*
X126380952Y-77844742D01*
X126380952Y-77844742D02*
X126619048Y-76644742D01*
X127000000Y-77387600D02*
X127761905Y-77387600D01*
X128571428Y-77216171D02*
X128238095Y-77216171D01*
X128238095Y-77844742D02*
X128238095Y-76644742D01*
X128238095Y-76644742D02*
X128714285Y-76644742D01*
X129428571Y-77216171D02*
X129571428Y-77273314D01*
X129571428Y-77273314D02*
X129619047Y-77330457D01*
X129619047Y-77330457D02*
X129666666Y-77444742D01*
X129666666Y-77444742D02*
X129666666Y-77616171D01*
X129666666Y-77616171D02*
X129619047Y-77730457D01*
X129619047Y-77730457D02*
X129571428Y-77787600D01*
X129571428Y-77787600D02*
X129476190Y-77844742D01*
X129476190Y-77844742D02*
X129095238Y-77844742D01*
X129095238Y-77844742D02*
X129095238Y-76644742D01*
X129095238Y-76644742D02*
X129428571Y-76644742D01*
X129428571Y-76644742D02*
X129523809Y-76701885D01*
X129523809Y-76701885D02*
X129571428Y-76759028D01*
X129571428Y-76759028D02*
X129619047Y-76873314D01*
X129619047Y-76873314D02*
X129619047Y-76987600D01*
X129619047Y-76987600D02*
X129571428Y-77101885D01*
X129571428Y-77101885D02*
X129523809Y-77159028D01*
X129523809Y-77159028D02*
X129428571Y-77216171D01*
X129428571Y-77216171D02*
X129095238Y-77216171D01*
X130000000Y-76644742D02*
X130238095Y-77844742D01*
X130238095Y-77844742D02*
X130428571Y-76987600D01*
X130428571Y-76987600D02*
X130619047Y-77844742D01*
X130619047Y-77844742D02*
X130857143Y-76644742D01*
D13*
X112363333Y-78641426D02*
X112596667Y-80041426D01*
X112596667Y-80041426D02*
X112830000Y-78641426D01*
X113196667Y-78641426D02*
X113263333Y-78641426D01*
X113263333Y-78641426D02*
X113330000Y-78708093D01*
X113330000Y-78708093D02*
X113363333Y-78774760D01*
X113363333Y-78774760D02*
X113396667Y-78908093D01*
X113396667Y-78908093D02*
X113430000Y-79174760D01*
X113430000Y-79174760D02*
X113430000Y-79508093D01*
X113430000Y-79508093D02*
X113396667Y-79774760D01*
X113396667Y-79774760D02*
X113363333Y-79908093D01*
X113363333Y-79908093D02*
X113330000Y-79974760D01*
X113330000Y-79974760D02*
X113263333Y-80041426D01*
X113263333Y-80041426D02*
X113196667Y-80041426D01*
X113196667Y-80041426D02*
X113130000Y-79974760D01*
X113130000Y-79974760D02*
X113096667Y-79908093D01*
X113096667Y-79908093D02*
X113063333Y-79774760D01*
X113063333Y-79774760D02*
X113030000Y-79508093D01*
X113030000Y-79508093D02*
X113030000Y-79174760D01*
X113030000Y-79174760D02*
X113063333Y-78908093D01*
X113063333Y-78908093D02*
X113096667Y-78774760D01*
X113096667Y-78774760D02*
X113130000Y-78708093D01*
X113130000Y-78708093D02*
X113196667Y-78641426D01*
X129875714Y-79974760D02*
X129961429Y-80041426D01*
X129961429Y-80041426D02*
X130104286Y-80041426D01*
X130104286Y-80041426D02*
X130161429Y-79974760D01*
X130161429Y-79974760D02*
X130190000Y-79908093D01*
X130190000Y-79908093D02*
X130218571Y-79774760D01*
X130218571Y-79774760D02*
X130218571Y-79641426D01*
X130218571Y-79641426D02*
X130190000Y-79508093D01*
X130190000Y-79508093D02*
X130161429Y-79441426D01*
X130161429Y-79441426D02*
X130104286Y-79374760D01*
X130104286Y-79374760D02*
X129990000Y-79308093D01*
X129990000Y-79308093D02*
X129932857Y-79241426D01*
X129932857Y-79241426D02*
X129904286Y-79174760D01*
X129904286Y-79174760D02*
X129875714Y-79041426D01*
X129875714Y-79041426D02*
X129875714Y-78908093D01*
X129875714Y-78908093D02*
X129904286Y-78774760D01*
X129904286Y-78774760D02*
X129932857Y-78708093D01*
X129932857Y-78708093D02*
X129990000Y-78641426D01*
X129990000Y-78641426D02*
X130132857Y-78641426D01*
X130132857Y-78641426D02*
X130218571Y-78708093D01*
X130818572Y-79908093D02*
X130790000Y-79974760D01*
X130790000Y-79974760D02*
X130704286Y-80041426D01*
X130704286Y-80041426D02*
X130647143Y-80041426D01*
X130647143Y-80041426D02*
X130561429Y-79974760D01*
X130561429Y-79974760D02*
X130504286Y-79841426D01*
X130504286Y-79841426D02*
X130475715Y-79708093D01*
X130475715Y-79708093D02*
X130447143Y-79441426D01*
X130447143Y-79441426D02*
X130447143Y-79241426D01*
X130447143Y-79241426D02*
X130475715Y-78974760D01*
X130475715Y-78974760D02*
X130504286Y-78841426D01*
X130504286Y-78841426D02*
X130561429Y-78708093D01*
X130561429Y-78708093D02*
X130647143Y-78641426D01*
X130647143Y-78641426D02*
X130704286Y-78641426D01*
X130704286Y-78641426D02*
X130790000Y-78708093D01*
X130790000Y-78708093D02*
X130818572Y-78774760D01*
X131361429Y-80041426D02*
X131075715Y-80041426D01*
X131075715Y-80041426D02*
X131075715Y-78641426D01*
X120090000Y-79908093D02*
X120061428Y-79974760D01*
X120061428Y-79974760D02*
X119975714Y-80041426D01*
X119975714Y-80041426D02*
X119918571Y-80041426D01*
X119918571Y-80041426D02*
X119832857Y-79974760D01*
X119832857Y-79974760D02*
X119775714Y-79841426D01*
X119775714Y-79841426D02*
X119747143Y-79708093D01*
X119747143Y-79708093D02*
X119718571Y-79441426D01*
X119718571Y-79441426D02*
X119718571Y-79241426D01*
X119718571Y-79241426D02*
X119747143Y-78974760D01*
X119747143Y-78974760D02*
X119775714Y-78841426D01*
X119775714Y-78841426D02*
X119832857Y-78708093D01*
X119832857Y-78708093D02*
X119918571Y-78641426D01*
X119918571Y-78641426D02*
X119975714Y-78641426D01*
X119975714Y-78641426D02*
X120061428Y-78708093D01*
X120061428Y-78708093D02*
X120090000Y-78774760D01*
X120661428Y-80041426D02*
X120318571Y-80041426D01*
X120490000Y-80041426D02*
X120490000Y-78641426D01*
X120490000Y-78641426D02*
X120432857Y-78841426D01*
X120432857Y-78841426D02*
X120375714Y-78974760D01*
X120375714Y-78974760D02*
X120318571Y-79041426D01*
X120918572Y-80041426D02*
X120918572Y-78641426D01*
X120918572Y-78641426D02*
X121147143Y-78641426D01*
X121147143Y-78641426D02*
X121204286Y-78708093D01*
X121204286Y-78708093D02*
X121232857Y-78774760D01*
X121232857Y-78774760D02*
X121261429Y-78908093D01*
X121261429Y-78908093D02*
X121261429Y-79108093D01*
X121261429Y-79108093D02*
X121232857Y-79241426D01*
X121232857Y-79241426D02*
X121204286Y-79308093D01*
X121204286Y-79308093D02*
X121147143Y-79374760D01*
X121147143Y-79374760D02*
X120918572Y-79374760D01*
X124758570Y-78641426D02*
X124958570Y-80041426D01*
X124958570Y-80041426D02*
X125158570Y-78641426D01*
X125329999Y-79974760D02*
X125415714Y-80041426D01*
X125415714Y-80041426D02*
X125558571Y-80041426D01*
X125558571Y-80041426D02*
X125615714Y-79974760D01*
X125615714Y-79974760D02*
X125644285Y-79908093D01*
X125644285Y-79908093D02*
X125672856Y-79774760D01*
X125672856Y-79774760D02*
X125672856Y-79641426D01*
X125672856Y-79641426D02*
X125644285Y-79508093D01*
X125644285Y-79508093D02*
X125615714Y-79441426D01*
X125615714Y-79441426D02*
X125558571Y-79374760D01*
X125558571Y-79374760D02*
X125444285Y-79308093D01*
X125444285Y-79308093D02*
X125387142Y-79241426D01*
X125387142Y-79241426D02*
X125358571Y-79174760D01*
X125358571Y-79174760D02*
X125329999Y-79041426D01*
X125329999Y-79041426D02*
X125329999Y-78908093D01*
X125329999Y-78908093D02*
X125358571Y-78774760D01*
X125358571Y-78774760D02*
X125387142Y-78708093D01*
X125387142Y-78708093D02*
X125444285Y-78641426D01*
X125444285Y-78641426D02*
X125587142Y-78641426D01*
X125587142Y-78641426D02*
X125672856Y-78708093D01*
X125901428Y-79974760D02*
X125987143Y-80041426D01*
X125987143Y-80041426D02*
X126130000Y-80041426D01*
X126130000Y-80041426D02*
X126187143Y-79974760D01*
X126187143Y-79974760D02*
X126215714Y-79908093D01*
X126215714Y-79908093D02*
X126244285Y-79774760D01*
X126244285Y-79774760D02*
X126244285Y-79641426D01*
X126244285Y-79641426D02*
X126215714Y-79508093D01*
X126215714Y-79508093D02*
X126187143Y-79441426D01*
X126187143Y-79441426D02*
X126130000Y-79374760D01*
X126130000Y-79374760D02*
X126015714Y-79308093D01*
X126015714Y-79308093D02*
X125958571Y-79241426D01*
X125958571Y-79241426D02*
X125930000Y-79174760D01*
X125930000Y-79174760D02*
X125901428Y-79041426D01*
X125901428Y-79041426D02*
X125901428Y-78908093D01*
X125901428Y-78908093D02*
X125930000Y-78774760D01*
X125930000Y-78774760D02*
X125958571Y-78708093D01*
X125958571Y-78708093D02*
X126015714Y-78641426D01*
X126015714Y-78641426D02*
X126158571Y-78641426D01*
X126158571Y-78641426D02*
X126244285Y-78708093D01*
X117515714Y-79908093D02*
X117487142Y-79974760D01*
X117487142Y-79974760D02*
X117401428Y-80041426D01*
X117401428Y-80041426D02*
X117344285Y-80041426D01*
X117344285Y-80041426D02*
X117258571Y-79974760D01*
X117258571Y-79974760D02*
X117201428Y-79841426D01*
X117201428Y-79841426D02*
X117172857Y-79708093D01*
X117172857Y-79708093D02*
X117144285Y-79441426D01*
X117144285Y-79441426D02*
X117144285Y-79241426D01*
X117144285Y-79241426D02*
X117172857Y-78974760D01*
X117172857Y-78974760D02*
X117201428Y-78841426D01*
X117201428Y-78841426D02*
X117258571Y-78708093D01*
X117258571Y-78708093D02*
X117344285Y-78641426D01*
X117344285Y-78641426D02*
X117401428Y-78641426D01*
X117401428Y-78641426D02*
X117487142Y-78708093D01*
X117487142Y-78708093D02*
X117515714Y-78774760D01*
X118087142Y-80041426D02*
X117744285Y-80041426D01*
X117915714Y-80041426D02*
X117915714Y-78641426D01*
X117915714Y-78641426D02*
X117858571Y-78841426D01*
X117858571Y-78841426D02*
X117801428Y-78974760D01*
X117801428Y-78974760D02*
X117744285Y-79041426D01*
X118344286Y-80041426D02*
X118344286Y-78641426D01*
X118344286Y-78641426D02*
X118687143Y-80041426D01*
X118687143Y-80041426D02*
X118687143Y-78641426D01*
D10*
X141554819Y-111733332D02*
X141078628Y-111999999D01*
X141554819Y-112190475D02*
X140554819Y-112190475D01*
X140554819Y-112190475D02*
X140554819Y-111885713D01*
X140554819Y-111885713D02*
X140602438Y-111809523D01*
X140602438Y-111809523D02*
X140650057Y-111771428D01*
X140650057Y-111771428D02*
X140745295Y-111733332D01*
X140745295Y-111733332D02*
X140888152Y-111733332D01*
X140888152Y-111733332D02*
X140983390Y-111771428D01*
X140983390Y-111771428D02*
X141031009Y-111809523D01*
X141031009Y-111809523D02*
X141078628Y-111885713D01*
X141078628Y-111885713D02*
X141078628Y-112190475D01*
X140888152Y-111047618D02*
X141554819Y-111047618D01*
X140507200Y-111238094D02*
X141221485Y-111428571D01*
X141221485Y-111428571D02*
X141221485Y-110933332D01*
X140454819Y-106971428D02*
X140454819Y-106476190D01*
X140454819Y-106476190D02*
X140835771Y-106742856D01*
X140835771Y-106742856D02*
X140835771Y-106628571D01*
X140835771Y-106628571D02*
X140883390Y-106552380D01*
X140883390Y-106552380D02*
X140931009Y-106514285D01*
X140931009Y-106514285D02*
X141026247Y-106476190D01*
X141026247Y-106476190D02*
X141264342Y-106476190D01*
X141264342Y-106476190D02*
X141359580Y-106514285D01*
X141359580Y-106514285D02*
X141407200Y-106552380D01*
X141407200Y-106552380D02*
X141454819Y-106628571D01*
X141454819Y-106628571D02*
X141454819Y-106857142D01*
X141454819Y-106857142D02*
X141407200Y-106933333D01*
X141407200Y-106933333D02*
X141359580Y-106971428D01*
X140454819Y-106209523D02*
X140454819Y-105714285D01*
X140454819Y-105714285D02*
X140835771Y-105980951D01*
X140835771Y-105980951D02*
X140835771Y-105866666D01*
X140835771Y-105866666D02*
X140883390Y-105790475D01*
X140883390Y-105790475D02*
X140931009Y-105752380D01*
X140931009Y-105752380D02*
X141026247Y-105714285D01*
X141026247Y-105714285D02*
X141264342Y-105714285D01*
X141264342Y-105714285D02*
X141359580Y-105752380D01*
X141359580Y-105752380D02*
X141407200Y-105790475D01*
X141407200Y-105790475D02*
X141454819Y-105866666D01*
X141454819Y-105866666D02*
X141454819Y-106095237D01*
X141454819Y-106095237D02*
X141407200Y-106171428D01*
X141407200Y-106171428D02*
X141359580Y-106209523D01*
X141454819Y-105371427D02*
X140454819Y-105371427D01*
X141073866Y-105295237D02*
X141454819Y-105066665D01*
X140788152Y-105066665D02*
X141169104Y-105371427D01*
X123500000Y-116939866D02*
X123933333Y-116939866D01*
X123933333Y-116939866D02*
X123700000Y-117473200D01*
X123700000Y-117473200D02*
X123800000Y-117473200D01*
X123800000Y-117473200D02*
X123866666Y-117539866D01*
X123866666Y-117539866D02*
X123900000Y-117606533D01*
X123900000Y-117606533D02*
X123933333Y-117739866D01*
X123933333Y-117739866D02*
X123933333Y-118073200D01*
X123933333Y-118073200D02*
X123900000Y-118206533D01*
X123900000Y-118206533D02*
X123866666Y-118273200D01*
X123866666Y-118273200D02*
X123800000Y-118339866D01*
X123800000Y-118339866D02*
X123600000Y-118339866D01*
X123600000Y-118339866D02*
X123533333Y-118273200D01*
X123533333Y-118273200D02*
X123500000Y-118206533D01*
X124233333Y-118206533D02*
X124266667Y-118273200D01*
X124266667Y-118273200D02*
X124233333Y-118339866D01*
X124233333Y-118339866D02*
X124200000Y-118273200D01*
X124200000Y-118273200D02*
X124233333Y-118206533D01*
X124233333Y-118206533D02*
X124233333Y-118339866D01*
X124500000Y-116939866D02*
X124933333Y-116939866D01*
X124933333Y-116939866D02*
X124700000Y-117473200D01*
X124700000Y-117473200D02*
X124800000Y-117473200D01*
X124800000Y-117473200D02*
X124866666Y-117539866D01*
X124866666Y-117539866D02*
X124900000Y-117606533D01*
X124900000Y-117606533D02*
X124933333Y-117739866D01*
X124933333Y-117739866D02*
X124933333Y-118073200D01*
X124933333Y-118073200D02*
X124900000Y-118206533D01*
X124900000Y-118206533D02*
X124866666Y-118273200D01*
X124866666Y-118273200D02*
X124800000Y-118339866D01*
X124800000Y-118339866D02*
X124600000Y-118339866D01*
X124600000Y-118339866D02*
X124533333Y-118273200D01*
X124533333Y-118273200D02*
X124500000Y-118206533D01*
X125166667Y-117406533D02*
X125333333Y-118339866D01*
X125333333Y-118339866D02*
X125500000Y-117406533D01*
X116366667Y-52154819D02*
X116100000Y-51678628D01*
X115909524Y-52154819D02*
X115909524Y-51154819D01*
X115909524Y-51154819D02*
X116214286Y-51154819D01*
X116214286Y-51154819D02*
X116290476Y-51202438D01*
X116290476Y-51202438D02*
X116328571Y-51250057D01*
X116328571Y-51250057D02*
X116366667Y-51345295D01*
X116366667Y-51345295D02*
X116366667Y-51488152D01*
X116366667Y-51488152D02*
X116328571Y-51583390D01*
X116328571Y-51583390D02*
X116290476Y-51631009D01*
X116290476Y-51631009D02*
X116214286Y-51678628D01*
X116214286Y-51678628D02*
X115909524Y-51678628D01*
X116747619Y-52154819D02*
X116900000Y-52154819D01*
X116900000Y-52154819D02*
X116976190Y-52107200D01*
X116976190Y-52107200D02*
X117014286Y-52059580D01*
X117014286Y-52059580D02*
X117090476Y-51916723D01*
X117090476Y-51916723D02*
X117128571Y-51726247D01*
X117128571Y-51726247D02*
X117128571Y-51345295D01*
X117128571Y-51345295D02*
X117090476Y-51250057D01*
X117090476Y-51250057D02*
X117052381Y-51202438D01*
X117052381Y-51202438D02*
X116976190Y-51154819D01*
X116976190Y-51154819D02*
X116823809Y-51154819D01*
X116823809Y-51154819D02*
X116747619Y-51202438D01*
X116747619Y-51202438D02*
X116709524Y-51250057D01*
X116709524Y-51250057D02*
X116671428Y-51345295D01*
X116671428Y-51345295D02*
X116671428Y-51583390D01*
X116671428Y-51583390D02*
X116709524Y-51678628D01*
X116709524Y-51678628D02*
X116747619Y-51726247D01*
X116747619Y-51726247D02*
X116823809Y-51773866D01*
X116823809Y-51773866D02*
X116976190Y-51773866D01*
X116976190Y-51773866D02*
X117052381Y-51726247D01*
X117052381Y-51726247D02*
X117090476Y-51678628D01*
X117090476Y-51678628D02*
X117128571Y-51583390D01*
X115642856Y-53954819D02*
X115185713Y-53954819D01*
X115414285Y-53954819D02*
X115414285Y-52954819D01*
X115414285Y-52954819D02*
X115338094Y-53097676D01*
X115338094Y-53097676D02*
X115261904Y-53192914D01*
X115261904Y-53192914D02*
X115185713Y-53240533D01*
X116138095Y-52954819D02*
X116214285Y-52954819D01*
X116214285Y-52954819D02*
X116290476Y-53002438D01*
X116290476Y-53002438D02*
X116328571Y-53050057D01*
X116328571Y-53050057D02*
X116366666Y-53145295D01*
X116366666Y-53145295D02*
X116404761Y-53335771D01*
X116404761Y-53335771D02*
X116404761Y-53573866D01*
X116404761Y-53573866D02*
X116366666Y-53764342D01*
X116366666Y-53764342D02*
X116328571Y-53859580D01*
X116328571Y-53859580D02*
X116290476Y-53907200D01*
X116290476Y-53907200D02*
X116214285Y-53954819D01*
X116214285Y-53954819D02*
X116138095Y-53954819D01*
X116138095Y-53954819D02*
X116061904Y-53907200D01*
X116061904Y-53907200D02*
X116023809Y-53859580D01*
X116023809Y-53859580D02*
X115985714Y-53764342D01*
X115985714Y-53764342D02*
X115947618Y-53573866D01*
X115947618Y-53573866D02*
X115947618Y-53335771D01*
X115947618Y-53335771D02*
X115985714Y-53145295D01*
X115985714Y-53145295D02*
X116023809Y-53050057D01*
X116023809Y-53050057D02*
X116061904Y-53002438D01*
X116061904Y-53002438D02*
X116138095Y-52954819D01*
X116900000Y-52954819D02*
X116976190Y-52954819D01*
X116976190Y-52954819D02*
X117052381Y-53002438D01*
X117052381Y-53002438D02*
X117090476Y-53050057D01*
X117090476Y-53050057D02*
X117128571Y-53145295D01*
X117128571Y-53145295D02*
X117166666Y-53335771D01*
X117166666Y-53335771D02*
X117166666Y-53573866D01*
X117166666Y-53573866D02*
X117128571Y-53764342D01*
X117128571Y-53764342D02*
X117090476Y-53859580D01*
X117090476Y-53859580D02*
X117052381Y-53907200D01*
X117052381Y-53907200D02*
X116976190Y-53954819D01*
X116976190Y-53954819D02*
X116900000Y-53954819D01*
X116900000Y-53954819D02*
X116823809Y-53907200D01*
X116823809Y-53907200D02*
X116785714Y-53859580D01*
X116785714Y-53859580D02*
X116747619Y-53764342D01*
X116747619Y-53764342D02*
X116709523Y-53573866D01*
X116709523Y-53573866D02*
X116709523Y-53335771D01*
X116709523Y-53335771D02*
X116747619Y-53145295D01*
X116747619Y-53145295D02*
X116785714Y-53050057D01*
X116785714Y-53050057D02*
X116823809Y-53002438D01*
X116823809Y-53002438D02*
X116900000Y-52954819D01*
X117509524Y-53954819D02*
X117509524Y-52954819D01*
X117585714Y-53573866D02*
X117814286Y-53954819D01*
X117814286Y-53288152D02*
X117509524Y-53669104D01*
X105766667Y-84154819D02*
X105500000Y-83678628D01*
X105309524Y-84154819D02*
X105309524Y-83154819D01*
X105309524Y-83154819D02*
X105614286Y-83154819D01*
X105614286Y-83154819D02*
X105690476Y-83202438D01*
X105690476Y-83202438D02*
X105728571Y-83250057D01*
X105728571Y-83250057D02*
X105766667Y-83345295D01*
X105766667Y-83345295D02*
X105766667Y-83488152D01*
X105766667Y-83488152D02*
X105728571Y-83583390D01*
X105728571Y-83583390D02*
X105690476Y-83631009D01*
X105690476Y-83631009D02*
X105614286Y-83678628D01*
X105614286Y-83678628D02*
X105309524Y-83678628D01*
X106223809Y-83583390D02*
X106147619Y-83535771D01*
X106147619Y-83535771D02*
X106109524Y-83488152D01*
X106109524Y-83488152D02*
X106071428Y-83392914D01*
X106071428Y-83392914D02*
X106071428Y-83345295D01*
X106071428Y-83345295D02*
X106109524Y-83250057D01*
X106109524Y-83250057D02*
X106147619Y-83202438D01*
X106147619Y-83202438D02*
X106223809Y-83154819D01*
X106223809Y-83154819D02*
X106376190Y-83154819D01*
X106376190Y-83154819D02*
X106452381Y-83202438D01*
X106452381Y-83202438D02*
X106490476Y-83250057D01*
X106490476Y-83250057D02*
X106528571Y-83345295D01*
X106528571Y-83345295D02*
X106528571Y-83392914D01*
X106528571Y-83392914D02*
X106490476Y-83488152D01*
X106490476Y-83488152D02*
X106452381Y-83535771D01*
X106452381Y-83535771D02*
X106376190Y-83583390D01*
X106376190Y-83583390D02*
X106223809Y-83583390D01*
X106223809Y-83583390D02*
X106147619Y-83631009D01*
X106147619Y-83631009D02*
X106109524Y-83678628D01*
X106109524Y-83678628D02*
X106071428Y-83773866D01*
X106071428Y-83773866D02*
X106071428Y-83964342D01*
X106071428Y-83964342D02*
X106109524Y-84059580D01*
X106109524Y-84059580D02*
X106147619Y-84107200D01*
X106147619Y-84107200D02*
X106223809Y-84154819D01*
X106223809Y-84154819D02*
X106376190Y-84154819D01*
X106376190Y-84154819D02*
X106452381Y-84107200D01*
X106452381Y-84107200D02*
X106490476Y-84059580D01*
X106490476Y-84059580D02*
X106528571Y-83964342D01*
X106528571Y-83964342D02*
X106528571Y-83773866D01*
X106528571Y-83773866D02*
X106490476Y-83678628D01*
X106490476Y-83678628D02*
X106452381Y-83631009D01*
X106452381Y-83631009D02*
X106376190Y-83583390D01*
X106454819Y-89533333D02*
X106454819Y-89990476D01*
X106454819Y-89761904D02*
X105454819Y-89761904D01*
X105454819Y-89761904D02*
X105597676Y-89838095D01*
X105597676Y-89838095D02*
X105692914Y-89914285D01*
X105692914Y-89914285D02*
X105740533Y-89990476D01*
X105454819Y-89038094D02*
X105454819Y-88961904D01*
X105454819Y-88961904D02*
X105502438Y-88885713D01*
X105502438Y-88885713D02*
X105550057Y-88847618D01*
X105550057Y-88847618D02*
X105645295Y-88809523D01*
X105645295Y-88809523D02*
X105835771Y-88771428D01*
X105835771Y-88771428D02*
X106073866Y-88771428D01*
X106073866Y-88771428D02*
X106264342Y-88809523D01*
X106264342Y-88809523D02*
X106359580Y-88847618D01*
X106359580Y-88847618D02*
X106407200Y-88885713D01*
X106407200Y-88885713D02*
X106454819Y-88961904D01*
X106454819Y-88961904D02*
X106454819Y-89038094D01*
X106454819Y-89038094D02*
X106407200Y-89114285D01*
X106407200Y-89114285D02*
X106359580Y-89152380D01*
X106359580Y-89152380D02*
X106264342Y-89190475D01*
X106264342Y-89190475D02*
X106073866Y-89228571D01*
X106073866Y-89228571D02*
X105835771Y-89228571D01*
X105835771Y-89228571D02*
X105645295Y-89190475D01*
X105645295Y-89190475D02*
X105550057Y-89152380D01*
X105550057Y-89152380D02*
X105502438Y-89114285D01*
X105502438Y-89114285D02*
X105454819Y-89038094D01*
X105454819Y-88276189D02*
X105454819Y-88199999D01*
X105454819Y-88199999D02*
X105502438Y-88123808D01*
X105502438Y-88123808D02*
X105550057Y-88085713D01*
X105550057Y-88085713D02*
X105645295Y-88047618D01*
X105645295Y-88047618D02*
X105835771Y-88009523D01*
X105835771Y-88009523D02*
X106073866Y-88009523D01*
X106073866Y-88009523D02*
X106264342Y-88047618D01*
X106264342Y-88047618D02*
X106359580Y-88085713D01*
X106359580Y-88085713D02*
X106407200Y-88123808D01*
X106407200Y-88123808D02*
X106454819Y-88199999D01*
X106454819Y-88199999D02*
X106454819Y-88276189D01*
X106454819Y-88276189D02*
X106407200Y-88352380D01*
X106407200Y-88352380D02*
X106359580Y-88390475D01*
X106359580Y-88390475D02*
X106264342Y-88428570D01*
X106264342Y-88428570D02*
X106073866Y-88466666D01*
X106073866Y-88466666D02*
X105835771Y-88466666D01*
X105835771Y-88466666D02*
X105645295Y-88428570D01*
X105645295Y-88428570D02*
X105550057Y-88390475D01*
X105550057Y-88390475D02*
X105502438Y-88352380D01*
X105502438Y-88352380D02*
X105454819Y-88276189D01*
D12*
X102962733Y-97033333D02*
X104362733Y-97033333D01*
X103096066Y-98500000D02*
X103029400Y-98433333D01*
X103029400Y-98433333D02*
X102962733Y-98233333D01*
X102962733Y-98233333D02*
X102962733Y-98100000D01*
X102962733Y-98100000D02*
X103029400Y-97900000D01*
X103029400Y-97900000D02*
X103162733Y-97766667D01*
X103162733Y-97766667D02*
X103296066Y-97700000D01*
X103296066Y-97700000D02*
X103562733Y-97633333D01*
X103562733Y-97633333D02*
X103762733Y-97633333D01*
X103762733Y-97633333D02*
X104029400Y-97700000D01*
X104029400Y-97700000D02*
X104162733Y-97766667D01*
X104162733Y-97766667D02*
X104296066Y-97900000D01*
X104296066Y-97900000D02*
X104362733Y-98100000D01*
X104362733Y-98100000D02*
X104362733Y-98233333D01*
X104362733Y-98233333D02*
X104296066Y-98433333D01*
X104296066Y-98433333D02*
X104229400Y-98500000D01*
X103029400Y-99033333D02*
X102962733Y-99233333D01*
X102962733Y-99233333D02*
X102962733Y-99566667D01*
X102962733Y-99566667D02*
X103029400Y-99700000D01*
X103029400Y-99700000D02*
X103096066Y-99766667D01*
X103096066Y-99766667D02*
X103229400Y-99833333D01*
X103229400Y-99833333D02*
X103362733Y-99833333D01*
X103362733Y-99833333D02*
X103496066Y-99766667D01*
X103496066Y-99766667D02*
X103562733Y-99700000D01*
X103562733Y-99700000D02*
X103629400Y-99566667D01*
X103629400Y-99566667D02*
X103696066Y-99300000D01*
X103696066Y-99300000D02*
X103762733Y-99166667D01*
X103762733Y-99166667D02*
X103829400Y-99100000D01*
X103829400Y-99100000D02*
X103962733Y-99033333D01*
X103962733Y-99033333D02*
X104096066Y-99033333D01*
X104096066Y-99033333D02*
X104229400Y-99100000D01*
X104229400Y-99100000D02*
X104296066Y-99166667D01*
X104296066Y-99166667D02*
X104362733Y-99300000D01*
X104362733Y-99300000D02*
X104362733Y-99633333D01*
X104362733Y-99633333D02*
X104296066Y-99833333D01*
X102962733Y-100433333D02*
X104362733Y-100433333D01*
X104362733Y-100433333D02*
X104362733Y-100966666D01*
X104362733Y-100966666D02*
X104296066Y-101100000D01*
X104296066Y-101100000D02*
X104229400Y-101166666D01*
X104229400Y-101166666D02*
X104096066Y-101233333D01*
X104096066Y-101233333D02*
X103896066Y-101233333D01*
X103896066Y-101233333D02*
X103762733Y-101166666D01*
X103762733Y-101166666D02*
X103696066Y-101100000D01*
X103696066Y-101100000D02*
X103629400Y-100966666D01*
X103629400Y-100966666D02*
X103629400Y-100433333D01*
X130441101Y-107868600D02*
X130598244Y-107930504D01*
X130598244Y-107930504D02*
X130860149Y-107930504D01*
X130860149Y-107930504D02*
X130964911Y-107868600D01*
X130964911Y-107868600D02*
X131017292Y-107806695D01*
X131017292Y-107806695D02*
X131069673Y-107682885D01*
X131069673Y-107682885D02*
X131069673Y-107559076D01*
X131069673Y-107559076D02*
X131017292Y-107435266D01*
X131017292Y-107435266D02*
X130964911Y-107373361D01*
X130964911Y-107373361D02*
X130860149Y-107311457D01*
X130860149Y-107311457D02*
X130650625Y-107249552D01*
X130650625Y-107249552D02*
X130545863Y-107187647D01*
X130545863Y-107187647D02*
X130493482Y-107125742D01*
X130493482Y-107125742D02*
X130441101Y-107001933D01*
X130441101Y-107001933D02*
X130441101Y-106878123D01*
X130441101Y-106878123D02*
X130493482Y-106754314D01*
X130493482Y-106754314D02*
X130545863Y-106692409D01*
X130545863Y-106692409D02*
X130650625Y-106630504D01*
X130650625Y-106630504D02*
X130912530Y-106630504D01*
X130912530Y-106630504D02*
X131069673Y-106692409D01*
X131541101Y-107930504D02*
X131541101Y-106630504D01*
X131541101Y-106630504D02*
X131960149Y-106630504D01*
X131960149Y-106630504D02*
X132064911Y-106692409D01*
X132064911Y-106692409D02*
X132117292Y-106754314D01*
X132117292Y-106754314D02*
X132169673Y-106878123D01*
X132169673Y-106878123D02*
X132169673Y-107063838D01*
X132169673Y-107063838D02*
X132117292Y-107187647D01*
X132117292Y-107187647D02*
X132064911Y-107249552D01*
X132064911Y-107249552D02*
X131960149Y-107311457D01*
X131960149Y-107311457D02*
X131541101Y-107311457D01*
X132641101Y-107249552D02*
X133007768Y-107249552D01*
X133164911Y-107930504D02*
X132641101Y-107930504D01*
X132641101Y-107930504D02*
X132641101Y-106630504D01*
X132641101Y-106630504D02*
X133164911Y-106630504D01*
X133583958Y-107559076D02*
X134107768Y-107559076D01*
X133479196Y-107930504D02*
X133845863Y-106630504D01*
X133845863Y-106630504D02*
X134212530Y-107930504D01*
X134579196Y-107930504D02*
X134579196Y-106630504D01*
X135207768Y-107930504D02*
X134736339Y-107187647D01*
X135207768Y-106630504D02*
X134579196Y-107373361D01*
X135679196Y-107249552D02*
X136045863Y-107249552D01*
X136203006Y-107930504D02*
X135679196Y-107930504D01*
X135679196Y-107930504D02*
X135679196Y-106630504D01*
X135679196Y-106630504D02*
X136203006Y-106630504D01*
X137303006Y-107930504D02*
X136936339Y-107311457D01*
X136674434Y-107930504D02*
X136674434Y-106630504D01*
X136674434Y-106630504D02*
X137093482Y-106630504D01*
X137093482Y-106630504D02*
X137198244Y-106692409D01*
X137198244Y-106692409D02*
X137250625Y-106754314D01*
X137250625Y-106754314D02*
X137303006Y-106878123D01*
X137303006Y-106878123D02*
X137303006Y-107063838D01*
X137303006Y-107063838D02*
X137250625Y-107187647D01*
X137250625Y-107187647D02*
X137198244Y-107249552D01*
X137198244Y-107249552D02*
X137093482Y-107311457D01*
X137093482Y-107311457D02*
X136674434Y-107311457D01*
D14*
X109960000Y-101890000D02*
X109960000Y-84110000D01*
X111230000Y-101890000D02*
X111230000Y-100620000D01*
X115040000Y-101890000D02*
X109960000Y-101890000D01*
X115040000Y-101890000D02*
X115040000Y-84110000D01*
X111230000Y-100620000D02*
X113770000Y-100620000D01*
X113770000Y-100620000D02*
X113770000Y-101890000D01*
X109960000Y-84110000D02*
X115040000Y-84110000D01*
D11*
X116056000Y-101890000D02*
G75*
G03*
X116056000Y-101890000I-1016000J0D01*
G01*
X120000000Y-98000000D02*
X123000000Y-98000000D01*
X120000000Y-104000000D02*
X120000000Y-98000000D01*
X123000000Y-98000000D02*
X126000000Y-98000000D01*
X126000000Y-98000000D02*
X126000000Y-104000000D01*
X126000000Y-104000000D02*
X120000000Y-104000000D01*
X125000000Y-101000000D02*
G75*
G03*
X125000000Y-101000000I-2000000J0D01*
G01*
D15*
X138500000Y-97000000D02*
X145500000Y-97000000D01*
X138500000Y-98500000D02*
X138500000Y-97000000D01*
X138500000Y-101000000D02*
X138500000Y-98500000D01*
X142000000Y-97000000D02*
X142000000Y-98000000D01*
X142000000Y-101000000D02*
X142000000Y-100000000D01*
X145500000Y-97000000D02*
X145500000Y-101000000D01*
X145500000Y-101000000D02*
X138500000Y-101000000D01*
X142600000Y-109064000D02*
X142600000Y-102936000D01*
D16*
X143150000Y-109064000D02*
X142600000Y-108556000D01*
X144400000Y-109064000D02*
X142600000Y-109064000D01*
D15*
X144400000Y-109064000D02*
X144400000Y-102936000D01*
D16*
X142600000Y-102936000D02*
X144400000Y-102936000D01*
D17*
X143350000Y-109370000D02*
X143650000Y-109370000D01*
X143650000Y-109370000D02*
X143650000Y-109090000D01*
X143650000Y-109090000D02*
X143350000Y-109090000D01*
X143350000Y-109090000D02*
X143350000Y-109370000D01*
G36*
X143350000Y-109370000D02*
G01*
X143650000Y-109370000D01*
X143650000Y-109090000D01*
X143350000Y-109090000D01*
X143350000Y-109370000D01*
G37*
X143350000Y-102910000D02*
X143650000Y-102910000D01*
X143650000Y-102910000D02*
X143650000Y-102630000D01*
X143650000Y-102630000D02*
X143350000Y-102630000D01*
X143350000Y-102630000D02*
X143350000Y-102910000D01*
G36*
X143350000Y-102910000D02*
G01*
X143650000Y-102910000D01*
X143650000Y-102630000D01*
X143350000Y-102630000D01*
X143350000Y-102910000D01*
G37*
X131959921Y-92700000D02*
X132159921Y-92700000D01*
X132159921Y-92700000D02*
X132159921Y-92230000D01*
X132159921Y-92230000D02*
X131959921Y-92230000D01*
X131959921Y-92230000D02*
X131959921Y-92700000D01*
G36*
X131959921Y-92700000D02*
G01*
X132159921Y-92700000D01*
X132159921Y-92230000D01*
X131959921Y-92230000D01*
X131959921Y-92700000D01*
G37*
X131959921Y-85765000D02*
X132159921Y-85765000D01*
X132159921Y-85765000D02*
X132159921Y-85295000D01*
X132159921Y-85295000D02*
X131959921Y-85295000D01*
X131959921Y-85295000D02*
X131959921Y-85765000D01*
G36*
X131959921Y-85765000D02*
G01*
X132159921Y-85765000D01*
X132159921Y-85295000D01*
X131959921Y-85295000D01*
X131959921Y-85765000D01*
G37*
D10*
X132061759Y-92288770D02*
G75*
G03*
X131559500Y-90600212I-102260J888560D01*
G01*
X131559921Y-90600000D02*
G75*
G03*
X131560341Y-88999792I399998J799999D01*
G01*
X131560342Y-88999791D02*
G75*
G03*
X131560762Y-87399584I399996J799999D01*
G01*
X131559501Y-87400207D02*
G75*
G03*
X132061759Y-85711650I400000J799997D01*
G01*
D11*
X120000000Y-110000000D02*
X123000000Y-110000000D01*
X120000000Y-116000000D02*
X120000000Y-110000000D01*
X123000000Y-110000000D02*
X126000000Y-110000000D01*
X126000000Y-110000000D02*
X126000000Y-116000000D01*
X126000000Y-116000000D02*
X120000000Y-116000000D01*
X125000000Y-113000000D02*
G75*
G03*
X125000000Y-113000000I-2000000J0D01*
G01*
D17*
X128900000Y-92700000D02*
X129100000Y-92700000D01*
X129100000Y-92700000D02*
X129100000Y-92230000D01*
X129100000Y-92230000D02*
X128900000Y-92230000D01*
X128900000Y-92230000D02*
X128900000Y-92700000D01*
G36*
X128900000Y-92700000D02*
G01*
X129100000Y-92700000D01*
X129100000Y-92230000D01*
X128900000Y-92230000D01*
X128900000Y-92700000D01*
G37*
X128900000Y-85765000D02*
X129100000Y-85765000D01*
X129100000Y-85765000D02*
X129100000Y-85295000D01*
X129100000Y-85295000D02*
X128900000Y-85295000D01*
X128900000Y-85295000D02*
X128900000Y-85765000D01*
G36*
X128900000Y-85765000D02*
G01*
X129100000Y-85765000D01*
X129100000Y-85295000D01*
X128900000Y-85295000D01*
X128900000Y-85765000D01*
G37*
D10*
X129001838Y-92288770D02*
G75*
G03*
X128499579Y-90600212I-102260J888560D01*
G01*
X128500000Y-90600000D02*
G75*
G03*
X128500420Y-88999792I399998J799999D01*
G01*
X128500421Y-88999791D02*
G75*
G03*
X128500841Y-87399584I399996J799999D01*
G01*
X128499580Y-87400207D02*
G75*
G03*
X129001838Y-85711650I400000J799997D01*
G01*
D11*
X137000000Y-54000000D02*
X131000000Y-54000000D01*
X137000000Y-54000000D02*
X137000000Y-56000000D01*
X131000000Y-54000000D02*
X131000000Y-56000000D01*
X137000000Y-56000000D02*
X131000000Y-56000000D01*
D15*
X137064000Y-52900000D02*
X130936000Y-52900000D01*
D16*
X137064000Y-52350000D02*
X136556000Y-52900000D01*
X137064000Y-51100000D02*
X137064000Y-52900000D01*
D15*
X137064000Y-51100000D02*
X130936000Y-51100000D01*
D16*
X130936000Y-52900000D02*
X130936000Y-51100000D01*
D17*
X137370000Y-52150000D02*
X137090000Y-52150000D01*
X137090000Y-52150000D02*
X137090000Y-51850000D01*
X137090000Y-51850000D02*
X137370000Y-51850000D01*
X137370000Y-51850000D02*
X137370000Y-52150000D01*
G36*
X137370000Y-52150000D02*
G01*
X137090000Y-52150000D01*
X137090000Y-51850000D01*
X137370000Y-51850000D01*
X137370000Y-52150000D01*
G37*
X130910000Y-52150000D02*
X130630000Y-52150000D01*
X130630000Y-52150000D02*
X130630000Y-51850000D01*
X130630000Y-51850000D02*
X130910000Y-51850000D01*
X130910000Y-51850000D02*
X130910000Y-52150000D01*
G36*
X130910000Y-52150000D02*
G01*
X130630000Y-52150000D01*
X130630000Y-51850000D01*
X130910000Y-51850000D01*
X130910000Y-52150000D01*
G37*
D11*
X126000000Y-92000000D02*
X123000000Y-92000000D01*
X126000000Y-86000000D02*
X126000000Y-92000000D01*
X123000000Y-92000000D02*
X120000000Y-92000000D01*
X120000000Y-92000000D02*
X120000000Y-86000000D01*
X120000000Y-86000000D02*
X126000000Y-86000000D01*
X125000000Y-89000000D02*
G75*
G03*
X125000000Y-89000000I-2000000J0D01*
G01*
D15*
X121000000Y-56400000D02*
X121000000Y-54600000D01*
X121000000Y-56400000D02*
X114000000Y-56400000D01*
X121000000Y-55800000D02*
X120400000Y-56400000D01*
X121000000Y-54600000D02*
X114000000Y-54600000D01*
X114000000Y-56400000D02*
X114000000Y-54600000D01*
D18*
X106920000Y-110856000D02*
X106920000Y-115936000D01*
X106920000Y-120000000D02*
X106920000Y-115936000D01*
D10*
X107000000Y-113500000D02*
X117000000Y-113500000D01*
D18*
X107428000Y-120000000D02*
X106920000Y-120000000D01*
X107936000Y-117460000D02*
X107936000Y-120000000D01*
D15*
X109000000Y-109500000D02*
X111000000Y-109500000D01*
X110000000Y-108500000D02*
X110000000Y-110500000D01*
D18*
X110984000Y-117460000D02*
X110984000Y-120000000D01*
D15*
X113000000Y-109500000D02*
X115000000Y-109500000D01*
D18*
X113016000Y-117460000D02*
X113016000Y-120000000D01*
X115556000Y-120000000D02*
X107428000Y-120000000D01*
X116064000Y-117460000D02*
X116064000Y-120000000D01*
X117080000Y-110856000D02*
X106920000Y-110856000D01*
X117080000Y-110856000D02*
X117080000Y-115936000D01*
X117080000Y-115936000D02*
X117080000Y-120000000D01*
X117080000Y-120000000D02*
X115556000Y-120000000D01*
X111492000Y-115936000D02*
G75*
G03*
X111492000Y-115936000I-2032000J0D01*
G01*
D12*
X111300000Y-109500000D02*
G75*
G03*
X111300000Y-109500000I-1300000J0D01*
G01*
X115300000Y-109500000D02*
G75*
G03*
X115300000Y-109500000I-1300000J0D01*
G01*
D18*
X116572000Y-115936000D02*
G75*
G03*
X116572000Y-115936000I-2032000J0D01*
G01*
D15*
X148500000Y-84000000D02*
X134200000Y-84000000D01*
X134200000Y-84000000D02*
X134200000Y-97000000D01*
X134200000Y-97000000D02*
X148500000Y-97000000D01*
X148500000Y-97000000D02*
X148500000Y-84000000D01*
D11*
X106000000Y-95800000D02*
X106000000Y-97200000D01*
X106000000Y-103800000D02*
X106000000Y-105100000D01*
D10*
X106097740Y-97211440D02*
G75*
G03*
X106599999Y-98899998I102260J-888560D01*
G01*
X106599577Y-98900212D02*
G75*
G03*
X106599158Y-100500417I-399997J-799998D01*
G01*
X106599155Y-100500422D02*
G75*
G03*
X106598737Y-102100627I-399995J-799998D01*
G01*
X106599999Y-102100002D02*
G75*
G03*
X106097740Y-103788560I-399999J-799998D01*
G01*
D15*
X122000000Y-52600000D02*
X122000000Y-54400000D01*
X122000000Y-52600000D02*
X129000000Y-52600000D01*
X122000000Y-53200000D02*
X122600000Y-52600000D01*
X122000000Y-54400000D02*
X129000000Y-54400000D01*
X129000000Y-52600000D02*
X129000000Y-54400000D01*
X122000000Y-54600000D02*
X122000000Y-56400000D01*
X122000000Y-54600000D02*
X129000000Y-54600000D01*
X122000000Y-55200000D02*
X122600000Y-54600000D01*
X122000000Y-56400000D02*
X129000000Y-56400000D01*
X129000000Y-54600000D02*
X129000000Y-56400000D01*
X102400000Y-58500000D02*
X143600000Y-58500000D01*
X102400000Y-74250000D02*
X143600000Y-74250000D01*
X102400000Y-81500000D02*
X102400000Y-58500000D01*
X111530000Y-81500000D02*
X102400000Y-81500000D01*
D11*
X112078000Y-76960000D02*
X113602000Y-76960000D01*
X112840000Y-77976000D02*
X112078000Y-76960000D01*
X113602000Y-76960000D02*
X112840000Y-77976000D01*
D15*
X143600000Y-58500000D02*
X143600000Y-81500000D01*
X143600000Y-81500000D02*
X134430000Y-81500000D01*
X101200000Y-57300000D02*
X144800000Y-57300000D01*
X144800000Y-57300000D02*
X144800000Y-82700000D01*
X144800000Y-82700000D02*
X101200000Y-82700000D01*
X101200000Y-82700000D02*
X101200000Y-57300000D01*
D19*
X103900000Y-61340000D02*
X142100000Y-61340000D01*
X142100000Y-61340000D02*
X142100000Y-71340000D01*
X142100000Y-71340000D02*
X103900000Y-71340000D01*
X103900000Y-71340000D02*
X103900000Y-61340000D01*
D15*
X143600000Y-62340000D02*
X144400000Y-62340000D01*
X144400000Y-62340000D02*
X144400000Y-70340000D01*
X144400000Y-70340000D02*
X143600000Y-70340000D01*
X143600000Y-70340000D02*
X143600000Y-62340000D01*
X141900000Y-102936000D02*
X141900000Y-109064000D01*
D16*
X141350000Y-102936000D02*
X141900000Y-103444000D01*
X140100000Y-102936000D02*
X141900000Y-102936000D01*
D15*
X140100000Y-102936000D02*
X140100000Y-109064000D01*
D16*
X141900000Y-109064000D02*
X140100000Y-109064000D01*
D17*
X141150000Y-102630000D02*
X140850000Y-102630000D01*
X140850000Y-102630000D02*
X140850000Y-102910000D01*
X140850000Y-102910000D02*
X141150000Y-102910000D01*
X141150000Y-102910000D02*
X141150000Y-102630000D01*
G36*
X141150000Y-102630000D02*
G01*
X140850000Y-102630000D01*
X140850000Y-102910000D01*
X141150000Y-102910000D01*
X141150000Y-102630000D01*
G37*
X141150000Y-109090000D02*
X140850000Y-109090000D01*
X140850000Y-109090000D02*
X140850000Y-109370000D01*
X140850000Y-109370000D02*
X141150000Y-109370000D01*
X141150000Y-109370000D02*
X141150000Y-109090000D01*
G36*
X141150000Y-109090000D02*
G01*
X140850000Y-109090000D01*
X140850000Y-109370000D01*
X141150000Y-109370000D01*
X141150000Y-109090000D01*
G37*
D15*
X119564000Y-54400000D02*
X113436000Y-54400000D01*
D16*
X119564000Y-53850000D02*
X119056000Y-54400000D01*
X119564000Y-52600000D02*
X119564000Y-54400000D01*
D15*
X119564000Y-52600000D02*
X113436000Y-52600000D01*
D16*
X113436000Y-54400000D02*
X113436000Y-52600000D01*
D17*
X119870000Y-53650000D02*
X119590000Y-53650000D01*
X119590000Y-53650000D02*
X119590000Y-53350000D01*
X119590000Y-53350000D02*
X119870000Y-53350000D01*
X119870000Y-53350000D02*
X119870000Y-53650000D01*
G36*
X119870000Y-53650000D02*
G01*
X119590000Y-53650000D01*
X119590000Y-53350000D01*
X119870000Y-53350000D01*
X119870000Y-53650000D01*
G37*
X113410000Y-53650000D02*
X113130000Y-53650000D01*
X113130000Y-53650000D02*
X113130000Y-53350000D01*
X113130000Y-53350000D02*
X113410000Y-53350000D01*
X113410000Y-53350000D02*
X113410000Y-53650000D01*
G36*
X113410000Y-53650000D02*
G01*
X113130000Y-53650000D01*
X113130000Y-53350000D01*
X113410000Y-53350000D01*
X113410000Y-53650000D01*
G37*
D15*
X106900000Y-85936000D02*
X106900000Y-92064000D01*
D16*
X106350000Y-85936000D02*
X106900000Y-86444000D01*
X105100000Y-85936000D02*
X106900000Y-85936000D01*
D15*
X105100000Y-85936000D02*
X105100000Y-92064000D01*
D16*
X106900000Y-92064000D02*
X105100000Y-92064000D01*
D17*
X106150000Y-85630000D02*
X105850000Y-85630000D01*
X105850000Y-85630000D02*
X105850000Y-85910000D01*
X105850000Y-85910000D02*
X106150000Y-85910000D01*
X106150000Y-85910000D02*
X106150000Y-85630000D01*
G36*
X106150000Y-85630000D02*
G01*
X105850000Y-85630000D01*
X105850000Y-85910000D01*
X106150000Y-85910000D01*
X106150000Y-85630000D01*
G37*
X106150000Y-92090000D02*
X105850000Y-92090000D01*
X105850000Y-92090000D02*
X105850000Y-92370000D01*
X105850000Y-92370000D02*
X106150000Y-92370000D01*
X106150000Y-92370000D02*
X106150000Y-92090000D01*
G36*
X106150000Y-92090000D02*
G01*
X105850000Y-92090000D01*
X105850000Y-92370000D01*
X106150000Y-92370000D01*
X106150000Y-92090000D01*
G37*
D11*
X100738000Y-107890000D02*
X101500000Y-106874000D01*
X102262000Y-107890000D02*
X100738000Y-107890000D01*
X101500000Y-106874000D02*
X102262000Y-107890000D01*
X100000000Y-106660000D02*
X104700000Y-106660000D01*
X102700000Y-106660000D02*
X102700000Y-91460000D01*
X104700000Y-106660000D02*
X104700000Y-91460000D01*
X104040000Y-106112000D02*
X103024000Y-105350000D01*
X103024000Y-105350000D02*
X104040000Y-104588000D01*
X104040000Y-104588000D02*
X104040000Y-106112000D01*
X100000000Y-91460000D02*
X100000000Y-106660000D01*
X104700000Y-91460000D02*
X100000000Y-91460000D01*
X139080000Y-120000000D02*
X139080000Y-110856000D01*
D10*
X139080000Y-113500000D02*
X128920000Y-113500000D01*
D11*
X139080000Y-110856000D02*
X128920000Y-110856000D01*
X138064000Y-117460000D02*
X138064000Y-120000000D01*
X135016000Y-120000000D02*
X135016000Y-117460000D01*
X132984000Y-120000000D02*
X132984000Y-117460000D01*
X129936000Y-117460000D02*
X129936000Y-120000000D01*
X128920000Y-120000000D02*
X139080000Y-120000000D01*
X128920000Y-110856000D02*
X128920000Y-120000000D01*
X138572000Y-115936000D02*
G75*
G03*
X138572000Y-115936000I-2032000J0D01*
G01*
X133492000Y-115936000D02*
G75*
G03*
X133492000Y-115936000I-2032000J0D01*
G01*
D20*
X106000000Y-95500000D03*
X106000000Y-105500000D03*
M02*
